<svg xmlns="http://www.w3.org/2000/svg" xmlns:xlink="http://www.w3.org/1999/xlink" viewBox="0 0 463.35 339.35" xmlns:v="https://vecta.io/nano"><style><![CDATA[.N{fill:#006bde}.O{fill:#f97853}.P{fill:#18315b}.Q{fill:#ffa681}.R{fill:#009cf8}.S{fill:#000b29}.T{fill:#fff}.U{fill:#ea5143}.V{fill:#264cbe}.W{fill:#1c31b5}]]></style><path d="M201.06 72.78C185.43 16.09 115-2.17 74.66 40.19l-1.74 1.86c-57.86 62.89-30.53 217.89 90.22 257.17s246.35-32.45 253.41-96.58-48.66-84.28-135.11-66.34c-48.84 10.13-70.65-28.23-80.38-63.52zm100.45 9.69c-16.16 2.63-20.63 17-8.16 27.1 4.12 3.36 10 6.15 18.4 7.54 31.95 5.3 48.91-8.84 36.1-27.17-7.85-11.31-30.33-10.07-46.34-7.47zM43.91 197c-10-12.93-24.75-10-27.7 5.81-1 5.22-.6 11.73 2.2 19.76 10.64 30.59 31.17 38.71 41.13 18.69 6.15-12.34-5.68-31.43-15.63-44.26zm384.02 13.09c-1.48 7.79 4.95 13.31 12.24 10.31a15.36 15.36 0 0 0 7-6.27c8.24-12.81 4.06-23.8-7.4-22.67-7.08.69-10.36 10.91-11.84 18.63zm-40.84-82.21c7.77 1.62 13.39-4.72 10.51-12.06a15.42 15.42 0 0 0-6.14-7.11c-12.67-8.45-23.73-4.47-22.8 7 .57 7.11 10.74 10.56 18.43 12.17zM198.36 44.5c6.15 5 14.07 2 14.89-5.86a15.46 15.46 0 0 0-2.19-9.14c-7.36-13.34-19-14.89-23.47-4.27-2.75 6.56 4.68 14.31 10.77 19.27z" fill="#bbe2f2"/><path d="M447.18 249.07c12.33-12.4 21.72-26.4 12.38-28.59s-25.05 22.23-27.78 44.44l-2.78 7.34c2.27-16.16-3.26-35.84-11.37-36.65s-3.18 12 3.22 22.88c4.87 8.31 6.15 14.87 6.47 18.25l-12.93 34.65c3.53-25.6-5.24-56.65-18.06-57.93s-5 19 5.11 36.29c7.67 13.09 9.73 23.45 10.26 28.86l-2.58 6.9 3.39 1.89 15.39-41.22a49.83 49.83 0 0 1 13.89-7.06c12-4.06 24-10.51 17.42-15.17-5.74-4.06-19.23 3.74-28.52 14.75l5.32-14.25c2.44-4.13 5.85-10.03 11.17-15.38zM58.55 87.37c1.6-15 .35-29.44-7.1-25.87s-4.84 28.43 5.3 44.83l2.11 6.4c-7.18-12.08-21.5-22.31-27.38-18.49S35.79 104 46 107.87c7.75 3 12.14 6.67 14.18 8.77l10 30.24c-11.42-19.1-34-35.22-43.35-29.17s6.84 15.46 23 21.62C62 144 69 149.83 72.23 153.18l2 6 3.29-.57-11.88-36a42.7 42.7 0 0 1 5.52-12.23c5.86-9.19 10.48-20 3.52-19.58-6 .37-10.89 12.88-11.2 25.28l-4.12-12.38a62.45 62.45 0 0 1-.81-16.33z" class="W"/><path d="M364 290.24l.55 2.76h0c2.22 10.32 7.67 27.22 19.93 30.54 0 0-6.67-34.8 17.12-43.87s21.16-17.69 19.8-33.05-6.62-18.3 9.89-32.69 13.35-35.82 13.35-35.82-15.62 24.47-32.31 25-19.61 14.81-18.9 25.4-13.46 11.79-21.12 17.94-9.12 38.4-9.12 38.4.18 2.15.81 5.39z" class="R"/><path d="M364 290.24l.55 2.76a52.83 52.83 0 0 1 6.37-12.87c5.34-7.9 12.85-14.4 19.61-16.95 10.76-4.05 16-14.61 17-34.23.59-11.38 12.5-18.11 12.62-18.17a.73.73 0 0 0-.7-1.27c-.52.29-12.73 7.17-13.37 19.37-1 19-5.95 29.13-16.1 32.95-7.13 2.69-14.72 9.23-20.3 17.49a54.74 54.74 0 0 0-5.68 10.92zm-263.37 33.11h16.72c-9-1.49-31.43-11.1-33.42-30.38-2.53-24.42-11.23-24.12-25.88-26.67s-18.69 1.61-28-17.34S0 227.61 0 227.61s18.92 20.64 15.3 36.33 8.92 21.95 19 23.92 7.6 15.47 11.42 24.14c1.74 4 8.87 8.06 16.11 11.35z" class="N"/><path d="M64.42 299.32c.73 7.31 4.94 16 11.25 23.26l.69.77h1.9a56.42 56.42 0 0 1-1.54-1.69c-6-6.93-10.22-15.55-10.91-22.48-1.1-11-9.63-18.56-27.66-24.39-10.46-3.38-13.76-16.15-13.79-16.28a.7.7 0 1 0-1.35.34c.13.55 3.51 13.65 14.72 17.27 17.42 5.63 25.65 12.79 26.69 23.2z" class="W"/><path d="M109.65 278l-1.21 3.85h0c-4.75 14.38-14.5 38.61-32.51 41.46 0 0 14.25-49.58-18.29-66.17S30.17 228.68 34.47 207s12.25-25.08-9.08-48.15-13.54-53.16-13.54-53.16S30.38 143 54.09 146.36s25.7 24.14 23 39.15 17.39 18.88 27.38 28.83 7.1 56.19 7.1 56.19-.57 2.98-1.92 7.47z" class="R"/><path d="M109.65 278l-1.21 3.85a75.49 75.49 0 0 0-7.11-19.33C94.94 250.45 85.21 240 76 235.35c-14.73-7.44-20.6-23.3-19-51.44.91-16.34-15.05-27.76-15.22-27.88a1 1 0 1 1 1.2-1.69C43.59 154.82 60 166.52 59 184c-1.51 27.2 4 42.47 17.91 49.49 9.76 4.93 19.58 15.42 26.27 28.07a79.09 79.09 0 0 1 6.47 16.44z" class="N"/><path d="M122.56 311.69c0 3.77.12 7.7.2 11.66h36.36l.17-12.41.11-24.7v-6l-37.08-.39v8.44l.24 23.4z" class="P"/><path d="M122.33 288.27l.23 23.42a182.34 182.34 0 0 0 36.73-.75l.11-24.7z" class="S"/><path d="M76.74 303.33l.22 20h36.37l.22-12.54.22-22.07v-8.91l-37.09.39v10.55l.06 12.58z" class="P"/><path d="M76.69 290.77v12.56a226 226 0 0 0 36.81 7.48l.22-22.07z" class="S"/><path d="M137.64 84.75s5.84-5.62 5.82-11.18-3.79-3.92-5.82-9.09-8-8.34-11.35-7.71-10.28-12.25-19.74-10S97.92 61.19 93.84 63s-2.94 9-.79 10.61 3.06 8.24 4.27 8.09 40.32 3.05 40.32 3.05z" class="P"/><path d="M98.32,84.62s-3.68-4.9-6.41-.85,1.13,16,7.82,13.09Z" class="O"/><g class="U"><path d="M98.27,93.17a.57.57,0,0,1-.54-.41c-1-3.7-4.87-5.2-4.91-5.21a.57.57,0,0,1-.32-.73.56.56,0,0,1,.72-.33c.18.07,4.4,1.71,5.59,6a.57.57,0,0,1-.39.7Z"/><path d="M94.41 91.31a.59.59 0 0 1-.31-.09.57.57 0 0 1-.17-.78 5.13 5.13 0 0 1 2.12-1.71.57.57 0 0 1 .47 1 4.13 4.13 0 0 0-1.64 1.29.56.56 0 0 1-.47.29z"/></g><path d="M136.17,84.62s3.68-4.9,6.41-.85-1.13,16-7.82,13.09Z" class="O"/><g class="U"><path d="M136.22,93.17a.58.58,0,0,0,.55-.41c1-3.7,4.86-5.2,4.9-5.21a.57.57,0,0,0,.32-.73.56.56,0,0,0-.72-.33c-.18.07-4.4,1.71-5.59,6a.57.57,0,0,0,.39.7Z"/><path d="M140.08 91.31a.59.59 0 0 0 .31-.09.57.57 0 0 0 .17-.78 5.13 5.13 0 0 0-2.12-1.71.56.56 0 1 0-.46 1 4.14 4.14 0 0 1 1.63 1.29.56.56 0 0 0 .47.29z"/></g><path d="M126.29 107v11.9s-3.55 6.06-8.35 6.47-9-5.22-9-5.22v-12.3z" class="Q"/><path d="M126.29,107v5.28c-3.22,3.57-8.94,4.46-17.4,3.22v-7.66Z" class="O"/><path d="M138.83 76.46a116.19 116.19 0 0 1-1.54 15l-.75 3.21c-2.5 8.76-8.76 23.79-26.3 17.53-7.74-2.76-11.33-11.38-12.93-20.16a85.87 85.87 0 0 1-1.17-16.24 12.44 12.44 0 0 1 6.31-10.57c10.34-5.87 21.26-3.68 28.45-.92a12.4 12.4 0 0 1 7.93 12.15z" class="Q"/><path d="M97.32 92.07s1.7 10.14 3.3 13.83 6 4.39 7.65 7.52c2.35 4.45 5.94 8 11.83 5.83 4.91-1.79 4.68-4.3 7.43-6.24 4.71-3.32 7-7 7.23-10s2.53-11.51 2.53-11.51l-2.53-.18a65.26 65.26 0 0 1-3.56 6.26c-2.12-4.66-12.36-1.27-12.36-1.27l-2 .63-2-.63s-10.33-3.26-12.38 1.69a18.56 18.56 0 0 1-2.73-6.36zm19.56 6.44c11.75-2 9.65 4.87 9.57 5.11h0a12 12 0 0 1-2.41 1.83c-4.56 2.46-5.05 2.09-6.84 2.17a13.6 13.6 0 0 1-6.91-1.89 19.7 19.7 0 0 1-3.29-2.5s-1.84-6.3 9.88-4.72zm-7.06-12.34c0 1.27-.65 2.3-1.46 2.3s-1.46-1-1.46-2.3.65-2.3 1.46-2.3 1.46 1.03 1.46 2.3zm17.38 0c0 1.27-.65 2.3-1.46 2.3s-1.46-1-1.46-2.3.65-2.3 1.46-2.3 1.46 1.03 1.46 2.3zm4.29-7.57s-6-2.39-10.69-.38l.47 2.59s6.82-.58 10.26.82a4.45 4.45 0 0 0-.04-3.03zm-28.72.01s6.09-2.4 10.77-.38l-.47 2.61s-6.87-.58-10.34.82a4.56 4.56 0 0 1 .04-3.05z" class="P"/><path d="M117.44 95.81a6.11 6.11 0 0 0 2-.43.58.58 0 0 0 .31-.74.57.57 0 0 0-.74-.31 3.43 3.43 0 0 1-2.27.22.63.63 0 0 1-.27-.53 82.84 82.84 0 0 1 .34-8.66.57.57 0 0 0-1.13-.09 86 86 0 0 0-.34 8.87 1.73 1.73 0 0 0 .82 1.38 2.46 2.46 0 0 0 1.28.29z" class="O"/><path d="M110.24,99.64c.43,2.16,1.85,6.14,6.66,6.14s6.16-3.63,6.63-6.14Z" class="T"/><path d="M138.83 76.46a116.19 116.19 0 0 1-1.54 15l-2.53-.18.9-6.45c.29-2.54.76-7.3-1.41-7.89s-.9-6-3.91-8.36-9.7-4.43-14.14-1.7-9.5 1.22-11.54 1.7-4.84 3.29-4.08 5.93-1.51 4.24-2.06 7 1.21 10.08 1.21 10.08l-2.42.48a85.87 85.87 0 0 1-1.17-16.27 12.44 12.44 0 0 1 6.31-10.57c10.34-5.87 21.26-3.68 28.45-.92a12.4 12.4 0 0 1 7.93 12.15z" class="P"/><path d="M167.06 298.1a202.35 202.35 0 0 1-34.31 5.63l-1.55.11-4.72.26a195.68 195.68 0 0 1-23.35-.4l-4.71-.42c-.5 0-1-.1-1.51-.16a203.21 203.21 0 0 1-27.89-5c-.09-8.57 0-35.66.54-65q.09-5.31.21-10.67c.82-38.72 2.41-78 5.27-82 2.74-3.77 11-8.56 18.91-12.88l1.41-.77 5.15-2.78c3.5-1.91 6.52-3.6 8.38-4.91v1.07s4.26 5.63 9 5.22c4.37-.38 7.7-5.42 8.26-6.33a112.07 112.07 0 0 0 10.06 5.72l3.69 2 1.4.74c8.74 4.64 18.16 9.86 21 13.74a4.58 4.58 0 0 1 .61 1.43c1.67 5.67 2.71 24.47 3.34 47.24v.25c0 .92.05 1.85.07 2.78v.37l.49 24.84v2 1l.06 5v3.67l.19 68.25z" class="N"/><path d="M166.36 192.9c-2.75-4.5-5.7-9.08-8.48-13.14-1.17-1.71-2.31-3.31-3.39-4.78l-.06-.08-1-1.34a1.34 1.34 0 0 1-.12-.24h0a.76.76 0 0 1 1.33-.68c3.35 4.43 7.62 10.8 11.66 17.26v.25l.06 2.75z" class="V"/><path d="M162.45 140.58s17.25 31.59 27.76 47.61l13.75-12.84c8.43-8 20-21.28 20-21.28l6.38 7.56s-25.9 46.62-37.52 52.48-33-35.61-33-35.61z" class="N"/><path d="M89.44 265.1h0a.78.78 0 0 1-.75-.81c.9-25.51-12.33-33.78-12.46-33.86a.78.78 0 1 1 .8-1.34c.14.09 3.64 2.21 7 7.66 3.09 5 6.67 13.79 6.18 27.6a.77.77 0 0 1-.77.75zm56.44-24.04a.78.78 0 0 1-.78-.72c-.42-5.37 1.35-9.29 3.59-14.25a113.09 113.09 0 0 0 2-4.64c4.35-10.54 2.16-22.6 2.14-22.72a.78.78 0 0 1 1.53-.29c.1.51 2.3 12.64-2.23 23.61l-2 4.68c-2.24 4.94-3.85 8.52-3.46 13.49a.78.78 0 0 1-.72.84z" class="V"/><path d="M100.51 124l1.35 9.48.49 3.41 1.58 12.19.37 3.39c.42 4.16.74 8.3.85 12.14v3.41a54 54 0 0 1-.53 7.94c-.23 1.46-.43 2.88-.61 4.28l-.39 3.41c-.46 4.34-.69 8.37-.75 12.18v3.4c0 4.32.28 8.35.63 12.19l.35 3.39c.47 4.19 1 8.18 1.57 12.12l.45 3.38.64 5.42c.19 1.81.33 4.18.39 6.68v3.41c0 3.73-.08 7.86-.25 12.18 0 1.13-.1 2.28-.15 3.43l-.73 12.23-.26 3.42-1 12.23-.32 3.41-1.15 11a193.8 193.8 0 0 0 23.36.4c.18-3.2.68-8.35 1.17-14.41l.26-3.43.73-12.14q.08-1.71.12-3.42c.12-4.15.13-8.28 0-12.15l-.22-3.44-.33-3.33a68.81 68.81 0 0 1-.5-8.85q0-1.71.09-3.42c.18-3.95.61-7.92 1.11-12.13l.41-3.41 1.29-12.06q.15-1.66.27-3.42a192.06 192.06 0 0 0 .46-12.1v-3.45c0-3.78-.2-7.82-.51-12.17 0-.39-.05-.78-.08-1.17-.06-.76-.11-1.53-.14-2.3a117 117 0 0 1 .07-12.13l.23-3.43c.31-4.08.77-8.12 1.3-12l.49-3.42a295.62 295.62 0 0 1 2-11.8l.6-3.38 1.07-6.38a112.07 112.07 0 0 1-10.06-5.72c-.56.91-3.89 6-8.26 6.33-4.79.41-9-5.22-9-5.22v-1.07a97 97 0 0 1-8.46 4.9z" class="T"/><path d="M101.86 133.47l.49 3.41a63.43 63.43 0 0 0 15.44-1.95 41.17 41.17 0 0 1 16.8-.4l.6-3.38a44.37 44.37 0 0 0-18.16.46 59.4 59.4 0 0 1-15.17 1.86zm2.07 15.6l.37 3.39a68.65 68.65 0 0 0 13.49-2 41.16 41.16 0 0 1 14.36-.76l.49-3.42a44.91 44.91 0 0 0-15.61.86 65.94 65.94 0 0 1-13.1 1.93zm1.22 15.53v3.41a71.13 71.13 0 0 0 12.59-1.92 41.36 41.36 0 0 1 12.83-.92l.23-3.43a44.64 44.64 0 0 0-13.82 1 68.71 68.71 0 0 1-11.83 1.86zm-1.48 19.04a67.76 67.76 0 0 0 14.12-2 41.11 41.11 0 0 1 13-.91c0-.39-.05-.78-.08-1.17l-.14-2.3a44.89 44.89 0 0 0-13.52 1 65.34 65.34 0 0 1-13 1.88l-.38 3.5zm-.76 15.58a64.82 64.82 0 0 0 14.88-2 41.18 41.18 0 0 1 13.5-.87v-3.45a45 45 0 0 0-14.25 1 62.15 62.15 0 0 1-14.11 1.88l-.02 3.44zm.63 12.19l.35 3.39a68.72 68.72 0 0 0 13.9-2 41 41 0 0 1 12.77-.94q.15-1.66.27-3.42a44.52 44.52 0 0 0-13.8 1 65.27 65.27 0 0 1-13.49 1.97zm1.92 15.51l.45 3.38a73.42 73.42 0 0 0 11.88-1.87 41.7 41.7 0 0 1 11.07-1.05l.41-3.41a45 45 0 0 0-12.27 1.14 71.82 71.82 0 0 1-11.54 1.81zm1.48 15.48v3.41a77.2 77.2 0 0 0 10.8-1.8 42.33 42.33 0 0 1 9.87-1.08q0-1.71.09-3.42a45.62 45.62 0 0 0-10.7 1.18 77.69 77.69 0 0 1-10.06 1.71zm-.35 19.02a75.69 75.69 0 0 0 11.2-1.83 41.27 41.27 0 0 1 10.92-1l-.22-3.44a45.37 45.37 0 0 0-11.49 1.12 74.92 74.92 0 0 1-10.26 1.73l-.15 3.42zm-.99 15.65a73.69 73.69 0 0 0 12.19-1.89 41.72 41.72 0 0 1 10.85-1.06q.08-1.71.12-3.42a45.27 45.27 0 0 0-11.76 1.15 71.79 71.79 0 0 1-11.17 1.8l-.23 3.42zm-1.33 15.64a68.91 68.91 0 0 0 13.52-1.95 41.67 41.67 0 0 1 9.86-1.07l.26-3.43a44.94 44.94 0 0 0-10.91 1.18 68.66 68.66 0 0 1-12.44 1.86l-.29 3.41z" fill="#e3e3e3"/><path d="M131.2 303.84l1.55-.11c3.07-18.05 1.3-44.53.64-52.65-.68-8.42.63-19.26 3.6-29.72 2.3-8.12.89-27-.25-42.09l-.8-11.55c-.58-10.66 3.28-30.38 5.41-40.26l-1.4-.74c-2.13 9.78-6.13 29.95-5.52 41.08l.8 11.59c1.13 15 2.53 33.69.3 41.56-3 10.62-4.34 21.65-3.65 30.25.66 8.13 2.44 34.8-.68 52.64zm-31.44-73.42c1.8 11.1 1.23 18.3.58 26.64l-.59 8.56c-.48 9.66-2.12 29.1-2.84 37.51l1.51.15 2.84-37.58c.16-3.06.38-5.83.59-8.52.66-8.43 1.24-15.72-.6-27l-1.22-7.32c-2-12.09-4.15-24.59-3.15-30.58.24-1.47.55-3.13.88-4.88 1.36-7.23 3-16.23 2.52-24s-3.7-28.69-4.92-36.59l-1.41.77c1.27 8.26 4.3 28.4 4.82 35.92s-1.16 16.5-2.5 23.64l-.89 4.92c-1 6.24 1 18.3 3.16 31.08.46 2.41.83 4.86 1.22 7.28z" class="V"/><path d="M69.94 153.3s-15.44 51.47-19.26 69.82-4.12 56.48-4.12 56.48-6.75 14-6.91 20.25c-.17 6.65 3.32 11.93 2.92 16.28s4.9 2 3.4-6.82 2.75-16.79 4.58-16.53-1.51 9.62.11 13 3.73-3.18 5.83-7.16c2.17-4.13 2-13.14 1-19.57s10.67-45.5 10.73-56.82L83 172.33s-4.84-20.82-13.06-19.03z" class="Q"/><path d="M84.93 171.08c-.53 3.31-2.36 9-4.72 16.13h0l-.61 1.84v.09l-1.85 5.56h0c-2.62 7.95-5.52 17-7.95 26.39-.84 3.2-1.62 6.43-2.31 9.65-.89 4.11-1.64 8.21-2.19 12.22-2 14.46-5.74 32.76-5.74 32.76C54 278 45.33 275 45.33 275s-.23-26.37 1-36.62a275.19 275.19 0 0 1 5.88-32c6.63-28.49 18.3-56.37 21.5-63.76l.6-1.37h2.75c5.43 3.46 9.28 20.92 7.87 29.83z" class="N"/><path d="M44.88 269.76l.43 6.07s8.23 2.67 14.4.79l1.63-5.42c-5.94.32-11.43.17-16.46-1.44z" class="R"/><path d="M80.21 187.21h0a.85.85 0 0 1 0 .26l-.56 1.58v.09l-1.85 5.56h0a301.28 301.28 0 0 0-8 31.37l.06-5-2.31 9.65a118.19 118.19 0 0 1 2.35-12.67A297.21 297.21 0 0 1 78.74 187a.76.76 0 0 1 1.47.25z" class="V"/><path d="M356.35 323.35h36.46l-.36-7.24-1.17-21-29.66 1.32-2.46.11-4.36.2 1.08 18.74.47 7.87z" class="P"/><g class="S"><path d="M359.16 296.55l-4.36.2 1.08 18.74a266.71 266.71 0 0 0 36.57.62l-1.17-21-29.66 1.32z"/><path d="M363.13 323.35l-1.51-26.91-2.46.11 1.51 26.8z"/></g><path d="M345.65 323.35l.52-8.83 1-17.77-4.74-.22-2.45-.11-29.29-1.3-.77 13.12-.77 15.11z" class="P"/><g class="S"><path d="M310 308.24a321.63 321.63 0 0 0 36.22 6.28l1-17.77-4.74-.22-2.45-.11-29.29-1.3-.74 13.12z"/><path d="M341 323.35l1.51-26.82-2.45-.11-1.52 26.93z"/></g><path d="M396.57 300.81a176.06 176.06 0 0 1-22.28 4.62q-3.87.54-7.75.9-5.22.48-10.43.65a165.93 165.93 0 0 1-17.27-.38 174.52 174.52 0 0 1-33.38-5.79c-.1-10.38.05-47.59.83-83.48 0-1.61.07-3.22.11-4.83v-1-1.11l.09-3.4.18-6.85c0-1.36.08-2.7.12-4v-.82c0-.88.05-1.76.08-2.63h0v-.81c0-.8 0-1.6.08-2.39s0-1.33.07-2c.86-24.21 2.12-43.3 3.92-46 3.06-4.56 13.49-10.62 21.87-15.55 3-1.76 6.55-3.58 8.59-4.93 3 2.39 5.14 4.56 9.55 4.41 4.94-.17 6.16-3.14 8-5.68 1.15.74 4.07 3.14 5.58 4l4.18 2.42 7.07 4.08c3.54 2.09 7 4.23 9.92 6.29a26.25 26.25 0 0 1 6.33 5.72c1.64 2.46 2.7 18.38 3.38 39.34 0 .74.05 1.48.08 2.23v.27c0 .76.05 1.55.07 2.33l.19 7.22v1.55 1.17c0 1 .05 2 .07 3v.62l.16 8.16v2.42c.88 37.74.74 79.1.59 90.25z" class="N"/><path d="M396.24 210.57l-11.76 11.93-11-11.11-11 11.11-11-11.16-11 11.16-11.07-11.23-11 11.23-12-12.13.09-3.4.18-6.85 11.69-11.86 11.08 11.23 11.07-11.23 11 11.16 11-11.16 11 11.11 11-11.11L396 200l.16 8.16.08 2.41zm-20.31 61.49h0c-15.75-.06-29.19-7.23-37.7-13.23a86.5 86.5 0 0 1-14.82-13.13.766.766 0 0 1 1.16-1 83.71 83.71 0 0 0 14.57 12.89c8.32 5.87 21.46 12.87 36.8 12.94a.76.76 0 1 1 0 1.51zm-9.82-9.31c-13.41-2.64-25.28-12.91-25.82-13.38a.76.76 0 0 1-.07-1.07.77.77 0 0 1 1.07-.07c.14.12 14.11 12.2 28.34 13.5a.75.75 0 0 1 .69.82.76.76 0 0 1-.83.69 32.37 32.37 0 0 1-3.38-.49zM339.25 146.2a.76.76 0 0 1-.14-1.5c19.2-3.65 25-16 25.05-16.12a.76.76 0 1 1 1.38.62c-.24.54-6.18 13.2-26.14 17zm-23.43 33.25h0a.62.62 0 0 1-.1.24l-.89 1.42v.08l-3 5h0c-1.61 2.82-3.28 5.88-4.91 9 0-.88.05-1.76.08-2.63h0v-.81c2.63-4.89 5.26-9.46 7.46-12.93a.75.75 0 0 1 1.05-.23.74.74 0 0 1 .31.86z" class="V"/><path d="M412.58 151.36s24.56-7.89 31.82-24c2.11-4.67-15.21-52-15.21-52l-8.35.41 3.82 25.75c1.19 7.65 3.11 16.79 3.75 19.81l.22 1-1.24.23c-11.47 2.33-26.12 9.81-26.12 9.81z" class="Q"/><path d="M434.8 126.83a.79.79 0 1 0 .93-1.27 61.57 61.57 0 0 0-7.32-4.28l.22 1-1.24.23a62.3 62.3 0 0 1 7.41 4.32z" class="O"/><path d="M375 129.69s-7.42 17.43 11.48 27.13c13.09 6.72 42.9-10.81 42.9-10.81l-10.63-22.57s-27.26 11.25-43.75 6.25z" class="N"/><path d="M424.91 48.68c-.74.52-.58 3.72-.26 6.73l-.32.05c-.88-4-2.62-10.86-4.12-9.56-1 .86.33 6.76 1.22 10.29l-.55.17c-1.13-4.19-3.56-12.26-5.17-10.69-1.08 1 1 8.16 2.14 11.78l-.47.19c-1.1-3.52-3.45-10.17-5.06-8.61C410.86 50.44 415 60.5 415 60.5h0l1.09 4s-1.3.56-3.33-1.74-4.46-2.7-2.77.63c1.9 3.75 4.72 6.45 6 9.11s5.16 3.5 5.16 3.5l7.85-.4s1.53-13.26-1.4-19.58h0c-.51-3.76-1.4-8.25-2.69-7.34z" class="Q"/><path d="M327.82 79.26c0 13.37 8.23 22.58 21.59 22.58s22.69-9.9 22.69-23.27a28.57 28.57 0 0 0-1.76-10.17l-.21-.54a11.57 11.57 0 0 0-.45-1c-.23-.51-.49-1-.76-1.51-3.49-6.26-9.72-10.24-18.11-10.24-16.02-.03-22.99 10.79-22.99 24.15z" class="P"/><path d="M330.83,85s-3.72-5-6.48-.86,1.14,16.19,7.9,13.24Z" class="O"/><g class="U"><path d="M330.78,93.66a.58.58,0,0,1-.55-.42c-1.05-3.73-4.92-5.24-5-5.26a.57.57,0,0,1,.41-1.07c.18.07,4.44,1.72,5.65,6a.58.58,0,0,1-.4.71Z"/><path d="M326.87 91.78a.61.61 0 0 1-.31-.09.58.58 0 0 1-.17-.79 5.22 5.22 0 0 1 2.15-1.73.57.57 0 1 1 .46 1 4.25 4.25 0 0 0-1.65 1.31.56.56 0 0 1-.48.3z"/></g><path d="M369.09,85s3.72-5,6.48-.86-1.15,16.19-7.91,13.24Z" class="O"/><g class="U"><path d="M369.14,93.66a.58.58,0,0,0,.55-.42c1.05-3.73,4.91-5.24,4.95-5.26a.56.56,0,0,0,.33-.74.57.57,0,0,0-.73-.33c-.18.07-4.44,1.72-5.65,6a.57.57,0,0,0,.4.71Z"/><path d="M373 91.78a.56.56 0 0 0 .31-.09.57.57 0 0 0 .17-.79 5.07 5.07 0 0 0-2.14-1.73.56.56 0 0 0-.75.29.57.57 0 0 0 .28.75 4.07 4.07 0 0 1 1.65 1.31.58.58 0 0 0 .48.26z"/></g><path d="M359.1,107.65v12s-3.59,6.12-8.44,6.54-9.15-5.28-9.15-5.28V108.5Z" class="Q"/><path d="M359.1,107.65V113c-3.26,3.61-9,4.51-17.59,3.25V108.5Z" class="O"/><path d="M371.78 76.77A118.5 118.5 0 0 1 370.22 92l-.76 3.24c-2.53 8.86-8.86 24.06-26.58 17.73-7.82-2.79-11.45-11.51-13.07-20.38a86.2 86.2 0 0 1-1.18-16.45A12.56 12.56 0 0 1 335 65.42c10.46-5.93 21.5-3.72 28.76-.93a12.52 12.52 0 0 1 8.02 12.28z" class="Q"/><path d="M342.36 86.59c0 1.28-.66 2.32-1.48 2.32s-1.47-1-1.47-2.32.66-2.33 1.47-2.33 1.48 1.04 1.48 2.33zm17.42-.05c0 1.28-.66 2.32-1.48 2.32s-1.48-1-1.48-2.32.66-2.32 1.48-2.32 1.48 1.04 1.48 2.32zm3.34-7.99s-4.67-1.84-8.26-.29l.36 2s5.27-.45 7.93.63a3.55 3.55 0 0 0-.03-2.34zm-27.12 0s4.66-1.84 8.25-.29l-.35 2s-5.27-.45-7.93.63a3.48 3.48 0 0 1 .03-2.34z" class="P"/><path d="M350.16 96.33a6.12 6.12 0 0 0 2.07-.44.57.57 0 0 0 .31-.74.58.58 0 0 0-.75-.31 3.48 3.48 0 0 1-2.29.21.62.62 0 0 1-.28-.53 83.81 83.81 0 0 1 .35-8.75.59.59 0 0 0-.53-.62.57.57 0 0 0-.61.53 84.3 84.3 0 0 0-.35 9 1.75 1.75 0 0 0 .84 1.39 2.38 2.38 0 0 0 1.24.26z" class="O"/><path d="M342.49,99.23c.95,3.29,3.65,6.58,7.36,6.63s6.42-3.34,7.37-6.63Z" class="T"/><path d="M349.54 109.44a6 6 0 0 0 2.78-.78.57.57 0 0 0-.59-1 4.77 4.77 0 0 1-2.19.62 4.54 4.54 0 0 1-2.08-.62.57.57 0 0 0-.6 1 5.73 5.73 0 0 0 2.68.78z" class="O"/><path d="M371.17 85.12h-2.59c.29-2.6.7-7.18-1.43-7.83-6.75-2.08 2-6.84-1-9.22s-10.63-1.36-15.9-1.53-13.82-.1-15.89.38-.94 3.92-.18 6.59-2.54 5.61-3.1 8.37a12.46 12.46 0 0 0 0 3.24h-2.16a93.88 93.88 0 0 1-.25-9 12.56 12.56 0 0 1 6.33-10.7c10.46-5.93 21.5-3.72 28.76-.93a12.52 12.52 0 0 1 8 12.28c-.1 2.56-.29 5.47-.59 8.35z" class="P"/><g class="T"><use xlink:href="#B"/><use xlink:href="#B" x="17.68"/><path d="M335.25 84.77a.51.51 0 0 1-.36-.15h0a7.93 7.93 0 0 0-6.82-2 .503.503 0 1 1-.23-.98 8.79 8.79 0 0 1 7.76 2.25.5.5 0 0 1-.35.86zm28.54 0a.51.51 0 0 1-.27-.93c.19-.12 4.77-3.08 8.66-2.44a.51.51 0 0 1 .41.58.5.5 0 0 1-.57.42c-3.51-.58-7.91 2.26-7.95 2.29a.57.57 0 0 1-.28.08zm-11.6.63a4.06 4.06 0 0 0-2.79-1.64 3.69 3.69 0 0 0-2.65 1.64l-.84-.56a4.66 4.66 0 0 1 3.49-2.09 5 5 0 0 1 3.6 2.06z"/></g><path d="M313.69 178.5a183.56 183.56 0 0 1-14.83 23.64 62 62 0 0 1-7.27 8.12c-3.95 3.56-7.79 5.43-10.92 3.85-11.62-5.86-37.53-52.48-37.53-52.48l6.38-7.56s11.53 13.31 20 21.28l13.76 12.84 3.41-5.34 3.92-6.34c9.71-15.94 20.48-35.08 20.48-35.08z" class="Q"/><path d="M298.86 202.14a62 62 0 0 1-7.27 8.12l-4.94-27.41 3.92-6.34z" class="O"/><path d="M311.05 141.43l-23.28 36.62 7.81 32.21 19.27-31.37s2.34-21.46-3.8-37.46zm-29.27 181.92c-1.67-9.21-3.31-19.61-4.8-29.7l-1-6.63-3.12-22.82-.88-6.84-1.32-10.61-36.77 1.39-36.88-1.39-2.48 19.71-.88 6.7-2.76 19.8c0 .1 0 .2-.05.31l-1 6.5v.08h0l-2.46 15.53-1.05 6.12-.32 1.84z" class="N"/><g class="V"><path d="M205.52 257.79a3.47 3.47 0 1 1-3.46-3.46 3.46 3.46 0 0 1 3.46 3.46z"/><use xlink:href="#C"/><use xlink:href="#C" x="16.88" y="-6.93"/><use xlink:href="#D"/><use xlink:href="#D" x="21.14" y="-1.48"/><path d="M196.83 269.71a3.47 3.47 0 0 1-3.14 3.45l.88-6.7a3.47 3.47 0 0 1 2.26 3.25z"/><use xlink:href="#C" x="45.81" y="33.14"/><path d="M258.3 285.48a3.47 3.47 0 1 1-3.47-3.47 3.47 3.47 0 0 1 3.47 3.47zm18.7 8.17a3.37 3.37 0 0 1-1.36.27 3.47 3.47 0 0 1 0-6.93 2.6 2.6 0 0 1 .4 0l.96 6.66zm-15.24 24.54a3.47 3.47 0 1 1-3.46-3.47 3.47 3.47 0 0 1 3.46 3.47z"/><use xlink:href="#C" x="62.46" y="41.44"/><path d="M245.74,323.35a3.45,3.45,0,0,0-5.71,0Z"/><use xlink:href="#D" x="-2.28" y="21.89"/><path d="M192.91 296.42a3.45 3.45 0 0 1-3 3.43v-.08l1-6.5a3.46 3.46 0 0 1 2 3.15zm-4.05 21.77a3.47 3.47 0 0 1-2.47 3.32l1.05-6.12a3.47 3.47 0 0 1 1.42 2.8zm21.8 1.46a3.47 3.47 0 1 1-3.47-3.46 3.47 3.47 0 0 1 3.47 3.46zm18.34-2.71a3.47 3.47 0 1 1-3.47-3.47 3.48 3.48 0 0 1 3.47 3.47zm-13.1-17.04a3.47 3.47 0 1 1-3.47-3.46 3.47 3.47 0 0 1 3.47 3.46zm18.61-3.46A3.47 3.47 0 1 1 231 293a3.46 3.46 0 0 1 3.51 3.44zm8.37-18.29a3.47 3.47 0 1 1-3.46-3.47 3.47 3.47 0 0 1 3.46 3.47zm30.02-13.95a3 3 0 0 1-.74.09 3.47 3.47 0 0 1-.14-6.93l.88 6.84z"/><use xlink:href="#D" x="50.49" y="-21.19"/><use xlink:href="#C" x="53.4" y="5.42"/><use xlink:href="#D" x="42.01" y="21.89"/></g><path d="M272.93 247.66c-19.39 12.66-55 11.67-77.39 0 2.14-13.32 5-26.65 4.35-44.38q-.1-2.91-.25-5.78l-.29-4.95c-1.93-29.49-7-53.6-4.49-56.72a23.77 23.77 0 0 1 5.1-4.34q1.31-.88 2.79-1.8c2.32-1.41 4.9-2.84 7.5-4.23 6.15-3.28 12.39-6.33 15.52-8.41a19.88 19.88 0 0 0 8.24 2.07h.45a19.88 19.88 0 0 0 8.25-2.07c2.9 1.93 8.37 4.62 14 7.56a119.61 119.61 0 0 1 11.5 6.68 22.88 22.88 0 0 1 4.91 4.22c1.22 1.54.71 8.31-.34 18.35-1 9.87-2.59 22.9-3.53 37.23l-.61 12.19c-.64 17.72 2.16 31.06 4.29 44.38z" class="R"/><path d="M261.07 232.93h0c-15.62-.07-28.95-7.17-37.39-13.12a85.08 85.08 0 0 1-14.7-13 .75.75 0 0 1 .09-1.06.76.76 0 0 1 1.06.1 84 84 0 0 0 14.45 12.78c8.25 5.82 21.28 12.76 36.5 12.83a.75.75 0 0 1 0 1.5zm-10.34-9.09c-13.3-2.62-25.07-12.8-25.61-13.27a.754.754 0 1 1 1-1.13c.14.12 14 12.1 28.11 13.39a.74.74 0 0 1 .68.82.75.75 0 0 1-.81.68c-1.1-.11-2.26-.27-3.37-.49zM231 155a.75.75 0 0 1-.14-1.49c19-3.61 24.78-15.86 24.84-16a.752.752 0 0 1 1.37.62c-.24.54-6.12 13.09-25.93 16.85z" class="N"/><path d="M256.66 124.61c-3.78 8.62-13.07 17.55-25.16 15.46-11.7-2-17.25-8.21-21.25-14.61 6.15-3.29 12.39-6.33 15.52-8.41a20.06 20.06 0 0 0 8.24 2.08h.46a20.06 20.06 0 0 0 8.24-2.08c2.9 1.95 8.37 4.62 13.95 7.56z" class="Q"/><path d="M246.56 117.68a.6.6 0 0 0-.61.59c0 .49-.2 11.88-10.43 12.77-9.49.82-13.41-8.26-14.63-12a.53.53 0 0 0-.51-.37h-.11a.54.54 0 0 0-.51.7c1.3 3.89 5.44 13.28 15.1 12.93h.77c11.32-1 11.52-13.82 11.52-13.95a.59.59 0 0 0-.59-.67z" class="T"/><path d="M253.79,57.1s9.14,14.16,8.14,28.92,1.35,31.78-11.85,31-36.75,5.29-44.23-6.2S253.79,57.1,253.79,57.1Z" class="P"/><path d="M257.18 83.14s2.37 21.38-7.78 27.27-17.49-.68-17.49-.68 21.39-29.81 25.27-26.59z" class="S"/><path d="M215,83s-3.64-4.85-6.35-.84,1.12,15.88,7.75,13Z" class="O"/><g class="U"><path d="M215,91.52a.56.56,0,0,1-.54-.41c-1-3.66-4.83-5.15-4.87-5.16a.56.56,0,0,1,.4-1,9.68,9.68,0,0,1,5.55,5.91.57.57,0,0,1-.39.69Z"/><path d="M211.15 89.68a.57.57 0 0 1-.47-.87 5.1 5.1 0 0 1 2.11-1.69.56.56 0 0 1 .74.28.57.57 0 0 1-.28.74 3.91 3.91 0 0 0-1.62 1.28.59.59 0 0 1-.48.26z"/></g><path d="M252.58,83s3.64-4.85,6.35-.84-1.12,15.88-7.75,13Z" class="O"/><g class="U"><path d="M252.62,91.52a.56.56,0,0,0,.54-.41C254.19,87.45,258,86,258,86a.56.56,0,1,0-.39-1,9.68,9.68,0,0,0-5.55,5.91.56.56,0,0,0,.39.69Z"/><path d="M256.45 89.68a.59.59 0 0 0 .31-.09.56.56 0 0 0 .16-.78 5 5 0 0 0-2.1-1.69.56.56 0 1 0-.46 1 3.91 3.91 0 0 1 1.64 1.3.59.59 0 0 0 .45.26z"/></g><path d="M242.77,105.25v11.8s-3.52,6-8.27,6.41-9-5.17-9-5.17V106.08Z" class="Q"/><path d="M242.77,105.25v5.23c-3.19,3.55-8.86,4.8-17.25,3.56v-8Z" class="O"/><path d="M255.21 75a114 114 0 0 1-1.53 14.9l-.74 3.19c-2.48 8.69-8.69 23.6-26.08 17.39-7.68-2.74-11.24-11.3-12.82-20a83.73 83.73 0 0 1-1.16-16.15 12.32 12.32 0 0 1 6.25-10.48c10.26-5.82 21.09-3.65 28.22-.91A12.28 12.28 0 0 1 255.21 75z" class="Q"/><g class="P"><use xlink:href="#E"/><use xlink:href="#E" x="17.9"/><path d="M221.83 77a23.8 23.8 0 0 1 6.17-1 1.08 1.08 0 0 1 1.07 1.26h0a1.08 1.08 0 0 1-1.11.88c-1.75-.08-6.33.16-8.49 1a1.59 1.59 0 0 1 .49-1.15 3.7 3.7 0 0 1 1.87-.99zm23.42 0a24.32 24.32 0 0 0-6.2-.93 1.08 1.08 0 0 0-1.05 1.26h0a1.07 1.07 0 0 0 1.11.88c1.74-.08 6.33.17 8.49 1a1.67 1.67 0 0 0-.49-1.16 3.82 3.82 0 0 0-1.86-1.05z"/></g><path d="M234 94.14a2.42 2.42 0 0 1-1.22-.29 1.7 1.7 0 0 1-.81-1.37 82.14 82.14 0 0 1 .33-8.79.56.56 0 0 1 .61-.51.55.55 0 0 1 .51.6 84.21 84.21 0 0 0-.34 8.58c0 .35.17.47.28.53a3.35 3.35 0 0 0 2.24-.22.57.57 0 0 1 .73.31.56.56 0 0 1-.3.73 6 6 0 0 1-2.03.43z" class="O"/><path d="M226.88,97.68c.43,2.13,1.83,6,6.58,6s6.09-3.58,6.55-6Z" class="T"/><path d="M233.39 107a5.49 5.49 0 0 1-2.63-.77.56.56 0 0 1 .59-1h0a4.49 4.49 0 0 0 2 .6 4.87 4.87 0 0 0 2.15-.6.56.56 0 0 1 .58 1 5.88 5.88 0 0 1-2.69.77z" class="O"/><g class="P"><path d="M257.47 74a1.86 1.86 0 0 1-1.35 1 35.8 35.8 0 0 1-.2 4.15c-.7 8.1-2.74 9.52-3.2 7.52-.31-1.33-.29-9-.14-11.45a25.45 25.45 0 0 1-3-.37l-1.88-7.87-.66 7.77c-2.81 1-9.39-.59-9.39-.59l-2.21-7.75-1.36 7.46c-4.23 2.06-9.51.69-9.51.69l-1.21-8-2.81 8s-9 3.23-9.11 0c-.06-1.89 1.32-7.19 2.48-11.3a17 17 0 0 1 8.19-10.39c11.19-6 23-2.81 27.08-.39 8.63 5.21 8.28 21.52 8.28 21.52z"/><path d="M216.43 57.7s-7.42 8.83-9.86 24.6-5.83 27.43 3.68 32.63c10.28 5.64 9.39-5.92 9.24-9.06s-8.9-11.73-3.06-35.92c1.89-7.8 0-12.25 0-12.25z"/></g><path d="M214.7 90.29h0l.05 1.73c0 .6.06 1.34.12 2.19.35 5.31 1.38 14.49 4.42 17.67 1.2 1.26 3.51 1.89 6.23 2.14v-4.17a16.58 16.58 0 0 1-6.84-6.35 39.28 39.28 0 0 1-3.78-11.65z" class="S"/><path d="M255.35 95.45a1.32 1.32 0 1 1-1.35-1.31 1.32 1.32 0 0 1 1.35 1.31z" class="T"/><path d="M282.11 194.37c-3.72 10.65-20.38 9.88-39.35 4.06h-.09l-.17-.05-2.61-.84q-.54-.16-1.08-.36-3.08-1-6.18-2.21a208.69 208.69 0 0 1-20-8.88v-.11l1.94-5 .66-1.71s35.17 3.83 52.86.13l.88-.19a11.46 11.46 0 0 0-.21-1.17c-9.37-31.9.88-38 4.31-42.46 0-.07 16.06 38.69 9.04 58.79z" class="R"/><path d="M276.37 184.5a.72.72 0 0 1-.32.08.77.77 0 0 1-.68-.42c-1.34-2.75-5.89-4.38-7.28-4.83l.88-.19-.21-1.17c1.78.59 6.42 2.38 8 5.53a.74.74 0 0 1-.39 1zm-49.26-1.34c-7.18 0-13-.41-13.51-.44a.752.752 0 1 1 .11-1.5c.26 0 26.64 1.88 37-2.34a.75.75 0 0 1 .56 1.39c-5.71 2.34-15.84 2.89-24.16 2.89zm12.78 14.35h0l14.65-4.29c4.39-1.4 8-5.84 9.67-9.61a.73.73 0 0 1 1-.38.75.75 0 0 1 .39 1c-1.78 4.07-5.75 8.88-10.58 10.43-2.3.74-5.8 1.79-9.84 2.94a9 9 0 0 1-5.27-.08z" class="N"/><path d="M256.11 192.36c-54.35 18.3-71.08 6.32-71.08 6.32-3.66-33.09 9.83-62.85 9.83-62.85 4 6.57 8.49 18 8.49 18l1.19 25.36-.09.71v.33l-.23 1.74h0l.35.08c16.44 3.47 46.51-.41 46.51-.41z" class="R"/><path d="M204.53,182.12a53,53,0,0,0-8.21,8.55.75.75,0,0,1-1.2-.91h0a55.06,55.06,0,0,1,9.29-9.49l-.23,1.74v0Z" class="N"/><path d="M251 181.71s6-13.67 15.16-12.45l2.76 9.88c-5 2.13-5.74 10.71-12.85 13.22zm-35.77-2.51a21.78 21.78 0 0 0-13.8-11.51c-10-2.59-16.38 2.12-17.05 3.9s3.78.08 3.78.08a8.64 8.64 0 0 0-4.56 3.54c-1.66 2.72 4-.22 4-.22s-4.09 1.79-4.61 3.45 4.88-1.14 5.89-1.09c0 0-4.81 1.92-4.78 3.63s5.53-1.08 9.63-.86a64.81 64.81 0 0 1 10.45 1.88 68.25 68.25 0 0 0 9.47 1.25z" class="Q"/><path d="M311.81 40.5a6.71 6.71 0 1 1 6.71-6.71 6.72 6.72 0 0 1-6.71 6.71zm0-11.32a4.61 4.61 0 1 0 4.61 4.61 4.62 4.62 0 0 0-4.61-4.61z" class="N"/><path d="M370.39 29.1a6.72 6.72 0 1 1 6.71-6.72 6.72 6.72 0 0 1-6.71 6.72zm0-11.32a4.61 4.61 0 1 0 4.6 4.6 4.6 4.6 0 0 0-4.6-4.6z" class="R"/><path d="M378.68 50.91a1 1 0 0 1-1.05-1v-4.69a1.05 1.05 0 1 1 2.1 0v4.64a1 1 0 0 1-1.05 1.05zm0 8.09a1 1 0 0 1-1.05-1v-4.66a1.05 1.05 0 0 1 2.1 0V58a1 1 0 0 1-1.05 1zm6.52-6.34H381a1.06 1.06 0 1 1 0-2.11h4.17a1.06 1.06 0 0 1 0 2.11zm-8.87 0h-4.17a1.06 1.06 0 0 1 0-2.11h4.17a1.06 1.06 0 1 1 0 2.11z" class="N"/><path d="M343.22 22.78a1 1 0 0 1-1.05-1.05v-4.65a1.05 1.05 0 0 1 2.1 0v4.65a1 1 0 0 1-1.05 1.05zm0 8.13a1.05 1.05 0 0 1-1.05-1.06v-4.64a1.05 1.05 0 0 1 2.1 0v4.64a1.05 1.05 0 0 1-1.05 1.06zm6.52-6.39h-4.17a1.06 1.06 0 1 1 0-2.11h4.17a1.06 1.06 0 0 1 0 2.11zm-8.87 0h-4.17a1.06 1.06 0 0 1 0-2.11h4.17a1.06 1.06 0 0 1 0 2.11z" class="W"/><path d="M71.84 16.75a6.72 6.72 0 1 1 6.72 6.72 6.73 6.73 0 0 1-6.72-6.72zm2.11 0a4.61 4.61 0 1 0 4.61-4.6 4.62 4.62 0 0 0-4.56 4.6z" class="N"/><path d="M44.88 42.34a6.72 6.72 0 1 1 6.72 6.72 6.72 6.72 0 0 1-6.72-6.72zm2.11 0a4.61 4.61 0 1 0 4.61-4.6 4.61 4.61 0 0 0-4.6 4.6z" class="R"/><path d="M30.92 51.77A1.06 1.06 0 0 0 32 50.71v-4.64a1.06 1.06 0 0 0-2.11 0v4.64a1.06 1.06 0 0 0 1.03 1.06zm0 8.12a1.05 1.05 0 0 0 1.06-1V54.2a1.06 1.06 0 1 0-2.11 0v4.64a1 1 0 0 0 1.05 1.05zm-6.52-6.38h4.18a1.06 1.06 0 0 0 0-2.11H24.4a1.06 1.06 0 0 0 0 2.11zm8.87 0h4.17a1.06 1.06 0 1 0 0-2.11h-4.17a1.06 1.06 0 0 0 0 2.11z" class="N"/><path d="M55.19 16.07A1.06 1.06 0 0 0 56.24 15v-4.63a1.05 1.05 0 1 0-2.1 0V15a1.06 1.06 0 0 0 1.05 1.07zm0 8.12a1 1 0 0 0 1.05-1.05V18.5a1.05 1.05 0 1 0-2.1 0v4.64a1 1 0 0 0 1.05 1.05zm-6.52-6.38h4.17a1.06 1.06 0 1 0 0-2.11h-4.17a1.06 1.06 0 0 0 0 2.11zm8.87 0h4.17a1.06 1.06 0 0 0 0-2.11h-4.17a1.06 1.06 0 1 0 0 2.11z" class="W"/><path d="M256 17.24a.78.78 0 0 1-.37-.06l-2-.79A.75.75 0 0 1 254 15l2.14.83a.75.75 0 0 1 .4 1 .76.76 0 0 1-.54.41zm38.07 40.1l1.42 4.16a.76.76 0 0 0 .79.53h.14a.75.75 0 0 0 .5-.94l-1.45-4.24a.74.74 0 0 0-1-.44.76.76 0 0 0-.4.93zm2.59 8.4l.92 4.3a.74.74 0 0 0 .81.61h.06a.76.76 0 0 0 .6-.87l-.94-4.38a.74.74 0 0 0-.91-.55.73.73 0 0 0-.54.89zm3.15 22.58a.75.75 0 0 0 .67-.73v-4.47a.75.75 0 0 0-1.5 0v4.41a.76.76 0 0 0 .74.76zm-.91-14.77a.74.74 0 0 0-.64.83l.24 2 .21 2.35a.76.76 0 0 0 .81.69h0a.74.74 0 0 0 .66-.8l-.22-2.39-.24-2.07a.75.75 0 0 0-.82-.65zm-6.49-20.27a.75.75 0 0 0 .76.44.9.9 0 0 0 .22-.06.75.75 0 0 0 .38-1l-2-4a.745.745 0 1 0-1.32.69l1.96 3.93zM259.57 19l3.85 2.12a.68.68 0 0 0 .46.1.71.71 0 0 0 .56-.36.73.73 0 0 0-.26-1l-3.93-2.17a.75.75 0 1 0-.68 1.33zm11.14 7.08a.75.75 0 1 0 .91-1.19l-3.64-2.61a.73.73 0 0 0-1 .2.75.75 0 0 0 .2 1l3.53 2.6zm12.57 12.24a.72.72 0 0 0 .66.28.74.74 0 0 0 .5-1.21l-2.91-3.41a.73.73 0 0 0-1 0 .74.74 0 0 0-.06 1l2.81 3.34zm-5.91-6.5a.75.75 0 0 0 1.06 0 .75.75 0 0 0 0-1.06l-3.31-3a.745.745 0 1 0-.97 1.13l3.22 2.93zm10.95 13.69a.75.75 0 0 0 .72.36.77.77 0 0 0 .31-.11.75.75 0 0 0 .25-1l-2.46-3.75a.74.74 0 0 0-1-.18.75.75 0 0 0-.19 1l2.37 3.68z" fill="#bbe2f2"/><path d="M255.95 12.12L259.22 0l-40.09.34 36.82 11.78z" class="R"/><g class="N"><path d="M219.13.34L254 15.05l.1.04 1.5 2.48.35-5.45L219.13.34z"/><path d="M255.6 17.57l-3.25-.51 1.75-1.97 1.5 2.48z"/></g><path d="M249.71 13.24l4.39 1.85-9.04 10.18L219.13.34l30.58 12.9z" class="R"/><rect x="29.12" y="323.35" width="411.21" height="15.99" rx="7.63" class="W"/><path d="M440.33 331v.37H29.12V331a7.63 7.63 0 0 1 7.63-7.63h396a7.64 7.64 0 0 1 7.58 7.63z" class="N"/><rect x="165.55" y="223.5" width="135.15" height="75.84" rx="5.38" class="P"/><path d="M222.66 299.26h20.93v23.86h-20.93z" class="S"/><circle cx="232.89" cy="262.35" r="10.39" fill="#1d567e"/><path d="M212.44 314.65h40.7a6.65 6.65 0 0 1 6.65 6.65v1.82a0 0 0 0 1 0 0h-54a0 0 0 0 1 0 0v-1.82a6.65 6.65 0 0 1 6.65-6.65z" class="P"/><defs ><path id="B" d="M340.62 93.32a6.47 6.47 0 1 1 6.47-6.47 6.47 6.47 0 0 1-6.47 6.47zm0-11.93a5.46 5.46 0 1 0 5.46 5.46 5.47 5.47 0 0 0-5.46-5.46z"/><path id="C" d="M214.12 271.22a3.47 3.47 0 1 1-3.46-3.47 3.46 3.46 0 0 1 3.46 3.47z"/><path id="D" d="M204.34 285.48a3.47 3.47 0 1 1-3.47-3.47 3.46 3.46 0 0 1 3.47 3.47z"/><path id="E" d="M226.15 83.74c0 1.25-.65 2.28-1.45 2.28s-1.45-1-1.45-2.28.65-2.29 1.45-2.29 1.45 1.03 1.45 2.29z"/></defs></svg>