<svg xmlns="http://www.w3.org/2000/svg" xmlns:xlink="http://www.w3.org/1999/xlink" viewBox="0 0 609.51 321.64" xmlns:v="https://vecta.io/nano"><style><![CDATA[.B{isolation:isolate}.R,.W,.G{mix-blend-mode:multiply}.X,.Z{mix-blend-mode:overlay}.d{fill:#fec4ad}.e{fill:none}.f{fill:#42b2fc}.g{stroke-miterlimit:10}.h{fill:#133a50}.i{stroke:#194459}.j{fill:#4fae86}.k{fill:#319188}.l{fill:#ff3a46}.m{fill:#471a16}]]></style><defs><clipPath id="A"><rect x="114.36" y="213.62" width="162.3" height="107.16" rx="14.22" class="e"/></clipPath><radialGradient id="B" cx="131.49" cy="252.06" r="67.18" gradientUnits="userSpaceOnUse"><stop offset="0" stop-color="#fff"/><stop offset="1" stop-color="#fff" stop-opacity="0"/></radialGradient><linearGradient id="C" x1="195.51" y1="213.62" x2="195.51" y2="280.52" gradientUnits="userSpaceOnUse"><stop offset="0" stop-color="#ffd71d"/><stop offset="1" stop-color="#feb200"/></linearGradient><linearGradient id="D" x1="484.79" y1="217.37" x2="438.29" y2="217.37" gradientUnits="userSpaceOnUse"><stop offset="0" stop-color="#343a44"/><stop offset=".3" stop-color="#232d3e"/><stop offset=".64" stop-color="#182439"/><stop offset="1" stop-color="#142138"/></linearGradient><linearGradient id="E" x1="473.42" y1="211.03" x2="407.63" y2="211.03" xlink:href="#D"/><path id="F" d="M186.54 277.14l-72.18-63.52h162.3l-72.18 63.52a13.58 13.58 0 0 1-17.94 0z"/></defs><g class="B"><path d="M68.11 198.89c-30.77 19.35-46.88 62.95-22 121.06h490.08c8.32-21.05 13.29-48.71 14.86-65.17 3.41-35.91-8.8-73.22-30.32-92.92C466.27 112 421 181.26 392.36 152c-16.53-16.9-15-64.31-27.89-86.33C335.93 17.08 282.19-6.88 229.2 1.72c-35.25 5.72-67.06 24.38-86.46 56-26.57 43.24-7.22 74.21-19 104.1-13.03 33.26-35.07 24.18-55.63 37.07z" fill="#afb3bd"/><path d="M111.7 122.67c-.07.28 4.47-2.55 4.47-2.55l1.92-3 3.23-1.86c1.35-.65 3.82-4.68 3.82-4.68l-1-1.23a16.35 16.35 0 0 1-1.88 2 2.42 2.42 0 0 1-1.41 0 24.93 24.93 0 0 1 1.09-3 27.69 27.69 0 0 1 3.05-4.67l-.87-.91a23.6 23.6 0 0 0-1.87 2l-1.45 2a27.75 27.75 0 0 1 1.6-3.34c.62-.91 1.28-2.14 1.28-2.14l-1-.69a22.69 22.69 0 0 0-1.76 2.52l-1.71 2.86a34.92 34.92 0 0 1 1.26-3.53 11.49 11.49 0 0 0 .57-1.19l-1.18-.41a9.65 9.65 0 0 0-1.39 2.5 14.42 14.42 0 0 1-.9 2.06 13.63 13.63 0 0 1 .74-3 2.62 2.62 0 0 0 .4-1l-1-.18-2.8 5.49c-.96 2.1-1.73 4.94-2.27 6.47a59.21 59.21 0 0 0-1.26 6.77z" fill="#f5c5b3"/><path d="M140.05 142.79l-23.3-4a77.59 77.59 0 0 1-.25-11.94c.41-7 1.26-8.91 1.26-8.91l-6.25-.87-2.12 9.44c-2 8.75-3.75 16.95-2.25 18.77 2.17 2.65 21.56 8 28.19 13 3.99 3.01 3.76-6.58 4.72-15.49z" class="f"/><path d="M173.08 209.03l-1.18 8.06 2.43 5.52 1.78-2.41.41-4.5 2.63.4 1.29-1.62-.11-3.38-.43-9.18-6.82 7.11z" class="d"/><path d="M171.44 147.61c-1.79-.66-7.65-.23-7.65-.23s-.55 6.26 1.83 11.09 8.27 22.42 9 24.08-1.54 26.45-1.54 26.45l8.55-1.76s4.13-19.15 4.1-24-4.59-23.09-7.83-28.9-2.1-5.12-6.46-6.73z" class="f"/><path d="M157.34,129.7s-1.88,8.26-.4,10.18c.86,1.12,4.52,5.13,4.52,5.13s-12.12,6.4-15.69,6.4-2.31-7.14-2.31-7.14,3.88-3.08,4.46-4.63a34.65,34.65,0,0,0,.9-6Z" class="d"/><g fill="#f5c5b3"><path d="M158.76 130s-.13-3 2.38-2.93c1.61 0 1.74 1.52.48 3.42-.52.8-.58 2.61-1.23 3.2s-1.46-.39-1.71-.89a6 6 0 0 1 .08-2.8zm-13.57 0s.14-3-2.38-2.93c-1.61 0-1.73 1.52-.48 3.42.53.8.58 2.61 1.24 3.2s1.46-.39 1.7-.89a6 6 0 0 0-.08-2.8z"/><path d="M161.32 122.65a29.15 29.15 0 0 1-.51 3.06l-.19 1.21-1.47 9.25c-.47 1.21-3.05 3.18-4.27 3.9a7.36 7.36 0 0 1-5.53-.15c-1.22-.72-4-2.54-4.46-3.75-.29-.75-1-5.8-1.5-9.47l-.18-1.1a29.21 29.21 0 0 1-.49-2.95c-.19-3.05 3.24-7.49 9.3-7.49 7.16 0 9.49 4.44 9.3 7.49z"/></g><path class="G" d="M145.75 118.81a14.47 14.47 0 0 1 11.09.4l2.14-1.36a17.52 17.52 0 0 0-7.59-1.6c-4.48.04-5.64 2.56-5.64 2.56z" fill="#e8d4e5"/><g fill="#7b2b1a"><path d="M160.81 125.71l-.19 1.21-1.47 9.25c-.47 1.21-3.05 3.18-4.27 3.9a7.36 7.36 0 0 1-5.53-.15c-1.22-.72-4-2.54-4.46-3.75-.29-.75-1-5.8-1.5-9.47l-.18-1.1.5-.73s.89 5.23 2.26 6.85 1.62 1.7 1.62 1.7l2.8-.69h.22a6.54 6.54 0 0 1 3.26 0l.17.05.21.06 2.11.61s.5-.07 1.86-1.7 2-6.85 2-6.85z"/><path d="M161.76 120.7c0 .1-.52 3.66-.72 4.23l-.54 1.48-.37-.79a11.83 11.83 0 0 1-1.08-4.71l-.07-3.06 1-.9c2.02.3 2.24 1.46 1.78 3.75zm-15.89-2.7h0l-.49 3.15a11.78 11.78 0 0 1-1.46 4.14v.07l-.55 1-.4-1.35c-.16-.58-.58-3.56-.68-4 0-.14-.06-.26-.08-.39-.43-2.23 0-3.17 2-3.47z"/><path d="M160 117l-1 .9-1.94.7a15.24 15.24 0 0 0-6.82-1.23c-3.88.3-4.41 1.42-4.47 1.49h0l-.4-.09-1.91-.41-.39-.09a12.72 12.72 0 0 1 .76-2.16c1.53-2.3 5.68-3.79 9.46-3.41h.38a9.1 9.1 0 0 1 5.14 2.12z"/></g><g class="h"><path d="M169.45 312.84v7.56h-14.53s.54-2.73 7.43-4l1-3.56zm-22.1 0v7.56h-14.54s.55-2.73 7.44-4l1-3.56z"/><path d="M167 200.29s2 24.35 2.1 44.21l1.25 70.07h-8l-11.27-61c-3-12.78-10.82-53.05-10.82-53.05z"/><path d="M149.57 226.44l-1.81 36.22c-.3 5.96 0 51.88 0 51.88s-7.51.21-7.51 0-7.09-48.9-8-63.58-.38-32.09-1.6-34.12 3.29-16.45 3.29-16.45l10.64 2.83z"/></g><path d="M146.29,141.52s-3.33,7.56,1.69,8.4c8,1.32,10.4-8.88,10.4-8.88l8.79,4.53S167,200.29,170.46,217c2,9.7-31.37,5.08-36.27-3.53-4.24-7.45,8-69.37,8-69.37Z" fill="#fff"/><path d="M160.44 142c-.24.33-12 34.84-8 67.32.94 7.57 14.75 1.31 18 1.31l1.95-33.25c.38-9.01-3.91-12-3.53-16.39s5.18-12.28 5.18-12.28zm-19.71 70.75c1.35-22.58 1.9-69.84 1.9-69.84l-8-.59-4 44.14c0 1.8.54 23.56-.67 27.64 2.68.4 10.61 1.37 10.77-1.35z" class="f"/><path d="M227.5 129.7c-6.26 2.14-12.68 4.39-17.65 8.75s-8.17 11.43-6.07 17.7 10.8 9.92 15.84 5.64c1.81-1.53 2.93-4.17 2-6.34-1.92-4.28-8.62-2.28-11.76 1.22-3.72 4.14-6.09 9.81-5.17 15.3s5.72 10.43 11.29 10.43 13.51-8.41 8.74-11.29c-6.05-3.66-13.84 5-16.82 11.47s-1.11 15.1 5 18.71 20.37-1 16.63-7c-4-6.35-15.64 2.8-17.19 10.12s4.17 15.33 11.6 16.23 20.28-7.55 15.14-13c-7.42-7.84-19.8 12.14-16.23 22.34s18.34 14.25 26.62 7.32c1.55-1.3 2.95-3.16 2.66-5.17-.47-3.33-5-4.27-8.24-3.2-8.34 2.78-12.11 14.46-7 21.6s17.41 7.27 22.69.24a6 6 0 0 0 1.46-4.76c-.52-2.34-3.29-3.66-5.64-3.22a9.21 9.21 0 0 0-5.59 4.2c-4.76 7.05-3.16 17.64 3.48 23s17.32 4.59 23.17-1.58c1.53-1.61 2.79-3.77 2.38-5.95-.46-2.52-3.15-4.21-5.72-4.14a10 10 0 0 0-6.69 3.37c-7.46 7.76-4.27 22.77 5.71 26.81s29.77-7.09 22.76-15.27c-4.68-5.46-13.91 6.35-12.73 13.45s9.34 11.92 16.3 10.1 16.07-11.78 10.7-16.58c-3.8-3.38-10 3.77-11.13 8.72a11.67 11.67 0 0 0 6 12.79c4.91 2.42 10.93 1 15.66-1.8s8.65-6.72 13.2-9.77a41.34 41.34 0 0 1 31.55-5.91" stroke="#fff" stroke-width="2" class="e g"/><path d="M543.06 162.28c-10.13-6.46-100.42 69.65-97.11 129.79 0 0 17.58-23.74 32.9-35.31s16.81-23.68 16.78-35.67 22.89-7 25.47-20.34c4.56-23.54 31.08-32.65 21.96-38.47z" class="j"/><path d="M549 218.31c-14.58 8.83-10.29 20.61-18.89 27.49-6.26 5-16.69 2.39-21.9 9.2-5.86 7.68.81 18.24 1.3 27.5.68 12.78-10.72 22.36-22.3 26.25-13.46 4.51-30.87 3.1-38.23-10.28-8.69-15.79-2.19-39.59 13.06-47 3.71-1.8 8.41-2.29 11.44-5.93 5.1-6.16 1.83-15 4.19-22.84 2.31-7.63 9.85-13 16.8-15.37s14-2.86 20.82-5.62c9.25-3.76 17.35-12 25.05-17.58 6.87-5 31-14.28 34.9 2 3.57 14.87-13.99 24.76-26.24 32.18z" class="k"/><g class="e g"><path d="M550.5,194.57s-59.63,30-107.2,126.65" class="i"/><path d="M586.5,239.73s-76.66-.85-140.36,72.22" stroke="#fff"/></g><path d="M548.49 273.92c-7.31 2.92-9.29 15.24-17.16 16.8-5.72 1.14-11.83-3.93-17.42-1.3-6.31 3-5.2 11.85-7.77 17.89-3.56 8.34-14.14 10.71-23.05 9.39-10.34-1.52-21.46-8.1-22.15-19-.81-12.87 11-25.86 23.43-25.59 3 .06 6.3 1.29 9.45 0 5.32-2.25 5.92-8.94 9.95-13.14s10.62-5 16-4.28 10.21 2.76 15.58 3.22c7.32.64 15.29-2 22.14-3 6.12-.91 31.12-.43 22.55 12.66-5.95 9.04-21.82 2.43-31.55 6.35z" class="j"/><path d="M564.25,261.85S511,266.38,449.07,312.26" class="e g i"/><path d="M390.73,319.1s12.12-21.21,14.09-23.4c12.47-13.8,29-13.95,45.84-10.47,4.87,1,17.76,7.79,22.44,6.85,3.65-.73,8-14.58,19.68-13.85s12.37,14.58,12.37,14.58,7.32-16.09,19-14.61,11.67,12.35,2.92,20.41c0,0,18.59-5.58,36.63,3.06s9.43,20,9.43,20Z" class="k"/><path d="M66.45 162.28c10.13-6.46 100.42 69.65 97.11 129.79 0 0-17.58-23.74-32.9-35.31s-16.82-23.68-16.79-35.67-22.88-7-25.46-20.34c-4.57-23.54-31.08-32.65-21.96-38.47z" class="j"/><path d="M60.51,218.31c14.59,8.83,10.3,20.61,18.9,27.49,6.25,5,16.69,2.39,21.89,9.2,5.87,7.68-.8,18.24-1.29,27.5-.68,12.78,10.72,22.36,22.3,26.25,13.45,4.51,30.86,3.1,38.23-10.28,8.69-15.79,2.18-39.59-13.07-47-3.7-1.8-8.4-2.29-11.43-5.93-5.11-6.16-1.83-15-4.19-22.84-2.31-7.63-9.85-13-16.8-15.37s-14-2.86-20.82-5.62c-9.25-3.76-17.35-12-25-17.58-6.87-5-31-14.28-34.91,2C30.7,201,48.26,210.89,60.51,218.31Z" class="k"/><g class="e g"><path d="M59,194.57s59.62,30,107.19,126.65" class="i"/><path d="M23,239.73s76.67-.85,140.37,72.22" stroke="#fff"/></g><path d="M61 273.92c7.31 2.92 9.29 15.24 17.16 16.8 5.72 1.14 11.83-3.93 17.42-1.3 6.3 3 5.19 11.85 7.77 17.89 3.56 8.34 14.13 10.71 23 9.39 10.35-1.52 21.46-8.1 22.16-19 .81-12.87-11-25.86-23.43-25.59-3 .06-6.3 1.29-9.45 0-5.33-2.25-5.93-8.94-10-13.14s-10.62-5-16-4.28-10.21 2.76-15.58 3.22c-7.32.64-15.29-2-22.15-3-6.12-.91-31.11-.43-22.54 12.66 6.06 9.04 21.92 2.43 31.64 6.35z" class="j"/><path d="M45.26,261.85s53.25,4.53,115.17,50.41" class="e g i"/><path d="M218.78,319.1s-12.12-21.21-14.1-23.4c-12.46-13.8-29-13.95-45.83-10.47-4.87,1-17.77,7.79-22.44,6.85-3.65-.73-8-14.58-19.69-13.85s-12.37,14.58-12.37,14.58-7.31-16.09-19-14.61-11.66,12.35-2.91,20.41c0,0-18.59-5.58-36.64,3.06s-9.42,20-9.42,20Z" class="k"/><path d="M349.38 321h-18.86a4 4 0 0 1-4-3.67l-1.23-14.89h29.3l-1.24 14.89a4 4 0 0 1-3.97 3.67zm111.35 0h-18.86a4 4 0 0 1-4-3.67l-1.23-14.89H466l-1.23 14.89a4 4 0 0 1-4.04 3.67z" fill="#21295b"/><g class="l"><path d="M464,282.86H327.25l9.67-70.5a11.1,11.1,0,0,1,11-9.6h95.4a11.12,11.12,0,0,1,11,9.6Z"/><path d="M445.54 269.18H345.7l7.1-70.82a10.29 10.29 0 0 1 10.2-9.27h65.2a10.3 10.3 0 0 1 10.25 9.27z"/></g><path class="R" d="M329.44 266.85l-2.19 16.01H464l-2.2-16.01H329.44z" fill="#cfcfcf"/><path d="M478.8 310.21H312.45l3.08-36.14h160.19l3.08 36.14z" class="l"/><circle class="R" cx="395.62" cy="233.16" r="30.43" transform="matrix(.838005 -.545663 .545663 .838005 -63.14 253.61)" fill="#cfcfcf"/><circle cx="395.62" cy="233.16" r="26.32" transform="matrix(.999727 -.023385 .023385 .999727 -5.34 9.31)" fill="#fff"/><path d="M403 254.8a3.4 3.4 0 0 1-2.42-1 2.34 2.34 0 0 1-.42-.52 2.82 2.82 0 0 1-.32-.59 4.61 4.61 0 0 1-.2-.63 3.92 3.92 0 0 1-.07-.68 3.42 3.42 0 0 1 4.09-3.34 2.94 2.94 0 0 1 .64.19 4.68 4.68 0 0 1 .59.31 4.4 4.4 0 0 1 .52.43 3.48 3.48 0 0 1 1 2.41 5.2 5.2 0 0 1-.06.68 4.61 4.61 0 0 1-.2.63 4.14 4.14 0 0 1-.31.59 3.13 3.13 0 0 1-.43.52 3 3 0 0 1-.52.42 2.59 2.59 0 0 1-.59.32 3.61 3.61 0 0 1-.64.19 3 3 0 0 1-.66.07zm-10.61 1.2h0a3.41 3.41 0 0 1-2.9-3.86h0a3.4 3.4 0 0 1 3.86-2.9h0a3.41 3.41 0 0 1 2.9 3.86h0a3.42 3.42 0 0 1-3.38 2.94h0a2.59 2.59 0 0 1-.48-.04zm-11-4.66h0a3.43 3.43 0 0 1-.59-4.81h0a3.42 3.42 0 0 1 4.79-.58h0a3.41 3.41 0 0 1 .59 4.79h0a3.39 3.39 0 0 1-2.7 1.32h0a3.42 3.42 0 0 1-2.07-.72zm-7.18-9.55a3.4 3.4 0 0 1 1.89-4.44h0a3.42 3.42 0 0 1 4.45 1.88h0a3.43 3.43 0 0 1-1.9 4.45h0a3.39 3.39 0 0 1-1.28.25h0a3.4 3.4 0 0 1-3.14-2.14zm1.45-8a3.41 3.41 0 0 1-2.91-3.86h0a3.41 3.41 0 0 1 3.86-2.9h0a3.41 3.41 0 0 1 2.91 3.86h0a3.42 3.42 0 0 1-3.38 2.93h0a3.75 3.75 0 0 1-.46-.02zm2.34-10.04a3.42 3.42 0 0 1-.6-4.79h0a3.41 3.41 0 0 1 4.8-.6h0a3.42 3.42 0 0 1 .59 4.8h0a3.41 3.41 0 0 1-2.69 1.31h0a3.38 3.38 0 0 1-2.1-.72zm27.58-3.4a3.41 3.41 0 0 1-.59-4.79h0a3.41 3.41 0 0 1 4.79-.6h0a3.43 3.43 0 0 1 .6 4.8h0a3.44 3.44 0 0 1-2.7 1.32h0a3.46 3.46 0 0 1-2.07-.73zm-20.52-4.13a3.41 3.41 0 0 1 1.88-4.45h0a3.42 3.42 0 0 1 4.45 1.89h0a3.42 3.42 0 0 1-1.89 4.45h0a3.54 3.54 0 0 1-1.28.24h0a3.39 3.39 0 0 1-3.13-2.13zm12.77.85a3.42 3.42 0 0 1-2.9-3.86h0a3.41 3.41 0 0 1 3.86-2.9h0a3.41 3.41 0 0 1 2.91 3.86h0a3.43 3.43 0 0 1-3.38 2.93h0zm16.02 12.16a3.6 3.6 0 0 1-.66-.07 3.5 3.5 0 0 1-.65-.2 3.23 3.23 0 0 1-.58-.31 3.69 3.69 0 0 1-.53-.43 3.44 3.44 0 0 1-1-2.41 3.05 3.05 0 0 1 .07-.67 3 3 0 0 1 .2-.64 3.32 3.32 0 0 1 .31-.59 3.54 3.54 0 0 1 .42-.52 3.06 3.06 0 0 1 .57-.39 3 3 0 0 1 .58-.32 3.48 3.48 0 0 1 .65-.19 3.44 3.44 0 0 1 3.07.93 2.64 2.64 0 0 1 .43.52 2.77 2.77 0 0 1 .31.59 3 3 0 0 1 .2.64 3.05 3.05 0 0 1 .07.67 3.45 3.45 0 0 1-3.42 3.42z" fill="#b3b3b3"/><path d="M356.38 122.3a14.58 14.58 0 0 1 2.93-15.3s24.75 16 52.41 11.51c0 0 3 8.34-5.47 16.07 0 .04-29.61 5.65-49.87-12.28z" fill="#d6313b"/><path d="M398.75 86.81c-17.81-15-51.55-17.13-94.25-10.26-36.72 5.91-74.11 19.78-86.59 39.37-5.69 8.92-1.83 33.7-1.83 33.7 33.83 2.12 46.22-27 46.22-27s-2.27-8.25 5.31-11.9c26.52-12.72 67.63-17.08 82.92-13.31a11.32 11.32 0 0 1 8.78 9.63s20.89 23.72 52.34 11.1c0 0-4.82-24.51-12.9-31.33z" class="l"/><path d="M269.21 136a14.61 14.61 0 0 0-7.58-13.58s-18.46 23-46.15 27.38c0 0-.26 8.88 10.24 13.54 0-.05 29.88-4.01 43.49-27.34z" fill="#d6313b"/><g clip-path="url(#A)"><g fill="#ffd71d"><rect x="114.36" y="213.62" width="162.3" height="107.16" rx="14.22"/><path class="W" d="M276.66,227.84a14.22,14.22,0,0,0-14.22-14.22H128.58a14.22,14.22,0,0,0-14.22,14.22L188,287.51a11.87,11.87,0,0,0,14.93,0Z"/></g><path class="X" d="M123.83 309.73V231a14.23 14.23 0 0 1 14.22-14.23h133.23a14.15 14.15 0 0 0-8.84-3.16H128.58a14.22 14.22 0 0 0-14.22 14.22v78.72a14.22 14.22 0 0 0 14.22 14.23h.63a14.16 14.16 0 0 1-5.38-11.05z" opacity=".7" fill="url(#B)"/><use xlink:href="#F" fill="url(#C)"/><use xlink:href="#F" class="Z" opacity=".7" fill="#fd0"/></g><path d="M325.23 148.8l4.94-14.8c1.91-8.66 2.43-27.44 2.31-31.44s-.49-7.5-.57-8-2.55-3.21-2.56-3.17a5.16 5.16 0 0 1-.77.08v.5l-1.1-.97h-.9l-.09.42-1.27-.61h-1.23l1.24 4.07c.45 1.54 0 1.67 0 1.67a3.31 3.31 0 0 1-1.37.26 9.65 9.65 0 0 0-1.74-.08s3.72 4.85 3.9 5.3a8.82 8.82 0 0 1 1.5 7 180 180 0 0 1-5.32 19.41c.12-.27-5 14.39-5 14.39z" class="d"/><path d="M322.74 166.44c1.43-11.22 7.18-24.32 7.18-24.32s-8.78-1.74-11-4.86c0 0-3 7.39-4.77 11.06-1.92 4.06-4.62 8.49-1.23 10.9s9.33 11.13 9.82 7.22z" class="f"/><g class="h"><path d="M289.12 313.69v7.21H303s-.52-2.61-7.1-3.81l-1-3.4zm21.08 0v7.21h13.86s-.52-2.61-7.09-3.81l-1-3.4z"/><path d="M291.45 206.33s-1.94 20.15-2 39.1l-1.2 69.91h7.65l10.76-61.25c2.87-12.18 10.34-47.54 10.34-47.54z"/></g><path d="M303.21 139.48l-.9 5.82a15.88 15.88 0 0 1-1.05 3.6c-.66 1.33-4.73 5.37-4.73 5.37s12.69 6.7 16.41 6.7 2.43-7.48 2.43-7.48-4.07-3.21-4.68-4.84a36.88 36.88 0 0 1-.94-6.32z" class="d"/><path d="M308.08 228.2l1.72 37.62c.28 5.68 0 49.5 0 49.5s7.17.19 7.17 0 6.76-49.73 7.64-63.74S325 221 326.13 219 323 206.42 323 206.42l-10.14-.37z" class="h"/><path d="M299.11 150.5s-10.7-4.29-12.48-.77c-1.33 2.67-.18 19.81.41 24.59.52 4.17 3.4 39.21 3.4 39.21s4 6.2 23.27 3.73c7.43-.95 11.08-4.57 11.08-4.57l-2.66-46a90.32 90.32 0 0 0-2.55-10.74l-5.74-3.77s1.83 4-3.34 5.18c-10.43 2.31-11.39-6.86-11.39-6.86z" class="f"/><path d="M313.35 124.9c1.21.49 3.33 1.59 3.57 2.6a39.64 39.64 0 0 1 1.21 5.73l.36 7.25c-.01 2.1-1.26 6.34-1.74 6.79a10.44 10.44 0 0 1-5.2.84c-1.19-.34-8.18-4-8.62-8.39 0 0-1.24.65-3.51-3-.6-1 1.45-8.12 1.73-9.4.67-3.09 8.31-.65 10-1.14a3.74 3.74 0 0 0 2.2-1.28z" class="d"/><path d="M316.92 127.5s-5.36 3.35-7.45 3.53-5.15 3-5.1 3.93a1.92 1.92 0 0 1-.88 1.5s-1.3-2.07-2.36-1.85c-2.11.42-.87 3 .27 3.6a17.8 17.8 0 0 0 2.26.92 11.17 11.17 0 0 1 .1 2.24 10.27 10.27 0 0 1-.89 2.61s-2.47-5.2-4.69-7.15c-5.27-4.61-1.46-13.19 3.74-14.81 2.09-.65 7.85-1.08 10.65.18a7.64 7.64 0 0 1 4.35 5.3z" class="h"/><path d="M305.7 134.83c.08.21.63.25.73.3s.12.13 1.09 1.6c.71 1.09 1.9 1.44 4.13.7 1.7-.57 1.46-2 1.58-2.73s.27-.81.54-.86.42 0 .77.63.51 2.2 2.29 1.93c1.23-.18 1.55-.52 1.71-1.49a9.88 9.88 0 0 0 .14-2.35c0-.64-.06-1-.38-1.06a5.29 5.29 0 0 0-1.46.16 5.75 5.75 0 0 0-2.4.62c-.58.42-.51.67-.81.73s-.37-.21-1.05-.4a20.78 20.78 0 0 0-4.57.48c-1.06.19-2.51.59-2.48 1a2.77 2.77 0 0 0 .17.74zm9.16-1.57c.06-.52.1-.47 1.41-.77s1.44-.24 1.71 0a2.79 2.79 0 0 1 .32 2.12 1.44 1.44 0 0 1-1.26 1.51c-1.16.21-1.43-.37-1.75-1.17a4.85 4.85 0 0 1-.43-1.69zm-7.64.85c.18-.29 2-.53 3.29-.69s1.78-.22 2 .25a4.93 4.93 0 0 1 .16 1.71c0 .86-.2 1.62-2.28 2a2.24 2.24 0 0 1-2.78-1.24 2.47 2.47 0 0 1-.39-2.03zm-4.45 1.32l2.93-.6 1-1.44-3 .57a5.9 5.9 0 0 0-1.77.83 2.93 2.93 0 0 1 .84.64z" fill="#21295b"/><path d="M279.68 150l-2.56-17.55c-.14-8.87 4.36-20.79 5.27-24.68s1.53-3.27 1.71-3.78 6.63-1.5 6.63-1.5a17.34 17.34 0 0 1 2.13-.76c.41 0 2.11-.55 2.11-.55L294 103s-4 3-4.28 3.46a8.78 8.78 0 0 0-2.87 6.58l-.14 16.53c-.06-.29 3.8 16.44 3.8 16.44z" class="d"/><path d="M287 174.32c-2.72-7.73-9-28.51-9-28.51s9.27-2.33 11.89-5.16l4.42 13.13c1.44 4.27 3.61 9 0 11s-5.96 13.22-7.31 9.54z" class="f"/><path d="M466.33 187.29c2.41 2.24 4.11 1.49 7.73 13.86 2.31 7.9 10.73 47.77 10.73 47.77l-5 2.18c-6.81-19-6.8-19-14.75-34.5a68.55 68.55 0 0 1-5.46-14.89l-14.7-.88c-9.18-3.78-6-17.19-6-17.19s25.04 1.41 27.45 3.65z" fill="url(#D)"/><path d="M410.67 175.44l13.26-8.44 12.82 10 16 5.16-.09.05c6.43 2.23 13.77 5.48 16 7.57 2.41 2.24 7.15 5.42 3.32 17.73-2.44 7.86-13.1 47.7-13.1 47.7l-5.4-1 3.84-40.35 1.25-10.71s-35.67 3.89-47.16-2.18c-8.04-4.29-.74-19.1-.74-25.53z" fill="url(#E)"/><path d="M459.26 252.24s-.16 1.45-2.48 2.1a4 4 0 0 1-3.9-1.26l-.52 4.73 7.42 5.23h6.16l-3.33-3.7zm24.74-6.57a2.55 2.55 0 0 1-.92 3.36 3.93 3.93 0 0 1-4.1 0l.95 4.67 17.52-5.48z" class="h"/><g class="d"><path d="M463.82 127.66a37.46 37.46 0 0 1-2.92-3.48l-.67-3.05-2.09-2.53c-.91-.95-1.72-5-1.72-5l1.18-.71a14.86 14.86 0 0 0 .94 2.23 2.15 2.15 0 0 0 1.15.47 22 22 0 0 0 0-2.84 24.61 24.61 0 0 0-1.08-4.8l1-.48a21.45 21.45 0 0 1 .95 2.2l.57 2.12a23.49 23.49 0 0 0-.3-3.24c-.23-.94-.4-2.16-.4-2.16l1-.27a20.64 20.64 0 0 1 .69 2.62l.53 2.89a29.47 29.47 0 0 0 0-3.3 10.36 10.36 0 0 1-.1-1.17h1.1a8.68 8.68 0 0 1 .39 2.49 11.46 11.46 0 0 0 .11 2 12.19 12.19 0 0 0 .3-2.7 2.39 2.39 0 0 1 0-.91l.85.14.64 5.4c.16 2.03-.1 4.61-.12 6l-.05 2.56z"/><path d="M441.36 131.59a132.47 132.47 0 0 0 13.64 9.77s2.55-6.38 3.76-10.9l1.87-7.88 5.16-.42s-1.64 13.8-3.67 23.16c-2 9.1-4.45 7.48-6.63 7s-22.71-11.48-22.71-11.48l2.2-11.72s1.49-1.54 6.38 2.47z"/></g><g class="m"><path d="M419.66,98.45c1.1-.63,6.4-1.07,9.72,1,6.35,3.91,3.31,14.62,2.91,17.09s1.88,6.91,1.84,9.86-.74,4-2.94,6.87a5.44,5.44,0,0,0-.82,2.27,21,21,0,0,1-2.95-8.7c-.52-5.07-1.6-3.89-4.14-9.46s-2.64-14-2.64-14Z"/><path d="M425,102.08l-5.29-3.63a7.7,7.7,0,0,0-7.13,3.41c-2.62,4-3.53,9.82-4.12,14.19s-2.12,12.57-2,15.83,4.06,3.69,4.06,3.69l13.27-5.73a39.39,39.39,0,0,1-.12-14.42A72.16,72.16,0,0,0,425,102.08Z"/></g><g class="d"><path d="M429.36 103.19c.28 1.65 1.56 6.5 1.69 9.61s-.25 8.24-2.31 9.65-5.93.29-8.76-.89-3.51-3.15-4.07-5-.36-6.67.29-10.15a6.19 6.19 0 0 1 5.41-5.35c2.56-.46 7.75 2.13 7.75 2.13z"/><path d="M417.79,114.76s.73,7.74-.9,11.38c-1.12,2.51-5.67,3.57-5.67,3.57a25.64,25.64,0,0,0,4.39,13.67c4.57,6.71,18.83,9.2,18.83,9.2a62.11,62.11,0,0,0,4.26-11.89,13.87,13.87,0,0,0-2.51-11.13s-3.86-1.26-5.71-2c-4.5-1.69-4-8.84-4-8.84Z"/></g><path d="M426.46 132.69s-9.22-2.35-12-4.15l-9.14 5.46s-5.37 5.13 3.8 18.6c0 0 3.48 12.28-2.17 33.9 0 0 1.52 5.57 10.09 2.61 7.38-2.56 7.54-4.55 14-6.19 9.54-2.42 12-3.91 12-3.91-5-7.53-4.12-19.28-4.12-19.28s5.68-5.44 3.24-11c-3.51-8-4.69-19.37-4.69-19.37l-4.89-1.24a37.5 37.5 0 0 1-3.91 4.17 2.11 2.11 0 0 1-2.21.4z" class="f"/><path d="M430.48 127.6s-1.12 4.18-4 5.09c0 0 1.13 5.72 3.84 4.73 3.81-1.4 2.33-9.32 2.33-9.32zm-17.12.24s1.81 8.74 6.64 9.45 6.46-4.6 6.46-4.6-10.24-3-11.24-6.14z" fill="#fff"/><path d="M421.88 101c-.89.06-1.55 4.27-1.64 6.63s-3.61 4.2-2.06 9.37 1.35 10.17 3.43 15.84-.51 7.74-1.64 9.7a75.28 75.28 0 0 1-6-7.33 5.89 5.89 0 0 0-6.38-2.86s6.81-13.22 6.58-16.78-.86-9 2-12.26 5.71-2.31 5.71-2.31z" class="m"/><path d="M418.3,111.55s-1.9-2.07-3.15-1.76-1.32,2.19-.37,3.73,4.47,2.4,4.47,2.4Z" class="d"/><path d="M422.6 107.51a24.43 24.43 0 0 0 5.37-.39c3.43-.37 4.88.51 4.88.51l-1.3-5.71s-4-2.22-6.84-2.2c-3.61 0-6.77 1.4-5 2.57s2.89 5.22 2.89 5.22z" class="m"/><g class="d"><path d="M413.08 140.37l-2.71 27.55c6.51 5.7 15.73 15.17 15.73 15.17s-2.63 5.18-3.75 4.3c-9-7-19.23-11.17-20-16-1.2-8-1.62-28.2 1.34-34.76 2.31-5.11 10.04-3.85 9.39 3.74z"/><path d="M430.05 183.73c2.73 1 4.44 2 4.28 3-.11.7-2.44-.58-3.83-.53a7.77 7.77 0 0 0 3.31 3.25c1.8.88 2.81 2.12 1.85 3.16s-2.75 2.5-3.91 2-5.27-3.4-6.82-4.2-2.17-2.74-3-3.28 1.46-4.63 1.46-4.63l2.68.59a13.76 13.76 0 0 0 2.23.19 5.3 5.3 0 0 1 1.75.45z"/></g><path d="M0 320.42h609.51" class="e g i"/></g></svg>