<svg xmlns="http://www.w3.org/2000/svg" xmlns:xlink="http://www.w3.org/1999/xlink" viewBox="0 0 295.16 310.28" xmlns:v="https://vecta.io/nano"><style><![CDATA[.X{fill:#173d7a}.Y{fill:#d4ecff}.Z{fill:#5793ce}.a{fill:#ffc2b0}.b{fill:#fff}.c{fill:#983be9}.d{fill:#8a2ae3}.e{fill:#396caa}.f{fill:#b45ef4}.g{fill:#b2d3ea}.h{fill:#ea9c92}.i{fill:#6614cf}.j{fill:#fafdff}]]></style><defs><radialGradient id="A" cx="95.76" cy="230.06" r="49.45" gradientUnits="userSpaceOnUse"><stop offset="0" stop-color="#01c8ef"/><stop offset=".09" stop-color="#03bee9"/><stop offset=".24" stop-color="#08a5d7"/><stop offset=".43" stop-color="#107bbb"/><stop offset=".45" stop-color="#1177b8"/><stop offset="1" stop-color="#112564"/></radialGradient><path id="B" d="M134.88 120.13l-2.4-1.38a1.4 1.4 0 0 1-.58-1.11v-2.56c0-.43.26-.63.58-.44l2.4 1.38a1.4 1.4 0 0 1 .58 1.11v2.57c0 .42-.26.62-.58.43z"/><path id="C" d="M179.89 122.62l2.4-1.39a1.38 1.38 0 0 0 .58-1.11v-2.56c0-.43-.26-.63-.58-.44l-2.4 1.38a1.41 1.41 0 0 0-.58 1.11v2.57c0 .42.26.62.58.44z"/><path id="D" d="M116.94 126.56l2.4-1.39a1.38 1.38 0 0 0 .58-1.11v-2.56c0-.43-.26-.62-.58-.44l-2.4 1.39a1.38 1.38 0 0 0-.58 1.11v2.56c0 .43.26.62.58.44z"/><path id="E" d="M235.49 216.54l-51.06-29.48a6.38 6.38 0 0 1-2.66-5.09v-9.36c0-2 1.19-2.86 2.66-2l51.06 29.48a6.39 6.39 0 0 1 2.67 5.09v9.35c0 1.96-1.16 2.86-2.67 2.01z"/></defs><path d="M153.76 232.86l-64.41-36.73c-2.36-1.36-2.06-3.74.66-5.31l37.06-21.39c2.72-1.58 6.83-1.75 9.19-.39l64.41 36.73c2.36 1.36 2.07 3.74-.66 5.31L163 232.48c-2.77 1.57-6.88 1.74-9.24.38z" fill="#c4d9e8" opacity=".5"/><path d="M206.42 193.41h0V43l-59.79-15.62-11-6.36c-2.52-1.45-6.94-1.27-9.86.41l-10.27 5.93H83.6L93 172.52a2.85 2.85 0 0 0 1.7 2.64l59.66 45c2.53 1.46 6.94 1.27 9.86-.41l39.76-23c1.72-.91 2.53-2.17 2.44-3.34z" class="e"/><path d="M131.05,20.05a11.4,11.4,0,0,0-5.29,1.38l-10.27,5.93H83.6V178.13a2.85,2.85,0,0,0,1.7,2.64l69.1,39.41a8.82,8.82,0,0,0,4.57,1l.72-151.72Z" class="Y"/><path d="M155,220.49a11.26,11.26,0,0,0,7.88-.09V67.63H155Z" class="Z"/><path d="M154.4 69.44L85.3 30c-2.53-1.46-2.21-4 .7-5.69l39.76-23c2.92-1.68 7.34-1.86 9.86-.41l69.11 39.41c2.52 1.46 2.21 4-.71 5.69l-39.76 23c-2.92 1.72-7.33 1.9-9.86.44z" class="Y"/><path d="M204 43.28l-39.76 23c-2.92 1.68-7.33 1.87-9.86.41L85.3 27.25a3.93 3.93 0 0 1-1.3-1.12c-.83 1.39-.44 2.87 1.3 3.87l69.1 39.4c2.53 1.46 6.94 1.28 9.86-.4l39.76-23c2.26-1.31 2.95-3.14 2-4.57a5.57 5.57 0 0 1-2.02 1.85z" class="j"/><path d="M156.35 53.47l-46-26.66c-1.19-.69-1-1.88.33-2.67l18.6-10.74a5.14 5.14 0 0 1 4.62-.19l46 26.67c1.19.68 1 1.87-.33 2.66L161 53.28a5.11 5.11 0 0 1-4.65.19z" class="X"/><path d="M131.52 28l-2.67-1.54c-.16-.09-.14-.25 0-.36l2.58-1.49a.72.72 0 0 1 .64 0l2.66 1.54c.17.1.15.26 0 .37L132.15 28a.67.67 0 0 1-.63 0zm8.9 5.13l-2.66-1.54c-.17-.1-.15-.26 0-.37l2.58-1.49a.7.7 0 0 1 .63 0l2.67 1.54c.16.1.14.26-.05.37l-2.57 1.49a.72.72 0 0 1-.6 0zm8.91 5.12l-2.67-1.54c-.16-.1-.14-.26.05-.37l2.57-1.49a.69.69 0 0 1 .64 0l2.67 1.54c.16.09.14.25-.05.36L150 38.22a.73.73 0 0 1-.67.03zm8.9 5.12l-2.66-1.54c-.17-.1-.14-.26 0-.37l2.62-1.46a.69.69 0 0 1 .64 0l2.66 1.54c.17.09.15.26 0 .36l-2.58 1.49a.72.72 0 0 1-.68-.02z" class="Y"/><path d="M110.35 26.81h.05a2 2 0 0 1 .28-.19l18.6-10.74a5.15 5.15 0 0 1 4.62-.2l45.95 26.64c1.09-.78 1.15-1.84.05-2.47l-46-26.67a5.14 5.14 0 0 0-4.62.19l-18.6 10.74c-1.37.82-1.52 2.01-.33 2.7zm36.41 72.43L95.7 69.76a6.38 6.38 0 0 1-2.7-5.09v-9.36c0-2 1.19-2.86 2.66-2l51.06 29.48a6.36 6.36 0 0 1 2.67 5.09v9.35c.04 1.96-1.15 2.86-2.63 2.01z" class="Z"/><path d="M142.9 91l-2.4-1.39a1.38 1.38 0 0 1-.58-1.11v-2.59c0-.43.26-.62.58-.44l2.4 1.39a1.38 1.38 0 0 1 .58 1.11v2.56c0 .47-.26.62-.58.47zm-8.02-4.66l-2.4-1.34a1.38 1.38 0 0 1-.58-1.11v-2.61c0-.43.26-.63.58-.44l2.4 1.38a1.41 1.41 0 0 1 .58 1.11v2.57c0 .43-.26.62-.58.44z" class="X"/><path d="M146.76 133L95.7 103.56a6.39 6.39 0 0 1-2.7-5.1v-9.35c0-2 1.19-2.87 2.66-2l51.06 29.48a6.37 6.37 0 0 1 2.67 5.1V131c.04 2-1.15 2.89-2.63 2z" class="Z"/><path d="M142.9 124.77l-2.4-1.39a1.38 1.38 0 0 1-.58-1.11v-2.56c0-.43.26-.63.58-.44l2.4 1.38a1.41 1.41 0 0 1 .58 1.11v2.57c0 .43-.26.67-.58.44z" class="X"/><use xlink:href="#B" class="Y"/><path d="M146.76 166.83L95.7 137.35a6.38 6.38 0 0 1-2.7-5.09v-9.35c0-2 1.19-2.87 2.66-2l51.06 29.48a6.36 6.36 0 0 1 2.67 5.09v9.36c.04 1.94-1.15 2.84-2.63 1.99z" class="Z"/><use xlink:href="#B" x="8.02" y="38.43" class="Y"/><path d="M134.88 153.93l-2.4-1.38a1.41 1.41 0 0 1-.58-1.11v-2.57c0-.42.26-.62.58-.44l2.4 1.39a1.4 1.4 0 0 1 .58 1.11v2.56c0 .43-.26.63-.58.44z" class="X"/><path d="M146.76 200.63L95.7 171.15a6.38 6.38 0 0 1-2.7-5.09v-9.35c0-2 1.19-2.87 2.66-2l51.06 29.48a6.36 6.36 0 0 1 2.67 5.09v9.36c.04 1.94-1.15 2.84-2.63 1.99z" class="Z"/><path d="M142.9 192.36l-2.4-1.36a1.4 1.4 0 0 1-.58-1.11v-2.59c0-.42.26-.62.58-.43l2.4 1.38a1.4 1.4 0 0 1 .58 1.11v2.56c0 .43-.26.63-.58.44zm-8.02-4.63l-2.4-1.38a1.41 1.41 0 0 1-.58-1.11v-2.57c0-.43.26-.62.58-.44l2.4 1.39a1.38 1.38 0 0 1 .58 1.11v2.56c0 .43-.26.63-.58.44z" class="Y"/><path d="M172 99.24l26.16-15a6.38 6.38 0 0 0 2.66-5.09v-9.34c0-2-1.19-2.86-2.66-2L172 82.78a6.38 6.38 0 0 0-2.66 5.09v9.35c.02 1.97 1.21 2.87 2.66 2.02zm0 33.76l26.16-15a6.38 6.38 0 0 0 2.66-5.09v-9.36c0-2-1.19-2.86-2.66-2l-26.16 15a6.39 6.39 0 0 0-2.66 5.1V131c.02 2 1.21 2.89 2.66 2zm0 33.83l26.16-15a6.39 6.39 0 0 0 2.66-5.1v-9.35c0-2-1.19-2.86-2.66-2l-26.16 15a6.38 6.38 0 0 0-2.66 5.09v9.36c.02 1.95 1.21 2.85 2.66 2zm0 33.8l26.16-15a6.39 6.39 0 0 0 2.66-5.1v-9.35c0-2-1.19-2.87-2.66-2l-26.16 15a6.38 6.38 0 0 0-2.66 5.09v9.36c.02 1.95 1.21 2.85 2.66 2z" class="X"/><g class="b"><path d="M179.89 89.08l2.4-1.39a1.38 1.38 0 0 0 .58-1.11V84c0-.43-.26-.63-.58-.44l-2.4 1.44a1.41 1.41 0 0 0-.58 1.11v2.57c0 .38.26.58.58.4zm8.02-4.64l2.4-1.38a1.4 1.4 0 0 0 .58-1.11v-2.56c0-.43-.26-.63-.58-.44l-2.4 1.38a1.4 1.4 0 0 0-.58 1.11V84c0 .43.26.63.58.44z"/><use xlink:href="#C"/><path d="M187.91 118l2.4-1.38a1.4 1.4 0 0 0 .58-1.11v-2.56c0-.43-.26-.63-.58-.44l-2.4 1.38a1.4 1.4 0 0 0-.58 1.11v2.56c0 .44.26.61.58.44zm-8.02 38.72l2.4-1.38a1.4 1.4 0 0 0 .58-1.11v-2.56c0-.43-.26-.63-.58-.44l-2.4 1.38a1.4 1.4 0 0 0-.58 1.11v2.56c0 .43.26.63.58.44zm8.02-4.63l2.4-1.38a1.41 1.41 0 0 0 .58-1.11V147c0-.42-.26-.62-.58-.44l-2.4 1.39a1.38 1.38 0 0 0-.58 1.11v2.56c0 .46.26.66.58.47zm-8.02 38.24l2.4-1.38a1.4 1.4 0 0 0 .58-1.11v-2.56c0-.43-.26-.63-.58-.44l-2.4 1.38a1.4 1.4 0 0 0-.58 1.11v2.57c0 .42.26.62.58.43zm8.02-4.63l2.4-1.38a1.41 1.41 0 0 0 .58-1.11v-2.57c0-.42-.26-.62-.58-.44l-2.4 1.39a1.4 1.4 0 0 0-.58 1.11v2.56c0 .43.26.63.58.44z"/></g><path d="M90.81 270.34L26.4 233.61c-2.36-1.36-2.06-3.73.66-5.3l37.06-21.4c2.72-1.57 6.84-1.74 9.19-.38l64.42 36.73c2.35 1.36 2.06 3.73-.66 5.3L100 270c-2.72 1.53-6.83 1.7-9.19.34z" class="g"/><path d="M143.47 230.89h0V80.51L83.69 64.86l-11-6.35c-2.52-1.46-6.94-1.28-9.86.41l-10.29 5.93H20.65L30.1 210a2.83 2.83 0 0 0 1.69 2.64l59.66 45c2.53 1.46 6.94 1.27 9.86-.41l39.76-23c1.68-.91 2.49-2.17 2.4-3.34z" class="e"/><path d="M68.1 57.53a11.29 11.29 0 0 0-5.29 1.39l-10.27 5.93H20.65v150.76a2.88 2.88 0 0 0 1.7 2.65l69.1 39.4a8.94 8.94 0 0 0 4.58 1l.71-151.73z" class="Y"/><path d="M92.08,258a11.29,11.29,0,0,0,7.89-.09V105.12H92.08Z" class="Z"/><path d="M91.45 106.93l-69.1-39.41c-2.53-1.46-2.21-4 .71-5.69l39.75-22.95c2.92-1.69 7.34-1.87 9.86-.41l69.11 39.4c2.52 1.46 2.21 4-.71 5.69l-39.76 23c-2.92 1.64-7.31 1.83-9.86.37z" class="Y"/><path d="M141.07 80.77l-39.76 23c-2.92 1.69-7.33 1.87-9.86.41l-69.1-39.4a3.78 3.78 0 0 1-1.26-1.12c-.87 1.4-.48 2.91 1.26 3.91l69.1 39.41c2.53 1.46 6.94 1.27 9.86-.41l39.76-23c2.27-1.31 3-3.14 2-4.57a5.59 5.59 0 0 1-2 1.77z" class="j"/><path d="M93.4 91l-46-26.67c-1.19-.68-1-1.88.33-2.67l18.6-10.74a5.14 5.14 0 0 1 4.67-.23l46 26.67c1.19.68 1 1.88-.33 2.66L98 90.77a5.18 5.18 0 0 1-4.6.23z" class="X"/><path d="M68.57 65.49L65.9 64c-.16-.1-.14-.26 0-.37l2.57-1.49a.69.69 0 0 1 .64 0l2.66 1.53c.17.1.15.26 0 .37l-2.57 1.42a.7.7 0 0 1-.63.03zm8.9 5.12l-2.66-1.54c-.17-.1-.15-.26 0-.37l2.58-1.49a.69.69 0 0 1 .64 0l2.66 1.54c.17.09.14.26 0 .36l-2.58 1.49a.72.72 0 0 1-.64.01zm8.91 5.12l-2.67-1.54c-.16-.1-.14-.26.05-.37l2.57-1.49a.72.72 0 0 1 .64 0l2.67 1.54c.16.09.14.26 0 .37L87 75.7a.73.73 0 0 1-.62.03zm8.91 5.12l-2.67-1.54c-.16-.09-.14-.26 0-.37l2.57-1.48a.69.69 0 0 1 .64 0L98.54 79c.17.09.15.26 0 .37l-2.58 1.48a.7.7 0 0 1-.67 0z" class="Y"/><path d="M47.4 64.29h.05c.09-.06.17-.13.28-.19l18.6-10.74A5.11 5.11 0 0 1 71 53.2l46 26.63c1.09-.78 1.15-1.84 0-2.47L71 50.69a5.14 5.14 0 0 0-4.62.19L47.73 61.62c-1.37.79-1.52 1.99-.33 2.67zm36.42 72.43l-51.06-29.48a6.36 6.36 0 0 1-2.67-5.09v-9.36c0-2 1.19-2.86 2.67-2l51.06 29.48a6.38 6.38 0 0 1 2.66 5.09v9.36c0 1.95-1.19 2.85-2.66 2z" class="Z"/><path d="M80 128.45l-2.4-1.38A1.41 1.41 0 0 1 77 126v-2.57c0-.43.26-.62.58-.44l2.4 1.39a1.38 1.38 0 0 1 .58 1.11V128c-.03.44-.29.64-.56.45zm-8.07-4.63l-2.4-1.39a1.38 1.38 0 0 1-.58-1.11v-2.56c0-.43.26-.62.58-.44l2.4 1.39a1.38 1.38 0 0 1 .58 1.11v2.56c0 .43-.26.62-.58.44z" class="X"/><path d="M83.82 170.52L32.76 141a6.36 6.36 0 0 1-2.67-5v-9.36c0-2 1.19-2.86 2.67-2l51.06 29.48a6.38 6.38 0 0 1 2.66 5.09v9.35c0 1.91-1.19 2.81-2.66 1.96z" class="Z"/><path d="M80 162.25l-2.4-1.39a1.38 1.38 0 0 1-.58-1.11v-2.56c0-.43.26-.62.58-.44l2.4 1.39a1.38 1.38 0 0 1 .58 1.11v2.56c-.05.43-.31.62-.58.44z" class="X"/><path d="M71.93 157.62l-2.4-1.39a1.38 1.38 0 0 1-.58-1.11v-2.56c0-.43.26-.63.58-.44l2.4 1.38a1.41 1.41 0 0 1 .58 1.11v2.57c0 .43-.26.62-.58.44z" class="Y"/><path d="M83.82 204.32l-51.06-29.48a6.37 6.37 0 0 1-2.67-5.1v-9.35c0-2 1.19-2.86 2.67-2l51.06 29.48a6.39 6.39 0 0 1 2.66 5.1v9.35c0 1.94-1.19 2.85-2.66 2z" class="Z"/><path d="M80 196.05l-2.4-1.39a1.38 1.38 0 0 1-.58-1.11V191c0-.43.26-.63.58-.44l2.4 1.38a1.41 1.41 0 0 1 .58 1.11v2.57c-.05.38-.31.61-.58.43z" class="Y"/><path d="M71.93 191.41l-2.4-1.41a1.4 1.4 0 0 1-.58-1.11v-2.56c0-.43.26-.63.58-.44l2.4 1.38a1.4 1.4 0 0 1 .58 1.11V191c0 .4-.26.6-.58.41z" class="X"/><path d="M83.82 238.11l-51.06-29.48a6.36 6.36 0 0 1-2.67-5.09v-9.35c0-2 1.19-2.87 2.67-2l51.06 29.48a6.39 6.39 0 0 1 2.66 5.1v9.35c0 1.94-1.19 2.88-2.66 1.99z" class="Z"/><path d="M80 229.85l-2.4-1.39a1.4 1.4 0 0 1-.58-1.11v-2.56c0-.43.26-.63.58-.44l2.4 1.38a1.4 1.4 0 0 1 .58 1.11v2.57c-.05.42-.31.59-.58.44zm-8.07-4.64l-2.4-1.38a1.4 1.4 0 0 1-.58-1.11v-2.57c0-.42.26-.62.58-.43l2.4 1.38a1.4 1.4 0 0 1 .58 1.11v2.56c0 .43-.26.63-.58.44z" class="Y"/><path d="M109.07 136.72l26.16-15a6.39 6.39 0 0 0 2.67-5.09v-9.33c0-2-1.2-2.87-2.67-2l-26.16 15a6.38 6.38 0 0 0-2.66 5.09v9.36c0 1.92 1.19 2.82 2.66 1.97zm0 33.8l26.16-15a6.39 6.39 0 0 0 2.67-5.09v-9.36c0-2-1.2-2.86-2.67-2l-26.16 15a6.38 6.38 0 0 0-2.66 5.09v9.35c0 1.96 1.19 2.86 2.66 2.01zm0 33.8l26.16-15a6.39 6.39 0 0 0 2.67-5.09v-9.36c0-2-1.2-2.86-2.67-2l-26.16 15a6.39 6.39 0 0 0-2.66 5.1v9.35c0 1.94 1.19 2.85 2.66 2zm0 33.79l26.16-15a6.39 6.39 0 0 0 2.67-5.09v-9.36c0-2-1.2-2.86-2.67-2l-26.16 15a6.39 6.39 0 0 0-2.66 5.1v9.35c0 1.95 1.19 2.89 2.66 2z" class="X"/><g class="b"><use xlink:href="#D"/><path d="M125 121.93l2.4-1.39a1.38 1.38 0 0 0 .58-1.11v-2.56c0-.43-.26-.63-.58-.44l-2.4 1.38a1.41 1.41 0 0 0-.58 1.11v2.57c-.04.42.22.62.58.44zm-8.06 38.17l2.4-1.39a1.38 1.38 0 0 0 .58-1.11V155c0-.43-.26-.62-.58-.44l-2.4 1.39a1.38 1.38 0 0 0-.58 1.11v2.56c0 .47.26.66.58.48zm8.06-4.63l2.4-1.39a1.38 1.38 0 0 0 .58-1.11v-2.56c0-.43-.26-.63-.58-.44l-2.4 1.38a1.41 1.41 0 0 0-.58 1.11V155c-.04.45.22.65.58.47z"/><use xlink:href="#C" x="-62.95" y="71.59"/><path d="M125 189.57l2.4-1.38a1.4 1.4 0 0 0 .58-1.11v-2.56c0-.43-.26-.63-.58-.44l-2.4 1.38a1.4 1.4 0 0 0-.58 1.11v2.56c-.04.43.22.63.58.44zm-8.06 38.25l2.4-1.39a1.38 1.38 0 0 0 .58-1.11v-2.56c0-.43-.26-.63-.58-.44l-2.4 1.38a1.41 1.41 0 0 0-.58 1.11v2.57c0 .43.26.62.58.44zm8.06-4.64l2.4-1.38a1.4 1.4 0 0 0 .58-1.11v-2.56c0-.43-.26-.63-.58-.44l-2.4 1.38a1.4 1.4 0 0 0-.58 1.11v2.57c-.04.42.22.62.58.43z"/></g><path d="M242.49 282.56l-64.42-36.73c-2.35-1.36-2.06-3.73.66-5.3l37.07-21.4c2.72-1.57 6.83-1.74 9.19-.38l64.41 36.73c2.36 1.36 2.06 3.74-.66 5.31l-37.06 21.39c-2.68 1.57-6.83 1.75-9.19.38z" class="g"/><path d="M295.15 243.12h0V92.73l-59.79-15.64-11-6.36c-2.53-1.46-6.94-1.28-9.86.41l-10.27 5.93h-31.89l9.44 145.17a2.88 2.88 0 0 0 1.7 2.65l59.66 45c2.52 1.46 6.94 1.28 9.86-.41l39.76-23c1.67-.93 2.48-2.19 2.39-3.36z" class="e"/><path d="M219.78 69.75a11.41 11.41 0 0 0-5.29 1.39l-10.27 5.93h-31.89v150.77a2.87 2.87 0 0 0 1.69 2.64l69.11 39.4a8.92 8.92 0 0 0 4.57 1l.72-151.73z" class="Y"/><path d="M243.76,270.19a11.21,11.21,0,0,0,7.88-.09V117.34h-7.88Z" class="Z"/><path d="M243.13 119.15L174 79.75c-2.52-1.46-2.21-4 .71-5.7l39.78-22.95c2.92-1.69 7.33-1.87 9.86-.41l69.1 39.4c2.53 1.46 2.21 4-.7 5.7L253 118.74c-2.93 1.69-7.35 1.87-9.87.41z" class="Y"/><path d="M292.75,93l-39.76,23c-2.92,1.69-7.34,1.87-9.86.41L174,77a3.87,3.87,0,0,1-1.26-1.12c-.86,1.4-.47,2.91,1.26,3.92l69.11,39.4c2.52,1.46,6.94,1.28,9.86-.41l39.76-22.95c2.26-1.31,2.95-3.14,2-4.58A5.46,5.46,0,0,1,292.75,93Z" class="j"/><path d="M245.08 103.18l-46-26.67c-1.18-.68-1-1.87.34-2.66L218 63.11a5.15 5.15 0 0 1 4.62-.2l46 26.67c1.18.69 1 1.88-.33 2.67L249.7 103a5.14 5.14 0 0 1-4.62.18z" class="X"/><path d="M220.24 77.71l-2.66-1.54c-.17-.09-.15-.26 0-.37l2.58-1.48a.69.69 0 0 1 .64 0l2.66 1.54c.17.09.15.26 0 .37l-2.58 1.48a.72.72 0 0 1-.64 0zm8.91 5.12l-2.67-1.54c-.16-.09-.14-.26.05-.37l2.57-1.48a.73.73 0 0 1 .64 0l2.67 1.56c.16.09.14.26 0 .37l-2.57 1.48a.73.73 0 0 1-.69-.02zm8.91 5.17l-2.67-1.54c-.16-.09-.14-.26.05-.37l2.56-1.53a.73.73 0 0 1 .64 0l2.67 1.54c.16.09.14.26 0 .37l-2.57 1.48a.69.69 0 0 1-.68.05zm8.94 5.07l-2.66-1.54c-.17-.09-.15-.26 0-.37l2.58-1.48a.72.72 0 0 1 .64 0l2.66 1.54c.17.1.14.26 0 .37l-2.58 1.49a.69.69 0 0 1-.64-.01z" class="Y"/><path d="M199.07 76.51h.06c.09-.06.17-.13.28-.19L218 65.61a5.14 5.14 0 0 1 4.62-.19l45.95 26.64c1.09-.78 1.14-1.85.05-2.48l-46-26.67a5.15 5.15 0 0 0-4.62.2l-18.6 10.74c-1.4.79-1.51 1.98-.33 2.66zm36.42 72.43l-51.06-29.48a6.38 6.38 0 0 1-2.66-5.09V105c0-2 1.19-2.87 2.66-2l51.06 29.48a6.39 6.39 0 0 1 2.67 5.09v9.36c0 1.96-1.16 2.86-2.67 2.01z" class="Z"/><path d="M231.63 140.67l-2.4-1.38a1.4 1.4 0 0 1-.58-1.11v-2.56c0-.43.26-.63.58-.44l2.4 1.38a1.4 1.4 0 0 1 .58 1.11v2.56c0 .43-.21.63-.58.44zm-8.02-4.67l-2.4-1.38a1.41 1.41 0 0 1-.58-1.11V131c0-.42.26-.62.58-.44l2.4 1.39a1.38 1.38 0 0 1 .58 1.11v2.56c0 .38-.26.61-.58.38z" class="X"/><path d="M235.49 182.74l-51.06-29.48a6.38 6.38 0 0 1-2.66-5.09v-9.36c0-2 1.19-2.86 2.66-2l51.06 29.48a6.39 6.39 0 0 1 2.67 5.09v9.36c0 1.95-1.16 2.85-2.67 2z" class="Z"/><path d="M231.63 174.47l-2.4-1.38a1.41 1.41 0 0 1-.58-1.11v-2.57c0-.42.26-.62.58-.44l2.4 1.39a1.38 1.38 0 0 1 .58 1.11V174c0 .46-.21.66-.58.47z" class="X"/><path d="M223.61 169.84l-2.4-1.39a1.38 1.38 0 0 1-.58-1.11v-2.56c0-.43.26-.62.58-.44l2.4 1.39a1.38 1.38 0 0 1 .58 1.11v2.56c0 .43-.26.6-.58.44z" class="Y"/><use xlink:href="#E" class="Z"/><path d="M231.63 208.27l-2.4-1.39a1.38 1.38 0 0 1-.58-1.11v-2.56c0-.43.26-.62.58-.44l2.4 1.39a1.38 1.38 0 0 1 .58 1.11v2.56c0 .43-.21.63-.58.44z" class="Y"/><path d="M223.61 203.64l-2.4-1.39a1.38 1.38 0 0 1-.58-1.11v-2.56c0-.43.26-.63.58-.44l2.4 1.39a1.38 1.38 0 0 1 .58 1.11v2.56c0 .43-.26.62-.58.44z" class="X"/><use xlink:href="#E" y="33.8" class="Z"/><path d="M231.63 242.07l-2.4-1.39a1.38 1.38 0 0 1-.58-1.11V237c0-.43.26-.62.58-.44l2.4 1.39a1.38 1.38 0 0 1 .58 1.11v2.56c0 .44-.21.63-.58.45zm-8.02-4.63l-2.4-1.39a1.38 1.38 0 0 1-.58-1.11v-2.56c0-.43.26-.63.58-.44l2.4 1.38a1.41 1.41 0 0 1 .58 1.11V237c0 .42-.26.62-.58.44z" class="Y"/><path d="M260.75 148.94l26.16-15a6.39 6.39 0 0 0 2.66-5.1v-9.35c0-2-1.19-2.87-2.66-2l-26.16 15a6.39 6.39 0 0 0-2.67 5.09v9.36c0 1.95 1.2 2.85 2.67 2zm0 33.8l26.16-15a6.38 6.38 0 0 0 2.66-5.09v-9.35c0-2-1.19-2.87-2.66-2l-26.16 15a6.39 6.39 0 0 0-2.67 5.09v9.36c0 1.94 1.2 2.84 2.67 1.99zm0 33.8l26.16-15a6.38 6.38 0 0 0 2.66-5.09v-9.35c0-2-1.19-2.87-2.66-2l-26.16 15a6.39 6.39 0 0 0-2.67 5.09v9.35c0 1.95 1.2 2.85 2.67 2zm0 33.8l26.16-15a6.38 6.38 0 0 0 2.66-5.09v-9.36c0-2-1.19-2.86-2.66-2l-26.16 15a6.39 6.39 0 0 0-2.67 5.09v9.35c0 1.96 1.2 2.86 2.67 2.01z" class="X"/><g class="b"><path d="M268.62 138.78l2.4-1.38a1.41 1.41 0 0 0 .58-1.11v-2.57c0-.42-.26-.62-.58-.44l-2.4 1.39a1.38 1.38 0 0 0-.58 1.11v2.56c-.04.43.26.66.58.44z"/><use xlink:href="#D" x="159.7" y="7.59"/><path d="M268.62 172.32l2.4-1.38a1.41 1.41 0 0 0 .58-1.11v-2.57c0-.42-.26-.62-.58-.44l-2.4 1.39a1.38 1.38 0 0 0-.58 1.11v2.56c-.04.43.26.63.58.44z"/><use xlink:href="#D" x="159.7" y="41.13"/><path d="M268.62 206.43L271 205a1.38 1.38 0 0 0 .58-1.11v-2.56c0-.43-.26-.62-.58-.44l-2.4 1.39a1.38 1.38 0 0 0-.58 1.11V206c-.02.42.28.61.6.43zm8.02-4.63l2.4-1.39a1.38 1.38 0 0 0 .58-1.11v-2.56c0-.43-.26-.63-.58-.44l-2.4 1.38a1.41 1.41 0 0 0-.58 1.11v2.57c0 .43.26.64.58.44zm-8.02 38.2l2.4-1.39a1.38 1.38 0 0 0 .58-1.11V235c0-.43-.26-.62-.58-.44l-2.4 1.39A1.38 1.38 0 0 0 268 237v2.56c0 .44.3.67.62.44zm8.02-4.59L279 234a1.38 1.38 0 0 0 .58-1.11v-2.56c0-.43-.26-.63-.58-.44l-2.4 1.39a1.38 1.38 0 0 0-.58 1.11V235c.04.4.3.59.62.41z"/></g><path d="M190.12 306.38c-9 5.2-23.59 5.2-32.59 0s-9-13.62 0-18.81 23.59-5.2 32.59 0 9 13.62 0 18.81z" class="g"/><path d="M184.43 288.89a15.48 15.48 0 0 0-2.09-1h0l-4-1.79.3.7a26.32 26.32 0 0 0-9.45-.1l.19-.78-4.74 2.1h0a19.38 19.38 0 0 0-1.77.87c-5.95 3.44-5.95 9 0 12.44s15.6 3.44 21.55 0 5.97-9 .01-12.44z" class="c"/><g class="d"><path d="M178.71 292.13a11.16 11.16 0 0 1-10.1 0c-2.79-1.61-2.79-4.22 0-5.83a11.16 11.16 0 0 1 10.1 0c2.79 1.61 2.79 4.22 0 5.83z"/><path d="M173.66 290.33h0a2.43 2.43 0 0 1-2.43-2.43v-30.69h4.86v30.69a2.43 2.43 0 0 1-2.43 2.43z"/></g><path d="M175.37 258.33a3.94 3.94 0 0 1-3.51 0 1.07 1.07 0 0 1 0-2 3.88 3.88 0 0 1 3.51 0 1.08 1.08 0 0 1 0 2z" class="c"/><path d="M173.66 258.27h0a2 2 0 0 1-2-2v-28.82h3.94v28.85a2 2 0 0 1-1.94 1.97z" class="d"/><path d="M202,242.57v-1.13l1.59-.23,1.79-1.34a1.21,1.21,0,0,1,1.18-.05l1.31.77,1.31-.19v1.14h0a.46.46,0,0,1-.3.35l-4.17,1.85a1.3,1.3,0,0,1-1.09,0l-1.38-.8a.4.4,0,0,1-.24-.34Z" class="f"/><path d="M202.13 241.13l3.21-2.4a1.18 1.18 0 0 1 1.18 0l2.39 1.38c.34.19.3.51-.07.68l-4.17 1.85a1.3 1.3 0 0 1-1.09 0l-1.38-.8c-.3-.25-.33-.52-.07-.71z" class="d"/><path d="M196.71 246.58a2.65 2.65 0 0 0 1.29-.31l5-2.89a.57.57 0 1 0-.58-1l-5 2.88a1.68 1.68 0 0 1-1.42 0l-8.29-4.81a.58.58 0 1 0-.57 1l8.29 4.8a2.48 2.48 0 0 0 1.28.33z" class="f"/><path d="M148.74 236.03l8.01-4.66-4.49-2.03-3.84 2.73.32 3.96z" fill="url(#A)"/><path d="M200.19,229.12a11,11,0,0,1-1.35-.84l-17.07-12.51c-3.08-2.26-6.26-2.85-8.71-1.6-.07,0-.12.08-.18.11h0L149.28,228l2.12.71,8.26,3.74,11.23,8,8.86,4.71.41.08c2.06-1.74,4.38-3.23,5.65-5.77,2.19-3.84,8.3-4.94,11.9-8.06.36.23.72.45,1.08.64A8,8,0,0,0,200.19,229.12Z" class="d"/><path d="M207.67 223.47a1.56 1.56 0 0 0-1 .34h0l-23.07 13.35.84 3.45.87-.41c-1.32 2.06-3.35 3.41-5.18 5l2.6.55 22.6-13.14.31-.14a5.56 5.56 0 0 0 .87-.55h0 0c1.72-1.33 2.69-3.64 2.69-6.53v-.27a1.59 1.59 0 0 0-1.53-1.65z" fill="#721bd5"/><path d="M176.08 213.53a9.64 9.64 0 0 1 4.53 1.47 9.64 9.64 0 0 0-4.53-1.47z" fill="#eaeaea"/><path d="M186.59 238.24V238a1.59 1.59 0 1 0-3.17 0v.27c0 2.12-.68 3.67-1.85 4.27-1.33.67-3.35.18-5.4-1.33l-17.08-12.51c-2.62-1.92-5.31-2.62-7.57-2l14.1-8.18-16.34 9.48 2.12.71 8.26 3.74 11.23 8 8.86 4.71.41.08c2.06-1.74 4.38-3.23 5.65-5.77a7.24 7.24 0 0 1 .77-1.07l.01-.16z" class="f"/><path d="M179.75 246.49a10.3 10.3 0 0 1-5.95-2.24l-17.07-12.51c-2-1.5-4.07-2-5.4-1.32-1.17.59-1.85 2.15-1.85 4.27a1.59 1.59 0 0 1-3.17 0c0-3.36 1.31-5.95 3.59-7.1 2.45-1.25 5.63-.66 8.71 1.59l17.07 12.51c2 1.51 4.07 2 5.4 1.33 1.17-.59 1.85-2.15 1.85-4.27v-.27a1.59 1.59 0 1 1 3.17 0v.27c0 3.36-1.31 5.94-3.59 7.1a6 6 0 0 1-2.76.64z" class="c"/><path d="M166.33 274.46s-3.22-1.62-5.19.79-4.8 8.12-4.88 12 3 3.59 4.91 2.68 7.3-8.81 7.63-10.36a5.34 5.34 0 0 0-.91-4.05c-.52-.44-1.56-1.06-1.56-1.06z" class="X"/><path d="M167 273.68l.15 3.34a1.89 1.89 0 0 1-.94 1.73 3.69 3.69 0 0 1-2.48.38c-2.42-.39-2.64-1.08-2.81-4.41s6.08-1.04 6.08-1.04z" fill="#e8a200"/><path d="M154.56 268.05s-3.21-1.62-5.19.8-4.8 8.11-4.88 12 3 3.59 4.91 2.68 7.31-8.81 7.63-10.35a5.34 5.34 0 0 0-.91-4.05c-.52-.45-1.56-1.08-1.56-1.08z" class="X"/><path d="M155.26 267.28l.15 3.33a1.88 1.88 0 0 1-.94 1.73 3.68 3.68 0 0 1-2.48.39c-2.42-.39-2.64-1.08-2.81-4.41s6.08-1.04 6.08-1.04z" fill="#e8a200"/><g fill="#fdd762"><path d="M184 206.12c-.95-15.48-16.77 2.28-16.77 2.28L156.36 219l-9.75 10.71a9.62 9.62 0 0 0-2.42 7.72l3.94 30a3 3 0 0 0 3 2.56 9.14 9.14 0 0 0 1.46-.13 3.66 3.66 0 0 0 3.26-3.89l-.72-28.08 20.47-12.34s9.3-3.94 8.4-19.43z"/><path d="M195.72 212c-.95-15.48-16.77 2.28-16.77 2.28l-10.82 10.61-9.75 10.71a9.61 9.61 0 0 0-2.42 7.72l3.94 30a3 3 0 0 0 3 2.56 9.14 9.14 0 0 0 1.46-.13 3.67 3.67 0 0 0 3.26-3.89l-.72-28.08 20.47-12.34s9.3-3.93 8.35-19.44z"/></g><path d="M186.36 162.32c12 5 11.75 12.06 11.75 12.06s-2.34 26-1.54 43.34c.33 7.26-38.55 7.81-32.75-11.55 6.84-22.82 4.27-41.29 7.47-44.08s11.97-1.09 15.07.23z" class="c"/><ellipse cx="184.23" cy="167.06" rx="4.55" ry="6.18" transform="matrix(.249366 -.968409 .968409 .249366 -23.5 303.8)" class="a"/><path d="M185.14 172.31A8.79 8.79 0 0 1 183 172a8 8 0 0 1-4.2-2.57 4.34 4.34 0 0 1 1.84-7.13 8.42 8.42 0 0 1 9.12 2.35 4.33 4.33 0 0 1-1.83 7.13 7.3 7.3 0 0 1-2.79.53zm-1.82-9.31a6.24 6.24 0 0 0-2.31.42 3.21 3.21 0 0 0-1.37 5.35 7.3 7.3 0 0 0 7.81 2 3.2 3.2 0 0 0 1.38-5.34 6.82 6.82 0 0 0-3.6-2.19 7.54 7.54 0 0 0-1.91-.24z" class="b"/><path d="M181.56 161.78a30.3 30.3 0 0 1-.11 4.28c-.06 1.19 4.12 2.31 5.2 1.23s.65-2.21.91-6.27-6 .76-6 .76z" class="a"/><path d="M187.56,161s-1,3.77-6.11,5.21l.08-3.42Z" class="h"/><path d="M190.78 151.44a9.23 9.23 0 1 1-11.25-6.63 9.24 9.24 0 0 1 11.25 6.63z" class="a"/><path d="M184,154.09s-5.08,2.18-8.6,2.2-2.75-2.92-2.75-2.92l10.45-1.51Z" class="h"/><path d="M174.31 154.66s4.43-1.88 8.31-1.09A4.08 4.08 0 0 1 185 155a1.39 1.39 0 0 0 .71.52c.69.15 1.81-2.71 3.15-2.77s2.23.88 1.14 2.64-.73 3.72-.23 4 5.87-3.82 1.14-13.18-16.73-4.31-18.59-2.42c0 0-2 1.72-3.57.19-.03-.04-1.82 13.39 5.56 10.68z" fill="#ff2c9c"/><path d="M191.39,193.37v7a2.84,2.84,0,0,1-.94,2.11L176,215.65l1.64,2.51,19.05-13.82a3.87,3.87,0,0,0,1.58-2.73l1.28-12.24Z" class="a"/><path d="M197.1 170.87s4.38 6.58 6 23.9c0 0-7.48 2.42-11.72 1s5.72-24.9 5.72-24.9z" class="c"/><path d="M190.59,179.19s-1.71,9.17-1.81,13.48a2.73,2.73,0,0,0,1.81,2.65h0Z" class="i"/><path d="M186.85,224.78l-3.19-.42-20.58-11.88a2.88,2.88,0,0,0-2.58.11L145.92,221l-1.93-.25v1.92h0a.76.76,0,0,0,.45.67l23.32,13.47a2.86,2.86,0,0,0,2.57-.11l15.89-9.16a1,1,0,0,0,.63-.87h0Z" class="X"/><path d="M171.38 217.27l-1.46-.84h-16.07l-7.93 4.57-1.93-.25v1.92h0a.76.76 0 0 0 .45.67l23.32 13.47a2.46 2.46 0 0 0 1.33.25z" class="e"/><path d="M144.85,220.86l-.86-.11v1.92h0a.76.76,0,0,0,.45.67l.41.24Z" class="Z"/><path d="M168,236.92a3,3,0,0,0,2.18-.14v-3.26H168Z" fill="#274f89"/><path d="M167.76 234.89l-23.32-13.46c-.66-.39-.58-1.05.18-1.49l15.88-9.17a2.87 2.87 0 0 1 2.58-.1l23.32 13.46c.66.38.58 1.05-.18 1.49l-15.89 9.17a2.88 2.88 0 0 1-2.57.1z" class="b"/><path d="M167.37 232.85L148 221.65c-.55-.31-.48-.87.16-1.23l8.51-4.79a2.42 2.42 0 0 1 2.14-.09l19.39 11.2c.55.32.48.87-.15 1.24l-8.51 4.78a2.36 2.36 0 0 1-2.17.09z" class="Y"/><g class="a"><path d="M161.41 210.33l-.25 1.61a11.94 11.94 0 0 0 .11 4.13l.29 1.42a2 2 0 0 0 1.59 1.56h0a1.09 1.09 0 0 0 1.29-1l.39-3.44s.88 1.15 1.3 1.15-.47-3.44-1.43-5.39-3.29-.04-3.29-.04z"/><path d="M169.31,184.75l-2.5,5a9.85,9.85,0,0,0-1,3.76l-1.08,16.94-3.29-.08-1.5-19a6.44,6.44,0,0,1,.09-1.75l1.7-9.65Z"/></g><path d="M167 236.19l-2-2.56-20.56-11.91a2.85 2.85 0 0 1-1.19-2.28V202.6l-1.18-1.54 1.11-.64h0a.75.75 0 0 1 .81 0L167.32 214a2.85 2.85 0 0 1 1.19 2.28v18.34a1 1 0 0 1-.44 1h0z" class="X"/><path d="M152.75,226.53l-1.46-.85-8-13.93V202.6l-1.18-1.54,1.11-.64h0a.75.75,0,0,1,.81,0L167.32,214a2.38,2.38,0,0,1,.88,1Z" class="e"/><path d="M142.62,201.74l-.53-.68,1.11-.64h0a.75.75,0,0,1,.81,0l.41.24Z" class="Z"/><path d="M167.53,214.11a2.93,2.93,0,0,1,1,2l-2.27,1.32-1.1-1.9Z" fill="#274f89"/><path d="M166.21 214.6l-23.31-13.49c-.66-.39-1.19 0-1.19.9v18.34a2.82 2.82 0 0 0 1.19 2.28l23.3 13.49c.66.39 1.2 0 1.2-.9v-18.33a2.87 2.87 0 0 0-1.19-2.29z" class="b"/><path d="M177.67 218.16l-.38.77a5.19 5.19 0 0 1-1.94 2.16l-2.35 1.43a2.3 2.3 0 0 1-2.36 0h-.08a1.39 1.39 0 0 1-.2-2.14l2.42-2.49s-1.36 1-1.74.62 1.32-1.81 2.55-1.86a4.78 4.78 0 0 0 2.41-1z" class="a"/><path d="M171.53 162.05s-8.87 9.65-12.44 18.51a18.08 18.08 0 0 0 10.45 7.6c7.46 2.15 1.99-26.11 1.99-26.11z" class="c"/><path d="M167.87 187.59l1.44-13.88-3.39 13q.92.48 1.95.88z" class="i"/><path d="M178.18,160.11l-2.39-.66a5.78,5.78,0,0,0,2.8,2.25c1.66.45,1.92-.95,1.92-.95Z" class="b"/><ellipse cx="33.83" cy="298.5" rx="18.43" ry="10.64" class="g"/><path d="M22.19,154.39s.53,10.92,1.36,18.26S42.06,167,42.06,167v-8.35Z" class="i"/><path d="M31.6 290.25c.27.66 4.85 6.24 9.43 7.63a10.33 10.33 0 0 0 4.2.58 1.38 1.38 0 0 0 1.13-1.84 17.44 17.44 0 0 0-8.78-9.69c-7.77-3.85-5.98 3.32-5.98 3.32zm-1.52 2.14a38.08 38.08 0 0 1 2.25 7.43c.33 2.07-.81 4.75-1.74 6.53a1.91 1.91 0 0 1-3 .51 11 11 0 0 1-3.72-7.1c-.53-5.71 0-6.7 0-6.7z" class="X"/><path d="M19.05,223.41a108,108,0,0,0,0,15.16c.59,8,2.73,45.21,3.13,54.17,0,0-.2,2.71,5.05,2.11s4.83-3.6,4.83-3.6,7.37-.1,7.61-4.45,7.55-51.91,7.55-69Z" fill="#fdd762"/><path d="M44.68 186.24l4.26 26.02 3.86-.07-.35-23.84-7.77-2.11z" class="a"/><path d="M42.9,163.21s5.74-.15,7.74,8.15S54.2,190,52.46,190.9c-5.22,2.59-8.52-.44-8.52-.44Z" class="d"/><path d="M44.62 163.56a4.71 4.71 0 0 0-3.1-.17c-4.89 1.41-23.28 6.8-26.31 9.39-3.5 3 5.25 19.81 5.13 25.32s-.75 12-1.24 18-1.14 9.28 3.76 11.83 13.27 2.66 19.54-2.11 5.12-8 4.86-11.51-2.39-18.45-2.21-22.71a16.05 16.05 0 0 0 3.85-4.41c1.63-2.79-1.26-7.92-2.46-11.25s.68-7.14.31-9.86a3.11 3.11 0 0 0-2.13-2.52z" class="c"/><path d="M38.74 169.3c.39 3-2.39 5.88-6.21 6.36s-7.22-1.57-7.61-4.59 2.39-5.88 6.21-6.37 7.22 1.57 7.61 4.6z" class="b"/><g class="a"><ellipse cx="31.83" cy="170.18" rx="4.98" ry="3.95" transform="matrix(.991894 -.127065 .127065 .991894 -21.37 5.42)"/><path d="M34.06 162.44s-3.32-2.73-4-1.35-1.19 7.32-1.19 7.32l6.59 1.77-1-6s1.35-1.13-.4-1.74z"/><path d="M44.36 155.94a9.84 9.84 0 1 1-9.24-10.4 9.83 9.83 0 0 1 9.24 10.4z"/></g><path d="M29.63 162.81l-.17 1c.66 3.42 5.79 4.92 5.79 4.92l-.76-4.55s.62-.53.44-1c-2.02-.7-4.57-1.27-5.3-.37z" class="h"/><path d="M44.36 155.94a9.84 9.84 0 1 1-9.24-10.4 9.83 9.83 0 0 1 9.24 10.4zm-34.07 41.08l1.1 26.33 3.85.4 2.51-23.71-7.46-3.02z" class="a"/><path d="M22.94 194.82l-3.79-18-1.08 12.36c1.25 3.66 2.31 7 2.27 9-.08 3.24-.32 6.82-.61 10.43h0s4.49-8.17 3.21-13.79z" class="d"/><path d="M16 172.24s-3.08 1.18-4.82 10.64-3.1 18.92.01 20.12 5.7 2.13 6.61-.4 1.48-14.71 1.6-19.09.28-10.4-3.4-11.27z" class="f"/><path d="M32.06,291.25a16.45,16.45,0,0,0,2.11-.22h0l1.44-57.9Z" fill="#d8892b"/><path d="M26.49 260l-2-2.67-21.6-12.5a3 3 0 0 1-1.24-2.4v-17.64l-1.22-1.61 1.16-.68h0a.8.8 0 0 1 .85.05l24.41 14.14a3 3 0 0 1 1.25 2.39v19.21a1.07 1.07 0 0 1-.46 1h0z" class="c"/><g fill="#d29fff"><path d="M11.59 249.86l-1.53-.86-8.4-14.59v-9.59l-1.23-1.64 1.16-.68h0a.8.8 0 0 1 .85.05l24.41 14.14a2.48 2.48 0 0 1 .92 1.08z"/><path d="M1,223.89l-.55-.71,1.16-.68h0a.8.8,0,0,1,.85.05l.43.25Z"/></g><path d="M27.07,236.85a3,3,0,0,1,1,2.05l-2.38,1.38-1.15-2Z" class="c"/><path d="M25.69 237.36L1.27 223.23c-.69-.4-1.25 0-1.25.94v19.21a3 3 0 0 0 1.25 2.39l24.41 14.14c.69.4 1.26 0 1.26-1v-19.2a3 3 0 0 0-1.25-2.35z" class="f"/><path d="M11.42 223.13s-1 6.15-.86 8.12 1.2 5.21 2 5.15 0-7.92 1.43-7.14 1.56 2.12 2.19 1.65-1.11-7.18-.64-10.09-4.12 2.31-4.12 2.31zm41.38-10.94s1 6.15.87 8.12-1.21 5.21-2 5.14 0-7.91-1.43-7.13-1.56 2.12-2.24 1.68 1.11-7.19.65-10.09 4.15 2.28 4.15 2.28z" class="a"/><path d="M38.32 156.22c4.93 1.75 5.89.68 5.94.63a9 9 0 0 0 .1-.91 9.87 9.87 0 0 0-.36-3.14l-12.81-1.73a14 14 0 0 0 7.13 5.15z" class="h"/><path d="M44.71 146.14c-1.16-1-5.36-5.93-12.88-4.77-4.7.73-8.66 3.93-9.54 11.25A16.83 16.83 0 0 0 26.84 166a3.3 3.3 0 0 0 .53-.27c1.89-1.24 2.09-1.92 2.09-1.93l.42-3.73a1 1 0 0 0-.94-1 1.92 1.92 0 0 1-1.38-.84c-1.08-1.42-.58-3.62 1.58-3.7a1.66 1.66 0 0 0 1.72-1.23.89.89 0 0 1 1.16-.6c2.45.89 8.51 2.81 12.41 1.7 4.99-1.4 1.45-7.27.28-8.26z" class="i"/><path d="M39.11,160.66l3-.82a7.24,7.24,0,0,1-3.54,2.83c-2.1.58-2.42-1.2-2.42-1.2Z" class="b"/><path d="M16.54 230.72l-2.57-1.47.97 1.57 1.29.48.31-.58z" fill="#d29fff"/></svg>