<svg xmlns="http://www.w3.org/2000/svg" xmlns:xlink="http://www.w3.org/1999/xlink" viewBox="0 0 127.42 183.97" xmlns:v="https://vecta.io/nano"><style><![CDATA[.A{isolation:isolate}.L,.M,.N,.O,.P,.Q,.V,.X,.Y,.a,.h,.D,.n,.G,.H,.I{mix-blend-mode:multiply}.S,.e,.F{mix-blend-mode:overlay}.i{mix-blend-mode:screen}.o{fill:#f78100}.p{fill:#fff}.q{fill:#252c36}.r{opacity:.29}.s{opacity:.5}.t{stroke-width:.28}.u{opacity:.25}.v{fill:#d7dce0}.w{stroke-linejoin:round}.x{opacity:.43}.y{stroke:#c43720}.z{fill:#47484c}]]></style><g class="A"><path d="M14 154.18s-5.76-.67-8 3.82-2.94 7.9 3.79 9.8 14.51 7.42 19 10.94 11.09 7.62 14.31 3.14c1.8 2 7.4 2.38 8.82-.66 1.7.38 6.54-.1 6.54-5.52-.19-4.85-9.48-7.8-12.14-10.75S14 154.18 14 154.18z" class="o t w y"/><path d="M43 182h0a.08.08 0 0 1 0-.12 5.28 5.28 0 0 0 .39-4.61c-1.46-3.57-6.93-5.33-7-5.35a.09.09 0 0 1-.06-.11.09.09 0 0 1 .11-.05c.06 0 5.6 1.8 7.09 5.45a5.45 5.45 0 0 1-.4 4.75.1.1 0 0 1-.08 0zm8.85-.72h-.05a.08.08 0 0 1 0-.12 4.15 4.15 0 0 0-.09-4.44 14.86 14.86 0 0 0-5.91-5.32.09.09 0 0 1-.09-.09.09.09 0 0 1 .09-.08 14.5 14.5 0 0 1 6.06 5.41 4.28 4.28 0 0 1 .08 4.61.08.08 0 0 1-.07 0z" fill="#c43720"/><g class="D" opacity=".32"><path d="M57.71 177c-1.33 1.18-2.87 1.73-4.26.33a25.54 25.54 0 0 0-7.08-5.7c3.7 2.5 5.82 5 5.78 6.39s-1.92 2.22-3.13 2.48c-2 .42-2.65-.33-3.46-2a11.09 11.09 0 0 0-3.67-3.76c3.7 5.06-1.21 5.63-1.21 5.63-3.2.5-6.11.58-11.3-5.2s-10.67-6.5-19.91-10.92a26.92 26.92 0 0 1-4.9-2.82c-.69 2.8.3 5 5.18 6.36 6.73 1.91 14.51 7.42 19 10.94s11.09 7.62 14.31 3.14c1.8 2 7.4 2.38 8.82-.66 1.64.36 6.16-.08 6.51-4.93a5.23 5.23 0 0 1-.68.72z" class="o"/></g><g class="p"><path class="F r" d="M53.41 170.66c.41.11 5.12 3.21 4.34 5.28s-3.84.07-4.55-.64-2.7-5.42.21-4.64zm-5.26 2.93s3.84 3.21 2.91 4.92-4.12.07-4.83-2.07.21-4.07 1.92-2.85zm-11.09-.93s7 2.92 5.4 6.35c-1.46 2.57-10.52-4.85-5.4-6.35z"/></g><path class="G o" d="M11.84,153.89s14.6,15.32,37.07,13a27.84,27.84,0,0,1-3.13-2.76Z" opacity=".45"/><g class="H s"><path d="M46.25 164.93C43.6 162 14 154.18 14 154.18a10.61 10.61 0 0 0-3.25.24c3.73 3.5 18.6 15.9 40.3 13.84a23 23 0 0 1-4.8-3.33z" class="o"/></g><g class="o"><path class="I" d="M43.53 177.15a7.83 7.83 0 0 1 1.35 3.64 2.33 2.33 0 0 0 2.06 2.5c-.35 0-4-.07-3.55-1.93s.71-2.21.14-4.21zm7.75-1.23s2.06 1.16 2.06 3 2.49 1.64 2.49 1.64-3.7 1.28-3.7.43.93-3.08-.85-5.07z" opacity=".42"/><g class="t w y"><path d="M121 134.07a6 6 0 0 0-.5.41 5.21 5.21 0 0 0 .5-.41zm-7.9.45l-.57.72a9 9 0 0 0 .57-.72z"/><path d="M125.14 128.68a2.68 2.68 0 0 0-2.85.19s.83 3.15-1.3 5.2c.81-.63 2.46-1.65 3.77-.82a2.67 2.67 0 0 1 1 2.19c1.64-2.44 2.61-5.35-.62-6.76z"/><path d="M113.1 134.52c1.12-1.35 3.72-4 6.16-3.46 3.22.76 1.23 3.42 1.23 3.42a6 6 0 0 1 .5-.41c2.13-2 1.3-5.2 1.3-5.2a5 5 0 0 0-5-3.71c-4.17 0-4.93 1.52-4.93 1.52s3.8 3.5.74 7.84z"/><path d="M90.63 163.21c9.19-10.46 13.93-21.69 16.59-26.16s3.79-6 5.88-6-.57 4.18-.57 4.18.21-.29.57-.72c3.06-4.34-.76-7.84-.76-7.84a4.47 4.47 0 0 0-3.61-1.9c-3.12-.21-9.1 5.23-13.74 15.41-4.74 8.95-21.9 24.93-33 24.55a12.31 12.31 0 0 0 4.11 4.48c5.36 1.04 17.44 2.07 24.53-6z"/></g></g><path d="M124.76 133.25c-1.31-.83-3 .19-3.77.82a5.21 5.21 0 0 1-.5.41s2-2.66-1.23-3.42c-2.44-.58-5 2.11-6.16 3.46a9 9 0 0 1-.57.72s2.65-4.18.57-4.18-3.23 1.52-5.88 6-7.4 15.7-16.59 26.16c-7.09 8.07-19.17 7-24.53 6 3.56 2.45 9.79 4.51 20.16 1.89 19.25-4.85 28.35-12.65 32.71-24.16 3.51-7.14 2.28-6.09 4.17-8.18a27.67 27.67 0 0 0 2.66-3.33 2.67 2.67 0 0 0-1.04-2.19z" fill="#930" stroke="#6a2600" class="t w"/><path d="M121.91,140h0c-7.84-3.46-13.44-1.54-13.5-1.52a.08.08,0,0,1-.11-.05.1.1,0,0,1,.06-.11s5.71-2,13.62,1.53a.08.08,0,0,1,0,.11.08.08,0,0,1-.08.05Z" fill="#7d1400"/><g class="L" opacity=".41"><path d="M123.41 131.75a5.41 5.41 0 0 0 .3-3.26 11.65 11.65 0 0 0-1.42.38s.83 3.15-1.3 5.2c.81-.63 2.46-1.65 3.77-.82a2.67 2.67 0 0 1 1 2.19l.38-.62c-.52-3.92-3.14-1.91-2.73-3.07z" class="o"/></g><g class="M" opacity=".51"><path d="M115.61 130.35c.85-2.81 0-3.81-1.57-4.76a2.87 2.87 0 0 0-1.7 1.09s3.82 3.5.76 7.84c1.12-1.35 3.72-4 6.16-3.46 3.22.76 1.23 3.42 1.23 3.42a6 6 0 0 1 .5-.41 4.68 4.68 0 0 0 1.14-1.79 8.31 8.31 0 0 0-2.92-1.79c-2.8-.76-4.36 2.36-3.6-.14z" class="o"/></g><g class="p"><path class="F r" d="M117.55 125.42a4.48 4.48 0 0 1 4.15 2.52c.69 2.12 0 2.81-1.49 2.17s-5.21-4.78-2.66-4.69zm8.14 3.89c.16.11 1.67.64 1.21 3.21-.46 1.18-2.84-4.39-1.21-3.21z"/></g><g class="o"><path class="N x" d="M113.43 126s2.7 2.67.57 7.35c.14-.86 1-4.14-1.5-6.6a4.36 4.36 0 0 1 .93-.75zm9.85 2.38s.35 3.93-1.71 5.18a5.09 5.09 0 0 0 .72-4.69 7.61 7.61 0 0 0 .99-.49z"/></g><path class="F p r" d="M108.24 125.71a2.63 2.63 0 0 1 3.48.92c1.63 2.07 3.13 3.71 1.07 3.57s-8.04-3.42-4.55-4.49z"/><g class="O" opacity=".58"><path d="M96.65 136.85l-1.66 3.34c-4.74 8.95-21.9 24.93-33 24.55a9.11 9.11 0 0 0 .92 1.45 39.47 39.47 0 0 0 19.47-7.45c8.9-6.74 13.04-11.88 14.27-21.89z" class="o"/></g><g class="P x"><path d="M92.43 153.23c6.3-11.24 6.07-17.33 7.63-21.79a48.52 48.52 0 0 0-5.06 8.75c-4.74 8.95-21.9 24.93-33 24.55a10.83 10.83 0 0 0 2.22 2.92c5.23.49 19.9.39 28.21-14.43z" class="o"/></g><g class="Q" opacity=".21"><path d="M96.93 161.17c-.67-1.77.84-6.1 2.78-10.46a88.35 88.35 0 0 1-9.08 12.5c-7.09 8.07-19.17 7-24.53 6 3.56 2.45 9.79 4.51 20.16 1.89 14.44-3.64 23.16-8.93 28.47-16.21-7.15 6.18-16.68 9.24-17.8 6.28z" fill="#930"/></g><path class="S p" d="M109.29 139.75a5.17 5.17 0 0 1 2.85-.85c1.94-.07 5.1-.47 6.69 1 2 1.85.07 6-2.27 10.13s-10.74 11.13-14.94 10.13 1.28-6.71 3.49-11.63c1.32-2.93 1.61-7.02 4.18-8.78zm3.85-3.84s3.84-4.64 6.33-3.71-.57 4.07-2 4.92-5.61 0-4.33-1.21zm6.69 1.14s1.7-3.49 3.62-3.07 1.14 3.14-.85 4.43-3.13-.29-2.77-1.36zm-10.83-.78s1.07-4 3.13-4.14-.29 3.85-1.35 4.64-1.69 0-1.78-.5z" opacity=".12"/><use xlink:href="#B" class="q"/><use xlink:href="#B" fill="none" stroke="#222530" class="t"/><use xlink:href="#B" class="q"/><use xlink:href="#B" fill="none" stroke="#222530" class="t"/><g class="V" opacity=".38"><path d="M57,20.79s9.48,3.05,14.88,14.08S80,56.66,80.39,60,50.14,19.37,57,20.79Z" class="q"/></g><path d="M77.73 110.22c-7.39-5-13.08-18-13.51-20.26s-1.42-3.57-3.56-3.57-1.13-4.57 3.42-6.85S74.89 79.68 77 81s4.83 3.71 8 2.57.29-10.85-1.7-14.56-4.89-17.65-9.82-27.35C68.06 27.74 59 20.32 53.08 20s-9.67 4-13.37 8.18C26.25 40 25.78 58.66 24.83 67.6s.38 12.08-4.74 12.75a7.84 7.84 0 0 0 2.6-.52c.95-.48 1.28-.29 1.28-.29a37.93 37.93 0 0 1 5.27-.14c5.54-.86 25.31-4 27.44 3 1 3.71-1.28 5.27-5 7.13s-6 8.42-8.82 13-14.79 13-25.6 13.27c-1.39 1.9-8 25.68-2.28 40.69 9 6.39 21.62 9.76 36.46 9.88 24.84.19 36.12-11.71 41-18.84s2.65-19.32 1.13-24.93-1.23-6.94-1.13-7.52c-2.1 1.14-7.31.14-14.71-4.86z" class="p"/><path d="M66.26 89.28a.07.07 0 0 1-.06 0 13.22 13.22 0 0 0-3.48-2.17.09.09 0 0 1 0-.11.08.08 0 0 1 .11 0 13.64 13.64 0 0 1 3.54 2.2.11.11 0 0 1 0 .13h-.06zm18.2-5.51a.09.09 0 0 1-.08-.08.09.09 0 0 1 .08-.1 5.31 5.31 0 0 0 4-1.84 4.6 4.6 0 0 0 .71-3.38.09.09 0 0 1 .17 0 4.77 4.77 0 0 1-.74 3.52 5.46 5.46 0 0 1-4.17 1.91zm-69.75 32.28a18.41 18.41 0 0 1-11.84-4.24.09.09 0 1 1 .11-.13 18.4 18.4 0 0 0 14.3 4 .08.08 0 0 1 .09.08.07.07 0 0 1-.07.09 19.57 19.57 0 0 1-2.59.18z"/><g class="X u"><path d="M2.74 105.94c5.4 10.47 25.22 5.9 29.29.1s7.11-12.18 16.88-18.74S51 78.54 51 78.54s6.45 1.14 5.79 5.52c-.67 3.14-2.56 3.9-6 5.71-2.75 1.46-4.46 7-6.36 10.08s-4.36 10.47-24.08 15.61c-3.6.28-6.35.66-9 .66-1.34 0-11.85 12.08-3.69 33.4-5-7-8.92-14.85-7-24.17 2-8.94 3.7-10.56.29-20-.87-4.17-.39-11.49 1.12-16.53-.66 3.99-1.13 11.79.67 17.12z" class="q"/></g><path class="Y s v" d="M65.34 100.17a17.78 17.78 0 0 1 1.71 2.94 31.73 31.73 0 0 0 6.89 9.09c2.77 2.58 5.9 4.87 8.91 7.16 13.27 10.08 11.38 34.39-14.65 43.24-11.21 2.08-23.93 2.19-32-7.13-9.69-11.18-6.52-30.65 2.78-40.95a45.42 45.42 0 0 0 6.16-8.18c1.81-3.24 3.87-7.13 8-7.79 2.83-.45 6.55-1 9.34-.32a5.13 5.13 0 0 1 2.86 1.94zm28.22 22.42c-1.51-5.61-1.23-6.94-1.13-7.52-2.09 1.15-7.3.15-14.7-4.85S64.65 92.24 64.22 90s-1.42-3.57-3.56-3.57-1.13-4.57 3.42-6.85S74.89 79.68 77 81s4.83 3.71 8 2.57.29-10.85-1.7-14.56-4.89-17.65-9.82-27.35C68.06 27.74 59 20.32 53.08 20s-9.67 4-13.37 8.18C26.25 40 25.78 58.66 24.83 67.6s.38 12.08-4.74 12.75a7.84 7.84 0 0 0 2.6-.52c.95-.48 1.28-.29 1.28-.29a37.93 37.93 0 0 1 5.27-.14c5.54-.86 25.31-4 27.44 3 1 3.71-1.28 5.27-5 7.13s-6 8.42-8.82 13-14.79 13-25.6 13.27c-1.39 1.9-8 25.68-2.28 40.69 9 6.39 21.62 9.76 36.46 9.88 24.84.19 36.12-11.71 41-18.84s2.64-19.33 1.12-24.94z"/><path class="F p r" d="M13.07 85.11a31.71 31.71 0 0 1 10.76-3c6.54-.71 10-.86 14.79-1.85s10-2.34 12.94-1.34c1.14.29-2.22-2-14.69-.52-12 1.62-8.42.57-13.75 1.21 0 0 0 .46-2.27.86-2.78 0-8.32 1.75-10.32 6.28-1.04 1.61.22 1.02 2.54-1.64z"/><g class="X u"><path d="M84 67.32s5.78 8.84 5.4 12.55c-.38 2.95-1.89 3.71-4.93 3.81 1 0 2.75-1.24 1.61-6S82 66.17 81.71 64.94s-.85-2.86 2.29 2.38z" class="q"/></g><g class="X u"><path d="M89.68,115.46c-3.32-.67-14.6-2.57-22.47-18.75a22.5,22.5,0,0,1-2.85-7.23,3.82,3.82,0,0,0-1-1.81s3.13.39,5.4,5c0,0,6.55,17.51,20,15.7,8.25-1,10.43-14.84,8.25-22.07,2.46,7.13,4.22,11.84,1.51,20.33-2.27,5.07-4,9.11-8.81,8.88Z" class="q"/></g><path class="F p r" d="M87.88,82.63c-.19.48-2.26,1.26-3.89,1.12-2.14.29-3.7-.64-6.61-2.43s-11.4-5.51-16.62,1c0,0,5.12-6.57,15.17,0,0,0,8.06,6,12.25,2.9s1.07-6.49,1.07-6.49,1.14,2-1.14,3.71Z"/><g class="v"><path class="Y s" d="M60.42 86.36h.24a1.57 1.57 0 0 1-.24 0zm-37.16 65.39c-4.26-13.7-5.83-32 4.84-36.39s15.64-9 17.92-14S48.29 92.67 54 90s3.27-7.28 2.42-8.71c-.08-.13-.19-.14-.34-.07a3.61 3.61 0 0 1 .62 1.22c1 3.71-1.28 5.27-5 7.13s-6 8.42-8.82 13-14.79 13-25.6 13.27c-1.39 1.9-8 25.68-2.28 40.69a51.38 51.38 0 0 0 17.47 7.65c-5.71-2.9-7.1-5.65-9.21-12.43z"/><path class="Y s" d="M67.63 100.23a32.09 32.09 0 0 0 22.47 16.84 5.46 5.46 0 0 1 2.51 1.43 8.88 8.88 0 0 1-.18-3.43c-2.09 1.15-7.3.15-14.7-4.85S64.65 92.24 64.22 90s-1.42-3.57-3.56-3.57c2.85.25 1.43 3.81 6.97 13.8z"/></g><g class="X u"><path d="M13.53 78.22A51.9 51.9 0 0 0 10.76 83a7.22 7.22 0 0 0-.45 2.44c0 .14.25 1.24.22 1.28 4.15-8 12.21-6.59 11.36-6.88 5.12-3.71-.19-7.46.24-17.74a97.21 97.21 0 0 1 3.81-24.56 62.59 62.59 0 0 1 7.85-16.82 11.39 11.39 0 0 1 10.66-7.57c13.73-.43 13.78-2.9 13.85-6.37.07-3.93-6.94-6-6.9-1a1.39 1.39 0 0 0 .73-1c.38-1.43 2.94-1.33 3.32 1.33.38 4.28-3.79 5.52-10.24 5.8s-10.9 6.19-10.9 6.19C23.4 30.59 19.61 47.24 17.43 57.52 15.85 65 10.55 70.67 6.92 77.16c1-1.78 4.19-6.66 6.81-5.16 2.11 1.2 1.17 3.77-.2 6.22z" class="q"/></g><g class="p"><path class="F r" d="M61.59 17.11a6.79 6.79 0 0 1 5.47 3.71c2.14 3.71 5 9.7 6.33 12.27s3.35 6.06 3.61 8.21c.57.14-3.48-9-4.91-12.42s-3.41-7.06-3.76-8-2.47-4.56-6.74-3.77zM3 87.1s5-13.51 7.32-14.46c2-.57-.72 2.43-2.18 5.43-2 4.09-5 9.89-5.88 12.75s.38-2.19.74-3.72z"/></g><g class="v"><path class="Y s" d="M30.52 42.58a69.16 69.16 0 0 0-3.28 22C27.53 76.4 26 77.54 30 77.69s17-1.24 21.56 1.23c-1.13-1-8.25-1.71-16.68-.38-5.6.95-5.74.81-7.4.67a26.51 26.51 0 0 0-3.51.33c-.85 0-1 0-.57-.62s1-2.28 1.05-6.09 2.08-26.25 6.26-32.34c0 .66-.19 2.09-.19 2.09zm38.39 35.77s3.13-.76 8.54 1.71 9.76 3 6.25-7.32c-3.5-8.37-5.59-24.55-10-24.45s-7.39 1-8 4.09c-.57 1.43-2.09-5.14 2.75-7.42s7.68 1.71 8.53 4.66S82 65.7 83.28 69 87 79.59 86.36 81.87s-3.89 2.67-7.21.38-6.63-3.8-10.24-3.9z"/></g><g class="a" opacity=".62"><path d="M38,19.8s1.33-2.66,3.89-2.85,3,3.33,3,3.33,1-4.47-2.56-5.23S38.12,19,38,19.8Z" class="q"/></g><path d="M38 19.33s1.33-2.66 3.89-2.86 3 3.33 3 3.33 1-4.47-2.56-5.23-4.21 3.9-4.33 4.76z" fill="#202120"/><path d="M40.12 15.55a2.08 2.08 0 0 1 1.8-.42c.86.33-2.63 1.18-1.8.42z" fill="#6b6c6e" class="x"/><path d="M61.61 19.37a3.08 3.08 0 0 1 2.56-3.05c2.56-.38 2.66 3.33 2.66 3.33s.85-4.18-2.09-4.76-3.22 2.95-3.13 4.48z" fill="#202120"/><path d="M65.05 15.18s1.14.52 1.14 1-1.95-1.18-1.14-1z" fill="#6b6c6e" class="x"/><path d="M53.74 65.22a3 3 0 0 1 2.56-.76c1.33.38 6.07 3.33 4.65 4.85s-5.4-.57-6.54-1.71-1.41-2-.67-2.38z" fill="#e65631"/><g class="p"><path class="e" d="M60.25 68c-.25.37-1 .33-1.6-.09s-.94-1.06-.69-1.44.95-.33 1.59.09.94 1.1.7 1.44z" opacity=".17"/><path class="F r" d="M61.14 16.51s-.85-.38-.29-2S65.41 4.62 56.78.15c1.89.38 7 2.19 6.82 7.89a17.61 17.61 0 0 1-2.46 8.47z"/></g><path d="M15 156.57a.09.09 0 0 1-.08-.06c-5.75-15 .77-38.69 2.29-40.77a.1.1 0 0 1 .07 0c10.9-.28 22.72-8.73 25.53-13.23.83-1.34 1.63-2.87 2.4-4.36 1.87-3.6 3.81-7.33 6.45-8.66 3.52-1.76 5.93-3.3 4.93-7-1.38-4.54-10.52-5.54-27.16-3h-.19a38.94 38.94 0 0 0-5.27.15c-.05 0-.37-.17-1.25.27a8 8 0 0 1-2.64.54c-.05 0-.09 0-.09-.09a.08.08 0 0 1 .08-.08 8.15 8.15 0 0 0 2.58-.52c1-.48 1.32-.31 1.36-.28a35.6 35.6 0 0 1 5.22-.16h.18c16.73-2.58 25.93-1.54 27.35 3.09 1 3.86-1.43 5.43-5 7.24-2.58 1.3-4.51 5-6.37 8.58-.77 1.49-1.57 3-2.41 4.37-2.82 4.53-14.68 13-25.63 13.31-1.55 2.28-7.94 25.69-2.24 40.58a.08.08 0 0 1-.05.11z"/><path d="M90.38 115.58c-2.6 0-6.88-1.36-12.7-5.29-7.41-5-13.14-18.16-13.54-20.32-.46-2.41-1.53-3.49-3.48-3.49a1.06 1.06 0 0 1-1.1-.9c-.34-1.41 1.07-4.4 4.48-6.12 4.74-2.37 11.15.31 13 1.43q.54.33 1.11.72c2 1.3 4.21 2.79 6.79 1.85a1.81 1.81 0 0 0 1-1.14C87.11 79.38 84.82 72 83.2 69a61.23 61.23 0 0 1-2.88-8.38c-1.76-5.85-4-13.13-6.93-19C68.09 28.05 59 20.4 53.08 20.12s-9.64 4-13.3 8.15C27.56 39 26.06 55.22 25.17 64.93l-.26 2.68c-.21 2-.31 3.75-.4 5.25-.28 5-.39 7-4.41 7.58a11.53 11.53 0 0 0-9.1 5.75.09.09 0 0 1-.12 0 .08.08 0 0 1 0-.11 11.73 11.73 0 0 1 9.27-5.85c3.88-.51 4-2.39 4.27-7.42.08-1.5.17-3.21.39-5.26l.26-2.67c.9-9.74 2.4-26 14.66-36.77 3.68-4.17 7.5-8.49 13.42-8.2 6.1.29 15.09 7.82 20.46 21.65 3 5.84 5.18 13.13 6.95 19a59.24 59.24 0 0 0 2.86 8.35c1.57 2.93 4 10.32 2.8 13.44A2 2 0 0 1 85 83.62c-2.65 1-5-.61-6.93-1.87l-1.1-.71c-1.85-1.11-8.19-3.77-12.86-1.42-3.34 1.67-4.72 4.57-4.4 5.93a.9.9 0 0 0 .94.76c2.05 0 3.17 1.12 3.64 3.63.41 2.15 6.11 15.23 13.48 20.21 7.75 5.24 12.71 5.89 14.61 4.85a.08.08 0 0 1 .11 0 .09.09 0 0 1 0 .12 4.4 4.4 0 0 1-2.09.43z"/><path class="Y s v" d="M52,37.11a10.7,10.7,0,1,1-20.86-4.72A10.7,10.7,0,1,1,52,37.11Z"/><path d="M51 37.22a9.7 9.7 0 1 1-18.9-4.28A9.7 9.7 0 1 1 51 37.22z" stroke="#c5c6c8" stroke-width=".25" class="p"/><g class="z"><path d="M48.5 37.51a6.05 6.05 0 1 1-4.56-7.28 6.07 6.07 0 0 1 4.56 7.28z"/><path class="h" d="M43.94,30.23a6.07,6.07,0,0,0-7.25,4.61,6.14,6.14,0,0,0,.14,3.22,7.14,7.14,0,0,1,1-3.71c.45-.72,1-1.43,1.92-1.24.49.1.89.74,1.14,1.11a6.41,6.41,0,0,0,2.51,2.16,9.42,9.42,0,0,0,3.14.9,1.08,1.08,0,0,1,.89.45c.46.61-.68,1.79-1,2.18a6.82,6.82,0,0,1-5,2.24,6.1,6.1,0,0,0,2.55-11.92Z" opacity=".6"/></g><path d="M46,37a3.52,3.52,0,1,1-2.65-4.23A3.53,3.53,0,0,1,46,37Z"/><path d="M44.07 32.84a2.83 2.83 0 0 0 .18 2.91 2.14 2.14 0 0 0 2.84.7c1.19-.8.77-2.15.1-3.16s-1.51-1.67-2.56-1a1.72 1.72 0 0 0-.56.55z" class="p"/><path class="i z" d="M37.69 36.06a4.54 4.54 0 0 0 1.05 3.77 5 5 0 0 0 6.29.61s-6.63 1.67-7.34-4.38z" opacity=".7"/><path class="Y s v" d="M73.85 32.24c1.36 5.52-1.16 10.89-5.63 12s-9.2-2.48-10.56-8 1.16-10.9 5.63-12 9.19 2.48 10.56 8z"/><path d="M73.2,32.72c1.24,5-1,9.9-5.09,10.9s-8.35-2.26-9.59-7.28,1-9.9,5.1-10.9S72,27.7,73.2,32.72Z" stroke="#c5c6c8" stroke-width=".21" class="p"/><g class="z"><path d="M71.59 33.92c.75 3-.69 6-3.22 6.65s-5.2-1.34-6-4.38.69-6 3.22-6.65 5.25 1.33 6 4.38z"/><path class="h" d="M65.64 29.54c-2.53.62-4 3.6-3.22 6.65a6.46 6.46 0 0 0 1.34 2.65 8 8 0 0 1-.76-3.51c0-.77.14-1.58.85-1.77.37-.11.9.28 1.21.49a4.73 4.73 0 0 0 2.56.86 6.15 6.15 0 0 0 2.52-.44.71.71 0 0 1 .78 0c.55.33.22 1.76.13 2.23a5.49 5.49 0 0 1-2.6 3.8c2.47-.68 3.86-3.61 3.12-6.62s-3.39-4.97-5.93-4.34z" opacity=".6"/></g><path d="M69.7,34.46a2.79,2.79,0,1,1-5.32,1.31,2.79,2.79,0,1,1,5.32-1.31Z"/><path d="M66.74 31.68A3 3 0 0 0 68 34.07a1.49 1.49 0 0 0 2.23-.5c.51-1.13-.3-2.11-1.15-2.7s-1.68-.82-2.16.12a1.46 1.46 0 0 0-.18.69z" class="p"/><path class="i z" d="M63.58 36.83a4.61 4.61 0 0 0 2.17 2.77 3.46 3.46 0 0 0 4.57-1.89s-3.92 3.93-6.74-.88z" opacity=".7"/><path class="Y s v" d="M44.43 50.14s.78 32.8 19 26.88c5.54-1.78 5.26-8.75 4.12-13.39s-4-9.49-3.34-12.84-19.78-.65-19.78-.65z"/><path d="M44.93 49.5S45 79.68 63.06 76c5.55-1.78 6.11-8.35 5-13s-4-9.49-3.35-12.85-19.78-.65-19.78-.65z" class="o t w y"/><path d="M45.5,51s3.55,22.12,17,19.41c7-1.86,4.69-9.14,3.77-12.7s-2.2-9,4-12.42c-.35-.57-1.28-2.85-5.4-1.5S60,47.93,56,49.14,46.56,53.64,45.5,51Z" fill="#860000"/><g class="X u"><path d="M52.32 62.27c-1.42-8.46 7-11.41 10.53-11.79a3 3 0 0 1 2.68 1.44c.24-2.39 1.43-4.79 4.78-6.63-.35-.57-1.28-2.85-5.4-1.5S60 47.93 56 49.14s-9.44 4.5-10.5 1.86c0 0 3.55 22.12 17 19.41a10.43 10.43 0 0 0 1-.33c-4.94.24-10.23-2.14-11.18-7.81z" fill="#e97033"/></g><g class="P o x"><path d="M64.67 50.36v-.22a.69.69 0 0 0-.08-.49l.08.71zm-1.61 23.81C47.69 77.32 45.35 55.93 45 49.49h-.06S45 79.68 63.06 76c4.4-1.41 5.66-5.83 5.43-9.91-.21 3.48-1.68 6.91-5.43 8.08z"/></g><path d="M53.77 64.13a4.21 4.21 0 0 0-2.28 1.78 11.37 11.37 0 0 0 10.75 4.61c.36-3.47-5.87-7.45-8.47-6.39z" fill="#e44c30"/><path d="M43.15,48.93s2.2,7.28,11.38,2.14,12-7.35,19.69-4.28c4.48,2,6.55,2.35,5.12-.21s-5-8.92-18.06-8.49C54,38.3,41.3,44.86,43.15,48.93Z" class="o t w y"/><g class="n" opacity=".44"><path d="M79.34 46.58c-.07-.15-.16-.3-.25-.46-.68.34-2.48-.13-6.19-1.54-7-2.67-13.19.37-21.34 4.28-4.36 2.09-7.66 0-8.31-1.94a2.38 2.38 0 0 0-.1 2s2.2 7.28 11.38 2.14 12-7.35 19.69-4.28c4.48 2.01 6.55 2.36 5.12-.2z" class="o"/></g><g class="p"><path class="F r" d="M47.3 43.72a28.07 28.07 0 0 1 16.49-5.42c4.18.38 7.68 1.33 9.77 2.76-.19.47-6.92-3.33-15.08 0-7.58 3.23-9 3.71-11.18 2.66zm4.19 22.69s3.23 6.28 10.15 6 6-7.81 6-7.81a6 6 0 0 1-5.44 6.06c-5.66.75-7.93-1.39-10.71-4.25z"/></g><g class="X u"><path d="M2.74 117c.38-.29.38-2.57 3-1.91a23.43 23.43 0 0 0 5.59.58s-7.33-2.18-8.46-3.86c.44 1.08.06 3.36 0 4.41s-.13.78-.13.78z" class="q"/></g></g><defs ><path id="B" d="M34.31,18.13s4.45-5.9,10.9-6.19,10.62-1.52,10.24-5.8c-.38-2.66-2.94-2.76-3.32-1.33s-2.08,1.62-2-.95S53.55.05,56.78.15s7.39,3.33,6.82,9.32c-.56,5.14-2.08,5.9-2.46,7s3.89-2.09,7.39,4.76,8.06,16.55,9.11,22.17c1.23,5,1.61,7.23,2.93,13.7s1.71,9.42,8.82,17.5,10.81,16.65,10.34,25.59c-.48,7.52-3.89,13-7.3,14.84-.1.58-.38,1.91,1.13,7.52s3.7,17.79-1.13,24.93-16.12,19-41,18.84-43.42-9.52-49.4-26.83c-5.31-13,2.18-19.79.67-28.36C1,106.8-2,99.19,3.87,83.39c5.79-13.51,11.38-15.6,13.56-25.87S23.4,30.59,34.31,18.13Z"/></defs></svg>