<svg xmlns="http://www.w3.org/2000/svg" xmlns:xlink="http://www.w3.org/1999/xlink" viewBox="0 0 337.02 296.41" xmlns:v="https://vecta.io/nano"><style><![CDATA[.M{fill:#d4ecff}.N{fill:#173d7a}.O{fill:#5793ce}.P{fill:#fff}.Q{fill:#396caa}.R{opacity:.4}.S{fill:#efefef}.T{fill:#ff2c9c}.U{fill:#fafdff}.V{fill:#ffc2b0}]]></style><g class="O"><path d="M220.76 92.52a.69.69 0 0 1-.7-.69V63.37a.7.7 0 1 1 1.39 0v28.46a.69.69 0 0 1-.69.69z"/><path d="M218.28 61.58h4.94v10.67h-4.94z"/><path d="M222.5 73.26a3.9 3.9 0 0 1-3.49 0 1.06 1.06 0 0 1 0-2 3.84 3.84 0 0 1 3.49 0 1.06 1.06 0 0 1 0 2zm-5.75-26.55h8.01v16.73h-8.01z"/></g><path d="M218.28 63.33v3.61a6.35 6.35 0 0 0 4.95 0v-3.61a6.44 6.44 0 0 0-4.95 0z" class="Q"/><g class="O"><path d="M223.59 65.08a6.29 6.29 0 0 1-5.67 0c-1.56-.91-1.56-2.37 0-3.27a6.23 6.23 0 0 1 5.67 0c1.56.9 1.56 2.36 0 3.27zm24.92 43.05a.69.69 0 0 1-.69-.69V79a.69.69 0 0 1 1.38 0v28.46a.69.69 0 0 1-.69.67z"/><path d="M246.04 77.19h4.94v10.67h-4.94z"/><path d="M250.26 88.87a3.86 3.86 0 0 1-3.5 0 1.07 1.07 0 0 1 0-2 3.92 3.92 0 0 1 3.5 0 1.07 1.07 0 0 1 0 2zm-5.76-26.55h8.01v16.73h-8.01z"/></g><path d="M246,79v3.61a6.41,6.41,0,0,0,4.94,0V79A6.41,6.41,0,0,0,246,79Z" class="Q"/><g class="O"><path d="M251.34 80.69a6.21 6.21 0 0 1-5.66 0c-1.57-.9-1.57-2.37 0-3.27a6.27 6.27 0 0 1 5.66 0c1.57.9 1.57 2.37 0 3.27zm24.15 9.4l10.74-6.33L276 70.99l-2.69 4.4 2.18 14.7zM197.48 20l17.15-9.87L214 20l-9.84 3z"/><path d="M278.47 58a10.77 10.77 0 0 0-3.71-1.37c-1.73-9.09-8.05-18.74-15.58-23.09a15.29 15.29 0 0 0-6.38-2.16c-1-11-8.69-23.52-18-28.89-4.8-2.83-9.25-3.16-12.5-1.44h0l-.16.09a2 2 0 0 1-.25.14l-10.1 6 3.35 2.65c-3 1.32-4.92 4.7-4.92 9.7 0 9.22 6.48 20.43 14.46 25l53.79 38.41c6 3.46 10.86.66 10.86-6.27S284.47 61.44 278.47 58z"/><path d="M210.72 15.54L233.93 2c-4.51-2.35-8.58-2.54-11.63-.93h0l-.16.09a2 2 0 0 1-.25.14l-10.1 6 3.35 2.65a8.11 8.11 0 0 0-4.42 5.59zm42.85 39.88l16.93-9.93a32.78 32.78 0 0 0-11.32-12l-1.74-.89-21.53 12.62z"/></g><g class="M"><path d="M216.56 8.35l7.54 4.36 13.82-8.14a27.83 27.83 0 0 0-3.11-2.1 19.4 19.4 0 0 0-4.82-2zm52.08 34.21l-13.52 8 4.7 5.24 12.27-7.25a39.78 39.78 0 0 0-3.45-5.99z"/><path d="M267.86 64.23a10.85 10.85 0 0 0-3.71-1.37c-1.73-9.09-8-18.74-15.59-23.09a15.24 15.24 0 0 0-6.38-2.16c-1-11-8.68-23.52-18-28.89-10-5.77-18.11-1.09-18.11 10.45v1.19c-7.31-3.39-13 .43-13 9.09 0 9.22 6.47 20.43 14.46 25l60.3 34.81c6 3.46 10.85.66 10.85-6.27s-4.83-15.3-10.82-18.76z"/></g><path d="M206.12 20.36v-1.19-.05c-4-1.57-7.51-.88-9.69 1.64 2.34-1.95 5.78-2.22 9.69-.4zm62.62 43.01A10.77 10.77 0 0 0 265 62c-1.73-9.09-8-18.74-15.59-23.09a15.2 15.2 0 0 0-6.37-2.16c-1-11-8.69-23.52-18-28.89-6.23-3.6-11.72-3.13-15 .52 3.32-2.84 8.4-3 14.1.34 9.3 5.37 17 17.88 18 28.89a15.24 15.24 0 0 1 6.38 2.16c7.54 4.35 13.86 14 15.59 23.09a10.85 10.85 0 0 1 3.71 1.37c6 3.46 10.85 11.88 10.85 18.8a9 9 0 0 1-1.67 5.78c1.63-1.25 2.62-3.52 2.62-6.64-.02-6.92-4.88-15.34-10.88-18.8z" class="P"/><path d="M204.85 23.11l4.53 2.1-.23-5v-1c0-4.45 1.34-7.68 3.78-9.09s5.92-1 9.77 1.27c8.3 4.79 15.54 16.45 16.48 26.55l.24 2.54 2.55.2a12.25 12.25 0 0 1 5.1 1.76c6.59 3.8 12.53 12.65 14.12 21l.4 2.1 2.11.33a7.65 7.65 0 0 1 2.66 1c5.07 2.92 9.34 10.33 9.34 16.17 0 2.19-.6 3.8-1.66 4.41s-2.75.33-4.65-.76l-60.3-34.82c-7-4-12.94-14.31-12.94-22.41 0-3.18.94-5.6 2.57-6.65a4.43 4.43 0 0 1 2.41-.64 9.09 9.09 0 0 1 3.72.94z" class="Q"/><g class="O"><path d="M234.94 60.9l1.6-.8-1.57-1.19-.03 1.99zm-4.77-21.49l1.54-.78.03.81-1.57-.03zm9.31 16.47l1.61-.81-3.1-2.95 1.49 3.76z"/><path d="M236.07 60.05l-7.53-4.44a1.6 1.6 0 0 1-.69-1.26v-8.72l8.92 5.25v8.72c-.01.47-.32.68-.7.45z"/><path d="M231.7 38.64l-8.14 5.23c-.34.23-.07 1.05.46 1.36l8.31 4.9 8.3 4.89c.53.31.81-.19.47-.82L233 39.42c-.33-.64-.95-1.01-1.3-.78z"/></g><g class="M"><path d="M234.46 60.86l-7.54-4.43a1.62 1.62 0 0 1-.69-1.27v-8.72l8.91 5.25v8.72c.01.48-.3.68-.68.45z"/><path d="M230.08 39.45L222 44.69c-.35.22-.07 1.05.45 1.36l8.31 4.89 8.24 4.89c.52.31.81-.19.46-.81l-8.07-14.79c-.33-.63-.96-1-1.31-.78zM220 70.4c0 .49-.35.69-.77.44a1.68 1.68 0 0 1-.77-1.33c0-.49.34-.69.77-.45a1.74 1.74 0 0 1 .77 1.34zm27.82 15.84c0 .49-.35.69-.77.44a1.68 1.68 0 0 1-.77-1.33c0-.49.34-.69.77-.44a1.7 1.7 0 0 1 .77 1.33z"/></g><path d="M30.41,207.32l-17.33-10c-7.23-4.17-7.23-10.95,0-15.12l15.76-9.1c3.23-1.87,3.23-4.9,0-6.77l-13.75-7.94c-7.23-4.17-7.23-11,0-15.12l17.24-10c7.22-4.17,19-4.17,26.19,0l11.11,6.39-7.24,4.18-11.11-6.39a13,13,0,0,0-11.71,0l-17.24,10c-3.23,1.86-3.23,4.9,0,6.76l13.75,7.94c7.22,4.17,7.22,11,0,15.13l-15.76,9.1c-3.23,1.86-3.23,4.9,0,6.76l17.33,10Z" class="S"/><path d="M7.86 181.78l-.2-.37v1.71h0c-.07 2.79 1.73 5.59 5.41 7.72l17.33 10 7.24-4.18-17.33-10a5.24 5.24 0 0 1-2.06-2c-3.87-.27-6.87-2.29-9.64-4.78a7 7 0 0 0-.75 1.9z" class="O"/><path d="M58.52,126.82c-7.22-4.17-19-4.17-26.19,0l-17.24,10a11.61,11.61,0,0,0-4.5,4.25c2.84,2.61,5.53,5.5,9.89,5.06-1.17-1.72-.55-3.75,1.85-5.13l17.24-10a13,13,0,0,1,11.71,0l11.11,6.39,7.24-4.18Z" class="N"/><path d="M38.9 157.76a13.89 13.89 0 0 0-2.82-2.1l-13.75-7.94a5.56 5.56 0 0 1-1.85-1.63c-4.36.44-7-2.45-9.89-5.06a7.54 7.54 0 0 0-.69 1.68l-.23-.27v1.86h0c0 2.75 1.79 5.51 5.42 7.6l13.75 7.94c2.11 1.22 2.83 2.94 2.18 4.51 2.86-.73 5.1-4.24 7.88-6.59z" class="O"/><path d="M41.27,161.65a8.4,8.4,0,0,0-2.37-3.89c-2.78,2.35-5,5.86-7.88,6.59a4.91,4.91,0,0,1-2.18,2.25l-15.76,9.1a11.75,11.75,0,0,0-4.46,4.2c2.77,2.49,5.77,4.51,9.64,4.78-.87-1.64-.19-3.5,2.06-4.8l15.76-9.1c3.58-2.06,5.38-4.77,5.41-7.48h0v-1.91Z" class="N"/><path d="M15.09 150l13.75 7.94a4.34 4.34 0 0 1 2.39 3c.19-1.35-.61-2.73-2.39-3.76l-13.75-7.94c-3.45-2-5.23-4.57-5.39-7.18-.18 2.84 1.6 5.74 5.39 7.94zm15.32 48.17l-17.33-10c-3.45-2-5.23-4.57-5.39-7.18-.18 2.86 1.6 5.76 5.39 7.95l17.33 10 7.24-4.18-.66-.39zm31.98-63.47l-11.11-6.39a12.92 12.92 0 0 0-11.71 0l-17.24 9.95c-1.79 1-2.58 2.42-2.39 3.77a4.35 4.35 0 0 1 2.39-3l17.24-9.95a13 13 0 0 1 11.71 0l11.11 6.39 7.24-4.18-.63-.39zm-26.31 33.39l-15.76 9.1c-1.79 1-2.58 2.42-2.39 3.77a4.33 4.33 0 0 1 2.39-3l15.76-9.1c3.78-2.18 5.56-5.08 5.38-8-.16 2.66-1.94 5.24-5.38 7.23z" class="P"/><path d="M30.41,198.94l-17.33-10c-7.23-4.17-7.23-11,0-15.13l15.76-9.1c3.23-1.86,3.23-4.9,0-6.76L15.09,150c-7.23-4.17-7.23-11,0-15.13l17.24-9.95c7.22-4.17,19-4.17,26.19,0l11.11,6.39-7.24,4.18-11.11-6.39a13,13,0,0,0-11.71,0L22.33,139c-3.23,1.87-3.23,4.9,0,6.77l13.75,7.94c7.22,4.17,7.22,10.95,0,15.12L20.32,178c-3.23,1.87-3.23,4.9,0,6.77l17.33,10Z" class="M"/><g class="O"><path d="M39.11,193.33h0a1.13,1.13,0,0,0-1.24.06l-8,4.61a3.68,3.68,0,0,0-1.67,2.88,1.19,1.19,0,0,0,.43,1l8.56,5,10.33-8.68Z"/><path d="M46.34 198.34l-8 4.61a3.68 3.68 0 0 0-1.67 2.88c0 1.06.75 1.49 1.67 1l8-4.61A3.7 3.7 0 0 0 48 199.3c0-1.06-.75-1.49-1.66-.96zm15.06-74.65h0a1.13 1.13 0 0 0-1.24.06l-8 4.61a3.67 3.67 0 0 0-1.66 2.88 1.19 1.19 0 0 0 .43 1l8.55 5 10.33-8.68z"/></g><path d="M99.79 186.77l-41.46-23.64c-1.51-.88-1.32-2.41.43-3.42l23.85-13.77a6.55 6.55 0 0 1 5.91-.24L130 169.33c1.52.88 1.33 2.41-.43 3.42l-23.87 13.77a6.58 6.58 0 0 1-5.91.25z" class="S"/><path d="M133.68 161.38h0V64.6L95.2 54.53l-7.09-4.09a7.05 7.05 0 0 0-6.34.26l-6.61 3.82H54.64l6.07 93.42a1.85 1.85 0 0 0 1.09 1.7l38.4 29a7.05 7.05 0 0 0 6.34-.26l25.59-14.77c1.08-.67 1.61-1.48 1.55-2.23z" class="Q"/><path d="M85.17,49.81a7.38,7.38,0,0,0-3.4.89l-6.61,3.82H54.64v97a1.83,1.83,0,0,0,1.09,1.7L100.2,178.6a5.7,5.7,0,0,0,2.94.63l.46-97.64Z" class="M"/><path d="M100.61,178.8a7.26,7.26,0,0,0,5.07-.05V80.43h-5.07Z" class="O"/><path d="M100.2 81.6L55.73 56.24c-1.63-.94-1.43-2.58.45-3.66L81.77 37.8a7.05 7.05 0 0 1 6.34-.26l44.48 25.36c1.62.94 1.42 2.58-.46 3.66l-25.59 14.78a7.05 7.05 0 0 1-6.34.26z" class="M"/><path d="M132.13 64.76l-25.59 14.78a7.05 7.05 0 0 1-6.34.26L55.73 54.44a2.44 2.44 0 0 1-.82-.72 1.71 1.71 0 0 0 .82 2.52L100.2 81.6a7.05 7.05 0 0 0 6.34-.26l25.59-14.78c1.46-.84 1.9-2 1.27-2.94a3.59 3.59 0 0 1-1.27 1.14z" class="U"/><path d="M101.46 71.32L71.85 54.16c-.76-.44-.67-1.21.21-1.72l12-6.91a3.29 3.29 0 0 1 3-.12l29.61 17.16c.76.44.67 1.21-.21 1.71l-12 6.92a3.27 3.27 0 0 1-3 .12z" class="N"/><g class="M"><path d="M85.47 54.93l-1.71-1c-.11-.06-.1-.17 0-.24l1.66-1a.46.46 0 0 1 .41 0l1.72 1c.1.06.09.17 0 .24l-1.66.95a.46.46 0 0 1-.42.05zm5.73 3.29l-1.71-1c-.11-.06-.09-.16 0-.23l1.65-1a.46.46 0 0 1 .41 0l1.72 1c.11.07.09.17 0 .24l-1.66 1a.43.43 0 0 1-.41-.01zm5.73 3.3l-1.71-1c-.11-.06-.09-.17 0-.24l1.66-.95a.46.46 0 0 1 .41 0l1.71 1c.11.06.09.17 0 .24l-1.65 1a.48.48 0 0 1-.42-.05z"/><use xlink:href="#B"/></g><path d="M71.85 54.16h0a1.13 1.13 0 0 1 .18-.12l12-6.92A3.32 3.32 0 0 1 87 47l29.58 17.14c.7-.5.73-1.18 0-1.59L87 45.41a3.29 3.29 0 0 0-3 .12l-12 6.91c-.82.56-.91 1.28-.15 1.72z" class="O"/><use xlink:href="#C" class="N"/><path d="M129.21 80.36a1.69 1.69 0 0 1 .43 1.25v6a4.12 4.12 0 0 1-1.72 3.28l-16.83 9.64a1.3 1.3 0 0 1-.84.18 1 1 0 0 0 1.29 0l16.83-9.64a4.08 4.08 0 0 0 1.72-3.27v-6c0-.8-.36-1.35-.88-1.44z" class="P"/><path d="M116.6 94.23l1.55-.89a.91.91 0 0 0 .37-.71V91c0-.28-.17-.4-.37-.29l-1.55.9a.91.91 0 0 0-.37.71V94c0 .23.17.35.37.23z" class="Q"/><path d="M121.77 91.25l1.54-.89a.88.88 0 0 0 .37-.71V88c0-.28-.16-.41-.37-.29l-1.54.9a.86.86 0 0 0-.38.71V91c0 .24.17.37.38.25z" class="P"/><path d="M111.54 144.27l16.83-9.63a4.12 4.12 0 0 0 1.72-3.28v-6c0-1.26-.77-1.85-1.72-1.3l-16.83 9.64a4.1 4.1 0 0 0-1.72 3.28v6c0 1.26.77 1.84 1.72 1.29z" class="N"/><path d="M129.21 123.86a1.71 1.71 0 0 1 .43 1.25v6a4.1 4.1 0 0 1-1.72 3.28l-16.83 9.64a1.3 1.3 0 0 1-.84.18 1 1 0 0 0 1.29 0l16.83-9.63a4.12 4.12 0 0 0 1.72-3.28v-6c0-.82-.36-1.3-.88-1.44z" class="P"/><path d="M116.6 137.73l1.55-.89a.91.91 0 0 0 .37-.71v-1.65c0-.28-.17-.4-.37-.28l-1.55.89a.91.91 0 0 0-.37.71v1.65c0 .28.17.4.37.28z" class="Q"/><use xlink:href="#D" class="P"/><path d="M111.54 166l16.83-9.64a4.12 4.12 0 0 0 1.72-3.28v-6c0-1.26-.77-1.84-1.72-1.3l-16.83 9.64a4.12 4.12 0 0 0-1.72 3.28v6c0 1.3.77 1.87 1.72 1.3z" class="N"/><path d="M129.21 145.61a1.71 1.71 0 0 1 .43 1.25v6a4.1 4.1 0 0 1-1.72 3.28l-16.83 9.64a1.24 1.24 0 0 1-.84.18 1 1 0 0 0 1.29.05l16.83-9.64a4.12 4.12 0 0 0 1.72-3.28v-6c0-.86-.36-1.39-.88-1.48z" class="P"/><path d="M116.6 159.49l1.55-.9a.9.9 0 0 0 .37-.71v-1.65c0-.27-.17-.4-.37-.28l-1.55.89a.91.91 0 0 0-.37.71v1.65c0 .28.17.4.37.29z" class="Q"/><use xlink:href="#D" y="21.75" class="P"/><use xlink:href="#C" y="21.75" class="N"/><path d="M129.21 102.11a1.69 1.69 0 0 1 .43 1.25v6a4.12 4.12 0 0 1-1.72 3.28l-16.83 9.64a1.3 1.3 0 0 1-.84.18 1 1 0 0 0 1.29 0l16.83-9.64a4.08 4.08 0 0 0 1.72-3.27v-6c0-.82-.36-1.35-.88-1.44z" class="P"/><path d="M116.6 116l1.55-.89a.91.91 0 0 0 .37-.71v-1.65c0-.28-.17-.4-.37-.28l-1.55.89a.91.91 0 0 0-.37.71v1.65c0 .28.17.38.37.28z" class="Q"/><path d="M121.77 113l1.54-.89a.88.88 0 0 0 .37-.71v-1.65c0-.28-.16-.4-.37-.29l-1.54.9a.89.89 0 0 0-.38.71v1.65c0 .28.17.4.38.28z" class="P"/><path d="M97 94.61L58.12 72.19a3.78 3.78 0 0 1-1.57-3v-7.42c0-1.16.7-1.69 1.57-1.19L97 83a3.76 3.76 0 0 1 1.57 3v7.41c-.04 1.17-.74 1.7-1.57 1.2z" class="O"/><g class="M"><path d="M95.84 92l-36.6-21.12a1.9 1.9 0 0 1-.8-1.53v-5.57c0-.58.35-.85.8-.6l36.6 21.14a1.9 1.9 0 0 1 .8 1.52v5.57c0 .59-.36.86-.8.59z" class="R"/><path d="M66.86 72.47l-5.46-3.16a1.84 1.84 0 0 1-.77-1.48h0c0-.57.34-.83.77-.58l5.46 3.15a1.86 1.86 0 0 1 .78 1.48h0c0 .57-.35.83-.78.59z"/></g><g class="N"><use xlink:href="#E"/><use xlink:href="#F"/></g><use xlink:href="#G" class="M"/><g class="N"><use xlink:href="#H"/><path d="M94.3 88.91l-1.84-1.06a1.19 1.19 0 0 1-.46-.95V85c0-.36.22-.53.49-.37l1.84 1.06a1.17 1.17 0 0 1 .5 1v2c-.03.21-.25.38-.53.22z"/></g><path d="M97 107.67L58.12 85.25a3.78 3.78 0 0 1-1.57-3v-7.42c0-1.16.7-1.69 1.57-1.19L97 96.07a3.75 3.75 0 0 1 1.57 3v7.41c-.04 1.16-.74 1.69-1.57 1.19z" class="O"/><g class="M"><path d="M95.84 105.07l-36.6-21.13a1.9 1.9 0 0 1-.8-1.53v-5.57c0-.58.35-.85.8-.6l36.6 21.14a1.9 1.9 0 0 1 .8 1.52v5.57c0 .59-.36.86-.8.6z" class="R"/><path d="M66.86 85.53l-5.46-3.16a1.84 1.84 0 0 1-.77-1.48h0c0-.57.34-.83.77-.59l5.46 3.16a1.86 1.86 0 0 1 .78 1.48h0c0 .57-.35.83-.78.59z"/></g><use xlink:href="#I" class="P"/><path d="M74.68 89c0 .58-.4.81-.9.52a2 2 0 0 1-.89-1.52c0-.57.4-.8.89-.52a2 2 0 0 1 .9 1.52z" class="N"/><use xlink:href="#J" class="M"/><g class="N"><use xlink:href="#E" x="9.48" y="18.53"/><path d="M94.3 102l-1.84-1.06a1.19 1.19 0 0 1-.49-1V98c0-.36.22-.53.49-.37l1.84 1.07a1.17 1.17 0 0 1 .5 1v1.95c0 .35-.22.48-.5.35z"/></g><path d="M97 120.73L58.12 98.31a3.78 3.78 0 0 1-1.57-3v-7.42c0-1.16.7-1.69 1.57-1.19L97 109.13a3.75 3.75 0 0 1 1.57 3v7.41c-.04 1.16-.74 1.69-1.57 1.19z" class="O"/><g class="M"><path d="M95.84 118.13L59.24 97a1.9 1.9 0 0 1-.8-1.53V89.9c0-.59.35-.86.8-.6l36.6 21.13a1.93 1.93 0 0 1 .8 1.53v5.57c0 .59-.36.86-.8.6z" class="R"/><path d="M66.86 98.59l-5.46-3.16a1.85 1.85 0 0 1-.77-1.43h0c0-.57.34-.83.77-.59l5.46 3.16a1.86 1.86 0 0 1 .78 1.43h0c0 .57-.35.83-.78.59z"/></g><use xlink:href="#I" y="13.06" class="P"/><path d="M74.68 102.06c0 .58-.4.81-.9.52a2 2 0 0 1-.89-1.55c0-.57.4-.8.89-.52a2 2 0 0 1 .9 1.55z" class="N"/><use xlink:href="#K" class="M"/><g class="N"><use xlink:href="#E" x="9.48" y="31.59"/><path d="M94.3 115l-1.84-1a1.21 1.21 0 0 1-.49-1v-2c0-.37.22-.53.49-.38l1.84 1.07a1.17 1.17 0 0 1 .5.95v2c0 .36-.22.55-.5.36z"/></g><path d="M97 133.79l-38.88-22.43a3.75 3.75 0 0 1-1.57-3V101c0-1.16.7-1.69 1.57-1.19L97 122.18a3.78 3.78 0 0 1 1.57 3v7.41c-.04 1.17-.74 1.7-1.57 1.2z" class="O"/><g class="M"><path d="M95.84 131.19l-36.6-21.13a1.9 1.9 0 0 1-.8-1.53V103c0-.59.35-.86.8-.6l36.6 21.13a1.93 1.93 0 0 1 .8 1.53v5.57c0 .55-.36.82-.8.56z" class="R"/><path d="M66.86 111.65l-5.46-3.16a1.85 1.85 0 0 1-.77-1.48h0c0-.57.34-.83.77-.59l5.46 3.16a1.84 1.84 0 0 1 .78 1.48h0c0 .57-.35.83-.78.59z"/></g><g class="N"><use xlink:href="#G" x="-6.32" y="35.53"/><use xlink:href="#H" x="-6.32" y="35.53"/></g><use xlink:href="#K" y="13.11" class="M"/><use xlink:href="#I" x="9.48" y="31.59" class="N"/><path d="M94.3 128.09L92.46 127a1.21 1.21 0 0 1-.49-1v-2c0-.37.22-.53.49-.38l1.84 1.07a1.17 1.17 0 0 1 .5 1v1.94c0 .45-.22.62-.5.46z" class="M"/><path d="M97 146.85l-38.88-22.43a3.75 3.75 0 0 1-1.57-3V114c0-1.16.7-1.69 1.57-1.19L97 135.24a3.78 3.78 0 0 1 1.57 3v7.41c-.04 1.17-.74 1.7-1.57 1.2z" class="O"/><g class="M"><path d="M95.84 144.25l-36.6-21.14a1.87 1.87 0 0 1-.8-1.52V116c0-.59.35-.86.8-.6l36.6 21.13a1.93 1.93 0 0 1 .8 1.53v5.57c0 .6-.36.88-.8.62z" class="R"/><path d="M66.86 124.7l-5.46-3.15a1.85 1.85 0 0 1-.77-1.48h0c0-.57.34-.83.77-.59l5.46 3.16a1.84 1.84 0 0 1 .78 1.48h0c0 .57-.35.88-.78.58z"/></g><use xlink:href="#J" x="-6.32" y="35.53" class="N"/><use xlink:href="#H" x="-6.32" y="48.59" class="P"/><use xlink:href="#K" y="26.11" class="M"/><use xlink:href="#I" x="9.48" y="44.65" class="P"/><path d="M94.3 141.15l-1.84-1.06a1.21 1.21 0 0 1-.49-1v-1.95c0-.37.22-.54.49-.38l1.84 1.07a1.16 1.16 0 0 1 .5 1v1.94c0 .37-.22.54-.5.38z" class="M"/><path d="M97 159.91l-38.88-22.43a3.76 3.76 0 0 1-1.57-3v-7.41c0-1.16.7-1.69 1.57-1.19L97 148.3a3.78 3.78 0 0 1 1.57 3v7.41c-.04 1.17-.74 1.7-1.57 1.2z" class="O"/><g class="M"><use xlink:href="#L" class="R"/><path d="M66.86 137.76l-5.46-3.15a1.85 1.85 0 0 1-.77-1.48h0c0-.57.34-.84.77-.59l5.46 3.16a1.84 1.84 0 0 1 .78 1.48h0c0 .57-.35.82-.78.58z"/></g><g class="N"><use xlink:href="#J" x="-6.32" y="48.59"/><use xlink:href="#E" x="3.16" y="67.12"/></g><use xlink:href="#F" x="3.16" y="67.07" class="M"/><g class="N"><use xlink:href="#G" x="3.16" y="67.12"/><path d="M94.3 154.21l-1.84-1.06a1.21 1.21 0 0 1-.49-1v-1.95c0-.37.22-.54.49-.38l1.84 1.07a1.16 1.16 0 0 1 .5.95v1.94c0 .42-.22.59-.5.43z"/></g><path d="M97 173l-38.88-22.46a3.76 3.76 0 0 1-1.57-3v-7.41c0-1.16.7-1.69 1.57-1.19L97 161.36a3.76 3.76 0 0 1 1.57 3v7.41c-.04 1.16-.74 1.7-1.57 1.23z" class="O"/><g class="M"><use xlink:href="#L" y="13.06" class="R"/><path d="M66.86 150.82l-5.46-3.15a1.85 1.85 0 0 1-.77-1.48h0c0-.57.34-.84.77-.59l5.46 3.16a1.84 1.84 0 0 1 .78 1.48h0c0 .57-.35.83-.78.58z"/></g><path d="M72.52 153.18c0 1.08-.76 1.52-1.69 1a3.72 3.72 0 0 1-1.69-2.93c0-1.08.75-1.51 1.69-1a3.76 3.76 0 0 1 1.69 2.93z" class="P"/><use xlink:href="#M" class="N"/><use xlink:href="#K" x="4.38" y="54.95" class="M"/><use xlink:href="#I" x="13.86" y="73.48" class="N"/><path d="M94.3 167.27l-1.84-1.06a1.21 1.21 0 0 1-.49-1v-1.95c0-.37.22-.54.49-.38L94.3 164a1.19 1.19 0 0 1 .5 1v1.94c0 .32-.22.49-.5.33z" class="M"/><path d="M162.28 222.66L120.83 199c-1.52-.87-1.33-2.4.42-3.41l23.85-13.77a6.6 6.6 0 0 1 5.92-.25l41.45 23.64c1.52.88 1.33 2.4-.42 3.42l-23.85 13.79a6.57 6.57 0 0 1-5.92.24z" class="S"/><path d="M196.17 197.27h0v-96.78l-38.48-10.07-7.08-4.09a7 7 0 0 0-6.35.27l-6.61 3.81h-20.52l6.08 93.43a1.82 1.82 0 0 0 1.09 1.7l38.39 29a7.07 7.07 0 0 0 6.35-.26l25.58-14.78a2.5 2.5 0 0 0 1.55-2.23z" class="Q"/><path d="M147.66,85.7a7.27,7.27,0,0,0-3.4.9l-6.61,3.81H117.13v97a1.83,1.83,0,0,0,1.09,1.7l44.47,25.36a5.82,5.82,0,0,0,2.95.63l.45-97.65Z" class="M"/><path d="M163.1,214.7a7.2,7.2,0,0,0,5.07-.06V116.33H163.1Z" class="O"/><path d="M162.69 117.49l-44.47-25.35c-1.63-.94-1.42-2.58.45-3.67l25.59-14.77a7.07 7.07 0 0 1 6.35-.26l44.47 25.35c1.63.94 1.42 2.58-.46 3.67L169 117.23a7 7 0 0 1-6.31.26z" class="M"/><path d="M194.62 100.66L169 115.43a7 7 0 0 1-6.35.26l-44.43-25.35a2.51 2.51 0 0 1-.81-.72 1.7 1.7 0 0 0 .81 2.52l44.47 25.35a7 7 0 0 0 6.35-.26l25.58-14.77c1.46-.84 1.91-2 1.27-2.95a3.52 3.52 0 0 1-1.27 1.15z" class="U"/><path d="M164 107.22l-29.66-17.17c-.76-.44-.67-1.2.21-1.71l12-6.91a3.29 3.29 0 0 1 3-.13l29.6 17.17c.77.44.67 1.2-.21 1.71l-12 6.91a3.29 3.29 0 0 1-2.94.13z" class="N"/><g class="M"><path d="M148 90.82l-1.71-1c-.11-.06-.09-.16 0-.23l1.65-1a.48.48 0 0 1 .42 0l1.71 1c.11.06.09.17 0 .24l-1.66 1a.43.43 0 0 1-.41-.01zm5.7 3.3l-1.72-1c-.11-.06-.09-.17 0-.24l1.66-1a.46.46 0 0 1 .41 0l1.71 1c.11.06.09.17 0 .24l-1.65.95a.46.46 0 0 1-.41.05zm5.73 3.3l-1.72-1c-.1-.07-.09-.17 0-.24l1.66-1a.43.43 0 0 1 .41 0l1.71 1c.11.06.1.16 0 .23l-1.66 1a.46.46 0 0 1-.4.01z"/><use xlink:href="#N"/></g><path d="M134.34 90.05h0l.17-.12 12-6.91a3.29 3.29 0 0 1 3-.12l29.57 17.14c.7-.5.74-1.19 0-1.59L149.5 81.3a3.29 3.29 0 0 0-3 .13l-12 6.91c-.83.51-.92 1.27-.16 1.71z" class="O"/><path d="M174 136.67l16.87-9.67a4.12 4.12 0 0 0 1.71-3.28v-6c0-1.26-.77-1.84-1.71-1.29L174 126.07a4.11 4.11 0 0 0-1.71 3.28v6c.03 1.28.79 1.86 1.71 1.32z" class="N"/><path d="M191.7 116.25a1.72 1.72 0 0 1 .43 1.26v6a4.08 4.08 0 0 1-1.72 3.27l-16.83 9.64a1.16 1.16 0 0 1-.83.18 1 1 0 0 0 1.28 0l16.84-9.6a4.12 4.12 0 0 0 1.71-3.28v-6c0-.85-.36-1.38-.88-1.47z" class="P"/><use xlink:href="#O" class="Q"/><path d="M184.26 127.15l1.54-.89a.9.9 0 0 0 .38-.72v-1.65c0-.27-.17-.4-.38-.28l-1.54.89a.9.9 0 0 0-.38.72v1.64c0 .28.17.41.38.29z" class="P"/><path d="M174 180.17l16.84-9.64a4.12 4.12 0 0 0 1.71-3.28v-6c0-1.26-.77-1.84-1.71-1.29L174 169.58a4.08 4.08 0 0 0-1.71 3.27v6c.03 1.29.79 1.87 1.71 1.32z" class="N"/><path d="M191.7 159.76a1.69 1.69 0 0 1 .43 1.25v6a4.12 4.12 0 0 1-1.72 3.28l-16.83 9.63a1.23 1.23 0 0 1-.83.19 1 1 0 0 0 1.28 0l16.84-9.64a4.12 4.12 0 0 0 1.71-3.28v-6c0-.81-.36-1.34-.88-1.43z" class="P"/><path d="M179.09 173.63l1.55-.89a.89.89 0 0 0 .36-.74v-1.65c0-.27-.16-.4-.37-.28l-1.55.89a.92.92 0 0 0-.37.72v1.65c.01.29.18.42.38.3z" class="Q"/><use xlink:href="#P" class="P"/><path d="M174 201.92l16.84-9.64a4.1 4.1 0 0 0 1.71-3.27v-6c0-1.27-.77-1.85-1.71-1.3L174 191.33a4.08 4.08 0 0 0-1.71 3.27v6c.03 1.29.79 1.87 1.71 1.32z" class="N"/><path d="M191.7 181.51a1.69 1.69 0 0 1 .43 1.25v6a4.12 4.12 0 0 1-1.72 3.28l-16.83 9.64a1.28 1.28 0 0 1-.83.18 1 1 0 0 0 1.28 0l16.84-9.64a4.1 4.1 0 0 0 1.71-3.27v-6c0-.82-.36-1.35-.88-1.44z" class="P"/><path d="M179.09 195.38l1.55-.89a.88.88 0 0 0 .37-.71v-1.65c0-.28-.16-.41-.37-.29l-1.55.89a.92.92 0 0 0-.37.72v1.65c0 .27.17.4.37.28z" class="Q"/><use xlink:href="#P" y="21.75" class="P"/><path d="M174 158.42l16.84-9.64a4.12 4.12 0 0 0 1.71-3.28v-6c0-1.26-.77-1.84-1.71-1.29L174 147.82a4.11 4.11 0 0 0-1.71 3.28v6c.03 1.29.79 1.9 1.71 1.32z" class="N"/><path d="M191.7 138a1.72 1.72 0 0 1 .43 1.26v6a4.08 4.08 0 0 1-1.72 3.27l-16.83 9.64a1.16 1.16 0 0 1-.83.18 1 1 0 0 0 1.28 0l16.84-9.64a4.12 4.12 0 0 0 1.71-3.28v-6c0-.8-.36-1.34-.88-1.43z" class="P"/><use xlink:href="#O" y="21.75" class="Q"/><path d="M184.26 148.9l1.54-.89a.9.9 0 0 0 .38-.72v-1.65c0-.27-.17-.4-.38-.28l-1.54.89a.9.9 0 0 0-.38.72v1.65c0 .27.17.38.38.28z" class="P"/><path d="M159.45 130.51l-38.84-22.43a3.76 3.76 0 0 1-1.57-3v-7.4c0-1.16.7-1.69 1.57-1.19l38.84 22.42a3.77 3.77 0 0 1 1.58 3v7.41c-.03 1.15-.71 1.68-1.58 1.19z" class="O"/><g class="M"><path d="M158.34 127.91l-36.61-21.14a1.9 1.9 0 0 1-.8-1.52v-5.57c0-.59.36-.86.8-.6l36.61 21.13a1.92 1.92 0 0 1 .79 1.53v5.57c0 .58-.35.85-.79.6z" class="R"/><path d="M129.36 108.36l-5.47-3.15a1.88 1.88 0 0 1-.77-1.48h0c0-.57.35-.84.77-.59l5.47 3.16a1.84 1.84 0 0 1 .77 1.48h0c0 .57-.34.83-.77.58z"/></g><g class="N"><path d="M134,110c0,.57-.4.8-.89.51a2,2,0,0,1-.9-1.55c0-.57.4-.8.9-.51A2,2,0,0,1,134,110Z"/><use xlink:href="#Q"/></g><use xlink:href="#R" class="M"/><g class="N"><use xlink:href="#J" x="65.65" y="24.66"/><path d="M156.8 124.81l-1.8-1.06a1.19 1.19 0 0 1-.5-1v-2c0-.37.22-.54.5-.38l1.84 1.06a1.21 1.21 0 0 1 .49 1v1.94c-.04.43-.26.63-.53.44z"/></g><path d="M159.45 143.56l-38.84-22.42a3.76 3.76 0 0 1-1.57-3v-7.4c0-1.16.7-1.69 1.57-1.19L159.45 132a3.77 3.77 0 0 1 1.58 3v7.4c-.03 1.13-.71 1.67-1.58 1.16z" class="O"/><g class="M"><path d="M158.34 141l-36.61-21.14a1.91 1.91 0 0 1-.8-1.52v-5.57c0-.59.36-.86.8-.6l36.61 21.13a1.92 1.92 0 0 1 .79 1.53v5.56c0 .61-.35.83-.79.61z" class="R"/><path d="M129.36 121.42l-5.47-3.15a1.88 1.88 0 0 1-.77-1.48h0c0-.57.35-.84.77-.59l5.47 3.15a1.87 1.87 0 0 1 .77 1.49h0c0 .57-.34.83-.77.58z"/></g><use xlink:href="#S" class="P"/><use xlink:href="#Q" y="13.06" class="N"/><use xlink:href="#R" y="13.06" class="M"/><g class="N"><use xlink:href="#K" x="65.65" y="24.66"/><path d="M156.8 137.87l-1.8-1.06a1.19 1.19 0 0 1-.5-1v-1.94c0-.37.22-.54.5-.38l1.84 1.06a1.21 1.21 0 0 1 .49.95v2c-.04.36-.26.5-.53.37z"/></g><path d="M159.45 156.62l-38.84-22.42a3.76 3.76 0 0 1-1.57-3v-7.4c0-1.16.7-1.69 1.57-1.19L159.45 145a3.77 3.77 0 0 1 1.58 3v7.4c-.03 1.19-.71 1.73-1.58 1.22z" class="O"/><g class="M"><path d="M158.34 154l-36.61-21.14a1.91 1.91 0 0 1-.8-1.52v-5.54c0-.59.36-.86.8-.61l36.61 21.14a1.92 1.92 0 0 1 .79 1.53v5.56c0 .58-.35.86-.79.58z" class="R"/><path d="M129.36 134.48l-5.47-3.15a1.88 1.88 0 0 1-.77-1.48h0c0-.58.35-.84.77-.59l5.47 3.15a1.85 1.85 0 0 1 .77 1.49h0c0 .57-.34.83-.77.58z"/></g><path d="M134 136.14c0 .57-.4.8-.89.51a2 2 0 0 1-.9-1.55c0-.57.4-.8.9-.52a2 2 0 0 1 .89 1.56z" class="P"/><use xlink:href="#T" class="N"/><use xlink:href="#M" x="61.27" y="-17.22" class="M"/><g class="N"><use xlink:href="#K" x="65.65" y="37.72"/><path d="M156.8 150.93l-1.8-1.07a1.16 1.16 0 0 1-.5-1V147c0-.37.22-.54.5-.38l1.84 1.06a1.21 1.21 0 0 1 .49.95v2c-.04.29-.26.46-.53.3z"/></g><path d="M159.45 169.68l-38.84-22.42a3.76 3.76 0 0 1-1.57-3v-7.4c0-1.16.7-1.69 1.57-1.19l38.84 22.42a3.77 3.77 0 0 1 1.58 3v7.4c-.03 1.16-.71 1.7-1.58 1.19z" class="O"/><g class="M"><path d="M158.34 167.09L121.73 146a1.91 1.91 0 0 1-.8-1.52v-5.57c0-.59.36-.86.8-.61l36.61 21.14a1.91 1.91 0 0 1 .79 1.53v5.56c0 .54-.35.81-.79.56z" class="R"/><path d="M129.36 147.54l-5.47-3.15a1.88 1.88 0 0 1-.77-1.48h0c0-.58.35-.84.77-.59l5.47 3.15a1.85 1.85 0 0 1 .77 1.48h0c0 .58-.34.84-.77.59z"/></g><g class="N"><path d="M134 149.2c0 .57-.4.8-.89.51a2 2 0 0 1-.9-1.55c0-.57.4-.8.9-.52a2 2 0 0 1 .89 1.56z"/><use xlink:href="#U"/></g><use xlink:href="#M" x="61.27" y="-4.16" class="M"/><use xlink:href="#K" x="65.65" y="50.78" class="N"/><path d="M156.8 164l-1.8-1.08a1.16 1.16 0 0 1-.5-.95V160c0-.37.22-.54.5-.38l1.84 1.06a1.21 1.21 0 0 1 .49.95v2c-.04.37-.26.51-.53.37z" class="M"/><path d="M159.45 182.74l-38.84-22.42a3.76 3.76 0 0 1-1.57-3v-7.4c0-1.16.7-1.7 1.57-1.19l38.84 22.42a3.77 3.77 0 0 1 1.58 3v7.4c-.03 1.16-.71 1.69-1.58 1.19z" class="O"/><g class="M"><path d="M158.34 180.15L121.73 159a1.91 1.91 0 0 1-.8-1.53v-5.56c0-.59.36-.86.8-.61l36.61 21.14a1.9 1.9 0 0 1 .79 1.52v5.57c0 .6-.35.87-.79.62z" class="R"/><path d="M129.36 160.6l-5.47-3.15a1.88 1.88 0 0 1-.77-1.49h0c0-.57.35-.83.77-.58l5.47 3.15a1.85 1.85 0 0 1 .77 1.48h0c0 .58-.34.84-.77.59z"/></g><use xlink:href="#R" x="-6.33" y="48.59" class="N"/><use xlink:href="#U" y="13.08" class="P"/><use xlink:href="#V" class="M"/><use xlink:href="#F" x="68.81" y="91.73" class="P"/><path d="M156.8 177.05L155 176a1.17 1.17 0 0 1-.5-.95v-1.94c0-.37.22-.54.5-.38l1.84 1.06a1.21 1.21 0 0 1 .49.95v1.95c-.04.31-.26.51-.53.36z" class="M"/><path d="M159.45 195.8l-38.84-22.42a3.76 3.76 0 0 1-1.57-3V163c0-1.16.7-1.7 1.57-1.19l38.84 22.42a3.77 3.77 0 0 1 1.58 3v7.4c-.03 1.14-.71 1.67-1.58 1.17z" class="O"/><g class="M"><path d="M158.34 193.21l-36.61-21.14a1.91 1.91 0 0 1-.8-1.53V165c0-.59.36-.86.8-.61l36.61 21.14a1.9 1.9 0 0 1 .79 1.52v5.57c0 .57-.35.84-.79.59z" class="R"/><path d="M129.36 173.66l-5.47-3.15a1.9 1.9 0 0 1-.77-1.49h0c0-.57.35-.83.77-.58l5.47 3.15a1.85 1.85 0 0 1 .77 1.48h0c0 .57-.34.84-.77.59z"/></g><g class="N"><use xlink:href="#M" x="54.94" y="18.31"/><use xlink:href="#S" x="3.17" y="54.06"/></g><use xlink:href="#Q" x="3.16" y="67.16" class="M"/><g class="N"><use xlink:href="#F" x="68.81" y="104.79"/><path d="M156.8 190.1L155 189a1.17 1.17 0 0 1-.5-.95v-2c0-.36.22-.53.5-.37l1.84 1.06a1.21 1.21 0 0 1 .49.95v1.95c-.04.46-.26.62-.53.46z"/></g><path d="M159.45 208.86l-38.84-22.42a3.76 3.76 0 0 1-1.57-3V176c0-1.16.7-1.7 1.57-1.19l38.84 22.42a3.77 3.77 0 0 1 1.58 3v7.4c-.03 1.2-.71 1.73-1.58 1.23z" class="O"/><g class="M"><path d="M158.34 206.26l-36.61-21.13a1.93 1.93 0 0 1-.8-1.53V178c0-.59.36-.86.8-.61l36.61 21.14a1.9 1.9 0 0 1 .79 1.52v5.57c0 .63-.35.9-.79.64z" class="R"/><path d="M129.36 186.72l-5.47-3.16a1.86 1.86 0 0 1-.77-1.48h0c0-.57.35-.83.77-.58l5.47 3.15a1.85 1.85 0 0 1 .77 1.48h0c0 .57-.34.87-.77.59z"/></g><path d="M135 189.08c0 1.08-.76 1.52-1.69 1a3.75 3.75 0 0 1-1.69-2.93c0-1.08.76-1.52 1.69-1a3.75 3.75 0 0 1 1.69 2.93z" class="P"/><use xlink:href="#U" x="4.38" y="41.91" class="N"/><use xlink:href="#V" x="4.38" y="28.83" class="M"/><use xlink:href="#S" x="13.87" y="73.48" class="N"/><g class="M"><path d="M156.8 203.16l-1.8-1.06a1.17 1.17 0 0 1-.5-.95v-2c0-.36.22-.53.5-.37l1.84 1.06a1.19 1.19 0 0 1 .49 1v1.95c-.04.36-.26.53-.53.37zm47.26-109.1l-1.68-1v-2.38a9 9 0 0 0-4-7l-12.7-7.28c-2.23-1.3-4-.24-4 2.34v26l-1.78-24.58v-2.41c0-3.65 2.57-5.13 5.73-3.31l12.7 7.28a12.7 12.7 0 0 1 5.73 9.93z"/><path d="M198.33 97.35l5.73-3.29-1.16-4-1.6-4-3-3.13c-.24-.06-7.7-4.33-7.7-4.33l-6.25-4.5-3 .11-5.53 3.17 4 1.65 2.76 1.26a18.89 18.89 0 0 1 2.78 2.26l2.72 1.11.58-.1 4.87 3.42 1.57.69.9 1.33 1.3 3.63z"/></g><path d="M181.58 104.68l-5.72 3.3-.37-27.29c0-.04 1.25-1.8 1.25-1.8l3.1-.6 2.46 1.86-.77-.31-.33.19.38.6z" class="Q"/><path d="M198.33 97.35l-1.67-1V94a9 9 0 0 0-4.06-7l-12.69-7.28c-2.23-1.29-4-.24-4 2.34v26l-1.68-1v-26c0-3.65 2.57-5.14 5.73-3.31L192.6 85a12.68 12.68 0 0 1 5.73 10z" class="O"/><path d="M223.09 251.71L194 235.14c-1.06-.62-.93-1.69.3-2.4l16.72-9.65a4.57 4.57 0 0 1 4.14-.17l29.07 16.57c1.06.61.92 1.68-.3 2.39l-16.72 9.66a4.65 4.65 0 0 1-4.12.17z" class="S"/><path d="M258.66 209.56h0v-96.78l-38.47-10.07-7.09-4.09a7 7 0 0 0-6.34.26l-6.62 3.82h-20.52l6.08 93.43a1.83 1.83 0 0 0 1.09 1.7l38.39 29a7.07 7.07 0 0 0 6.35-.26l25.59-14.78a2.5 2.5 0 0 0 1.54-2.23z" class="Q"/><path d="M210.16 98a7.11 7.11 0 0 0-3.4.89l-6.62 3.82h-20.52v97a1.85 1.85 0 0 0 1.09 1.7l44.47 25.36a5.74 5.74 0 0 0 2.95.63l.46-97.65z" class="M"/><path d="M225.59,227a7.2,7.2,0,0,0,5.07-.06V128.61h-5.07Z" class="O"/><path d="M225.18 129.78l-44.47-25.36c-1.62-.94-1.42-2.58.46-3.67L206.76 86a7.05 7.05 0 0 1 6.34-.26l44.47 25.36c1.63.94 1.42 2.58-.45 3.66l-25.59 14.77a7.07 7.07 0 0 1-6.35.25z" class="M"/><path d="M257.12 112.94l-25.59 14.77a7 7 0 0 1-6.35.27l-44.47-25.36a2.51 2.51 0 0 1-.81-.72 1.71 1.71 0 0 0 .81 2.52l44.47 25.36a7.07 7.07 0 0 0 6.35-.27l25.59-14.77c1.46-.84 1.9-2 1.26-2.94a3.55 3.55 0 0 1-1.26 1.14z" class="U"/><path d="M226.44 119.5l-29.61-17.16c-.76-.44-.66-1.21.22-1.72l12-6.91a3.29 3.29 0 0 1 3-.12l29.61 17.16c.76.44.66 1.21-.22 1.71l-12 6.92a3.32 3.32 0 0 1-3 .12z" class="N"/><g class="M"><use xlink:href="#B" x="107.79" y="38.29"/><use xlink:href="#N" x="51.03" y="5.69"/><path d="M221.92 109.7l-1.72-1c-.1-.06-.09-.17 0-.24l1.66-1a.46.46 0 0 1 .41 0l1.72 1c.1.06.09.16 0 .23l-1.66 1a.46.46 0 0 1-.41.01zm5.73 3.3l-1.71-1c-.11-.06-.1-.16 0-.23l1.65-1a.46.46 0 0 1 .41 0l1.72 1c.1.06.09.17 0 .24l-1.66 1a.46.46 0 0 1-.41-.01z"/></g><path d="M196.83 102.34h0a1.18 1.18 0 0 1 .18-.13l12-6.91a3.29 3.29 0 0 1 3-.12l29.57 17.14c.7-.5.74-1.19 0-1.59L212 93.59a3.29 3.29 0 0 0-3 .12l-12 6.91c-.83.51-.93 1.28-.17 1.72z" class="O"/><path d="M236.52 149l16.84-9.64a4.1 4.1 0 0 0 1.71-3.28v-6c0-1.26-.76-1.84-1.71-1.29l-16.84 9.64a4.1 4.1 0 0 0-1.71 3.27v6c0 1.22.77 1.8 1.71 1.3z" class="N"/><path d="M254.19 128.54a1.65 1.65 0 0 1 .43 1.25v6a4.14 4.14 0 0 1-1.71 3.28l-16.84 9.63a1.22 1.22 0 0 1-.83.19 1 1 0 0 0 1.28 0l16.84-9.64a4.1 4.1 0 0 0 1.71-3.28v-6c0-.81-.35-1.34-.88-1.43z" class="P"/><use xlink:href="#P" x="57.33" y="-28.24" class="Q"/><use xlink:href="#W" class="P"/><path d="M236.52 192.45l16.84-9.64a4.08 4.08 0 0 0 1.71-3.27v-6c0-1.27-.76-1.85-1.71-1.3l-16.84 9.64a4.11 4.11 0 0 0-1.71 3.28v6c0 1.26.77 1.84 1.71 1.29z" class="N"/><path d="M254.19 172a1.65 1.65 0 0 1 .43 1.25v6a4.14 4.14 0 0 1-1.71 3.28l-16.84 9.64a1.26 1.26 0 0 1-.83.18 1 1 0 0 0 1.28 0l16.84-9.64a4.08 4.08 0 0 0 1.71-3.27v-6c0-.78-.35-1.31-.88-1.44z" class="P"/><path d="M241.59 185.91l1.54-.89a.89.89 0 0 0 .38-.71v-1.65c0-.28-.17-.4-.38-.29l-1.54.9a.88.88 0 0 0-.38.71v1.65c0 .27.17.37.38.28z" class="Q"/><path d="M246.75 182.93l1.55-.89a.91.91 0 0 0 .37-.71v-1.65c0-.28-.17-.41-.37-.29l-1.55.89a.89.89 0 0 0-.37.72v1.65c0 .27.16.4.37.28z" class="P"/><path d="M236.52 214.2l16.84-9.64a4.08 4.08 0 0 0 1.71-3.27v-6c0-1.27-.76-1.85-1.71-1.3l-16.84 9.64a4.12 4.12 0 0 0-1.71 3.28v6c0 1.26.77 1.84 1.71 1.29z" class="N"/><path d="M254.19 193.79a1.65 1.65 0 0 1 .43 1.25v6a4.14 4.14 0 0 1-1.71 3.28L236.07 214a1.26 1.26 0 0 1-.83.18 1 1 0 0 0 1.28 0l16.84-9.64a4.08 4.08 0 0 0 1.71-3.27v-6c0-.86-.35-1.39-.88-1.48z" class="P"/><path d="M241.59 207.66l1.54-.89a.89.89 0 0 0 .38-.71v-1.65c0-.28-.17-.4-.38-.28l-1.54.89a.89.89 0 0 0-.38.71v1.65c0 .28.17.4.38.28z" class="Q"/><path d="M246.75 204.68l1.55-.89a.91.91 0 0 0 .37-.71v-1.65c0-.28-.17-.41-.37-.29l-1.55.9a.85.85 0 0 0-.37.71v1.65c0 .27.16.4.37.28zm-1.14 11.11l1.54-.9a.85.85 0 0 0 .37-.71v-1.65c0-.27-.16-.4-.37-.28l-1.54.89a.89.89 0 0 0-.38.71v1.65c0 .28.17.41.38.29z" class="P"/><path d="M236.52 170.7l16.84-9.64a4.08 4.08 0 0 0 1.71-3.27v-6c0-1.27-.76-1.85-1.71-1.3l-16.84 9.64a4.1 4.1 0 0 0-1.71 3.27v6c0 1.27.77 1.85 1.71 1.3z" class="N"/><path d="M254.19 150.29a1.65 1.65 0 0 1 .43 1.25v6a4.14 4.14 0 0 1-1.71 3.28l-16.84 9.64a1.26 1.26 0 0 1-.83.18 1 1 0 0 0 1.28 0l16.84-9.64a4.08 4.08 0 0 0 1.71-3.27v-6c0-.82-.35-1.35-.88-1.44z" class="P"/><path d="M241.59 164.16l1.54-.89a.89.89 0 0 0 .38-.71v-1.65c0-.28-.17-.41-.38-.29l-1.54.89a.9.9 0 0 0-.38.72v1.65c0 .27.17.4.38.28z" class="Q"/><use xlink:href="#W" y="21.75" class="P"/><path d="M221.94 142.79l-38.83-22.43a3.75 3.75 0 0 1-1.58-3V110c0-1.16.71-1.69 1.58-1.19l38.83 22.42a3.79 3.79 0 0 1 1.58 3v7.41c0 1.12-.71 1.65-1.58 1.15z" class="O"/><g class="M"><path d="M220.83 140.19l-36.61-21.13a1.93 1.93 0 0 1-.8-1.53V112c0-.59.36-.86.8-.6l36.61 21.13a1.93 1.93 0 0 1 .8 1.53v5.57c0 .55-.36.82-.8.56z" class="R"/><path d="M191.85 120.65l-5.46-3.16a1.86 1.86 0 0 1-.78-1.48h0c0-.57.35-.83.78-.59l5.46 3.16a1.84 1.84 0 0 1 .78 1.48h0c0 .57-.35.83-.78.59z"/></g><g class="N"><path d="M196.51 122.3c0 .57-.41.8-.9.52a2 2 0 0 1-.9-1.55c0-.58.41-.81.9-.52a2 2 0 0 1 .9 1.55z"/><use xlink:href="#M" x="120.6" y="-32.88"/></g><use xlink:href="#S" x="68.82" y="2.92" class="M"/><g class="N"><use xlink:href="#Q" x="68.83" y="15.93"/><path d="M219.29 137.09l-1.84-1.09a1.19 1.19 0 0 1-.5-.95v-2c0-.37.22-.53.5-.38l1.84 1.07a1.19 1.19 0 0 1 .5 1v1.94c0 .4-.23.57-.5.41z"/></g><path d="M221.94 155.85l-38.83-22.43a3.75 3.75 0 0 1-1.58-3V123c0-1.16.71-1.69 1.58-1.19l38.83 22.42a3.79 3.79 0 0 1 1.58 3v7.41c0 1.18-.71 1.71-1.58 1.21z" class="O"/><g class="M"><path d="M220.83 153.25l-36.61-21.14a1.9 1.9 0 0 1-.8-1.52V125c0-.59.36-.86.8-.6l36.61 21.13a1.93 1.93 0 0 1 .8 1.53v5.57c0 .6-.36.87-.8.62z" class="R"/><path d="M191.85 133.7l-5.46-3.15a1.86 1.86 0 0 1-.78-1.48h0c0-.57.35-.83.78-.59l5.46 3.16a1.84 1.84 0 0 1 .78 1.48h0c0 .57-.35.88-.78.58z"/></g><path d="M196.51 135.36c0 .57-.41.8-.9.52a2 2 0 0 1-.9-1.56c0-.57.41-.8.9-.51a2 2 0 0 1 .9 1.55z" class="P"/><use xlink:href="#V" x="59.33" y="-28.72" class="N"/><path d="M202.82 139c0 .57-.4.8-.89.51A2 2 0 0 1 201 138c0-.57.4-.8.9-.51a2 2 0 0 1 .92 1.51z" class="M"/><g class="N"><use xlink:href="#T" x="68.83" y="2.83"/><path d="M219.29 150.15l-1.84-1.06a1.19 1.19 0 0 1-.5-1v-1.95c0-.37.22-.54.5-.38l1.84 1.07a1.19 1.19 0 0 1 .5 1v1.94c0 .37-.23.54-.5.38z"/></g><path d="M221.94 168.91l-38.83-22.43a3.77 3.77 0 0 1-1.58-3v-7.41c0-1.16.71-1.69 1.58-1.19l38.83 22.42a3.77 3.77 0 0 1 1.58 3v7.41c0 1.17-.71 1.7-1.58 1.2z" class="O"/><g class="M"><path d="M220.83 166.31l-36.61-21.14a1.9 1.9 0 0 1-.8-1.52v-5.57c0-.59.36-.86.8-.6l36.61 21.13a1.93 1.93 0 0 1 .8 1.53v5.57c0 .58-.36.85-.8.6z" class="R"/><path d="M191.85 146.76l-5.46-3.15a1.86 1.86 0 0 1-.78-1.48h0c0-.57.35-.84.78-.59l5.46 3.16a1.84 1.84 0 0 1 .78 1.48h0c0 .57-.35.82-.78.58z"/></g><use xlink:href="#X" class="P"/><use xlink:href="#V" x="59.33" y="-15.66" class="N"/><path d="M202.82 152.07c0 .57-.4.8-.89.51A2 2 0 0 1 201 151c0-.57.4-.8.9-.52a2 2 0 0 1 .92 1.59z" class="M"/><g class="N"><use xlink:href="#T" x="68.83" y="15.89"/><path d="M219.29 163.21l-1.84-1.06a1.19 1.19 0 0 1-.5-1v-1.95c0-.37.22-.54.5-.38l1.84 1.06a1.22 1.22 0 0 1 .5 1v1.94c0 .38-.23.55-.5.39z"/></g><path d="M221.94 182l-38.83-22.43a3.77 3.77 0 0 1-1.58-3v-7.4c0-1.16.71-1.69 1.58-1.19l38.83 22.42a3.77 3.77 0 0 1 1.58 3v7.41c0 1.12-.71 1.66-1.58 1.19z" class="O"/><g class="M"><path d="M220.83 179.37l-36.61-21.14a1.9 1.9 0 0 1-.8-1.52v-5.57c0-.59.36-.86.8-.6l36.61 21.13a1.93 1.93 0 0 1 .8 1.53v5.56c0 .59-.36.86-.8.61z" class="R"/><path d="M191.85 159.82l-5.46-3.15a1.86 1.86 0 0 1-.78-1.48h0c0-.57.35-.84.78-.59l5.46 3.16a1.84 1.84 0 0 1 .78 1.48h0c0 .57-.35.83-.78.58z"/></g><g class="N"><use xlink:href="#X" y="13.06"/><use xlink:href="#Q" x="62.49" y="51.46"/></g><use xlink:href="#R" x="62.49" y="51.46" class="M"/><path d="M206,167c0,.57-.4.8-.89.52a2,2,0,0,1-.9-1.56c0-.57.4-.8.9-.51A2,2,0,0,1,206,167Z" class="N"/><path d="M219.29 176.27l-1.84-1.06a1.19 1.19 0 0 1-.5-1v-1.94c0-.37.22-.54.5-.38l1.84 1.06a1.22 1.22 0 0 1 .5 1v1.94c0 .37-.23.54-.5.38z" class="M"/><path d="M221.94 195l-38.83-22.4a3.77 3.77 0 0 1-1.58-3v-7.4c0-1.16.71-1.69 1.58-1.19l38.83 22.42a3.77 3.77 0 0 1 1.58 3v7.4c0 1.17-.71 1.7-1.58 1.17z" class="O"/><g class="M"><path d="M220.83 192.43l-36.61-21.14a1.91 1.91 0 0 1-.8-1.52v-5.57c0-.59.36-.86.8-.6l36.61 21.13a1.93 1.93 0 0 1 .8 1.53v5.56c0 .59-.36.86-.8.61z" class="R"/><path d="M191.85 172.88l-5.46-3.15a1.86 1.86 0 0 1-.78-1.48h0c0-.57.35-.84.78-.59l5.46 3.15a1.88 1.88 0 0 1 .78 1.49h0c0 .57-.35.83-.78.58z"/></g><use xlink:href="#X" y="26.12" class="N"/><use xlink:href="#Q" x="62.49" y="64.52" class="P"/><use xlink:href="#R" x="62.49" y="64.52" class="M"/><path d="M206,180c0,.57-.4.8-.89.51a2,2,0,0,1-.9-1.55c0-.57.4-.8.9-.51A2,2,0,0,1,206,180Z" class="P"/><path d="M219.29 189.33l-1.84-1.06a1.19 1.19 0 0 1-.5-1v-1.94c0-.37.22-.54.5-.38l1.84 1.06a1.22 1.22 0 0 1 .5.95V189c0 .32-.23.49-.5.33z" class="M"/><path d="M221.94 208.08l-38.83-22.42a3.77 3.77 0 0 1-1.58-3v-7.4c0-1.16.71-1.69 1.58-1.19l38.83 22.42a3.77 3.77 0 0 1 1.58 3v7.4c0 1.16-.71 1.7-1.58 1.19z" class="O"/><g class="M"><use xlink:href="#Y" class="R"/><path d="M191.85 185.94l-5.46-3.15a1.86 1.86 0 0 1-.78-1.48h0c0-.58.35-.84.78-.59l5.46 3.15a1.86 1.86 0 0 1 .78 1.49h0c0 .57-.35.83-.78.58z"/></g><g class="N"><path d="M196.51 187.6c0 .57-.41.8-.9.51a2 2 0 0 1-.9-1.55c0-.57.41-.8.9-.52a2 2 0 0 1 .9 1.56z"/><use xlink:href="#T" x="62.49" y="51.42"/></g><use xlink:href="#M" x="123.76" y="34.24" class="M"/><g class="N"><use xlink:href="#S" x="72" y="69.99"/><path d="M219.29 202.39l-1.84-1.07a1.16 1.16 0 0 1-.5-.95v-1.94c0-.37.22-.54.5-.38l1.84 1.06a1.22 1.22 0 0 1 .5.95V202c0 .38-.23.55-.5.39z"/></g><path d="M221.94 221.14l-38.83-22.42a3.77 3.77 0 0 1-1.58-3v-7.4c0-1.16.71-1.69 1.58-1.19l38.83 22.42a3.77 3.77 0 0 1 1.58 3V220c0 1.11-.71 1.65-1.58 1.14z" class="O"/><g class="M"><use xlink:href="#Y" y="13.06" class="R"/><path d="M191.85 199l-5.46-3.15a1.86 1.86 0 0 1-.78-1.48h0c0-.58.35-.84.78-.59l5.46 3.15a1.86 1.86 0 0 1 .78 1.48h0c0 .59-.35.84-.78.59z"/></g><path d="M197.5 201.36c0 1.08-.75 1.52-1.69 1a3.75 3.75 0 0 1-1.69-2.93c0-1.08.76-1.52 1.69-1a3.72 3.72 0 0 1 1.69 2.93z" class="P"/><use xlink:href="#I" x="132.53" y="118.01" class="N"/><path d="M207.21 207c0 .58-.4.81-.9.52a2 2 0 0 1-.89-1.55c0-.57.4-.8.89-.52a2 2 0 0 1 .9 1.55z" class="M"/><use xlink:href="#S" x="76.36" y="85.76" class="N"/><path d="M219.29 215.45l-1.84-1.07a1.16 1.16 0 0 1-.5-.95v-1.94c0-.37.22-.54.5-.38l1.84 1.06a1.22 1.22 0 0 1 .5 1v1.95c0 .32-.23.48-.5.33z" class="M"/><path d="M88.22 290L1.65 240c-2.45-1.41-2.14-3.88.69-5.52l58.94-34c2.83-1.64 7.11-1.81 9.56-.4l86.56 50c2.45 1.41 2.14 3.88-.69 5.51l-58.94 34c-2.83 1.65-7.1 1.83-9.55.41z" class="S"/><path d="M177.68 161.54l-86.57-50a3.49 3.49 0 0 0-2.93-.36h0l-.15.06h0l-3.13 1.2 2.81 1.37a.83.83 0 0 0 0 .15l-14.1 64.19c-.71 3.21.7 7 3.15 8.37l84.49 48.78-.31 3.58 3.42-1.33a4.78 4.78 0 0 0 2.45-3.48l14.1-64.18c.63-3.18-.79-6.89-3.23-8.35z" class="N"/><path d="M177.68 161.54l-86.57-50a3.49 3.49 0 0 0-2.93-.36h0l-.15.06h0l-3.13 1.2 2.81 1.37a.83.83 0 0 0 0 .15l-9.3 42.3 42.36 33L180.41 165a6.73 6.73 0 0 0-2.73-3.46z" class="Q"/><path d="M174.41,171.41,181,168.6a8.25,8.25,0,0,0-2.67-6.6l-10.43,4.39Z" fill="#274f89"/><path d="M157.86 238.57l-86.57-50c-2.45-1.41-3.86-5.16-3.15-8.38L82.24 116c.7-3.21 3.26-4.67 5.71-3.25l86.56 50c2.45 1.42 3.86 5.17 3.16 8.38l-14.1 64.18c-.71 3.21-3.26 4.69-5.71 3.26z" class="M"/><g class="P"><path d="M175.34 162.45l-86.56-50a3.45 3.45 0 0 0-3.41-.15 3.6 3.6 0 0 1 2.58.46l86.56 50c2.45 1.42 3.86 5.17 3.16 8.38l-14.1 64.18a4.9 4.9 0 0 1-2.3 3.4c1.46-.31 2.68-1.64 3.13-3.7l14.1-64.18c.7-3.23-.71-6.98-3.16-8.39z"/><use xlink:href="#Z"/></g><use xlink:href="#Z" class="N"/><path d="M156.69 233.5l-81.41-47c-2.24-1.29-3.54-4.72-2.89-7.66l12.9-58.73a4.51 4.51 0 0 1 2-3.09 4.15 4.15 0 0 0-2.76 3.38l-12.9 58.73c-.65 2.94.65 6.37 2.89 7.66l81.41 47a3.14 3.14 0 0 0 3.18.12 3.28 3.28 0 0 1-2.42-.41z" class="O"/><path d="M159.05,240.74l-11.83-1.56-76.38-44.1c-2.45-1.41-6.73-1.23-9.56.4L7.16,226.72,0,225.77v4.06H0a2.79,2.79,0,0,0,1.64,2.51l86.57,50c2.45,1.41,6.72,1.23,9.55-.4l58.94-34c1.6-.92,2.39-2.1,2.34-3.21h0Z" class="N"/><path d="M101.66,212.88l-5.43-3.13H36.57l-29.41,17L0,225.77v4.06H0a2.79,2.79,0,0,0,1.64,2.51l86.57,50a9,9,0,0,0,4.93.92Z" class="Q"/><path d="M3.18,226.19,0,225.77v4.06H0a2.79,2.79,0,0,0,1.64,2.51l1.53.88Z" class="O"/><path d="M89.09,282.72a11.11,11.11,0,0,0,8.12-.5v-9.06H89.09Z" fill="#274f89"/><path d="M88.22 278.26l-86.57-50c-2.45-1.41-2.14-3.88.69-5.51l58.94-34c2.83-1.63 7.11-1.81 9.56-.4l86.56 50c2.45 1.41 2.14 3.88-.69 5.52l-58.94 34c-2.83 1.63-7.1 1.81-9.55.39z" class="M"/><path d="M156.71 242.36l-58.94 34c-2.83 1.64-7.1 1.81-9.55.4l-86.57-50a3.23 3.23 0 0 1-1.52-1.66c-.38 1.15.11 2.33 1.52 3.14l86.57 50c2.45 1.42 6.72 1.24 9.55-.39l58.94-34c1.91-1.1 2.66-2.58 2.21-3.85a4.55 4.55 0 0 1-2.21 2.36z" class="P"/><g class="O"><path d="M38.47 211.74l-3.92-2.26c-.31-.18-.27-.5.09-.71l4.62-2.67a1.37 1.37 0 0 1 1.23 0l3.92 2.26c.31.18.27.5-.09.71l-4.62 2.67a1.37 1.37 0 0 1-1.23 0zm6.05 3.49L40.6 213c-.31-.18-.27-.5.09-.71l4.62-2.67a1.37 1.37 0 0 1 1.23-.05l3.92 2.26c.31.18.27.5-.09.71l-4.62 2.67a1.37 1.37 0 0 1-1.23.02zm6.05 3.49l-3.92-2.26c-.31-.18-.27-.5.09-.71l4.62-2.67a1.37 1.37 0 0 1 1.23-.05l3.92 2.26c.31.19.27.5-.09.71l-4.63 2.67a1.35 1.35 0 0 1-1.22.05zm8.36-2.88L55 213.58c-.32-.18-.28-.5.08-.71l3.92-2.24a1.37 1.37 0 0 1 1.23 0l3.92 2.26c.31.18.27.5-.09.71l-3.88 2.24a1.37 1.37 0 0 1-1.25 0zm6.07 3.49l-3.92-2.26c-.31-.18-.27-.5.09-.71l3.83-2.24a1.37 1.37 0 0 1 1.23-.05l3.92 2.26c.31.18.27.5-.09.71l-3.88 2.24a1.37 1.37 0 0 1-1.18.05z"/><use xlink:href="#a"/><path d="M77.08 226.31l-3.92-2.26c-.31-.18-.27-.49.09-.7l3.88-2.25a1.41 1.41 0 0 1 1.23 0l3.91 2.27c.32.18.28.49-.08.7l-3.88 2.24a1.34 1.34 0 0 1-1.23 0zm6.05 3.5l-3.92-2.26c-.31-.19-.28-.5.09-.71l3.88-2.24a1.34 1.34 0 0 1 1.23 0l3.91 2.26c.32.18.28.5-.09.71l-3.88 2.24a1.35 1.35 0 0 1-1.22 0zm6.05 3.49l-3.92-2.3c-.32-.18-.28-.5.09-.71l3.88-2.24a1.35 1.35 0 0 1 1.22-.05l3.92 2.26c.32.18.28.5-.09.71l-3.88 2.24a1.35 1.35 0 0 1-1.22.09zm6.04 3.49l-3.91-2.26c-.32-.18-.28-.5.09-.71l3.88-2.24a1.35 1.35 0 0 1 1.22-.05l3.92 2.26c.31.18.27.5-.09.71l-3.88 2.24a1.37 1.37 0 0 1-1.23.05zm6.05 3.49L97.36 238c-.32-.18-.28-.5.08-.71l3.88-2.24a1.37 1.37 0 0 1 1.23 0l3.92 2.26c.31.19.27.5-.09.71l-3.88 2.24a1.34 1.34 0 0 1-1.23.02zm6.05 3.5l-3.92-2.27c-.31-.18-.27-.49.09-.7l3.88-2.24a1.38 1.38 0 0 1 1.23-.06l3.92 2.27c.31.18.27.49-.09.7l-3.88 2.24a1.38 1.38 0 0 1-1.23.06zm6.05 3.49l-3.92-2.27c-.31-.19-.27-.5.09-.71l3.88-2.24a1.37 1.37 0 0 1 1.23-.05l3.92 2.26c.31.18.27.5-.09.71l-3.88 2.24a1.37 1.37 0 0 1-1.23.06zm-45.53-33.08l-3.91-2.27c-.32-.18-.28-.49.09-.7L67.9 209a1.36 1.36 0 0 1 1.22-.06l3.88 2.25c.31.18.28.49-.09.7l-3.88 2.24a1.38 1.38 0 0 1-1.19.06z"/><use xlink:href="#b"/><path d="M55.56 207.09l-8.44-4.87c-.31-.18-.27-.5.09-.71l3.88-2.24a1.37 1.37 0 0 1 1.23-.05l8.43 4.87c.32.18.28.5-.09.71l-3.88 2.2a1.35 1.35 0 0 1-1.22.09zm4.3-4.32l-6.85-4c-.32-.18-.28-.5.09-.71l3.9-2.19a1.37 1.37 0 0 1 1.23-.05l6.84 4c.32.19.28.5-.09.71l-3.88 2.24a1.32 1.32 0 0 1-1.24 0zm14.03 14.91L70 215.42c-.32-.19-.28-.5.08-.71l3.92-2.24a1.32 1.32 0 0 1 1.22-.05l3.92 2.26c.31.18.27.5-.09.71l-3.88 2.24a1.37 1.37 0 0 1-1.28.05zm6.05 3.49L76 218.91c-.32-.18-.28-.5.08-.71L80 216a1.37 1.37 0 0 1 1.23-.05l3.92 2.26c.31.18.27.5-.09.71l-3.88 2.24a1.37 1.37 0 0 1-1.24.01zm6.06 3.49l-3.92-2.26c-.31-.18-.27-.5.09-.71l3.83-2.24a1.37 1.37 0 0 1 1.23 0l3.92 2.26c.31.18.27.5-.09.71l-3.88 2.24a1.37 1.37 0 0 1-1.18 0zm6 3.49l-3.92-2.26c-.31-.18-.27-.5.09-.71l3.88-2.24a1.37 1.37 0 0 1 1.23-.05l3.91 2.26c.32.19.28.5-.08.71l-3.88 2.24a1.34 1.34 0 0 1-1.23.05zm6.09 3.5l-3.92-2.27c-.31-.18-.27-.49.09-.7l3.88-2.24a1.38 1.38 0 0 1 1.23-.06l3.91 2.27c.32.18.28.49-.08.7l-3.89 2.25a1.38 1.38 0 0 1-1.22.05z"/><use xlink:href="#b" x="42.43" y="24.5"/><path d="M110.18 238.63l-3.91-2.26c-.32-.18-.28-.5.09-.71l3.88-2.24a1.35 1.35 0 0 1 1.22 0l3.92 2.26c.31.18.28.5-.09.71l-3.88 2.24a1.37 1.37 0 0 1-1.23 0zm6.05 3.49l-3.91-2.26c-.32-.18-.28-.5.08-.71l3.89-2.24a1.35 1.35 0 0 1 1.22 0l3.92 2.26c.31.18.27.5-.09.71l-3.88 2.24a1.37 1.37 0 0 1-1.23 0zm6.05 3.49l-3.92-2.26c-.31-.18-.27-.5.09-.71l3.88-2.24a1.37 1.37 0 0 1 1.23-.05l3.92 2.26c.31.19.27.5-.09.71l-3.88 2.24a1.34 1.34 0 0 1-1.23.05zm10.72 6.21l-8.54-4.93c-.32-.18-.28-.5.09-.71l3.88-2.24a1.35 1.35 0 0 1 1.22-.05l8.55 4.93c.31.18.28.5-.09.71l-3.88 2.24a1.37 1.37 0 0 1-1.23.05zm11.81-6.82l-7.21-4.16c-.32-.18-.28-.5.09-.71l3.88-2.24a1.35 1.35 0 0 1 1.22 0L150 242c.31.19.27.5-.09.71L146 245a1.34 1.34 0 0 1-1.19 0zm-60.32-28l-3.92-2.26c-.32-.18-.28-.5.09-.71l3.88-2.24a1.35 1.35 0 0 1 1.22-.05l3.92 2.26c.32.19.28.5-.09.71l-3.88 2.24a1.32 1.32 0 0 1-1.22.05zm-6.2-3.58l-3.92-2.27c-.31-.18-.28-.49.09-.7l3.88-2.25a1.41 1.41 0 0 1 1.23 0l3.91 2.27c.32.18.28.49-.09.7l-3.88 2.24a1.36 1.36 0 0 1-1.22.01zm-6.2-3.58l-3.92-2.27c-.31-.18-.27-.49.09-.7l3.88-2.24a1.34 1.34 0 0 1 1.23 0l3.91 2.26c.32.18.28.5-.08.7l-3.89 2.25a1.35 1.35 0 0 1-1.22 0zm-6.2-3.58L62 204c-.31-.19-.27-.5.09-.71l3.88-2.24a1.34 1.34 0 0 1 1.23-.05l3.91 2.26c.32.18.28.5-.08.71l-3.88 2.24a1.37 1.37 0 0 1-1.26.05zm24.64 14.23l-3.91-2.26c-.32-.19-.28-.5.09-.71l3.88-2.24a1.32 1.32 0 0 1 1.22-.05l3.92 2.26c.31.18.27.5-.09.7l-3.88 2.25a1.37 1.37 0 0 1-1.23.05zm6.05 3.51l-3.91-2.26c-.32-.18-.28-.5.08-.71l3.88-2.24a1.37 1.37 0 0 1 1.23-.05l3.92 2.26c.31.18.27.5-.09.71l-3.88 2.24a1.37 1.37 0 0 1-1.23.05zm6.05 3.47l-3.92-2.26c-.31-.18-.27-.5.09-.71l3.88-2.24a1.37 1.37 0 0 1 1.23 0l3.92 2.26c.31.18.27.5-.09.71l-3.88 2.24a1.37 1.37 0 0 1-1.23 0z"/><use xlink:href="#a" x="37.68" y="8.18"/><path d="M114.73 234.45l-3.92-2.26c-.31-.18-.27-.5.09-.7l3.88-2.25a1.37 1.37 0 0 1 1.23-.05l3.91 2.27c.32.18.28.49-.08.7L116 234.4a1.34 1.34 0 0 1-1.27.05zm6.05 3.55l-3.92-2.26c-.31-.19-.28-.5.09-.71l3.88-2.24a1.34 1.34 0 0 1 1.23-.05L126 235c.32.18.28.5-.09.71L122 237.9a1.35 1.35 0 0 1-1.22.1zm6.05 3.44l-3.92-2.26c-.32-.18-.28-.5.09-.71l3.88-2.24a1.35 1.35 0 0 1 1.22 0l3.92 2.26c.32.18.28.5-.09.71l-3.88 2.24a1.35 1.35 0 0 1-1.22 0zm6.04 3.49l-3.87-2.26c-.32-.18-.28-.5.09-.71l3.88-2.24a1.35 1.35 0 0 1 1.22-.05l3.92 2.26c.31.18.27.5-.09.71l-3.88 2.24a1.37 1.37 0 0 1-1.27.05zm6.05 3.49l-3.92-2.26c-.32-.18-.28-.5.08-.71l3.88-2.24a1.37 1.37 0 0 1 1.23-.05l3.92 2.26c.31.19.27.5-.09.71l-3.88 2.24a1.37 1.37 0 0 1-1.22.05zM81.3 208.36l-3.92-2.26c-.31-.19-.27-.5.09-.71l3.88-2.24a1.34 1.34 0 0 1 1.23-.05l3.92 2.26c.31.18.27.5-.09.71l-3.88 2.24a1.37 1.37 0 0 1-1.23.05z"/><use xlink:href="#c"/><path d="M69.26 201.41l-3.91-2.26c-.32-.19-.28-.5.09-.71l3.88-2.24a1.32 1.32 0 0 1 1.22 0l3.92 2.26c.31.18.27.5-.09.71l-3.88 2.24a1.37 1.37 0 0 1-1.23 0z"/><use xlink:href="#b" x="1.54" y="-12.71"/><path d="M69.43 194.36l-3.91-2.26c-.32-.18-.28-.5.09-.71l1.28-.74a1.37 1.37 0 0 1 1.23-.05l3.88 2.26c.32.18.28.5-.09.71l-1.28.74a1.37 1.37 0 0 1-1.2.05zm7.86 4.53l-3.92-2.26c-.31-.18-.27-.5.09-.71l1.28-.74a1.37 1.37 0 0 1 1.23-.05l3.92 2.26c.31.19.27.5-.09.71l-1.29.74a1.32 1.32 0 0 1-1.22.05zm5.99 3.46l-3.92-2.26c-.31-.18-.27-.5.09-.71l1.29-.74a1.35 1.35 0 0 1 1.22 0l3.92 2.26c.31.19.27.5-.09.71l-1.28.74a1.34 1.34 0 0 1-1.23 0zm5.99 3.46l-3.91-2.26c-.32-.18-.28-.5.09-.71l1.28-.74a1.37 1.37 0 0 1 1.23 0l3.91 2.26c.32.19.28.5-.09.71l-1.28.74a1.34 1.34 0 0 1-1.23 0zm6 3.46L91.35 207c-.31-.18-.27-.5.09-.7l1.28-.75a1.37 1.37 0 0 1 1.23-.05l3.92 2.26c.31.19.27.5-.09.71l-1.28.74a1.34 1.34 0 0 1-1.23.06zm33.46 19.32l-3.92-2.26c-.31-.18-.27-.5.09-.71l1.28-.74a1.37 1.37 0 0 1 1.23 0l3.92 2.26c.31.18.27.5-.09.71l-1.28.74a1.37 1.37 0 0 1-1.23 0zm5.99 3.46l-3.92-2.26c-.31-.18-.27-.5.09-.71l1.29-.74a1.35 1.35 0 0 1 1.22-.05l3.92 2.26c.31.18.27.5-.09.71L136 232a1.37 1.37 0 0 1-1.28.05zm5.99 3.46l-3.91-2.26c-.32-.18-.28-.5.09-.71l1.28-.74a1.37 1.37 0 0 1 1.23-.05l3.91 2.26c.32.19.28.5-.09.71l-1.28.74a1.37 1.37 0 0 1-1.23.05zm6 3.49l-3.92-2.26c-.31-.18-.27-.5.09-.71l1.28-.74a1.37 1.37 0 0 1 1.23 0l3.92 2.26c.31.19.27.5-.09.71l-1.28.74a1.34 1.34 0 0 1-1.23 0zm-59.36-27.15l-3.92-2.26c-.31-.18-.27-.5.09-.71l3.88-2.24a1.37 1.37 0 0 1 1.23 0l3.91 2.26c.32.18.28.5-.08.71l-3.88 2.24a1.37 1.37 0 0 1-1.23 0zm6.05 3.49l-3.92-2.26c-.31-.18-.27-.5.09-.71l3.88-2.24a1.37 1.37 0 0 1 1.23 0l3.91 2.26c.32.18.28.5-.08.71l-3.89 2.24a1.35 1.35 0 0 1-1.22 0zm6.05 3.49l-3.92-2.26c-.32-.18-.28-.5.09-.71l3.88-2.24a1.37 1.37 0 0 1 1.23-.05l3.91 2.26c.32.18.28.5-.09.71l-3.88 2.24a1.35 1.35 0 0 1-1.22.05zm6.04 3.5l-3.91-2.27c-.32-.18-.28-.49.09-.7l3.88-2.25a1.38 1.38 0 0 1 1.22-.05l3.92 2.27c.31.18.28.49-.09.7l-3.88 2.24a1.38 1.38 0 0 1-1.23.06zm6.05 3.49l-3.91-2.26c-.32-.19-.28-.5.08-.71l3.89-2.24a1.32 1.32 0 0 1 1.22-.05l3.92 2.26c.31.18.27.5-.09.71l-3.88 2.24a1.37 1.37 0 0 1-1.23.05z"/><use xlink:href="#c" x="42.31" y="24.43"/><use xlink:href="#a" x="52.64" y="9.98"/><path d="M129.69 236.29l-3.92-2.29c-.31-.18-.27-.5.09-.71l3.88-2.24A1.37 1.37 0 0 1 131 231l3.91 2.26c.32.19.28.5-.08.71l-3.88 2.24a1.34 1.34 0 0 1-1.26.08zm6.05 3.5l-3.92-2.27c-.31-.18-.27-.49.09-.7l3.88-2.24a1.38 1.38 0 0 1 1.23-.06l3.91 2.27c.32.18.28.49-.09.7l-3.84 2.24a1.36 1.36 0 0 1-1.26.06zm-82.97-27.51l-11.54-6.66c-.31-.18-.27-.5.09-.71l3.88-2.24a1.37 1.37 0 0 1 1.23 0L58 209.28c.32.18.28.5-.08.71L54 212.23a1.37 1.37 0 0 1-1.23.05zm74.31 42.9l-11.54-6.66c-.31-.18-.27-.5.09-.71l3.88-2.24a1.37 1.37 0 0 1 1.23 0l11.53 6.66c.32.18.28.5-.09.71l-3.88 2.24a1.35 1.35 0 0 1-1.22 0zm-24.19-6.25L99 246.67c-.31-.18-.27-.5.09-.71l4.62-2.67a1.37 1.37 0 0 1 1.23 0l3.92 2.26c.31.18.27.5-.09.71l-4.63 2.67a1.35 1.35 0 0 1-1.25 0zM59 223.57L52.7 220c-.32-.18-.28-.5.09-.7l4.62-2.67a1.34 1.34 0 0 1 1.23-.05l6.26 3.61c.32.18.28.5-.09.71l-4.62 2.67a1.37 1.37 0 0 1-1.19 0zm38.06 21.99L90.8 242c-.32-.18-.28-.5.08-.71l4.63-2.67a1.35 1.35 0 0 1 1.22 0l6.27 3.62c.31.18.27.5-.09.71l-4.62 2.66a1.34 1.34 0 0 1-1.23-.05zm-29.37-16.95L61.43 225c-.32-.18-.28-.5.08-.71l4.63-2.67a1.35 1.35 0 0 1 1.22-.05l6.27 3.62c.31.18.27.5-.09.71l-4.62 2.67a1.37 1.37 0 0 1-1.23.04z"/><path d="M67.41 221.59l27.23 15.72a.37.37 0 0 1 0 .71l-4.71 2.72a1.4 1.4 0 0 1-1.23 0L61.47 225zm52.38 33.67l4.36 2.52c.26.15.23.41-.07.58l-1.89 1.09a1.11 1.11 0 0 1-1 0l-4.37-2.45c-.25-.15-.22-.41.08-.59l1.89-1.09a1.11 1.11 0 0 1 1-.06zm-6.1-3.52l4.37 2.52c.25.15.22.41-.08.58l-1.89 1.09a1.11 1.11 0 0 1-1 0l-4.37-2.52c-.25-.14-.22-.4.08-.58l1.89-1.09a1.11 1.11 0 0 1 1 0zm-6.05-3.49l4.37 2.52c.26.15.22.41-.07.58l-1.9 1.09a1.11 1.11 0 0 1-1 0l-4.36-2.44c-.26-.15-.23-.41.07-.58l1.89-1.09a1.11 1.11 0 0 1 1-.08zm9.36 1.56l4.37 2.52c.25.15.22.41-.08.58l-1.86 1.09a1.11 1.11 0 0 1-1 0l-4.37-2.51c-.25-.15-.22-.41.08-.58l1.89-1.1a1.11 1.11 0 0 1 .97 0z"/></g><path d="M140.93 181.67l-32.58-18.81.42-2.12 32.57 18.81-.41 2.12zm-11.67 3.58l-22.75-13.13.42-2.12 22.75 13.13-.42 2.12z" class="P"/><path d="M127.11 178.85l-19.68-11.36.42-2.12 19.67 11.36-.41 2.12z" class="T"/><path d="M140.01 186.3l-9.84-5.68.42-2.12 9.84 5.68-.42 2.12zm-17.08-25.63a1.23 1.23 0 0 1-1.77.55 1.53 1.53 0 0 1-.63-1.93 1.23 1.23 0 0 1 1.77-.55 1.54 1.54 0 0 1 .63 1.93z" class="M"/><path d="M127.17 163.12a1.23 1.23 0 0 1-1.77.54 1.53 1.53 0 0 1-.64-1.93 1.23 1.23 0 0 1 1.77-.54 1.54 1.54 0 0 1 .64 1.93z" class="P"/><path d="M131.4 165.57a1.23 1.23 0 0 1-1.77.54 1.54 1.54 0 0 1-.63-1.93 1.24 1.24 0 0 1 1.77-.55 1.55 1.55 0 0 1 .63 1.94z" class="M"/><path d="M135.64 168a1.23 1.23 0 0 1-1.77.55 1.55 1.55 0 0 1-.63-1.93 1.23 1.23 0 0 1 1.77-.55 1.54 1.54 0 0 1 .63 1.93z" class="T"/><g class="M"><path d="M140.87,81.75l-1.67-1V78.37a9,9,0,0,0-4.06-7l-12.69-7.29c-2.24-1.29-4.06-.24-4.06,2.35v2.4l-1.67-1V65.44c0-3.65,2.57-5.13,5.73-3.31l12.69,7.28a12.7,12.7,0,0,1,5.73,9.93Z"/><path d="M135.15 85l5.72-3.29-1.15-4-1.61-4-3-3.14c-.25-.06-7.71-4.32-7.71-4.32l-6.24-4.5-3 .1-5.47 3.15 4 1.65 2.77 1.25a20.74 20.74 0 0 1 2.78 2.27l2.72 1.1.58-.09 4.87 3.41 1.57.7.84 1.36 1.3 3.63z"/></g><path d="M118.39 68.81l-5.72 3.3-.37-3.73c0-.04 1.25-1.8 1.25-1.8l3.11-.6 2.46 1.86-.78-.32-.33.2.38.6z" class="Q"/><path d="M135.15,85l-1.67-1v-2.4a9,9,0,0,0-4.06-7l-12.69-7.28c-2.24-1.29-4.06-.24-4.06,2.34v2.41l-1.67-1V68.73c0-3.64,2.57-5.13,5.73-3.3l12.69,7.28a12.66,12.66,0,0,1,5.73,9.92Z" class="O"/><g class="M"><path d="M198.33 81.72l-1.24-.72-1.58 1 2.82 1.62a9 9 0 0 1 4 7v2.41l1.68 1v-2.38a12.7 12.7 0 0 0-5.68-9.93z"/><path d="M201.3 86l-3-3.13c-.24-.06-1-.55-2.22-1.23l-5.48 3.22 2.93 2.06 1.57.69.9 1.39 1.3 3.63 1.05 4.74 5.73-3.29-1.16-4z"/></g><path d="M192.6 87a9 9 0 0 1 4.06 7v2.41l1.67 1V95a12.68 12.68 0 0 0-5.73-10l-1.09-.63-1.74.94z" class="O"/><path d="M302.19 41.66l-19.14-11a1 1 0 0 0-1-.08h0l-1.85 1.07 1.3.48V46a3.69 3.69 0 0 0 1.55 3l18.29 10.56v1.63l1.88-1.08h0a1.38 1.38 0 0 0 .52-1.23V44.6a3.69 3.69 0 0 0-1.55-2.94z" fill="#d3008d"/><path d="M300.3 61.09L281.16 50a3.69 3.69 0 0 1-1.54-2.94V32.87c0-1.14.69-1.66 1.54-1.17l19.14 11.05a3.69 3.69 0 0 1 1.54 2.94v14.23c0 1.14-.69 1.66-1.54 1.17z" class="T"/><path d="M300.77 42.53l-19.14-11a.92.92 0 0 0-1.16.05 1.17 1.17 0 0 1 .69.17l19.14 11a3.69 3.69 0 0 1 1.54 2.94v14.23a1.54 1.54 0 0 1-.38 1.12c.5 0 .85-.54.85-1.34V45.47a3.69 3.69 0 0 0-1.54-2.94zm-13.17 2.6c0 .83-.58 1.16-1.29.75a2.84 2.84 0 0 1-1.3-2.24c0-.82.58-1.15 1.3-.74a2.85 2.85 0 0 1 1.29 2.23zm3.91 2.26c0 .83-.58 1.16-1.29.75a2.83 2.83 0 0 1-1.29-2.24c0-.82.57-1.16 1.29-.74a2.85 2.85 0 0 1 1.29 2.23zm3.91 2.26c0 .83-.58 1.16-1.29.75a2.87 2.87 0 0 1-1.29-2.24c0-.82.58-1.16 1.29-.74a2.85 2.85 0 0 1 1.29 2.23z" class="P"/><path d="M291.3 23.77l-19.14-11a1 1 0 0 0-1-.08h0l-1.85 1.07 1.3.48v13.87a3.69 3.69 0 0 0 1.54 2.95l18.29 10.56v1.63l1.88-1.08h0a1.38 1.38 0 0 0 .52-1.23V26.71a3.69 3.69 0 0 0-1.54-2.94z" class="O"/><path d="M289.41 43.2l-19.14-11.05a3.69 3.69 0 0 1-1.54-2.95V15c0-1.13.69-1.65 1.54-1.16l19.14 11A3.69 3.69 0 0 1 291 27.8V42c0 1.17-.74 1.69-1.59 1.2z" class="M"/><path d="M289.88 24.64l-19.14-11a.92.92 0 0 0-1.16.05 1.17 1.17 0 0 1 .69.17l19.14 11A3.69 3.69 0 0 1 291 27.8V42a1.55 1.55 0 0 1-.38 1.12c.5 0 .85-.54.85-1.34v-14.2a3.69 3.69 0 0 0-1.59-2.94zm-13.17 2.6c0 .83-.58 1.16-1.3.75a2.85 2.85 0 0 1-1.29-2.24c0-.82.58-1.16 1.29-.74a2.84 2.84 0 0 1 1.3 2.23zm3.91 2.26c0 .82-.58 1.16-1.29.75A2.87 2.87 0 0 1 278 28c0-.82.58-1.16 1.3-.75a2.89 2.89 0 0 1 1.32 2.25zm3.91 2.26c0 .82-.58 1.16-1.29.75a2.86 2.86 0 0 1-1.24-2.24c0-.82.57-1.16 1.29-.75a2.87 2.87 0 0 1 1.24 2.24z" class="P"/><g class="O"><path d="M336.679 146.777l-3.046 3.735-8.059-6.573 3.046-3.735z"/><path d="M334.84 150.6A3.79 3.79 0 0 0 337 148c.17-1.08-.51-1.63-1.53-1.25a3.75 3.75 0 0 0-2.15 2.64c-.18 1.04.5 1.61 1.52 1.21zm-3.879-10.402l-4.936 6.052-8.238-6.718 4.936-6.052z"/></g><path d="M329.94 141.29l2.73 2.23a6.19 6.19 0 0 1-3.05 3.73L326.9 145a6.23 6.23 0 0 1 3.04-3.71z" class="Q"/><path d="M328 146.38a6.12 6.12 0 0 0 3.49-4.28c.28-1.74-.82-2.65-2.47-2a6.1 6.1 0 0 0-3.49 4.28c-.29 1.72.81 2.62 2.47 2zm-8.25-6.72a6.12 6.12 0 0 0 3.49-4.28c.29-1.74-.82-2.65-2.47-2a6.12 6.12 0 0 0-3.49 4.28c-.28 1.72.83 2.62 2.47 2z" class="O"/><g class="M"><ellipse cx="320.26" cy="136.51" rx="2.21" ry="1.28" transform="matrix(.632029 -.774944 .774944 .632029 12.07 298.43)"/><path d="M334.86 147.54c.4.32.79.18.87-.33a1.75 1.75 0 0 0-.57-1.49c-.4-.33-.78-.18-.86.32a1.78 1.78 0 0 0 .56 1.5z"/></g><path d="M259.21 221.06a7.25 7.25 0 0 1-3.76-1.08l-9.17-5.43a.58.58 0 0 1 .59-1l9.18 5.43a5.87 5.87 0 0 0 6.06.14 6.82 6.82 0 0 0 3.36-6c0-6-.65-13.45-1.35-21.33-2.18-24.6-4.66-52.48 10.86-56.45 6.86-1.76 12.1-3.62 16.31-5.11 12.13-4.3 16.66-5.91 29.19 5.74a.58.58 0 0 1-.79.85c-12-11.16-16-9.74-28-5.49-4.23 1.5-9.5 3.37-16.41 5.14-14.56 3.73-12.13 31.08-10 55.21.7 7.91 1.36 15.38 1.35 21.44a8 8 0 0 1-4 7 6.94 6.94 0 0 1-3.42.94z" class="O"/><ellipse cx="298.56" cy="219.59" rx="18.95" ry="10.94" class="S"/><g class="N"><path d="M307.6 214.9a2.91 2.91 0 0 1 1.65 2.92 4.67 4.67 0 0 1-.24 1.43 2.39 2.39 0 0 1-3.23 1c-1.77-.7-5.72-4.41-5.87-6.83-.27-4.52 4.88.28 7.69 1.48zm-10.44 7.46a12.84 12.84 0 0 1 .22 3.07 3.33 3.33 0 0 1-3.27 1.27c-1.82-.22-7.08-2-8.25-5.49-1.82-5.37 10.14.4 10.14.4z"/><path d="M292,180.8l-.41,40.58a2.84,2.84,0,0,0,2.21,2.81,3.61,3.61,0,0,0,.5.06,2.55,2.55,0,0,0,2.41-1,3.08,3.08,0,0,0,.54-1.64l.52-17.32,2.58-15.49L304,216.22a2.39,2.39,0,0,0,1,1.81,2.78,2.78,0,0,0,1.64.44,3,3,0,0,0,2.16-1.07,2.14,2.14,0,0,0,.52-1.47l-1.42-16.49-.52-21Z"/></g><g class="V"><path d="M297.28,144.48l.64,3.7a1.68,1.68,0,0,1-1.38,1.61c-1.41.35-1.84-.56-1.84-.56l-.64-4.17Z"/><ellipse cx="293.53" cy="140.78" rx="5.36" ry="6.01" transform="matrix(.714717 -.699414 .699414 .714717 -14.72 245.48)"/></g><path d="M297.11 148.24c.1 0 6-3.82 8.15.14 3.55 6.46 3.34 27.25 2.22 29.94-1 2.5-3.62 4.33-5.43 5.37a10.93 10.93 0 0 1-5.28 1.5c-1.83 0-5.36-1.62-5.23-4 .59-11-.39-20.36-1.29-29.39 0-.02 1.13-1.24 6.86-3.56z" class="O"/><path d="M300.38 188.81l3.62 27.41a2.39 2.39 0 0 0 1 1.81l.31.17c-.74-.56-2.91-23.57-3.31-26.13s-1.62-3.26-1.62-3.26z" class="N"/><path d="M278.32 149.46l-3.2-10.46 1.69-.7 3.76 8.2-2.25 2.96zm32.2-8.24l-2.4-10.9-1.9.02.71 9.04 3.59 1.84z" class="V"/><path d="M290.25 151.78s-5.74 1.14-9.39-5.54a.9.9 0 0 0-1.51-.16 4.67 4.67 0 0 0-1 3.73c1.78 6.54 11.43 8 13.16 11.77s-1.26-9.8-1.26-9.8zm10.59-4.89s4.55.34 5.2-3.59a30.07 30.07 0 0 0 .46-3.93.79.79 0 0 1 .89-.77c1.09.13 2.78.46 3 1.19.35 1.08 1 6.43-3.5 14.62-2.89 5.38-6.05-7.52-6.05-7.52z" class="O"/><path d="M308.13 130.35v-1.24a2.56 2.56 0 0 0-.37-1.24l-1.26-2.07-.33-.41a1 1 0 0 0-1.26-.22l-.29.18a1.18 1.18 0 0 0-.55 1.09l.65 1.76-.82-.16a.3.3 0 0 0-.35.24h0a.29.29 0 0 0 .18.32l1.35.54 1.22 1.73zm-33.06 8.7l-.38-1.18a2.57 2.57 0 0 1-.07-1.29l.48-2.37.17-.5a1 1 0 0 1 1.11-.63l.34.07a1.21 1.21 0 0 1 .89.83v1.88l.72-.43a.31.31 0 0 1 .41.11h0a.29.29 0 0 1-.06.36l-1.08 1-.63 2.29z" class="V"/><path d="M292.94 159.69c.52 2.39-.94 20.91 3.83 25.5-1.83 0-5.36-1.62-5.23-4a145.62 145.62 0 0 0-.44-20.31c-1.87-2.43-7-4-10.25-7.09.23.05 11.57 3.54 12.09 5.9z" class="Q"/><path d="M299.23 147.2l-.82-.84A6.65 6.65 0 0 1 296 148a12.43 12.43 0 0 1-1.93.4l-.53 1.45s4.27-.34 5.69-2.65z" class="P"/><path d="M293.21 142.9a.69.69 0 0 1-.64 0c-.34-.18-.91-1.56-1.63-1.46-1.13.16-2.77 2.53-4.81-.78-1.05-1.72-.43-2.65-.95-3.63 0 0 .18.53 4.62-2.18s8.06.6 9.19 2.48 1.85 5.58-1.06 7.66c-.48.35-3.59-.27-3.65-.53s.77-.68.3-1.29a1 1 0 0 0-1.37-.27z" class="T"/><path d="M28.22 288.61l-9.43-5.45 9.43-5.45 9.44 5.45-9.44 5.45z" class="S"/><path d="M37.66 276.98l-9.44 5.45v-10.9l9.44-5.45v10.9z" fill="#d3008d"/><g class="T"><path d="M28.22 271.53l-9.43-5.45 9.43-5.44 9.44 5.44-9.44 5.45z"/><path d="M28.22 282.43l-9.43-5.45v-10.9l9.43 5.45v10.9z"/></g><path d="M28.22 113.16l-9.43-5.45 9.43-5.45 9.44 5.45-9.44 5.45z" class="S"/><path d="M37.66 101.53l-9.44 5.45v-10.9l9.44-5.44v10.89z" class="N"/><path d="M28.22 96.08l-9.43-5.44 9.43-5.45 9.44 5.45-9.44 5.44z" class="M"/><path d="M28.22 106.98l-9.43-5.45V90.64l9.43 5.44v10.9z" class="O"/><path d="M179.87 296.41l-9.44-5.45 9.44-5.44 9.43 5.44-9.43 5.45z" class="S"/><path d="M189.3 284.78l-9.43 5.45v-10.89l9.43-5.45v10.89z" class="N"/><path d="M179.87 279.34l-9.44-5.45 9.44-5.45 9.43 5.45-9.43 5.45z" class="M"/><path d="M179.87 290.23l-9.44-5.45v-10.89l9.44 5.45v10.89z" class="O"/><defs ><path id="B" d="M102.67 64.82l-1.72-1c-.1-.06-.09-.17 0-.24l1.66-1a.43.43 0 0 1 .41 0l1.71 1c.11.06.1.16 0 .23l-1.65 1a.46.46 0 0 1-.41.01z"/><path id="C" d="M111.54 100.77l16.83-9.64a4.08 4.08 0 0 0 1.72-3.27v-6c0-1.27-.77-1.85-1.72-1.3l-16.83 9.64a4.1 4.1 0 0 0-1.72 3.28v6c0 1.26.77 1.84 1.72 1.29z"/><path id="D" d="M121.77 134.75l1.54-.89a.88.88 0 0 0 .37-.71v-1.65c0-.28-.16-.4-.37-.28l-1.54.89a.89.89 0 0 0-.38.71v1.65c0 .28.17.4.38.28z"/><path id="E" d="M71.52 74.12c0 .57-.4.8-.9.52a2 2 0 0 1-.89-1.55c0-.57.4-.8.89-.52a2 2 0 0 1 .9 1.55z"/><path id="F" d="M74.68 76c0 .57-.4.8-.9.51a2 2 0 0 1-.89-1.55c0-.57.4-.8.89-.52a2 2 0 0 1 .9 1.56z"/><path id="G" d="M77.84 77.77c0 .57-.4.8-.9.52a2 2 0 0 1-.89-1.55c0-.58.4-.81.89-.52a2 2 0 0 1 .9 1.55z"/><path id="H" d="M81 79.59c0 .57-.4.81-.9.52a2 2 0 0 1-.89-1.55c0-.57.4-.8.89-.52a2 2 0 0 1 .9 1.55z"/><path id="I" d="M71.52 87.18c0 .57-.4.8-.9.52a2 2 0 0 1-.89-1.55c0-.57.4-.81.89-.52a2 2 0 0 1 .9 1.55z"/><path id="J" d="M77.84 90.83c0 .57-.4.8-.9.52a2 2 0 0 1-.89-1.56c0-.57.4-.8.89-.51a2 2 0 0 1 .9 1.55z"/><path id="K" d="M77.84 103.89c0 .57-.4.8-.9.51a2 2 0 0 1-.89-1.55c0-.57.4-.8.89-.51a2 2 0 0 1 .9 1.55z"/><path id="L" d="M95.84 157.31l-36.6-21.14a1.87 1.87 0 0 1-.8-1.52v-5.57c0-.59.35-.86.8-.6l36.6 21.13a1.93 1.93 0 0 1 .8 1.53v5.57c0 .58-.36.85-.8.6z"/><path id="M" d="M79.06 157c0 .57-.4.81-.89.52a2 2 0 0 1-.9-1.55c0-.57.4-.8.9-.52a2 2 0 0 1 .89 1.55z"/><path id="N" d="M165.16 100.71l-1.72-1c-.1-.06-.09-.17 0-.24l1.66-1a.46.46 0 0 1 .41 0l1.72 1c.1.06.09.17 0 .24l-1.66 1a.46.46 0 0 1-.41 0z"/><path id="O" d="M179.09 130.13l1.55-.89a.89.89 0 0 0 .37-.72v-1.65c0-.27-.16-.4-.37-.28l-1.55.89a.92.92 0 0 0-.37.72v1.65c0 .27.17.4.37.28z"/><path id="P" d="M184.26 170.65l1.54-.89a.9.9 0 0 0 .38-.72v-1.65c0-.27-.17-.4-.38-.28l-1.54.89a.9.9 0 0 0-.38.72v1.65c0 .27.17.4.38.28z"/><path id="Q" d="M137.17 111.84c0 .57-.4.8-.89.52a2 2 0 0 1-.9-1.55c0-.57.4-.81.9-.52a2 2 0 0 1 .89 1.55z"/><path id="R" d="M140.33 113.66c0 .58-.4.81-.89.52a2 2 0 0 1-.9-1.55c0-.57.4-.8.9-.52a2 2 0 0 1 .89 1.55z"/><path id="S" d="M134 123.08c0 .57-.4.8-.89.51a2 2 0 0 1-.9-1.55c0-.57.4-.8.9-.51a2 2 0 0 1 .89 1.55z"/><path id="T" d="M137.17 138c0 .57-.4.8-.89.52a2 2 0 0 1-.9-1.55c0-.58.4-.81.9-.52a2 2 0 0 1 .89 1.55z"/><path id="U" d="M137.17 151c0 .57-.4.8-.89.52a2 2 0 0 1-.9-1.56c0-.57.4-.8.9-.51a2 2 0 0 1 .89 1.55z"/><path id="V" d="M140.33 165.9c0 .57-.4.8-.89.52a2 2 0 0 1-.9-1.55c0-.57.4-.8.9-.52a2 2 0 0 1 .89 1.55z"/><path id="W" d="M246.75 139.43l1.55-.89a.92.92 0 0 0 .37-.72v-1.65c0-.27-.17-.4-.37-.28l-1.55.89a.89.89 0 0 0-.37.72v1.65c0 .27.16.4.37.28z"/><path id="X" d="M196.51 148.42c0 .57-.41.8-.9.51a2 2 0 0 1-.9-1.55c0-.57.41-.8.9-.51a2 2 0 0 1 .9 1.55z"/><path id="Y" d="M220.83 205.49l-36.61-21.14a1.91 1.91 0 0 1-.8-1.52v-5.57c0-.59.36-.86.8-.61l36.61 21.14a1.91 1.91 0 0 1 .8 1.53v5.56c0 .59-.36.86-.8.61z"/><path id="Z" d="M156 233.79l-81.41-47c-2.24-1.29-3.54-4.72-2.89-7.66l12.9-58.73c.65-2.94 3-4.28 5.23-3l81.41 47c2.24 1.29 3.54 4.72 2.89 7.66l-12.9 58.73c-.67 2.96-3.01 4.3-5.23 3z"/><path id="a" d="M71 222.82l-3.92-2.26c-.31-.18-.27-.5.09-.71l3.88-2.24a1.37 1.37 0 0 1 1.23-.05l3.92 2.26c.31.18.27.5-.09.71l-3.88 2.24a1.37 1.37 0 0 1-1.23.05z"/><path id="b" d="M61.71 210.64l-3.92-2.26c-.32-.18-.28-.5.09-.71l3.88-2.24a1.35 1.35 0 0 1 1.22-.05l3.92 2.26c.32.18.28.5-.09.71l-3.88 2.24a1.35 1.35 0 0 1-1.22.05z"/><path id="c" d="M75.28 204.88l-3.91-2.26c-.32-.18-.28-.5.08-.71l3.88-2.24a1.37 1.37 0 0 1 1.23 0l3.92 2.26c.31.18.27.5-.09.71l-3.88 2.24a1.37 1.37 0 0 1-1.23 0z"/></defs></svg>