<svg xmlns="http://www.w3.org/2000/svg" xmlns:xlink="http://www.w3.org/1999/xlink" viewBox="0 0 2906.76 2691.06" xmlns:v="https://vecta.io/nano"><style><![CDATA[.D{isolation:isolate}.O,.CD,.CI,.Cf,.G{mix-blend-mode:soft-light}.CK,.CV,.Cb{mix-blend-mode:multiply}.Cg{fill:#fff}.Ch{opacity:.3}.Ci{fill:#d8dee8}.Cj{opacity:.69}]]></style><defs><linearGradient id="A" x1="875.39" y1="1198.27" x2="215.36" y2="1740.44" xlink:href="#CT"><stop offset="0" stop-color="#ff9085"/><stop offset="1" stop-color="#fb6fbb"/></linearGradient><linearGradient id="B" x1="355" y1="886.77" x2="1113.68" y2="886.77" xlink:href="#CT"><stop offset="0" stop-color="#ffc444"/><stop offset="1" stop-color="#f36f56"/></linearGradient><clipPath id="C"><path d="M1065.07 1700.94c35.63-108.57 71.89-274.32 29.44-458.34-48.75-211.3-156.73-253.6-253.68-479.45-138.4-322.43 18.23-556-125-654.52-69.87-48.06-179.74-48.1-247.48.15C275.05 246.43 328 846 634.66 1080c138.68 105.81 259.69 93.26 363.75 230.19 91.96 120.96 84.75 280.59 66.66 390.75z" fill="none"/></clipPath><linearGradient id="D" x1="3581.79" y1="-5823.55" x2="5108.24" y2="-7329.23" gradientTransform="matrix(-0.96, 0.27, 0.27, 0.96, -2737.69, 1101.07)" xlink:href="#CT"><stop offset="0" stop-color="#e38ddd"/><stop offset="1" stop-color="#9571f6"/></linearGradient><clipPath id="E"><path d="M1127.08,1570c11.31-68.35,17.8-175.1-37.84-270.57-97.06-166.55-274-111.3-443.34-289.74C509.31,865.77,552.36,753.91,401,658.27c-25.33-16-159.19-104.11-258.73-51C86.18,637.13,65.86,698.51,62.05,710,4.38,884.2,181.78,1156.88,413,1281.59c132.85,71.66,175.71,48.24,409.49,131.81A1315.78,1315.78,0,0,1,1127.08,1570Z" fill="none"/></clipPath><clipPath id="F"><path d="M1129.47 1511.93a738.22 738.22 0 0 0-183.93-96.53c-148.86-52.77-217.08-21.64-280.09-84.57-65.23-65.14-23-129.31-101.08-202-6.57-6.12-90.42-82.2-166.28-53.87-53.07 19.82-73.73 80.1-83.43 108.39-37.63 109.78-15.75 277 101.37 359.56 111 78.22 251.61 40.94 296.25 28.79 78.3-21.32 96.85-51.84 176.45-71.14 96.81-23.56 183.82-6.13 240.74 11.37z" fill="url(#A)"/></clipPath><linearGradient id="G" x1="1720.69" y1="75.3" x2="2052.22" y2="261.1" xlink:href="#CT"><stop offset="0" stop-color="#444b8c"/><stop offset="1" stop-color="#26264f"/></linearGradient><linearGradient id="H" x1="1663.89" y1="127.6" x2="1672.15" y2="253.52" xlink:href="#A"/><linearGradient id="I" x1="1693.91" y1="205.86" x2="1695.01" y2="222.71" xlink:href="#A"/><linearGradient id="J" x1="1719.83" y1="155.27" x2="1725.51" y2="241.83" xlink:href="#A"/><linearGradient id="K" x1="1748.41" y1="191" x2="1750.93" y2="229.43" xlink:href="#A"/><linearGradient id="L" x1="1774.38" y1="148.31" x2="1780.63" y2="243.58" xlink:href="#A"/><linearGradient id="M" x1="1802.39" y1="170.38" x2="1806.73" y2="236.58" xlink:href="#A"/><linearGradient id="N" x1="1828.35" y1="133.61" x2="1835.79" y2="247" xlink:href="#A"/><linearGradient id="O" x1="1855.14" y1="124.18" x2="1863.32" y2="248.85" xlink:href="#A"/><linearGradient id="P" x1="1883.86" y1="172.93" x2="1888.01" y2="236.13" xlink:href="#A"/><linearGradient id="Q" x1="1908.77" y1="113.77" x2="1917.68" y2="249.69" xlink:href="#A"/><linearGradient id="R" x1="1936.21" y1="129.57" x2="1943.81" y2="245.44" xlink:href="#A"/><linearGradient id="S" x1="1965.51" y1="198.93" x2="1967.64" y2="231.34" xlink:href="#A"/><linearGradient id="T" x1="1991.02" y1="164.45" x2="1995.84" y2="237.98" xlink:href="#A"/><linearGradient id="U" x1="2016.7" y1="137.34" x2="2023.59" y2="242.32" xlink:href="#A"/><linearGradient id="V" x1="2044.19" y1="161.35" x2="2049.23" y2="238.31" xlink:href="#A"/><linearGradient id="W" x1="2069.35" y1="124.86" x2="2077.1" y2="243.04" xlink:href="#A"/><linearGradient id="X" x1="2095.34" y1="112.86" x2="2103.92" y2="243.82" xlink:href="#A"/><linearGradient id="Y" x1="1721.54" y1="290.11" x2="2051.31" y2="474.92" xlink:href="#G"/><linearGradient id="Z" x1="1663.9" y1="344.39" x2="1672.14" y2="470.08" xlink:href="#A"/><linearGradient id="a" x1="1693.91" y1="422.35" x2="1695" y2="438.97" xlink:href="#A"/><linearGradient id="b" x1="1719.84" y1="371.45" x2="1725.5" y2="457.79" xlink:href="#A"/><linearGradient id="c" x1="1748.42" y1="406.88" x2="1750.92" y2="445.09" xlink:href="#A"/><linearGradient id="d" x1="1774.39" y1="363.9" x2="1780.62" y2="458.94" xlink:href="#A"/><linearGradient id="e" x1="1802.39" y1="385.67" x2="1806.72" y2="451.64" xlink:href="#A"/><linearGradient id="f" x1="1828.36" y1="348.6" x2="1835.78" y2="461.75" xlink:href="#A"/><linearGradient id="g" x1="1855.15" y1="338.86" x2="1863.31" y2="463.32" xlink:href="#A"/><linearGradient id="h" x1="1883.87" y1="387.31" x2="1888" y2="450.29" xlink:href="#A"/><linearGradient id="i" x1="1908.77" y1="327.86" x2="1917.67" y2="463.56" xlink:href="#A"/><linearGradient id="j" x1="1936.21" y1="343.36" x2="1943.8" y2="459.02" xlink:href="#A"/><linearGradient id="k" x1="1965.52" y1="412.43" x2="1967.63" y2="444.62" xlink:href="#A"/><linearGradient id="l" x1="1991.03" y1="377.66" x2="1995.84" y2="450.96" xlink:href="#A"/><linearGradient id="m" x1="2016.71" y1="350.25" x2="2023.58" y2="455.02" xlink:href="#A"/><linearGradient id="n" x1="2044.19" y1="373.97" x2="2049.23" y2="450.71" xlink:href="#A"/><linearGradient id="o" x1="2069.36" y1="337.19" x2="2077.09" y2="455.15" xlink:href="#A"/><linearGradient id="p" x1="2095.34" y1="324.9" x2="2103.92" y2="455.64" xlink:href="#A"/><linearGradient id="q" x1="1722.39" y1="504.92" x2="2050.41" y2="688.74" xlink:href="#G"/><linearGradient id="r" x1="1663.9" y1="561.17" x2="1672.13" y2="686.65" xlink:href="#A"/><linearGradient id="s" x1="1693.92" y1="638.83" x2="1694.99" y2="655.23" xlink:href="#A"/><linearGradient id="t" x1="1719.84" y1="587.63" x2="1725.49" y2="673.74" xlink:href="#A"/><linearGradient id="u" x1="1748.42" y1="622.76" x2="1750.91" y2="660.74" xlink:href="#A"/><linearGradient id="v" x1="1774.39" y1="579.48" x2="1780.61" y2="674.3" xlink:href="#A"/><linearGradient id="w" x1="1802.4" y1="600.95" x2="1806.71" y2="666.7" xlink:href="#A"/><linearGradient id="x" x1="1828.36" y1="563.58" x2="1835.77" y2="676.51" xlink:href="#A"/><linearGradient id="y" x1="1855.15" y1="553.55" x2="1863.3" y2="677.78" xlink:href="#A"/><linearGradient id="z" x1="1883.88" y1="601.7" x2="1887.99" y2="664.46" xlink:href="#A"/><linearGradient id="AA" x1="1908.78" y1="541.95" x2="1917.66" y2="677.43" xlink:href="#A"/><linearGradient id="AB" x1="1936.22" y1="557.16" x2="1943.79" y2="672.59" xlink:href="#A"/><linearGradient id="AC" x1="1965.52" y1="625.93" x2="1967.62" y2="657.9" xlink:href="#A"/><linearGradient id="AD" x1="1991.04" y1="590.87" x2="1995.83" y2="663.95" xlink:href="#A"/><linearGradient id="AE" x1="2016.72" y1="563.17" x2="2023.57" y2="667.71" xlink:href="#A"/><linearGradient id="AF" x1="2044.2" y1="586.59" x2="2049.22" y2="663.12" xlink:href="#A"/><linearGradient id="AG" x1="2069.36" y1="549.52" x2="2077.08" y2="667.26" xlink:href="#A"/><linearGradient id="AH" x1="2095.35" y1="536.93" x2="2103.91" y2="667.46" xlink:href="#A"/><linearGradient id="AI" x1="1723.25" y1="719.73" x2="2049.5" y2="902.56" xlink:href="#G"/><linearGradient id="AJ" x1="1663.91" y1="777.96" x2="1672.12" y2="903.21" xlink:href="#A"/><linearGradient id="AK" x1="1693.92" y1="855.32" x2="1694.98" y2="871.49" xlink:href="#A"/><linearGradient id="AL" x1="1719.85" y1="803.82" x2="1725.48" y2="889.7" xlink:href="#A"/><linearGradient id="AM" x1="1748.43" y1="838.64" x2="1750.91" y2="876.4" xlink:href="#A"/><linearGradient id="AN" x1="1774.4" y1="795.06" x2="1780.6" y2="889.65" xlink:href="#A"/><linearGradient id="AO" x1="1802.41" y1="816.23" x2="1806.7" y2="881.75" xlink:href="#A"/><linearGradient id="AP" x1="1828.37" y1="778.56" x2="1835.76" y2="891.27" xlink:href="#A"/><linearGradient id="AQ" x1="1855.16" y1="768.23" x2="1863.29" y2="892.24" xlink:href="#A"/><linearGradient id="AR" x1="1883.88" y1="816.09" x2="1887.98" y2="878.62" xlink:href="#A"/><linearGradient id="AS" x1="1908.79" y1="756.04" x2="1917.66" y2="891.3" xlink:href="#A"/><linearGradient id="AT" x1="1936.23" y1="770.95" x2="1943.78" y2="886.17" xlink:href="#A"/><linearGradient id="AU" x1="1965.53" y1="839.43" x2="1967.61" y2="871.18" xlink:href="#A"/><linearGradient id="AV" x1="1991.04" y1="804.07" x2="1995.82" y2="876.94" xlink:href="#A"/><linearGradient id="AW" x1="2016.73" y1="776.08" x2="2023.57" y2="880.4" xlink:href="#A"/><linearGradient id="AX" x1="2044.21" y1="799.21" x2="2049.21" y2="875.52" xlink:href="#A"/><linearGradient id="AY" x1="2069.37" y1="761.85" x2="2077.08" y2="879.37" xlink:href="#A"/><linearGradient id="AZ" x1="2095.36" y1="748.97" x2="2103.9" y2="879.28" xlink:href="#A"/><linearGradient id="Aa" x1="1724.1" y1="934.54" x2="2048.59" y2="1116.38" xlink:href="#G"/><linearGradient id="Ab" x1="1663.91" y1="994.75" x2="1672.11" y2="1119.77" xlink:href="#A"/><linearGradient id="Ac" x1="1693.93" y1="1071.8" x2="1694.97" y2="1087.75" xlink:href="#A"/><linearGradient id="Ad" x1="1719.85" y1="1020" x2="1725.47" y2="1105.66" xlink:href="#A"/><linearGradient id="Ae" x1="1748.44" y1="1054.53" x2="1750.9" y2="1092.06" xlink:href="#A"/><linearGradient id="Af" x1="1774.41" y1="1010.64" x2="1780.59" y2="1105.01" xlink:href="#A"/><linearGradient id="Ag" x1="1802.41" y1="1031.51" x2="1806.69" y2="1096.81" xlink:href="#A"/><linearGradient id="Ah" x1="1828.38" y1="993.54" x2="1835.75" y2="1106.03" xlink:href="#A"/><linearGradient id="Ai" x1="1855.17" y1="982.92" x2="1863.28" y2="1106.7" xlink:href="#A"/><linearGradient id="Aj" x1="1883.89" y1="1030.47" x2="1887.98" y2="1092.79" xlink:href="#A"/><linearGradient id="Ak" x1="1908.79" y1="970.13" x2="1917.65" y2="1105.17" xlink:href="#A"/><linearGradient id="Al" x1="1936.23" y1="984.75" x2="1943.77" y2="1099.74" xlink:href="#A"/><linearGradient id="Am" x1="1965.54" y1="1052.93" x2="1967.61" y2="1084.46" xlink:href="#A"/><linearGradient id="An" x1="1991.05" y1="1017.28" x2="1995.81" y2="1089.92" xlink:href="#A"/><linearGradient id="Ao" x1="2016.73" y1="988.99" x2="2023.56" y2="1093.1" xlink:href="#A"/><linearGradient id="Ap" x1="2044.22" y1="1011.84" x2="2049.21" y2="1087.92" xlink:href="#A"/><linearGradient id="Aq" x1="2069.38" y1="974.18" x2="2077.07" y2="1091.48" xlink:href="#A"/><linearGradient id="Ar" x1="2095.37" y1="961.01" x2="2103.9" y2="1091.1" xlink:href="#A"/><linearGradient id="As" x1="1724.96" y1="1149.35" x2="2047.68" y2="1330.21" xlink:href="#G"/><linearGradient id="At" x1="1663.92" y1="1211.54" x2="1672.1" y2="1336.33" xlink:href="#A"/><linearGradient id="Au" x1="1693.93" y1="1288.29" x2="1694.96" y2="1304.01" xlink:href="#A"/><linearGradient id="Av" x1="1719.86" y1="1236.18" x2="1725.46" y2="1321.62" xlink:href="#A"/><linearGradient id="Aw" x1="1748.44" y1="1270.41" x2="1750.89" y2="1307.71" xlink:href="#A"/><linearGradient id="Ax" x1="1774.41" y1="1226.22" x2="1780.58" y2="1320.37" xlink:href="#A"/><linearGradient id="Ay" x1="1802.42" y1="1246.79" x2="1806.68" y2="1311.87" xlink:href="#A"/><linearGradient id="Az" x1="1828.38" y1="1208.52" x2="1835.74" y2="1320.79" xlink:href="#A"/><linearGradient id="BA" x1="1855.17" y1="1197.6" x2="1863.27" y2="1321.16" xlink:href="#A"/><linearGradient id="BB" x1="1883.9" y1="1244.86" x2="1887.97" y2="1306.96" xlink:href="#A"/><linearGradient id="BC" x1="1908.8" y1="1184.22" x2="1917.64" y2="1319.03" xlink:href="#A"/><linearGradient id="BD" x1="1936.24" y1="1198.54" x2="1943.77" y2="1313.31" xlink:href="#A"/><linearGradient id="BE" x1="1965.54" y1="1266.43" x2="1967.6" y2="1297.74" xlink:href="#A"/><linearGradient id="BF" x1="1991.06" y1="1230.49" x2="1995.81" y2="1302.91" xlink:href="#A"/><linearGradient id="BG" x1="2016.74" y1="1201.91" x2="2023.55" y2="1305.79" xlink:href="#A"/><linearGradient id="BH" x1="2044.22" y1="1224.46" x2="2049.2" y2="1300.33" xlink:href="#A"/><linearGradient id="BI" x1="2069.39" y1="1186.51" x2="2077.06" y2="1303.59" xlink:href="#A"/><linearGradient id="BJ" x1="2095.37" y1="1173.05" x2="2103.89" y2="1302.92" xlink:href="#A"/><linearGradient id="BK" x1="1725.81" y1="1364.16" x2="2046.77" y2="1544.03" xlink:href="#G"/><linearGradient id="BL" x1="1663.92" y1="1428.33" x2="1672.09" y2="1552.89" xlink:href="#A"/><linearGradient id="BM" x1="1693.94" y1="1504.77" x2="1694.95" y2="1520.26" xlink:href="#A"/><linearGradient id="BN" x1="1719.86" y1="1452.37" x2="1725.45" y2="1537.57" xlink:href="#A"/><linearGradient id="BO" x1="1748.45" y1="1486.29" x2="1750.88" y2="1523.37" xlink:href="#A"/><linearGradient id="BP" x1="1774.42" y1="1441.8" x2="1780.57" y2="1535.72" xlink:href="#A"/><linearGradient id="BQ" x1="1802.42" y1="1462.07" x2="1806.68" y2="1526.93" xlink:href="#A"/><linearGradient id="BR" x1="1828.39" y1="1423.51" x2="1835.73" y2="1535.55" xlink:href="#A"/><linearGradient id="BS" x1="1855.18" y1="1412.29" x2="1863.27" y2="1535.62" xlink:href="#A"/><linearGradient id="BT" x1="1883.9" y1="1459.25" x2="1887.96" y2="1521.12" xlink:href="#A"/><linearGradient id="BU" x1="1908.81" y1="1398.31" x2="1917.63" y2="1532.9" xlink:href="#A"/><linearGradient id="BV" x1="1936.25" y1="1412.34" x2="1943.76" y2="1526.89" xlink:href="#A"/><linearGradient id="BW" x1="1965.55" y1="1479.93" x2="1967.59" y2="1511.02" xlink:href="#A"/><linearGradient id="BX" x1="1991.06" y1="1443.69" x2="1995.8" y2="1515.9" xlink:href="#A"/><linearGradient id="BY" x1="2016.75" y1="1414.82" x2="2023.54" y2="1518.49" xlink:href="#A"/><linearGradient id="BZ" x1="2044.23" y1="1437.08" x2="2049.19" y2="1512.73" xlink:href="#A"/><linearGradient id="Ba" x1="2069.39" y1="1398.84" x2="2077.06" y2="1515.71" xlink:href="#A"/><linearGradient id="Bb" x1="2095.38" y1="1385.09" x2="2103.88" y2="1514.75" xlink:href="#A"/><linearGradient id="Bc" x1="1726.67" y1="1578.97" x2="2045.87" y2="1757.85" xlink:href="#G"/><linearGradient id="Bd" x1="1663.93" y1="1645.12" x2="1672.08" y2="1769.45" xlink:href="#A"/><linearGradient id="Be" x1="1693.94" y1="1721.26" x2="1694.94" y2="1736.52" xlink:href="#A"/><linearGradient id="Bf" x1="1719.87" y1="1668.55" x2="1725.44" y2="1753.53" xlink:href="#A"/><linearGradient id="Bg" x1="1748.45" y1="1702.17" x2="1750.87" y2="1739.02" xlink:href="#A"/><linearGradient id="Bh" x1="1774.42" y1="1657.38" x2="1780.57" y2="1751.08" xlink:href="#A"/><linearGradient id="Bi" x1="1802.43" y1="1677.35" x2="1806.67" y2="1741.98" xlink:href="#A"/><linearGradient id="Bj" x1="1828.39" y1="1638.49" x2="1835.73" y2="1750.31" xlink:href="#A"/><linearGradient id="Bk" x1="1855.18" y1="1626.97" x2="1863.26" y2="1750.09" xlink:href="#A"/><linearGradient id="Bl" x1="1883.91" y1="1673.64" x2="1887.95" y2="1735.29" xlink:href="#A"/><linearGradient id="Bm" x1="1908.81" y1="1612.4" x2="1917.62" y2="1746.77" xlink:href="#A"/><linearGradient id="Bn" x1="1936.25" y1="1626.13" x2="1943.75" y2="1740.46" xlink:href="#A"/><linearGradient id="Bo" x1="1965.56" y1="1693.43" x2="1967.58" y2="1724.3" xlink:href="#A"/><linearGradient id="Bp" x1="1991.07" y1="1656.9" x2="1995.79" y2="1728.88" xlink:href="#A"/><linearGradient id="Bq" x1="2016.75" y1="1627.73" x2="2023.54" y2="1731.18" xlink:href="#A"/><linearGradient id="Br" x1="2044.24" y1="1649.7" x2="2049.18" y2="1725.13" xlink:href="#A"/><linearGradient id="Bs" x1="2069.4" y1="1611.17" x2="2077.05" y2="1727.82" xlink:href="#A"/><linearGradient id="Bt" x1="2095.39" y1="1597.13" x2="2103.88" y2="1726.57" xlink:href="#A"/><linearGradient id="Bu" x1="1321.18" y1="2568.47" x2="1128.33" y2="2649.46" xlink:href="#CT"><stop offset="0" stop-color="#40447e"/><stop offset="1" stop-color="#3c3b6b"/></linearGradient><linearGradient id="Bv" x1="1007.4" y1="1711.14" x2="807.45" y2="1795.12" xlink:href="#Bu"/><linearGradient id="Bw" x1="161.75" y1="1759.55" x2="1983.91" y2="1759.55" xlink:href="#Bu"/><linearGradient id="Bx" x1="278.8" y1="2346.98" x2="2128.5" y2="840.74" xlink:href="#CT"><stop offset="0" stop-color="#aa80f9"/><stop offset="1" stop-color="#6165d7"/></linearGradient><linearGradient id="By" x1="161.75" y1="2483.32" x2="2906.76" y2="2483.32" xlink:href="#Bu"/><linearGradient id="Bz" x1="430.95" y1="2460.62" x2="2442.2" y2="2460.62" xlink:href="#Bu"/><linearGradient id="CA" x1="3420.77" y1="2160.8" x2="1728.4" y2="1681.89" xlink:href="#B"/><linearGradient id="CB" x1="3416.33" y1="2176.47" x2="1723.96" y2="1697.57" xlink:href="#B"/><linearGradient id="CC" x1="1684.05" y1="1091.31" x2="1710.51" y2="3228.4" xlink:href="#B"/><linearGradient id="CD" x1="1921.14" y1="1061.88" x2="1873.94" y2="1061.88" xlink:href="#CT"><stop offset="0" stop-color="#311944"/><stop offset="1" stop-color="#893976"/></linearGradient><linearGradient id="CE" x1="2331.66" y1="2285.64" x2="2350.15" y2="2521.03" xlink:href="#CT"><stop offset="0" stop-color="#311944"/><stop offset="1" stop-color="#a03976"/></linearGradient><linearGradient id="CF" x1="2379.4" y1="2416.69" x2="2376.04" y2="2172.89" xlink:href="#B"/><linearGradient id="CG" x1="2681.17" y1="2258.18" x2="2699.67" y2="2493.57" xlink:href="#CE"/><linearGradient id="CH" x1="2699.72" y1="2412.27" x2="2696.35" y2="2168.47" xlink:href="#B"/><linearGradient id="CI" x1="2321.22" y1="2021.75" x2="2501.48" y2="2021.75" xlink:href="#CT"><stop offset="0" stop-color="#444b8c"/><stop offset="1" stop-color="#3e4177"/></linearGradient><linearGradient id="CJ" xlink:href="#CI"/><linearGradient id="CK" x1="2371.26" y1="2003.98" x2="2734.14" y2="2003.98" xlink:href="#CI"/><linearGradient id="CL" x1="2349.45" y1="1194.98" x2="2329.01" y2="1355.13" xlink:href="#CD"/><linearGradient id="CM" x1="2337.87" y1="1163.73" x2="2346.95" y2="1054.7" xlink:href="#CT"><stop offset="0" stop-color="#26264f"/><stop offset="1" stop-color="#444b8c"/></linearGradient><linearGradient id="CN" x1="2394.38" y1="1092.9" x2="2310.33" y2="1181.49" xlink:href="#CD"/><linearGradient id="CO" x1="2218.69" y1="1943.82" x2="2295.18" y2="1208.17" xlink:href="#CT"><stop offset="0" stop-color="#6165d7"/><stop offset="1" stop-color="#aa80f9"/></linearGradient><linearGradient id="CP" x1="2452.78" y1="1970.07" x2="2530.02" y2="1227.25" xlink:href="#Bx"/><linearGradient id="CQ" x1="5319.276" y1="1502.161" x2="2466.004" y2="756.238" xlink:href="#CT"><stop offset=".1" stop-color="#311944"/><stop offset=".27" stop-color="#371b47"/><stop offset=".48" stop-color="#462150"/><stop offset=".51" stop-color="#4a2252"/><stop offset=".68" stop-color="#5c295c"/><stop offset="1" stop-color="#893976"/></linearGradient><linearGradient id="CR" x1="5181.299" y1="1463.912" x2="2327.952" y2="717.959" xlink:href="#CT"><stop offset=".1" stop-color="#311944"/><stop offset=".27" stop-color="#371b47"/><stop offset=".48" stop-color="#462150"/><stop offset=".72" stop-color="#612a5f"/><stop offset=".97" stop-color="#853774"/><stop offset="1" stop-color="#893976"/></linearGradient><linearGradient id="CS" x1="1424.667" y1="267.869" x2="3551.761" y2="1221.755" xlink:href="#Bx"/><linearGradient id="CT" gradientUnits="userSpaceOnUse"/></defs><g class="D"><path d="M1959.59 120.44c-196-41.69-399.71-61.67-598.92-48.94C1184.1 82.79 984 113.6 841.88 224c-67.71 52.6-148.46 147.11-170.61 230.49 0 0-116.59 438.87-349.75 532.92S-73.56 2686.44 1694.6 2529.7c0 0 1038.52-41.07 1101.05-1224.12 15.11-285.79 6.67-600-174.29-838.93-138.67-183.12-333-264.54-556.23-321.51q-52.31-13.35-105.54-24.7z" fill="#f4f7fa"/><path d="M1065.07 1700.94c35.63-108.57 71.89-274.32 29.44-458.34-48.75-211.3-156.73-253.6-253.68-479.45-138.4-322.43 18.23-556-125-654.52-69.87-48.06-179.74-48.1-247.48.15C275.05 246.43 328 846 634.66 1080c138.68 105.81 259.69 93.26 363.75 230.19 91.96 120.96 84.75 280.59 66.66 390.75z" fill="url(#B)"/><g class="G Cg" clip-path="url(#C)"><path d="M1086.85 1427.76a823.67 823.67 0 0 0-46.43-133.37c-44.1-98.39-92.77-152.58-154.42-221.13-40.22-44.74-85.81-95.45-138.48-168.16C649 769.07 618.4 721.28 591 644.25c-54.23-152.44-45.9-289.11-36.11-357A741.82 741.82 0 0 1 650.94 14.8l3 1.77a738.41 738.41 0 0 0-95.6 271.17c-9.75 67.58-18 203.61 35.94 355.34 27.26 76.62 57.76 124.26 156.09 260 52.58 72.56 98.09 123.2 138.25 167.87 61.83 68.78 110.67 123.11 155 222a827.35 827.35 0 0 1 46.62 133.93z"/><path d="M564.53 536.58l-2.53-1.37c-.57-.31-57.81-31.77-108.67-95.8-46.95-59.11-98-158.88-74.39-298.47l3.44.58C359 279.78 409.51 378.6 456 437.14c44.38 55.92 93.64 86.78 105.18 93.57 3.18-111.51 74.67-183.77 134.38-224.86 65.13-44.83 130.67-63.21 131.33-63.39l.92 3.35c-.65.18-65.71 18.44-130.36 63-59.52 41-130.88 113.28-132.86 224.94zm16.3 358.62c-57.89 0-125.91-14.22-188.73-63.12l2.14-2.75c141 109.73 308.61 42.83 325.26 35.75C691 755 716.21 673.75 742.43 624.92c28.55-53.17 64.53-80.5 64.89-80.77l2.09 2.78c-.35.27-35.81 27.24-64 79.79-26 48.46-50.94 129.26-22.18 238.92l.37 1.41-1.33.61c-1.02.48-61.59 27.54-141.44 27.54zM710 1105.22c-43.42 0-95.38-7.88-155.85-30l1.2-3.27c198.09 72.37 303.85-8.7 314.76-17.75-48.21-112.79 19.69-295.18 20.38-297l3.26 1.23c-.69 1.83-68.56 184.19-19.93 295.57l.49 1.14-.92.84c-.78.71-55.75 49.24-163.39 49.24z"/></g><path d="M1127.08,1570c11.31-68.35,17.8-175.1-37.84-270.57-97.06-166.55-274-111.3-443.34-289.74C509.31,865.77,552.36,753.91,401,658.27c-25.33-16-159.19-104.11-258.73-51C86.18,637.13,65.86,698.51,62.05,710,4.38,884.2,181.78,1156.88,413,1281.59c132.85,71.66,175.71,48.24,409.49,131.81A1315.78,1315.78,0,0,1,1127.08,1570Z" fill="url(#D)"/><g class="G Cg" clip-path="url(#E)"><path d="M1146.58 1652.31c-33.84-162.51-97.86-271.61-190.31-324.27-45.1-25.69-81.14-29.77-119.29-34.09-41.69-4.72-84.8-9.6-141.83-44.08-55.5-33.56-75.34-65.79-100.46-106.59-22.31-36.24-50.09-81.35-112.4-141.41-54.63-52.65-94.43-77.3-129.55-99.06-38.44-23.81-68.8-42.61-104-88.8-57.42-75.25-87.43-171.67-89.2-286.58h3.48c1.76 114.15 31.53 209.87 88.49 284.51 34.86 45.69 65 64.34 103.12 88 35.26 21.84 75.23 46.6 130.12 99.51 62.63 60.36 90.54 105.68 113 142.09 24.87 40.4 44.52 72.31 99.29 105.43 56.38 34.09 99.1 38.92 140.42 43.6 38.52 4.36 74.9 8.48 120.62 34.52 93.36 53.19 158 163.06 192 326.59z"/><path d="M354.77 912.85c-118.77 0-207.47-45.53-261.67-84.59C32 784.25.31 738.69 0 738.23l2.87-2c.31.45 31.76 45.6 92.38 89.25 55.55 40 147.6 86.88 271.39 83.7-7.45-23.92-69.44-233.51 10.75-323.49L380 588c-83.35 93.53-10.09 320-9.34 322.32l.72 2.21-2.33.07q-7.21.26-14.28.25zm-9.13 193.22c-76 0-172.88-15.64-270.11-73.93l1.79-3c121 72.51 241.42 78.58 321.18 70.9 79.12-7.62 134.83-29.87 144.12-33.77-32.2-118.8-3.5-286.33-3.21-288l3.43.6c-.29 1.69-29.08 169.84 3.54 288l.4 1.44-1.37.61c-.58.27-59.6 26.27-146.58 34.64-16.17 1.51-34.01 2.51-53.19 2.51zm103.04 275.86q-8.69 0-17.56-.19l.07-3.48c121.52 2.63 215-22.63 272.08-44.27 54.54-20.69 87.06-42.1 94.2-47-89.19-110.82-54.24-291.7-53.87-293.52l3.41.68c-.36 1.82-35.28 182.69 54.34 292.08l1.16 1.42-1.48 1.09c-1.3.93-129.41 93.19-352.35 93.19z"/></g><g class="G"><path d="M1129.47 1511.93a738.22 738.22 0 0 0-183.93-96.53c-148.86-52.77-217.08-21.64-280.09-84.57-65.23-65.14-23-129.31-101.08-202-6.57-6.12-90.42-82.2-166.28-53.87-53.07 19.82-73.73 80.1-83.43 108.39-37.63 109.78-15.75 277 101.37 359.56 111 78.22 251.61 40.94 296.25 28.79 78.3-21.32 96.85-51.84 176.45-71.14 96.81-23.56 183.82-6.13 240.74 11.37z" fill="url(#A)"/><g clip-path="url(#F)" class="Cg"><path d="M1160.4,1537c-92-67.35-181.8-99.07-266.82-94.32-37.1,2.08-63.22,10.36-88.48,18.37-32.06,10.17-62.34,19.77-112.69,17.67-90.44-3.78-167.67-34.53-217.47-86.6-77.1-80.6-94.22-215.66-43.63-344.07l3.24,1.28c-50.1,127.15-33.26,260.76,42.9,340.39,49.18,51.41,125.57,81.78,215.11,85.52,49.72,2.07,79.73-7.44,111.48-17.51,25.47-8.07,51.81-16.43,89.35-18.53,85.87-4.8,176.37,27.16,269.07,95Z"/><path d="M440.85 1340.79l-2.52-.9c-1.48-.53-148.18-54.16-157.29-167.91l3.47-.27C292.79 1275 417.62 1328 437 1335.65c-8.78-146.64 168.34-227.59 170.14-228.4l1.42 3.18c-1.79.8-178.89 81.77-167.91 227.68zm27.71 173.59c-53.28 0-121.4-13.05-199.18-57.31l1.72-3c109 62.06 198.84 62.26 254.95 51.5 54.05-10.36 88-32.53 95.05-37.47-85.06-119.54 18.64-261.45 19.7-262.87l2.79 2.08c-1.05 1.41-104.05 142.42-18.65 260.16l1 1.38-1.35 1c-.36.27-36.37 27.32-97.88 39.11a309 309 0 0 1-58.15 5.42z"/></g></g><path d="M926.05 95.26v1713.59a37.52 37.52 0 0 0 30.1 36.79l440.14 88.91L1516.1 799.94 1400 .27 958.71 58.05a37.53 37.53 0 0 0-32.66 37.21z" fill="#bfc8d6"/><path d="M2178.21 31.09l-775-31c-30.56-1.22-55.39 20.49-55.39 48.49v1838.33c0 28 24.83 49.29 55.39 47.54l775-44.39c28.13-1.61 50.88-24.62 50.88-51.39V81.6c0-26.77-22.75-49.39-50.88-50.51z" class="Ci"/><path d="M1401.24 214.91V84.82c0-19.9 17.61-35.38 39.29-34.56l703.05 26.43c20.13.75 36.41 16.87 36.41 36v125c0 19.12-16.28 34.18-36.41 33.63l-703-19.28c-21.73-.6-39.34-17.22-39.34-37.13z" class="Cg"/><path d="M1474.47 99.37c0 9.18-8.09 16.34-18.09 16s-18.14-8.07-18.14-17.26 8.13-16.36 18.14-16 18.09 8.08 18.09 17.26zm57.17 2.01c0 9.15-8.05 16.29-18 16s-18-8-18-17.22 8.08-16.3 18-15.94 18 8.01 18 17.16zm56.84 2c0 9.12-8 16.25-17.89 15.91s-17.92-8-17.92-17.17 8-16.26 17.92-15.9 17.89 8.04 17.89 17.16z" class="Ci"/><path d="M2140.22 239.89l-516.05-15V88.15l516.05 18.58v133.16z" fill="url(#G)"/><g class="O Cg Ch"><path d="M1674.43 216.72l-15.57-.46v-110.4l15.57.54v110.32zm27.62.82l-15.52-.46V106.83l15.52.55v110.16zm27.54.81l-15.48-.45V107.8l15.48.54v110.01zm27.47.81l-15.44-.45V108.77l15.44.54v109.85zm27.39.81l-15.4-.45V109.73l15.4.54v109.7zm27.31.81l-15.35-.45V110.69l15.35.54v109.55zm27.23.81l-15.31-.46V111.65l15.31.54v109.4zm27.16.8l-15.26-.45V112.61l15.26.54v109.24zm27.09.8l-15.23-.45V113.56l15.23.54v109.09zm27 .8l-15.18-.45V114.52l15.18.53v108.94zm26.94.79l-15.14-.44V115.47l15.14.53v108.78zm26.86.8l-15.1-.45V116.41l15.1.53v108.64zm26.78.79l-15.06-.45V117.36l15.06.53v108.48zm26.71.79l-15.02-.45V118.3l15.02.52v108.34zm26.63.78l-14.97-.44V119.23l14.97.53v108.18zm26.56.79l-14.93-.44V120.17l14.93.53v108.03zm26.49.78l-14.89-.44V121.1l14.89.53v107.88z"/></g><g class="Cj"><path d="M1674.43 216.72l-15.57-.46v-93.94l15.57.53v93.87z" fill="url(#H)"/><path d="M1702.05 217.54l-15.52-.46v-11.29l15.52.46v11.29z" fill="url(#I)"/><path d="M1729.59 218.35l-15.48-.45v-64.13l15.48.51v64.07z" fill="url(#J)"/><path d="M1757.06 219.16l-15.44-.45v-27.65l15.44.47v27.63z" fill="url(#K)"/><path d="M1784.45 219.97l-15.4-.45v-70.73l15.4.51v70.67z" fill="url(#L)"/><path d="M1811.76 220.78l-15.35-.45v-48.71l15.35.49v48.67z" fill="url(#M)"/><path d="M1838.99 221.59l-15.31-.46v-84.46l15.31.52v84.4z" fill="url(#N)"/><path d="M1866.15 222.39l-15.26-.45v-93.03l15.26.53v92.95z" fill="url(#O)"/><path d="M1893.24 223.19l-15.23-.45v-46.45l15.23.49v46.41z" fill="url(#P)"/><path d="M1920.24 223.99l-15.18-.45V121.98l15.18.53v101.48z" fill="url(#Q)"/><path d="M1947.18 224.78l-15.14-.44v-86.38l15.14.52v86.3z" fill="url(#R)"/><path d="M1974.04 225.58l-15.1-.45V202l15.1.47v23.11z" fill="url(#S)"/><path d="M2000.82 226.37l-15.06-.45v-54.28l15.06.49v54.24z" fill="url(#T)"/><path d="M2027.53 227.16l-15.02-.45v-78.12l15.02.5v78.07z" fill="url(#U)"/><path d="M2054.16 227.94l-14.97-.44v-56.9l14.97.49v56.85z" fill="url(#V)"/><path d="M2080.72 228.73l-14.93-.44v-88.14l14.93.51v88.07z" fill="url(#W)"/><path d="M2107.21 229.51l-14.89-.44v-97.82l14.89.51v97.75z" fill="url(#X)"/></g><path d="M1401.24 434.56V304.47c0-19.91 17.61-35.58 39.29-35l703.05 18.66c20.13.53 36.41 16.47 36.41 35.6v125c0 19.12-16.28 34.36-36.41 34l-703-11.51c-21.73-.33-39.34-16.76-39.34-36.66z" class="Cg"/><path d="M1474.47 318.21c0 9.17-8.09 16.42-18.09 16.19s-18.14-7.87-18.14-17.07 8.13-16.44 18.14-16.19 18.09 7.86 18.09 17.07zm57.17 1.38c0 9.15-8.05 16.38-18 16.14s-18-7.85-18-17 8.08-16.4 18-16.15 18 7.86 18 17.01zm56.84 1.41c0 9.12-8 16.33-17.89 16.1s-17.92-7.83-17.92-17 8-16.35 17.92-16.1 17.89 7.83 17.89 17z" class="Ci"/><path d="M2140.22 451.37l-516.05-9.3V305.33l516.05 12.88v133.16z" fill="url(#Y)"/><g class="O Cg Ch"><path d="M1674.43 433.35l-15.57-.29V322.65l15.57.38v110.32zm27.62.51l-15.52-.29V323.32l15.52.38v110.16zm27.54.51l-15.48-.29V323.99l15.48.37v110.01zm27.47.51l-15.44-.29V324.65l15.44.37v109.86zm27.39.5l-15.4-.28V325.31l15.4.38v109.69zm27.31.51l-15.35-.28V325.97l15.35.37v109.55zm27.23.5l-15.31-.28V326.63l15.31.37v109.39zm27.16.51l-15.26-.29V327.29l15.26.37V436.9zm27.09.5l-15.23-.28V327.94l15.23.37V437.4zm27 .5l-15.18-.28V328.6l15.18.36V437.9zm26.94.49l-15.14-.27V329.25l15.14.36v108.78zm26.86.5l-15.1-.28V329.89l15.1.37v108.63zm26.78.5l-15.06-.28V330.54l15.06.36v108.49zm26.71.49l-15.02-.28V331.19l15.02.36v108.33zm26.63.5l-14.97-.28V331.83l14.97.36v108.19zm26.56.49l-14.93-.28V332.47l14.93.36v108.04zm26.49.49l-14.89-.28V333.11l14.89.36v107.89z"/></g><g class="Cj"><path d="M1674.43 433.35l-15.57-.29v-93.94l15.57.36v93.87z" fill="url(#Z)"/><path d="M1702.05 433.86l-15.52-.29v-11.29l15.52.3v11.28z" fill="url(#a)"/><path d="M1729.59 434.37l-15.48-.29v-64.12l15.48.34v64.07z" fill="url(#b)"/><path d="M1757.06 434.88l-15.44-.29v-27.65l15.44.31v27.63z" fill="url(#c)"/><path d="M1784.45 435.38l-15.4-.28v-70.73l15.4.34v70.67z" fill="url(#d)"/><path d="M1811.76 435.89l-15.35-.28V386.9l15.35.32v48.67z" fill="url(#e)"/><path d="M1838.99 436.39l-15.31-.28v-84.47l15.31.35v84.4z" fill="url(#f)"/><path d="M1866.15 436.9l-15.26-.29v-93.02l15.26.35v92.96z" fill="url(#g)"/><path d="M1893.24 437.4l-15.23-.28v-46.45l15.23.32v46.41z" fill="url(#h)"/><path d="M1920.24 437.9l-15.18-.28V336.06l15.18.36V437.9z" fill="url(#i)"/><path d="M1947.18 438.39l-15.14-.27v-86.38l15.14.35v86.3z" fill="url(#j)"/><path d="M1974.04 438.89l-15.1-.28v-23.12l15.1.29v23.11z" fill="url(#k)"/><path d="M2000.82 439.39l-15.06-.28v-54.29l15.06.33v54.24z" fill="url(#l)"/><path d="M2027.53 439.88l-15.02-.28v-78.12l15.02.33v78.07z" fill="url(#m)"/><path d="M2054.16 440.38l-14.97-.28v-56.9l14.97.32v56.86z" fill="url(#n)"/><path d="M2080.72 440.87l-14.93-.28v-88.13l14.93.34v88.07z" fill="url(#o)"/><path d="M2107.21 441.36l-14.89-.28v-97.83l14.89.36v97.75z" fill="url(#p)"/></g><path d="M1401.24 654.2V524.11c0-19.9 17.61-35.77 39.29-35.43l703.05 10.89c20.13.31 36.41 16.07 36.41 35.2v125c0 19.12-16.28 34.54-36.41 34.43l-703-3.74c-21.73-.12-39.34-16.35-39.34-36.26z" class="Cg"/><path d="M1474.47 537c0 9.18-8.09 16.52-18.09 16.4s-18.14-7.68-18.14-16.87 8.13-16.53 18.14-16.39 18.09 7.73 18.09 16.86zm57.17.79c0 9.15-8.05 16.47-18 16.35s-18-7.65-18-16.82 8.08-16.49 18-16.35 18 7.67 18 16.82zm56.84.74c0 9.13-8 16.43-17.89 16.3s-17.92-7.62-17.92-16.77 8-16.43 17.92-16.3 17.89 7.65 17.89 16.77z" class="Ci"/><path d="M2140.22 662.85l-516.05-3.6V522.51l516.05 7.18v133.16z" fill="url(#q)"/><g class="O Cg Ch"><path d="M1674.43 649.98l-15.57-.12V539.45l15.57.21v110.32zm27.62.2l-15.52-.11V539.82l15.52.2v110.16zm27.54.21l-15.48-.12V540.18l15.48.2v110.01zm27.47.2l-15.44-.11V540.54l15.44.2v109.85zm27.39.21l-15.4-.12V540.89l15.4.21v109.7zm27.31.2l-15.35-.12V541.25l15.35.2V651zm27.23.2l-15.31-.11V541.61l15.31.2V651.2zm27.16.2l-15.26-.11V541.97l15.26.19V651.4zm27.09.21l-15.23-.12V542.32l15.23.2v109.09zm27 .2l-15.18-.12V542.67l15.18.2v108.94zm26.94.2l-15.14-.11V543.03l15.14.19v108.79zm26.86.2l-15.1-.11V543.38l15.1.2v108.63zm26.78.2l-15.06-.12V543.73l15.06.19v108.49zm26.71.2l-15.02-.11V544.08l15.02.19v108.34zm26.63.19l-14.97-.11V544.43l14.97.19V652.8zm26.56.2l-14.93-.11V544.77l14.93.2V653zm26.49.2l-14.89-.11V545.12l14.89.2V653.2z"/></g><g class="Cj"><path d="M1674.43 649.98l-15.57-.12v-93.95l15.57.2v93.87z" fill="url(#r)"/><path d="M1702.05 650.18l-15.52-.11v-11.3l15.52.13v11.28z" fill="url(#s)"/><path d="M1729.59 650.39l-15.48-.12v-64.12l15.48.16v64.08z" fill="url(#t)"/><path d="M1757.06 650.59l-15.44-.11v-27.66l15.44.14v27.63z" fill="url(#u)"/><path d="M1784.45 650.8l-15.4-.12v-70.73l15.4.17v70.68z" fill="url(#v)"/><path d="M1811.76 651l-15.35-.12v-48.7l15.35.15V651z" fill="url(#w)"/><path d="M1838.99 651.2l-15.31-.11v-84.47l15.31.18v84.4z" fill="url(#x)"/><path d="M1866.15 651.4l-15.26-.11v-93.03l15.26.19v92.95z" fill="url(#y)"/><path d="M1893.24 651.61l-15.23-.12v-46.45l15.23.15v46.42z" fill="url(#z)"/><path d="M1920.24 651.81l-15.18-.12V550.14l15.18.19v101.48z" fill="url(#AA)"/><path d="M1947.18 652.01l-15.14-.11v-86.38l15.14.18v86.31z" fill="url(#AB)"/><path d="M1974.04 652.21l-15.1-.11v-23.13l15.1.13v23.11z" fill="url(#AC)"/><path d="M2000.82 652.41l-15.06-.12v-54.28l15.06.16v54.24z" fill="url(#AD)"/><path d="M2027.53 652.61l-15.02-.11v-78.13l15.02.17v78.07z" fill="url(#AE)"/><path d="M2054.16 652.8l-14.97-.11V595.8l14.97.15v56.85z" fill="url(#AF)"/><path d="M2080.72 653l-14.93-.11v-88.13l14.93.18V653z" fill="url(#AG)"/><path d="M2107.21 653.2l-14.89-.11v-97.83l14.89.19v97.75z" fill="url(#AH)"/></g><path d="M1401.24 873.85V743.76c0-19.91 17.61-36 39.29-35.87l703.05 3.11c20.13.08 36.41 15.66 36.41 34.79v125c0 19.12-16.28 34.72-36.41 34.84l-703 4c-21.73.16-39.34-15.88-39.34-35.78z" class="Cg"/><path d="M1474.47 755.88c0 9.17-8.09 16.6-18.09 16.59s-18.14-7.47-18.14-16.66 8.13-16.63 18.14-16.6 18.09 7.49 18.09 16.67zm57.17.12c0 9.15-8.05 16.56-18 16.55s-18-7.45-18-16.62 8.08-16.57 18-16.54 18 7.45 18 16.61zm56.84.11c0 9.12-8 16.51-17.89 16.5s-17.92-7.43-17.92-16.57 8-16.53 17.92-16.5 17.89 7.46 17.89 16.57z" class="Ci"/><path d="M2140.22 874.33l-516.05 2.11V739.69l516.05 1.48v133.16z" fill="url(#AI)"/><g class="O Cg Ch"><path d="M1674.43 866.6l-15.57.06V756.25l15.57.03V866.6zm27.62-.1l-15.52.06V756.31l15.52.03V866.5zm27.54-.1l-15.48.06v-110.1l15.48.04v110zm27.47-.1l-15.44.06V756.42l15.44.03V866.3zm27.39-.09l-15.4.05V756.48l15.4.03v109.7zm27.31-.1l-15.35.05V756.53l15.35.03v109.55zm27.23-.1l-15.31.06V756.59l15.31.03v109.39zm27.16-.1l-15.26.06V756.64l15.26.03v109.24zm27.09-.09l-15.23.05V756.7l15.23.03v109.09zm27-.1l-15.18.05V756.75l15.18.03v108.94zm26.94-.1l-15.14.06V756.81l15.14.03v108.78zm26.86-.1l-15.1.06V756.86l15.1.03v108.63zm26.78-.09l-15.06.05V756.91l15.06.04v108.48zm26.71-.1l-15.02.06V756.97l15.02.03v108.33zm26.63-.09l-14.97.05V757.02l14.97.03v108.19zm26.56-.1l-14.93.05V757.08l14.93.03v108.03zm26.49-.1l-14.89.06V757.13l14.89.03v107.88z"/></g><g class="Cj"><path d="M1674.43 866.6l-15.57.06v-93.95l15.57.02v93.87z" fill="url(#AJ)"/><path d="M1702.05 866.5l-15.52.06v-11.3l15.52-.04v11.28z" fill="url(#AK)"/><path d="M1729.59 866.4l-15.48.06v-64.12l15.48-.01v64.07z" fill="url(#AL)"/><path d="M1757.06 866.3l-15.44.06v-27.65l15.44-.04v27.63z" fill="url(#AM)"/><path d="M1784.45 866.21l-15.4.05v-70.73h15.4v70.68z" fill="url(#AN)"/><path d="M1811.76 866.11l-15.35.05v-48.7l15.35-.02v48.67z" fill="url(#AO)"/><path d="M1838.99 866.01l-15.31.06V781.6l15.31.01v84.4z" fill="url(#AP)"/><path d="M1866.15 865.91l-15.26.06v-93.03l15.26.02v92.95z" fill="url(#AQ)"/><path d="M1893.24 865.82l-15.23.05v-46.45l15.23-.02v46.42z" fill="url(#AR)"/><path d="M1920.24 865.72l-15.18.05V764.22l15.18.02v101.48z" fill="url(#AS)"/><path d="M1947.18 865.62l-15.14.06V779.3l15.14.02v86.3z" fill="url(#AT)"/><path d="M1974.04 865.52l-15.1.06v-23.13l15.1-.04v23.11z" fill="url(#AU)"/><path d="M2000.82 865.43l-15.06.05V811.2l15.06-.01v54.24z" fill="url(#AV)"/><path d="M2027.53 865.33l-15.02.06v-78.13h15.02v78.07z" fill="url(#AW)"/><path d="M2054.16 865.24l-14.97.05v-56.9l14.97-.01v56.86z" fill="url(#AX)"/><path d="M2080.72 865.14l-14.93.05v-88.13l14.93.02v88.06z" fill="url(#AY)"/><path d="M2107.21 865.04l-14.89.06v-97.83l14.89.02v97.75z" fill="url(#AZ)"/></g><path d="M1401.24 1093.49V963.41c0-19.91 17.61-36.16 39.29-36.31l703.05-4.64c20.13-.13 36.41 15.26 36.41 34.39v125c0 19.12-16.28 34.9-36.41 35.24l-703 11.79c-21.73.36-39.34-15.48-39.34-35.39z" class="Cg"/><path d="M1474.47 974.71c0 9.18-8.09 16.7-18.09 16.8s-18.14-7.28-18.14-16.47 8.13-16.71 18.14-16.79 18.09 7.29 18.09 16.46zm57.17-.51c0 9.15-8.05 16.65-18 16.74s-18-7.25-18-16.42 8.08-16.66 18-16.74 18 7.27 18 16.42zm56.84-.51c0 9.12-8 16.59-17.89 16.69s-17.92-7.23-17.92-16.37 8-16.62 17.92-16.7 17.89 7.25 17.89 16.38z" class="Ci"/><path d="M2140.22 1085.81l-516.05 7.81V956.87l516.05-4.22v133.16z" fill="url(#Aa)"/><g class="O Cg Ch"><path d="M1674.43 1083.23l-15.57.23V973.05l15.57-.14v110.32zm27.62-.4l-15.52.22V972.8l15.52-.14v110.17zm27.54-.41l-15.48.23v-110.1l15.48-.14v110.01zm27.47-.4l-15.44.22V972.3l15.44-.14v109.86zm27.39-.4l-15.4.22V972.06l15.4-.14v109.7zm27.31-.4l-15.35.22V971.81l15.35-.14v109.55zm27.23-.4l-15.31.22V971.56l15.31-.13v109.39zm27.16-.4l-15.26.22V971.32l15.26-.14v109.24zm27.09-.39l-15.23.22V971.07l15.23-.13v109.09zm27-.4l-15.18.22V970.83l15.18-.14v108.94zm26.94-.4l-15.14.23V970.59l15.14-.14v108.78zm26.86-.39l-15.1.22V970.34l15.1-.13v108.63zm26.78-.39l-15.06.22V970.1l15.06-.13v108.48zm26.71-.39l-15.02.22V969.86l15.02-.13v108.33zm26.63-.39l-14.97.22V969.62l14.97-.13v108.18zm26.56-.39l-14.93.22V969.38l14.93-.13v108.03zm26.49-.39l-14.89.22V969.14l14.89-.13v107.88z"/></g><g class="Cj"><path d="M1674.43 1083.23l-15.57.23v-93.95l15.57-.15v93.87z" fill="url(#Ab)"/><path d="M1702.05 1082.83l-15.52.22v-11.29l15.52-.22v11.29z" fill="url(#Ac)"/><path d="M1729.59 1082.42l-15.48.23v-64.13l15.48-.17v64.07z" fill="url(#Ad)"/><path d="M1757.06 1082.02l-15.44.22v-27.65l15.44-.2v27.63z" fill="url(#Ae)"/><path d="M1784.45 1081.62l-15.4.22v-70.73l15.4-.17v70.68z" fill="url(#Af)"/><path d="M1811.76 1081.22l-15.35.22v-48.7l15.35-.19v48.67z" fill="url(#Ag)"/><path d="M1838.99 1080.82l-15.31.22v-84.46l15.31-.16v84.4z" fill="url(#Ah)"/><path d="M1866.15 1080.42l-15.26.22v-93.02l15.26-.15v92.95z" fill="url(#Ai)"/><path d="M1893.24 1080.03l-15.23.22v-46.45l15.23-.19v46.42z" fill="url(#Aj)"/><path d="M1920.24 1079.63l-15.18.22V978.29l15.18-.14v101.48z" fill="url(#Ak)"/><path d="M1947.18 1079.23l-15.14.23v-86.38l15.14-.15v86.3z" fill="url(#Al)"/><path d="M1974.04 1078.84l-15.1.22v-23.13l15.1-.2v23.11z" fill="url(#Am)"/><path d="M2000.82 1078.45l-15.06.22v-54.29l15.06-.17v54.24z" fill="url(#An)"/><path d="M2027.53 1078.06l-15.02.22v-78.13l15.02-.16v78.07z" fill="url(#Ao)"/><path d="M2054.16 1077.67l-14.97.22v-56.9l14.97-.18v56.86z" fill="url(#Ap)"/><path d="M2080.72 1077.28l-14.93.22v-88.14l14.93-.15v88.07z" fill="url(#Aq)"/><path d="M2107.21 1076.89l-14.89.22v-97.83l14.89-.14v97.75z" fill="url(#Ar)"/></g><path d="M1401.24 1313.14v-130.09c0-19.91 17.61-36.35 39.29-36.74l703.05-12.41c20.13-.35 36.41 14.86 36.41 34v125c0 19.12-16.28 35.08-36.41 35.64l-703 19.57c-21.73.58-39.34-15.11-39.34-34.97z" class="Cg"/><path d="M1474.47 1193.55c0 9.18-8.09 16.78-18.09 17s-18.14-7.07-18.14-16.26 8.13-16.8 18.14-17 18.09 7.08 18.09 16.26zm57.17-1.15c0 9.15-8.05 16.74-18 16.95s-18-7.06-18-16.22 8.08-16.76 18-17 18 7.12 18 16.27zm56.84-1.14c0 9.13-8 16.69-17.89 16.9s-17.92-7-17.92-16.18 8-16.7 17.92-16.89 17.89 7.05 17.89 16.17z" class="Ci"/><path d="M2140.22 1297.29l-516.05 13.51v-136.74l516.05-9.93v133.16z" fill="url(#As)"/><g class="O Cg Ch"><path d="M1674.43 1299.86l-15.57.4v-110.41l15.57-.31v110.32zm27.62-.71l-15.52.4v-110.26l15.52-.31v110.17zm27.54-.71l-15.48.4v-110.1l15.48-.31v110.01zm27.47-.71l-15.44.4v-109.94l15.44-.31v109.85zm27.39-.7l-15.4.39v-109.78l15.4-.31v109.7zm27.31-.7l-15.35.39v-109.63l15.35-.31v109.55zm27.23-.7l-15.31.39v-109.48l15.31-.31v109.4zm27.16-.7l-15.26.39v-109.33l15.26-.3v109.24zm27.09-.7l-15.23.39v-109.17l15.23-.31v109.09zm27-.69l-15.18.39v-109.02l15.18-.31v108.94zm26.94-.69l-15.14.39v-108.87l15.14-.31v108.79zm26.86-.69l-15.1.38v-108.71l15.1-.31v108.64zm26.78-.69l-15.06.39v-108.57l15.06-.3v108.48zm26.71-.69l-15.02.39v-108.42l15.02-.3v108.33zm26.63-.68l-14.97.38v-108.26l14.97-.31v108.19zm26.56-.69l-14.93.39v-108.12l14.93-.3v108.03zm26.49-.68l-14.89.39v-107.97l14.89-.3v107.88z"/></g><g class="Cj"><path d="M1674.43 1299.86l-15.57.4v-93.95l15.57-.33v93.88z" fill="url(#At)"/><path d="M1702.05 1299.15l-15.52.4v-11.3l15.52-.39v11.29z" fill="url(#Au)"/><path d="M1729.59 1298.44l-15.48.4v-64.13l15.48-.34v64.07z" fill="url(#Av)"/><path d="M1757.06 1297.73l-15.44.4v-27.65l15.44-.38v27.63z" fill="url(#Aw)"/><path d="M1784.45 1297.03l-15.4.39v-70.73l15.4-.34v70.68z" fill="url(#Ax)"/><path d="M1811.76 1296.33l-15.35.39v-48.7l15.35-.36v48.67z" fill="url(#Ay)"/><path d="M1838.99 1295.63l-15.31.39v-84.47l15.31-.32v84.4z" fill="url(#Az)"/><path d="M1866.15 1294.93l-15.26.39v-93.02l15.26-.32v92.95z" fill="url(#BA)"/><path d="M1893.24 1294.23l-15.23.39v-46.44l15.23-.36v46.41z" fill="url(#BB)"/><path d="M1920.24 1293.54l-15.18.39v-101.56l15.18-.31v101.48z" fill="url(#BC)"/><path d="M1947.18 1292.85l-15.14.39v-86.37l15.14-.33v86.31z" fill="url(#BD)"/><path d="M1974.04 1292.16l-15.1.38v-23.12l15.1-.37v23.11z" fill="url(#BE)"/><path d="M2000.82 1291.47l-15.06.39v-54.29l15.06-.34v54.24z" fill="url(#BF)"/><path d="M2027.53 1290.78l-15.02.39v-78.13l15.02-.32v78.06z" fill="url(#BG)"/><path d="M2054.16 1290.1l-14.97.38v-56.89l14.97-.35v56.86z" fill="url(#BH)"/><path d="M2080.72 1289.41l-14.93.39v-88.13l14.93-.32v88.06z" fill="url(#BI)"/><path d="M2107.21 1288.73l-14.89.39v-97.83l14.89-.31v97.75z" fill="url(#BJ)"/></g><path d="M1401.24 1532.78V1402.7c0-19.91 17.61-36.55 39.29-37.18l703.05-20.18c20.13-.57 36.41 14.46 36.41 33.59v125c0 19.12-16.28 35.26-36.41 36l-703 27.33c-21.73.88-39.34-14.57-39.34-34.48z" class="Cg"/><path d="M1474.47 1412.39c0 9.17-8.09 16.87-18.09 17.19s-18.14-6.87-18.14-16.07 8.13-16.89 18.14-17.19 18.09 6.89 18.09 16.07zm57.17-1.78c0 9.15-8.05 16.82-18 17.14s-18-6.86-18-16 8.08-16.84 18-17.15 18 6.86 18 16.01zm56.84-1.77c0 9.12-8 16.77-17.89 17.09s-17.92-6.84-17.92-16 8-16.79 17.92-17.09 17.89 6.87 17.89 16z" class="Ci"/><path d="M2140.22 1508.77l-516.05 19.21v-136.74l516.05-15.63v133.16z" fill="url(#BK)"/><g class="O Cg Ch"><path d="M1674.43 1516.48l-15.57.58v-110.41l15.57-.49v110.32zm27.62-1.01l-15.52.57v-110.25l15.52-.49v110.17zm27.54-1.01l-15.48.57v-110.1l15.48-.48v110.01zm27.47-1.01l-15.44.56v-109.94l15.44-.48v109.86zm27.39-1.01l-15.4.57v-109.79l15.4-.48v109.7zm27.31-1l-15.35.56v-109.63l15.35-.48v109.55zm27.23-1.01l-15.31.57v-109.48l15.31-.48v109.39zm27.16-.99l-15.26.56v-109.33l15.26-.47v109.24zm27.09-1l-15.23.56v-109.17l15.23-.48v109.09zm27-.99l-15.18.56v-109.02l15.18-.48v108.94zm26.94-.99l-15.14.56v-108.87l15.14-.48v108.79zm26.86-.99l-15.1.56v-108.72l15.1-.47v108.63zm26.78-.98l-15.06.55v-108.57l15.06-.46v108.48zm26.71-.98l-15.02.55v-108.42l15.02-.47v108.34zm26.63-.98l-14.97.55v-108.27l14.97-.46v108.18zm26.56-.98l-14.93.55v-108.12l14.93-.46v108.03zm26.49-.97l-14.89.55v-107.97l14.89-.47v107.89z"/></g><g class="Cj"><path d="M1674.43 1516.48l-15.57.58v-93.95l15.57-.5v93.87z" fill="url(#BL)"/><path d="M1702.05 1515.47l-15.52.57v-11.3l15.52-.56v11.29z" fill="url(#BM)"/><path d="M1729.59 1514.46l-15.48.57v-64.13l15.48-.52v64.08z" fill="url(#BN)"/><path d="M1757.06 1513.45l-15.44.56v-27.65l15.44-.54v27.63z" fill="url(#BO)"/><path d="M1784.45 1512.44l-15.4.57v-70.73l15.4-.51v70.67z" fill="url(#BP)"/><path d="M1811.76 1511.44l-15.35.56v-48.7l15.35-.53v48.67z" fill="url(#BQ)"/><path d="M1838.99 1510.43l-15.31.57v-84.47l15.31-.49v84.39z" fill="url(#BR)"/><path d="M1866.15 1509.44l-15.26.56v-93.03l15.26-.49v92.96z" fill="url(#BS)"/><path d="M1893.24 1508.44l-15.23.56v-46.45l15.23-.52v46.41z" fill="url(#BT)"/><path d="M1920.24 1507.45l-15.18.56v-101.56l15.18-.48v101.48z" fill="url(#BU)"/><path d="M1947.18 1506.46l-15.14.56v-86.38l15.14-.48v86.3z" fill="url(#BV)"/><path d="M1974.04 1505.47l-15.1.56v-23.13l15.1-.54v23.11z" fill="url(#BW)"/><path d="M2000.82 1504.49l-15.06.55v-54.28l15.06-.51v54.24z" fill="url(#BX)"/><path d="M2027.53 1503.51l-15.02.55v-78.13l15.02-.49v78.07z" fill="url(#BY)"/><path d="M2054.16 1502.53l-14.97.55v-56.9l14.97-.5v56.85z" fill="url(#BZ)"/><path d="M2080.72 1501.55l-14.93.55v-88.13l14.93-.48v88.06z" fill="url(#Ba)"/><path d="M2107.21 1500.58l-14.89.55v-97.83l14.89-.47v97.75z" fill="url(#Bb)"/></g><path d="M1401.24 1752.43v-130.09c0-19.91 17.61-36.74 39.29-37.6l703.05-28c20.13-.8 36.41 14 36.41 33.18v125c0 19.13-16.28 35.44-36.41 36.45l-703 35.1c-21.73 1.12-39.34-14.14-39.34-34.04z" class="Cg"/><path d="M1474.47 1631.22c0 9.18-8.09 17-18.09 17.4s-18.14-6.68-18.14-15.87 8.13-17 18.14-17.4 18.09 6.7 18.09 15.87zm57.17-2.41c0 9.15-8.05 16.91-18 17.34s-18-6.65-18-15.82 8.08-16.93 18-17.34 18 6.67 18 15.82zm56.84-2.4c0 9.13-8 16.87-17.89 17.29s-17.92-6.64-17.92-15.78 8-16.88 17.92-17.29 17.89 6.66 17.89 15.78z" class="Ci"/><path d="M2140.22 1720.24l-516.05 24.92v-136.74l516.05-21.33v133.15z" fill="url(#Bc)"/><g class="O Cg Ch"><path d="M1674.43 1733.11l-15.57.74v-110.4l15.57-.66v110.32zm27.62-1.32l-15.52.74v-110.25l15.52-.65v110.16zm27.54-1.32l-15.48.74v-110.09l15.48-.66v110.01zm27.47-1.31l-15.44.74v-109.94l15.44-.65v109.85zm27.39-1.31l-15.4.74V1618.8l15.4-.65v109.7zm27.31-1.3l-15.35.73v-109.63l15.35-.65v109.55zm27.23-1.31l-15.31.73V1616.5l15.31-.65v109.39zm27.16-1.3l-15.26.73v-109.32l15.26-.65v109.24zm27.09-1.29l-15.23.73V1614.2l15.23-.64v109.09zm27-1.29l-15.18.73v-109.03l15.18-.64v108.94zm26.94-1.29l-15.14.73v-108.87l15.14-.64v108.78zm26.86-1.28l-15.1.72v-108.72l15.1-.63v108.63zm26.78-1.28l-15.06.72v-108.57l15.06-.63v108.48zm26.71-1.28l-15.02.72v-108.42l15.02-.63v108.33zm26.63-1.27l-14.97.71v-108.26l14.97-.63v108.18zm26.56-1.27l-14.93.71v-108.11l14.93-.63v108.03zm26.49-1.27l-14.89.71v-107.96l14.89-.63v107.88z"/></g><g class="Cj"><path d="M1674.43 1733.11l-15.57.74v-93.94l15.57-.67v93.87z" fill="url(#Bd)"/><path d="M1702.05 1731.79l-15.52.74v-11.29l15.52-.74v11.29z" fill="url(#Be)"/><path d="M1729.59 1730.47l-15.48.74v-64.12l15.48-.69v64.07z" fill="url(#Bf)"/><path d="M1757.06 1729.16l-15.44.74v-27.66l15.44-.71v27.63z" fill="url(#Bg)"/><path d="M1784.45 1727.85l-15.4.74v-70.73l15.4-.68v70.67z" fill="url(#Bh)"/><path d="M1811.76 1726.55l-15.35.73v-48.71l15.35-.69v48.67z" fill="url(#Bi)"/><path d="M1838.99 1725.24l-15.31.73v-84.46l15.31-.67v84.4z" fill="url(#Bj)"/><path d="M1866.15 1723.94l-15.26.73v-93.02l15.26-.66v92.95z" fill="url(#Bk)"/><path d="M1893.24 1722.65l-15.23.73v-46.45l15.23-.69v46.41z" fill="url(#Bl)"/><path d="M1920.24 1721.36l-15.18.73v-101.56l15.18-.65v101.48z" fill="url(#Bm)"/><path d="M1947.18 1720.07l-15.14.73v-86.38l15.14-.65v86.3z" fill="url(#Bn)"/><path d="M1974.04 1718.79l-15.1.72v-23.13l15.1-.7v23.11z" fill="url(#Bo)"/><path d="M2000.82 1717.51l-15.06.72v-54.29l15.06-.67v54.24z" fill="url(#Bp)"/><path d="M2027.53 1716.23l-15.02.72v-78.13l15.02-.65v78.06z" fill="url(#Bq)"/><path d="M2054.16 1714.96l-14.97.71v-56.89l14.97-.67v56.85z" fill="url(#Br)"/><path d="M2080.72 1713.69l-14.93.71v-88.13l14.93-.64v88.06z" fill="url(#Bs)"/><path d="M2107.21 1712.42l-14.89.71v-97.82l14.89-.64v97.75z" fill="url(#Bt)"/></g><path class="CD Cg" d="M2104.32 1638.86c-114-146.59-260.7-142.39-302.37-280-44.58-147.3 100.86-211.41 64.2-371.35-37.25-162.56-216-163.83-242-328.22-21.06-133.42 90.64-171.83 54.15-291.54-37.3-122.54-171.3-139.4-197.8-259.32-8.21-37.23-3.46-72.92 7.36-105L1403.17.05c-30.56-1.22-55.39 20.49-55.39 48.49v1838.37c0 28 24.83 49.29 55.39 47.54l775-44.39a54.91 54.91 0 0 0 21.95-6c-14.2-114.66-54.31-191.83-95.8-245.2z" opacity=".35"/><path d="M2906.76,2462.74l-2745-24.13V2510c0,19.37,12,35.85,28.19,38.78l776.21,140.58a105.68,105.68,0,0,0,27.84,1.32L2876.93,2530.4c16.81-1.43,29.83-18,29.83-37.86Z" fill="url(#Bu)"/><path d="M1910.61 2347L190.14 2477.61c-30.79 2.34-55.82-22.5-55.82-55.47V1101.05c0-33 25-59.71 55.82-59.71h1720.47c25.36 0 45.87 24.17 45.87 54v1194.22c0 29.81-20.48 55.53-45.87 57.44z" fill="url(#Bv)"/><path d="M1938 2347L217.57 2477.61c-30.79 2.34-55.82-22.5-55.82-55.47V1101.05c0-33 25-59.71 55.82-59.71H1938c25.36 0 45.87 24.17 45.87 54v1194.22c.04 29.81-20.47 55.53-45.87 57.44z" fill="url(#Bw)"/><path d="M1884.44 2262.82L282 2376.26c-25.06 1.77-45.42-18.61-45.42-45.53V1174.11c0-26.91 20.36-48.83 45.42-48.94l1602.43-7.12c20.93-.1 37.85 19.71 37.85 44.22v1053.47c.01 24.52-16.91 45.6-37.84 47.08z" fill="url(#Bx)"/><g class="Cg"><path d="M1138.57 1077.48c0 12.27-8.86 22.25-19.79 22.29s-19.84-9.91-19.84-22.21 8.89-22.28 19.84-22.29 19.79 9.93 19.79 22.21z"/><path class="CI" d="M1523.52 1984.68c-132.63-76.65-236.92 20.48-337.57-75.35-61-58.1-31.06-101.43-106.14-188.25-83.16-96.16-137.3-63.83-220.87-150.38-105.67-109.44-52.82-194.58-143.85-273.15-110.42-95.31-229.51-7.09-334.62-98.5-45.34-39.43-70.22-96.75-83.21-157.71H194.41c-18 0-32.66 15.69-32.66 35.05v1369.42c0 19.36 14.64 33.93 32.66 32.56l1753.44-133.69c8.61-.65 16.24-6 21.13-13.87-128.35-5-207.21-51.25-257.62-99-98.61-93.5-81.5-185.67-187.84-247.13z" opacity=".48"/></g><path d="M2006.61 2341.09L161.75 2478.56l804.4 145.67a105.25 105.25 0 0 0 27.84 1.32l1912.77-162.81L2036 2342a138.54 138.54 0 0 0-29.39-.91z" fill="url(#By)"/><path class="CK Ch" d="M430.95 2482.01l1535.9-116.15 475.35 65.37-1522.68 124.15-488.57-73.37z" fill="url(#Bz)"/><g opacity=".75" class="Cg"><path d="M563.53 1215.99l-176.46.62v-57.11h176.46v56.49zm924.54-3.23l-812.46 2.84v-56.1h812.46v53.26zm-642.14 97.05l-170.32 1.61v-56.09l170.32-1.02v55.5zm893.44-8.45l-785.23 7.43v-55.13l785.23-4.68v52.38zm-893.44 103.26l-170.32 2.62v-56.09l170.32-2.03v55.5zm893.44-13.78l-785.23 12.11v-55.12l785.23-9.37v52.38zM563.53 1505.46l-176.46 3.77v-57.1l176.46-3.16v56.49zm924.54-19.77l-812.46 17.37v-56.09l812.46-14.54v53.26zm-642.14 108.54l-170.32 4.65v-56.09l170.32-4.06v55.5zm893.44-24.43l-785.23 21.47v-55.13l785.23-18.73v52.39zm-893.44 119.23l-170.32 5.68v-56.1l170.32-5.08v55.5zm893.44-29.76l-785.23 26.16v-55.12l785.23-23.42v52.38zm-893.44 124.57l-170.32 6.69v-56.1l170.32-6.09v55.5zm893.44-35.09l-785.23 30.84v-55.13l785.23-28.09v52.38zm-618.18 117.44l-164.44 7.44v-55.11l164.44-6.87v54.54zm738.09-33.39l-633.58 28.66v-54.17l633.58-26.45v51.96zM563.53 1987.91l-176.46 9.03v-57.1l176.46-8.42v56.49zm924.54-47.34l-812.46 41.6v-56.09l812.46-38.77v53.26zm-642.14 127.69l-170.32 9.73v-56.09l170.32-9.15v55.51zm893.44-51.08l-785.23 44.89v-55.12l785.23-42.15v52.38zm-893.44 145.88l-170.32 10.75v-56.09l170.32-10.16v55.5zm893.44-56.4l-785.23 49.57v-55.12l785.23-46.83v52.38zM563.53 2277.38l-176.46 12.19v-57.1l176.46-11.58v56.49zm924.54-63.88l-812.46 56.14v-56.1l812.46-53.3v53.26z"/></g><path d="M2112.65 2038.85c54.2 27.52 122.29 2.25 152.09-56.43s10-128.57-44.19-156.09c-2.8-1.42-5.67-2.62-8.54-3.77a687 687 0 0 0 22.75-97.94c3.11 0 6.22-.06 9.39-.34 61.84-5.51 110.91-62.33 109.62-126.92s-52.47-112.47-114.31-107c-3.23.29-6.41.8-9.56 1.36a629.66 629.66 0 0 0-26.48-93.52c2.85-1.67 5.68-3.39 8.44-5.33 52.91-37.06 69.82-110.21 37.78-163.39s-100.9-66.23-153.8-29.17c-2.71 1.9-5.26 4-7.78 6a558.75 558.75 0 0 0-68.61-64c1.74-2.86 3.45-5.76 5-8.8 29.8-58.68 68.73-122.79 14.11-149.46-126.36-61.68-180.58-8.88-210.38 49.81-1.54 3-2.87 6.13-4.15 9.22a558.81 558.81 0 0 0-92.19-17.6c.19-3.26.34-6.53.28-9.84-1.3-64.58 17.87-99.53-44.2-100.74-135.35-2.63-181 56.12-179.73 120.7.07 3.38.35 6.68.69 9.95a631.39 631.39 0 0 0-91.13 33.82c-1.41-2.88-2.87-5.74-4.55-8.52-32-53.18-100.9-66.23-153.8-29.17s-69.82 110.22-37.78 163.39c1.64 2.73 3.44 5.27 5.27 7.79a687.8 687.8 0 0 0-65.65 76.16c-2.62-1.64-5.28-3.25-8.09-4.68-54.19-27.51-122.29-2.25-152.08 56.44s-10 128.57 44.18 156.08c2.81 1.43 5.68 2.63 8.55 3.78a686.83 686.83 0 0 0-22.75 97.93c-3.11 0-6.23.07-9.39.35-61.84 5.51-110.92 62.33-109.62 126.91s52.47 112.47 114.31 107c3.23-.29 6.4-.8 9.56-1.36a631 631 0 0 0 26.47 93.53c-2.84 1.67-5.67 3.39-8.44 5.32-52.9 37.06-69.81 110.22-37.77 163.39s138.11 77.88 191 40.82c2.71-1.9-32-15.6-29.43-17.68a558 558 0 0 0 68.61 64c-1.74 2.86-3.45 5.76-5 8.8-29.79 58.68-10 128.56 44.19 156.08s122.29 2.25 152.09-56.43c1.54-3 2.87-6.13 4.15-9.22a558.58 558.58 0 0 0 92.19 17.59c-.2 3.27-.35 6.54-.28 9.85 1.29 64.58 52.47 112.46 114.31 107s110.91-62.33 109.61-126.92c-.06-3.37-.35-6.67-.68-10a629 629 0 0 0 91.13-33.82c1.41 2.88 2.87 5.75 4.55 8.53 32 53.17 100.89 66.23 153.8 29.16s69.82-110.21 37.78-163.39c-1.64-2.72-3.44-5.27-5.27-7.78a686.66 686.66 0 0 0 65.64-76.16c2.63 1.68 5.28 3.29 8.09 4.71zm-675.65 8.58c-196.79-99.92-268.61-353.64-160.43-566.72s355.41-304.81 552.19-204.9 268.61 353.64 160.43 566.71-355.39 304.82-552.19 204.91z" fill="url(#CA)"/><path d="M2244.15 1724.28c61.84-5.52 110.91-62.34 109.62-126.92s-52.47-112.47-114.31-107c-3.23.29-6.41.8-9.56 1.36a630 630 0 0 0-26.48-93.52c2.85-1.67 5.68-3.39 8.44-5.33 52.91-37.06 118.36-126.62 81-176.22-70.84-94.15-144.15-53.4-197-16.34-2.71 1.9-5.26 4-7.78 6a559.6 559.6 0 0 0-68.61-64.05c1.74-2.85 3.45-5.75 5-8.79 16.22-31.94 17.65-67.15 6.94-97.09q-76.65 134.91-151 271c157 115 207 341.74 108.83 535-83.15 163.78-248.44 255.75-409.84 244.22l-22 55.94c-20.92 50.18-44.69 99.33-68.49 148.41q22.45 4.23 45.08 6.62c-.2 3.27-.35 6.54-.28 9.85 1.29 64.58 40.5 119.45 152.57 113.5 62-3.28 72.65-68.88 71.35-133.47-.06-3.37-.34-6.67-.68-10a629 629 0 0 0 91.13-33.82c1.41 2.88 2.87 5.75 4.55 8.52 32 53.18 143.18 75.77 196.09 38.71s27.53-119.75-4.51-172.93c-1.64-2.72-3.44-5.27-5.27-7.78a686.66 686.66 0 0 0 65.64-76.16c2.63 1.64 5.28 3.25 8.09 4.67 54.2 27.52 122.29 2.25 152.09-56.43s10-128.57-44.19-156.09c-2.8-1.43-5.67-2.62-8.54-3.77a687 687 0 0 0 22.75-97.94c3.09.18 6.22.13 9.37-.15z" fill="url(#CB)"/><path d="M2171 2045.48c54.19 27.52 122.29 2.25 152.08-56.43s10-128.57-44.18-156.09c-2.81-1.43-5.68-2.62-8.55-3.77a687 687 0 0 0 22.75-97.94c3.11 0 6.23-.06 9.39-.34 61.84-5.51 110.92-62.34 109.62-126.92s-52.47-112.47-114.31-107c-3.23.29-6.4.8-9.56 1.36a630.84 630.84 0 0 0-26.47-93.52c2.84-1.67 5.67-3.39 8.44-5.33 52.9-37.06 69.81-110.21 37.77-163.39S2207 1169.92 2154.13 1207c-2.71 1.9-5.26 4-7.78 6a558.16 558.16 0 0 0-68.61-64c1.75-2.85 3.45-5.75 5-8.79 29.79-58.69 10-128.57-44.19-156.09s-122.29-2.25-152.08 56.44c-1.55 3-2.88 6.13-4.16 9.22a558.61 558.61 0 0 0-92.19-17.6c.2-3.26.35-6.53.28-9.84-1.29-64.58-52.47-112.47-114.31-107s-110.91 62.34-109.61 126.92c.06 3.38.35 6.67.68 10A631.39 631.39 0 0 0 1476 1086c-1.41-2.88-2.87-5.74-4.54-8.52-32-53.18-100.9-66.24-153.81-29.17s-69.82 110.22-37.78 163.39c1.65 2.72 3.44 5.27 5.27 7.79a686.66 686.66 0 0 0-65.64 76.16c-2.63-1.64-5.28-3.25-8.09-4.68-54.2-27.51-122.29-2.25-152.09 56.44s-10 128.57 44.19 156.08c2.8 1.43 5.67 2.63 8.55 3.77a687.32 687.32 0 0 0-22.76 97.94c-3.1 0-6.22.06-9.39.34-61.83 5.52-110.91 62.34-109.62 126.92s52.48 112.47 114.31 107c3.23-.29 6.41-.8 9.56-1.36a629.79 629.79 0 0 0 26.48 93.53c-2.85 1.66-5.68 3.38-8.44 5.32-52.91 37.06-69.82 110.22-37.78 163.39s100.9 66.23 153.8 29.17c2.71-1.9 5.26-4 7.78-6a559.52 559.52 0 0 0 68.61 64c-1.74 2.86-3.45 5.75-5 8.79-29.8 58.69-10 128.57 44.18 156.09s122.29 2.25 152.09-56.44c1.54-3 2.87-6.12 4.15-9.21a559.82 559.82 0 0 0 92.19 17.59c-.19 3.27-.34 6.53-.28 9.85 1.3 64.57 52.47 112.46 114.31 106.95s110.91-62.33 109.62-126.92c-.07-3.37-.35-6.67-.69-9.95a629 629 0 0 0 91.13-33.82c1.41 2.88 2.88 5.75 4.55 8.52 32 53.18 100.9 66.24 153.8 29.17s69.82-110.21 37.78-163.39c-1.64-2.72-3.44-5.27-5.27-7.78a687 687 0 0 0 65.65-76.17c2.66 1.66 5.32 3.26 8.18 4.69zm-675.64 8.57c-196.78-99.91-268.61-353.63-160.42-566.71s355.4-304.81 552.18-204.9 268.61 353.64 160.43 566.71-355.46 304.85-552.24 204.9z" fill="url(#CC)"/><path d="M1921.14,1089.62s-11.23-1.56-7.73-23c2.75-16.82.67-22.47-3.3-19.49s-4.53,12.7-4.53,12.7-14.48-12.35-20.45-28.54-9.79-2.55-11.07,5.54,8.52,33.22,14,37.91,13.63,25.33,13.63,25.33Z" fill="url(#CD)"/><path d="M2367.73,2403s-74.45,33.84-75.67,39.24,47.88-1.81,67.92-1,36.53-5.14,34.72-13.63-8.83-29.84-8.83-29.84Z" fill="url(#CE)"/><path d="M2365,2375.57l4.52,33.52s11.79,4.2,19.71-.76l3.38-36.77Z" fill="url(#CF)"/><path d="M2715.62,2376.38l8.66,13.9a16.6,16.6,0,0,1,2,13c-3,11.56-9.07,34.09-11.71,40-3.59,8-51.77,12.76-51.77,12.76s-4.3-6.05,5.7-13.35,16.44-8.45,20-19.23,5.88-41.25,5.88-41.25Z" fill="url(#CG)"/><path d="M2679.57 2341.05c3.17 2.52 18.64 49.49 18.64 49.49s5 6.4 14.53-3.05l4.3-4.24-1.78-46.19z" fill="url(#CH)"/><path d="M2324 1702.13c-3.93 100-4.09 208.62 1.67 324.68a3659.34 3659.34 0 0 0 35.9 361c6.1.19 12.51.22 19.2 0q6.78-.2 13.13-.64a829.49 829.49 0 0 0 27.59-88.22 849 849 0 0 0 19.26-103.31c14.34-113.25-2.46-123.13 9.17-207.06 10.31-74.34 25-77.24 42.16-182.78 18.67-114.51 4.77-131.69-2-137.89-28.71-26.41-96.28-8.43-166.08 34.22z" fill="url(#CI)"/><path class="CV Ch" d="M2490.14 1667.92c-27.44-25.2-90.18-10-156.45 28.51 76.23 82.37 84.54 135.81 75.41 170.47-10.33 39.19-41.74 50.47-41.62 93.32.15 52.65 47.67 66.6 46.66 122.32-.67 36.84-21.55 36.46-26.48 82-5.84 53.84 21.44 72.39 12.61 112.23-3.8 17.13-14.65 39.53-45.55 62.6l6.89 48.44c6.1.19 12.51.23 19.2 0q6.78-.2 13.13-.64a829.49 829.49 0 0 0 27.59-88.22 849 849 0 0 0 19.26-103.31c14.34-113.25-2.46-123.13 9.17-207.06 10.31-74.34 25-77.24 42.16-182.78 18.67-114.5 4.77-131.68-1.98-137.88z" fill="url(#CJ)"/><path d="M2371.27,1700.45a2245.57,2245.57,0,0,1,307.8,658.8,40.1,40.1,0,0,0,22,3.4,40.87,40.87,0,0,0,24.89-13.44,646.71,646.71,0,0,0,5.71-159.44c-2.25-25.39-6.24-67.66-22.42-119.84-18.12-58.45-30.58-61.74-54.23-123.58-24.54-64.19-18.59-80.21-42.09-160.54A1060.72,1060.72,0,0,0,2560.42,1645Z" fill="url(#CK)"/><path d="M2346.69 1157.32s2.14 28.12 11.53 48.94c8.5 18.81 50.42 29.51 59 33.5s-15.26 17.18-39.49 20.38-93.81-.17-106.61-9 9.79-8.83 26.94-15.74 26.13-41.14 22.6-56.45 26.03-21.63 26.03-21.63z" fill="url(#CL)"/><path d="M2311.71 1135.82c-12.77-16.94-7.33-50.19 4.06-54.46 3.26-1.22 5.46.5 37.93 27.08 16.13 13.2 24 20 24.39 29.09.27 5.54-2.14 12.17-5.82 16.83-1.89 2.4-5 5.16-11.52 10.22l-7.21 5.66c-4.2 3.09-12 8.06-24.84 12.62a65.89 65.89 0 0 0 .28-11.47 58.12 58.12 0 0 0-2.79-14.62c-3.76-10.68-10.34-15.45-14.48-20.95z" fill="url(#CM)"/><path d="M2344.4 1179.34s-15.82 12.67-35.09 4.22c-17.25-7.57-5.45-48.13 8.89-52.44 4.78-1.44 12.74.13 18.25 4.08 3.25 2.33 3.93 4.28 9.32 8 5 3.41 6.75 3.37 7.9 5.37 1.43 2.49 1.4 7.32-6.26 17.65 4.61-2.2 9.13-2 11.5.36a6.33 6.33 0 0 1 1.52 3.14c.83 5.41-5.43 9.69-16.03 9.62z" fill="url(#CN)"/><path d="M2638.31 1735.75c-27.39 24.81-74.83 26.82-85.19 27.26-48.74 2.07-55.7-19.09-103.92-17s-61.12 24.15-95.41 15.33c-6.08-1.56-29.81-8.47-55-41.42-71.47-93.4-11.73-196.17-83-328.28-10.74-19.92-20.19-37.44-39.19-56.23-61.48-60.8-120.11-33.15-197.59-81.94-63.57-40-106.23-120.5-87.78-156.77 8.36-16.44 15.6-14.27 26.83-15.59 18.87 32 65.57 71 119.28 93.74 51 21.55 90.24 11.25 168.23 12.34 47.66.67 129.48 1.81 194.36 25 162.25 58.09 222.32 255.6 240.08 314 15.53 51.06 49.52 163.18-1.7 209.56z" fill="url(#CO)"/><path class="Cb Ch" d="M2505.42 1690.89c17.69-22.82-73.58-85.68-61.34-159 10.32-61.75 83.51-67.92 102.23-124.94 8.08-24.64 6.56-60.51-27.85-113.89 75.46 81.84 109 192 121.55 233.15 15.53 51 49.52 163.17-1.7 209.55-27.39 24.81-74.83 26.82-85.19 27.26-48.74 2.07-55.7-19.09-103.92-17s-61.12 24.15-95.41 15.33c-6.08-1.56-29.81-8.47-55-41.42-.37-.49-.69-1-1.06-1.48 19-18.15 41.88-32.78 69.15-38.88 67.12-15.05 124.21 29.8 138.54 11.32z" fill="url(#CP)"/><path d="M2760.94 909.08c24.44 8.42 51.64-6.21 60.75-32.67s-3.3-54.73-27.73-63.15c-1.27-.43-2.55-.77-3.82-1.09a292.45 292.45 0 0 0 3.85-42.58c1.31-.18 2.62-.38 3.94-.69 25.72-5.94 43.06-32.74 38.74-59.86s-28.68-44.3-54.4-38.36c-1.34.31-2.65.71-3.95 1.13a268 268 0 0 0-16.61-37.81c1.1-.87 2.19-1.76 3.24-2.74 20.11-18.7 23-50.5 6.36-71s-46.37-22-66.49-3.29l-2.92 3a238.51 238.51 0 0 0-32.64-23c.56-1.3 1.12-2.62 1.59-4 9.11-26.46 21.76-55.74-2.8-63.77-56.83-18.59-76.58 6.82-85.69 33.28-.47 1.37-.85 2.74-1.21 4.12a239.15 239.15 0 0 0-39.86-2c-.11-1.38-.23-2.77-.46-4.16-4.32-27.12 1.71-43-24.5-39.84-57.16 6.81-73 34.22-68.64 61.34.23 1.42.54 2.79.87 4.16a267.83 267.83 0 0 0-36.4 19.57c-.76-1.13-1.54-2.25-2.41-3.33-16.61-20.52-46.37-22-66.48-3.29s-23 50.51-6.36 71c.85 1.05 1.76 2 2.67 3a292.75 292.75 0 0 0-23.19 35.91c-1.2-.53-2.41-1.06-3.68-1.49-24.43-8.42-51.63 6.2-60.75 32.66s3.3 54.73 27.74 63.15c1.26.44 2.54.78 3.82 1.09a291.21 291.21 0 0 0-3.86 42.58c-1.31.19-2.62.39-3.93.69-25.72 5.94-43.07 32.74-38.75 59.87s28.68 44.29 54.4 38.36c1.34-.31 2.65-.71 3.95-1.13a268 268 0 0 0 16.61 37.84c-1.09.87-2.19 1.76-3.24 2.73-20.11 18.71-23 50.5-6.35 71s62.72 24.72 82.83 6c1-1-14.37-4.69-13.43-5.72a237.64 237.64 0 0 0 32.64 23c-.56 1.31-1.11 2.63-1.59 4-9.11 26.45 3.31 54.73 27.74 63.15s51.64-6.2 60.75-32.66c.48-1.37.85-2.75 1.21-4.13a237.08 237.08 0 0 0 39.86 2c.11 1.39.24 2.77.46 4.16 4.32 27.13 28.67 44.3 54.39 38.36s43.07-32.74 38.75-59.86c-.23-1.42-.54-2.79-.87-4.15a268.34 268.34 0 0 0 36.4-19.57c.76 1.13 1.55 2.25 2.41 3.32 16.61 20.52 46.37 22 66.49 3.29s23-50.5 6.35-71c-.85-1.05-1.76-2-2.67-3a292.88 292.88 0 0 0 23.19-35.92c1.2.54 2.41 1.06 3.68 1.5zm-284.05 43.12c-88.72-30.57-133.81-133.23-100.71-229.3S2508 573.74 2596.76 604.32s133.81 133.22 100.71 229.29-131.86 149.16-220.58 118.59z" fill="url(#CQ)"/><path d="M2797.93 768.9c25.72-5.94 43.06-32.74 38.74-59.86s-28.68-44.3-54.4-38.36c-1.34.31-2.65.71-3.94 1.13a269.18 269.18 0 0 0-16.62-37.81c1.1-.87 2.19-1.76 3.24-2.74 20.11-18.7 42.44-60.25 23.82-79-35.34-35.51-63.83-14.06-83.95 4.65l-2.92 3a238.51 238.51 0 0 0-32.64-23c.56-1.3 1.12-2.62 1.59-4a52.38 52.38 0 0 0-2.76-41.3q-24.39 61.3-47.75 123c72.85 39.27 107.15 131.82 77.13 219-25.45 73.84-89.68 122.24-158.33 126.83l-6 24.84c-5.87 22.36-13 44.44-20.16 66.51q9.71.46 19.37.15c.11 1.39.24 2.77.46 4.16 4.32 27.13 24 47.94 70.89 38.89 25.92-5 26.57-33.27 22.25-60.39-.23-1.42-.54-2.79-.87-4.15a268.94 268.94 0 0 0 36.4-19.57c.76 1.13 1.55 2.25 2.41 3.32 16.61 20.52 64.74 23.54 84.85 4.83s4.59-52-12-72.56c-.85-1.05-1.76-2-2.67-3a292.88 292.88 0 0 0 23.19-35.92c1.2.54 2.41 1.06 3.68 1.5 24.44 8.42 51.64-6.21 60.75-32.67s-3.3-54.73-27.73-63.15c-1.27-.43-2.55-.77-3.82-1.09a292.44 292.44 0 0 0 3.86-42.54c1.3-.19 2.61-.39 3.93-.7z" fill="url(#CR)"/><path d="M2822.87 768.27c25.72-5.93 43.05-32.72 38.73-59.84s-28.66-44.32-54.4-38.36a36.16 36.16 0 0 0-3.94 1.14 268.36 268.36 0 0 0-16.61-37.86c1.09-.86 2.18-1.75 3.25-2.72 20.11-18.72 22.95-50.52 6.36-71s-46.38-22-66.49-3.3l-2.94 3a236.77 236.77 0 0 0-32.62-22.95c.56-1.32 1.11-2.63 1.57-4 9.12-26.48-3.3-54.75-27.73-63.15s-51.63 6.2-60.75 32.65a51.81 51.81 0 0 0-1.2 4.11 239.29 239.29 0 0 0-39.85-2l-.46-4.15c-4.33-27.12-28.68-44.29-54.4-38.37s-43.08 32.73-38.75 59.85c.23 1.44.54 2.82.87 4.16A268.58 268.58 0 0 0 2437.1 545c-.75-1.13-1.55-2.26-2.41-3.32a43.54 43.54 0 0 0-41.15-15.84 47.73 47.73 0 0 0-25.33 12.54c-20.11 18.71-22.95 50.48-6.36 71 .85 1 1.75 2 2.68 3a291.55 291.55 0 0 0-23.2 35.93 35.89 35.89 0 0 0-3.68-1.5c-24.44-8.43-51.63 6.2-60.76 32.65s3.3 54.74 27.73 63.15a36.08 36.08 0 0 0 3.84 1.08 288.59 288.59 0 0 0-3.85 42.59c-1.33.19-2.63.39-3.94.7-25.72 5.93-43.08 32.72-38.75 59.87s28.68 44.29 54.39 38.36c1.34-.33 2.64-.72 3.94-1.14a264.73 264.73 0 0 0 16.64 37.83c-1.12.89-2.2 1.78-3.25 2.75-20.11 18.69-22.95 50.48-6.36 71s46.38 22 66.49 3.3c1-1 2-2 2.91-3a238.13 238.13 0 0 0 32.65 23c-.56 1.28-1.11 2.6-1.6 4-9.09 26.45 3.33 54.71 27.76 63.15s51.63-6.2 60.75-32.68c.46-1.36.83-2.74 1.2-4.12a236 236 0 0 0 39.85 2c.11 1.4.24 2.77.46 4.15 4.33 27.15 28.69 44.32 54.4 38.39s43.08-32.76 38.75-59.87c-.22-1.42-.53-2.79-.87-4.16a269.58 269.58 0 0 0 36.41-19.56c.75 1.13 1.52 2.23 2.41 3.32 16.59 20.52 46.37 22 66.48 3.27a54 54 0 0 0 14.45-56.29 47.82 47.82 0 0 0-8.09-14.72c-.85-1.06-1.76-2-2.68-3a298.88 298.88 0 0 0 23.2-35.92c1.2.54 2.39 1 3.66 1.5 24.43 8.4 51.66-6.2 60.75-32.68s-3.29-54.71-27.73-63.15c-1.27-.44-2.52-.77-3.81-1.09a294 294 0 0 0 3.85-42.58 36.6 36.6 0 0 0 3.94-.64zM2722.4 833c-22.45 65.16-75.12 110.55-134.34 123.46a159 159 0 0 1-86.22-4.87C2413.11 921 2368 818.37 2401.11 722.3c14.8-43 42.71-77.29 77-99.42 42.38-27.41 94.55-36.1 143.61-19.18 88.71 30.56 133.78 133.23 100.68 229.3z" fill="url(#CS)"/><path class="Cf Cg Ch" d="M2755.33 1016.86c-20.11 18.72-49.89 17.25-66.48-3.27-.89-1.09-1.66-2.19-2.41-3.32a269.58 269.58 0 0 1-36.41 19.56c.34 1.37.65 2.74.87 4.16 4.33 27.11-13 53.91-38.75 59.87s-50.07-11.24-54.4-38.39c-.22-1.38-.35-2.75-.46-4.15a236 236 0 0 1-39.85-2c-.37 1.38-.74 2.76-1.2 4.12-9.12 26.48-36.31 41.08-60.75 32.68s-36.85-36.7-27.76-63.15c.49-1.39 1-2.71 1.6-4a238.13 238.13 0 0 1-32.65-23c-.91 1-1.9 2-2.91 3-20.11 18.71-49.89 17.24-66.49-3.3s-13.75-52.32 6.36-71c1.05-1 2.13-1.86 3.25-2.75a264.73 264.73 0 0 1-16.64-37.83c-1.3.42-2.6.81-3.94 1.14-25.71 5.93-50.07-11.24-54.39-38.36s13-53.94 38.75-59.87c1.31-.31 2.61-.51 3.94-.7a288.59 288.59 0 0 1 3.85-42.59 36.08 36.08 0 0 1-3.84-1.08c-24.43-8.41-36.85-36.7-27.73-63.15s36.32-41.08 60.76-32.65a35.89 35.89 0 0 1 3.68 1.5 291.55 291.55 0 0 1 23.2-35.93c-.93-1-1.83-1.93-2.68-3-16.59-20.55-13.75-52.32 6.36-71a47.73 47.73 0 0 1 25.33-12.54c34.93 24.13 68.79 56.47 84.56 97-34.28 22.13-62.19 56.46-77 99.42-33.1 96.07 12 198.71 100.73 229.29a159 159 0 0 0 86.22 4.87c43.6 24.94 102.92 30.85 181.72 4.11a54 54 0 0 1-14.44 56.31z"/></g></svg>