<svg xmlns="http://www.w3.org/2000/svg" xmlns:xlink="http://www.w3.org/1999/xlink" viewBox="0 0 427.16 406.33" xmlns:v="https://vecta.io/nano"><style><![CDATA[.P{fill:#ffc727}.Q{fill:#ebebeb}.R{fill:#fff}.S{fill:#263238}.T{fill:#455a64}.U{fill:#f7a9a0}.V{fill:#c7c7c7}.W{fill:#37474f}.X{fill:#a6a6a6}.Y{fill:#dbdbdb}.Z{stroke-miterlimit:10}]]></style><path d="M2.53 228.24l13.13-.24 6.66-.12h6.69.45v.45l.05 11.19v.51H29l-13.24-.06c-4.41 0-8.82-.11-13.24-.16h-.26v-.27c0-1.89.09-3.78.13-5.65zm0 0l.15 5.66c0 1.86.11 3.7.13 5.53l-.28-.27 13.24-.16 13.23-.07-.49.5.05-11.19.44.45c-2.18 0-4.35 0-6.54-.06l-6.58-.11zm275.15-86.26H251.2v-11.19h26.48zM266 116.68l13.13-.28 6.66-.11 6.69-.06h.45v.45l.05 11.19v.5h-.51l-13.24-.06c-4.41 0-8.82-.12-13.24-.17h-.27v-.27c0-1.9.09-3.79.13-5.65zm0 0l.15 5.65c0 1.87.11 3.71.13 5.54l-.28-.27 13.24-.17 13.24-.06-.49.5.05-11.19.44.44c-2.18 0-4.35 0-6.54-.05l-6.58-.11zm-29.57 0l13.13-.28 6.66-.11 6.69-.06h.44v.45l.05 11.19v.5h-.5l-13.24-.06c-4.41 0-8.83-.12-13.24-.17h-.28v-.27c0-1.9.08-3.79.13-5.65zm0 0l.14 5.65.13 5.54-.27-.27 13.24-.17 13.24-.06-.5.5.06-11.19.44.44c-2.18 0-4.36 0-6.54-.05l-6.58-.11zm173.42-96l-13.12.32-6.66.11-6.7.05h-.44v-.45l-.06-11.19V9h.5l13.24.06 13.24.16h.28v.27l-.14 5.65zm0 0l-.14-5.68-.13-5.53.27.27-13.24.16-13.24.1.5-.5-.05 11.19-.45-.45 6.55.06 6.58.11zm-11.71 2.92h26.48v11.19h-26.48zM29 20.69L15.89 21l-6.66.11-6.7.05h-.44v-.45L2 9.5V9h.5l13.24.06 13.24.17h.28v.27l-.13 5.65zm0 0L28.87 15l-.13-5.54.27.27-13.24.17-13.24.1.47-.5v11.19l-.45-.45 6.55.06 6.58.11zm299.01 297.05h-26.48v-11.19h26.48zm70.13-85.32l13.13-.28 6.66-.11 6.69-.05h.45v.45l.05 11.19v.51h-.51l-13.24-.06c-4.41 0-8.82-.11-13.24-.16h-.27v-.27c0-1.9.09-3.78.13-5.65zm0 0l.15 5.66c0 1.86.11 3.7.13 5.53l-.28-.27 13.24-.16 13.24-.07-.5.5.06-11.19.44.45c-2.18 0-4.35 0-6.54-.06l-6.58-.11zm-285.26 141.1H86.4v-11.19h26.48zm203.43-81.07l13.12-.28 6.66-.11 6.7-.06h.44v.45l.06 11.19v.5h-.5l-13.24-.07c-4.41 0-8.83-.11-13.24-.16H316v-.27c0-1.9.08-3.79.13-5.66zm0 0l.14 5.65.13 5.54-.27-.28 13.24-.16 13.24-.06-.5.5v-11.19l.45.44c-2.18 0-4.36 0-6.55-.05l-6.58-.11zM18.56 116.89a3.72 3.72 0 0 1 3.92 0l1 .57 1.05.53a3.73 3.73 0 0 1 2.18 3.24l.15 4.83 15.73-.49-.15-4.86a3.69 3.69 0 0 1 2-3.36 21.8 21.8 0 0 0 2-1.21 3.78 3.78 0 0 1 3.94-.27l4.25 2.28L62 104.31 57.76 102a3.76 3.76 0 0 1-1.95-3.43 21.81 21.81 0 0 0-.08-2.29 3.75 3.75 0 0 1 1.7-3.52l4.13-2.56-8.29-13.34-4.12 2.55a3.66 3.66 0 0 1-3.85 0l-1.07-.61-1.09-.55A3.68 3.68 0 0 1 41 75l-.15-4.84-15.72.49.15 4.82a3.68 3.68 0 0 1-1.91 3.35 23.52 23.52 0 0 0-2.13 1.32 3.64 3.64 0 0 1-3.84.21l-4.24-2.27L5.73 92 10 94.26a3.77 3.77 0 0 1 1.95 3.44A21.81 21.81 0 0 0 12 100a3.73 3.73 0 0 1-1.71 3.52l-4.12 2.55 8.29 13.37zm3.24-23.3a12.89 12.89 0 1 1 4.54 15 12.9 12.9 0 0 1-4.54-15zm399.63 113.78l-5.51-9.54-2.92 1.68a2.62 2.62 0 0 1-2.75-.09 15.38 15.38 0 0 0-1.42-.82 2.61 2.61 0 0 1-1.45-2.33v-3.38h-11v3.38a2.63 2.63 0 0 1-1.45 2.33 15.55 15.55 0 0 0-1.43.82 2.6 2.6 0 0 1-2.74.09l-2.92-1.68-5.51 9.54 2.93 1.69a2.63 2.63 0 0 1 1.29 2.43v.82.81a2.62 2.62 0 0 1-1.28 2.42l-2.94 1.7 5.51 9.54 2.93-1.69a2.63 2.63 0 0 1 2.74.1 14.48 14.48 0 0 0 1.42.82 2.63 2.63 0 0 1 1.45 2.33v3.38h11v-3.38a2.62 2.62 0 0 1 1.44-2.33 12.47 12.47 0 0 0 1.42-.82 2.64 2.64 0 0 1 2.75-.1l2.93 1.69 5.51-9.54-2.93-1.69a2.63 2.63 0 0 1-1.28-2.43v-.81-.82a2.63 2.63 0 0 1 1.28-2.43zm-10.54 4.94a9 9 0 1 1-9-9 9 9 0 0 1 9 9zM117.34 24.58L111.83 15l-2.92 1.69a2.62 2.62 0 0 1-2.75-.09 15.48 15.48 0 0 0-1.42-.83 2.6 2.6 0 0 1-1.45-2.33V10.1h-11v3.37a2.61 2.61 0 0 1-1.45 2.33 14.25 14.25 0 0 0-1.42.83 2.62 2.62 0 0 1-2.75.09L83.72 15l-5.51 9.55 2.93 1.69a2.63 2.63 0 0 1 1.29 2.43v.81.81a2.6 2.6 0 0 1-1.28 2.42l-2.94 1.71L83.72 44l2.93-1.69a2.63 2.63 0 0 1 2.74.1c.46.3.94.57 1.42.82a2.61 2.61 0 0 1 1.45 2.33v3.37h11v-3.38a2.62 2.62 0 0 1 1.44-2.33 14.17 14.17 0 0 0 1.42-.82 2.64 2.64 0 0 1 2.75-.1l2.96 1.7 5.51-9.54-2.93-1.7a2.6 2.6 0 0 1-1.28-2.42v-.82-.81a2.62 2.62 0 0 1 1.28-2.43zm-10.54 4.93a9 9 0 1 1-9-9 9 9 0 0 1 9 9z" class="Q"/><path d="M46.66 234.71v170.71h103.2V234.71zM56 298h84.46v44.44H56zm0-55h84.46v44.4H56z" class="Y"/><path d="M46.66 405.42H0v-170.7h46.66zm93.83-118.03h-20.07v-44.44h20.07z" class="Q"/><path d="M139.96 394.7H56.03v-42.37h83.93z" fill="none" stroke="#ebebeb" stroke-width=".5" class="Z"/><path d="M106.33 370.34H89.66v-6.09h16.67zm34.16-27.92h-20.07v-44.44h20.07z" class="Q"/><path d="M81.7 301.45v40.97H67.58v-40.97z" class="X"/><path d="M81.71 327.01v8.84H67.59v-8.84zm-.01-12.37v5.24H67.58v-5.24z" class="Y"/><path d="M74.69 234.67H39.01v-34.29h35.68z" class="Q"/><g class="V"><path d="M39.01 234.67H25.45v-34.29h13.56z"/><path d="M74.69 217.53H39.01l27.87.88 7.81-.88zm-35.68 13h35.68l-27.87.88-7.81-.88zm35.68-22.59h-22.6l20.09.72 2.51-.72zm-35.68 17.54h22.6l-20.09.72-2.51-.72zm27.12-21.35H40.64l4.25.43 21.24-.43zm5.09 17.07H45.73l4.25.43 21.24-.43z"/></g><path d="M55.55 211.21H39.01l-2.96 1.15 19.5-1.15zm23.7 0H62.71l-2.95 1.15 19.49-1.15zm-21.22 15.41h16.53l2.96 1.15-19.49-1.15z" class="Q"/><path d="M39.01 222.7H25.73l-2.96 1.16 16.24-1.16zm-4.64-5.17h-10.3l1.38-.95 8.92.95z" class="V"/><path d="M115.86 287.4H80.18v-34.29h35.68z" class="Q"/><g class="V"><path d="M80.18 287.4H66.62v-34.29h13.56z"/><path d="M115.86 270.26H80.18l27.87.88 7.81-.88zm-35.68 13h35.68l-27.86.88-7.82-.88zm35.68-22.59h-22.6l20.09.72 2.51-.72zm-35.68 17.54h22.6l-20.09.72-2.51-.72zm27.12-21.35H81.81l4.25.43 21.24-.43zm5.09 17.07H86.9l4.25.44 21.24-.44z"/></g><path d="M96.72 263.94H80.18l-2.95 1.15 19.49-1.15zm23.7 0h-16.54l-2.95 1.15 19.49-1.15zM99.2 279.35h16.54l2.95 1.15-19.49-1.15z" class="Q"/><path d="M80.18 275.44H66.9l-2.95 1.15 16.23-1.15zm-4.63-5.18h-10.3l1.37-.95 8.93.95z" class="V"/><path d="M56.03 298.71h11.55v43.71H56.03z" class="Q"/><path d="M61.81 307.34a2.41 2.41 0 1 0-2.41-2.41 2.4 2.4 0 0 0 2.41 2.41z" class="R"/><path d="M61.81 306.31a1.38 1.38 0 1 0-1.38-1.38 1.37 1.37 0 0 0 1.38 1.38z" class="X"/><path d="M67.59 324.9v10.63H56.04V324.9z" class="R"/><path d="M81.71 333.4h43.71v9.09H81.71z" class="V"/><path d="M90.33 337.94a2.41 2.41 0 1 0-2.41 2.41 2.4 2.4 0 0 0 2.41-2.41z" class="R"/><path d="M89.3 337.94a1.38 1.38 0 1 0-1.38 1.38 1.37 1.37 0 0 0 1.38-1.38z" class="X"/><path d="M107.89 333.4h10.63v9.09h-10.63z" class="R"/><g class="V"><path d="M231 64.11l50.36-26.41-19.49-34.16-50.36 26.41L231 64.11z"/><path d="M242.05 9.33L259.85 0l2.02 3.54-18.82 9.86-1-4.07z"/></g><g class="Y"><path d="M231.06 64.08l50.35-26.41-14.53-33.08L216.53 31l14.53 33.08z"/><path d="M247.59 10.49l17.79-9.33 1.5 3.43-18.81 9.87-.48-3.97zm16.89 66.58l68.56-11.67-9.76-47.11-68.56 11.68 9.76 47.1z"/><path d="M298.05 17.54l24.22-4.13 1.01 4.88-25.61 4.36.38-5.11z"/></g><g class="Q"><path d="M264.55 77.06l68.56-11.67-4.39-43.98-68.56 11.68 4.39 43.97z"/><path d="M304.04 20.98l24.23-4.12.45 4.55-25.61 4.36.93-4.79z"/></g><path d="M0 405.42l53.4-.24 53.39-.09 106.79-.17 106.79.17 53.39.09 53.4.24-53.4.25-53.39.08-106.79.17-106.79-.17-53.39-.09-53.4-.24z" class="S"/><use xlink:href="#B" class="P"/><use xlink:href="#B" opacity=".1"/><path d="M282.49 71.73a16.43 16.43 0 0 0 15.2 16.38h0 93a19.3 19.3 0 0 0 1.8-38.52 32.52 32.52 0 0 0-63-10.17 19.08 19.08 0 0 0-8.63-2 19.3 19.3 0 0 0-19.27 18.11 15.6 15.6 0 0 0-2.67-.22 16.42 16.42 0 0 0-16.43 16.42z" class="P"/><path d="M339.82 88.15H362a0 0 0 0 1 0 0v17.67a4.46 4.46 0 0 1-4.46 4.46h-13.26a4.46 4.46 0 0 1-4.46-4.46V88.15a0 0 0 0 1 0 0z" class="W"/><path d="M345.66 110.29h10.46v3.23h-10.46z" class="T"/><use xlink:href="#C" class="R"/><use xlink:href="#C" x="7.82" class="P"/><path d="M352.01 91.36l-2.39 3.55h1.18l-1.18 3.08 2.53-3.7h-1.31l1.17-2.93z" class="R"/><path d="M350.89,113.52V265.88a4.63,4.63,0,0,1-4.63,4.63H311.61" fill="none" stroke="#ffc727" stroke-width="3" class="Z"/><path d="M128.15 159.65h65.18v245.78h-65.18z" class="S"/><g class="W"><path d="M193.33 159.65h119.96v245.78H193.33z"/><use xlink:href="#D"/></g><g class="T"><use xlink:href="#E"/><use xlink:href="#E" y="3.5"/><use xlink:href="#E" y="6.99"/><path d="M206.68 387.98h58.89V390h-58.89z"/><use xlink:href="#E" y="13.99"/></g><g class="P"><circle cx="274.31" cy="379.49" r="2"/><use xlink:href="#C" x="-66.1" y="276.68"/><use xlink:href="#C" x="-59.5" y="276.68"/></g><circle cx="294.09" cy="379.49" r="2" class="Q"/><use xlink:href="#C" x="-46.31" y="276.68" class="P"/><use xlink:href="#C" x="-72.69" y="282.68" class="Q"/><g class="P"><use xlink:href="#C" x="-66.1" y="282.68"/><use xlink:href="#C" x="-59.5" y="282.68"/></g><g class="Q"><use xlink:href="#C" x="-52.91" y="282.68"/><use xlink:href="#C" x="-46.31" y="282.68"/></g><circle cx="274.31" cy="391.49" r="2" class="P"/><use xlink:href="#C" x="-66.1" y="288.68" class="Q"/><g class="P"><use xlink:href="#C" x="-59.5" y="288.68"/><circle cx="294.09" cy="391.49" r="2"/><use xlink:href="#C" x="-46.31" y="288.68"/></g><path d="M268.52 377.49h1.15v16h-1.15z" class="S"/><use xlink:href="#D" y="-28.79" class="W"/><g class="T"><use xlink:href="#E" y="-28.8"/><use xlink:href="#E" y="-25.3"/><use xlink:href="#E" y="-21.81"/><use xlink:href="#E" y="-18.31"/><use xlink:href="#E" y="-14.81"/></g><use xlink:href="#C" x="-72.69" y="247.88" class="Q"/><g class="P"><use xlink:href="#C" x="-66.1" y="247.88"/><use xlink:href="#C" x="-59.5" y="247.88"/></g><use xlink:href="#C" x="-52.91" y="247.88" class="Q"/><g class="P"><use xlink:href="#C" x="-46.31" y="247.88"/><use xlink:href="#C" x="-72.69" y="253.88"/><use xlink:href="#C" x="-66.1" y="253.88"/></g><g class="Q"><use xlink:href="#C" x="-59.5" y="253.88"/><use xlink:href="#C" x="-52.91" y="253.88"/></g><g class="P"><use xlink:href="#C" x="-46.31" y="253.88"/><use xlink:href="#C" x="-72.69" y="259.88"/></g><use xlink:href="#C" x="-66.1" y="259.88" class="Q"/><g class="P"><use xlink:href="#C" x="-59.5" y="259.88"/><use xlink:href="#C" x="-52.91" y="259.88"/></g><use xlink:href="#C" x="-46.31" y="259.88" class="Q"/><path d="M268.52 348.69h1.15v16h-1.15z" class="S"/><use xlink:href="#D" y="-57.59" class="W"/><g class="T"><use xlink:href="#E" y="-57.6"/><use xlink:href="#E" y="-54.1"/><use xlink:href="#E" y="-50.6"/><use xlink:href="#E" y="-47.11"/><use xlink:href="#E" y="-43.61"/></g><circle cx="274.31" cy="321.89" r="2" class="Q"/><use xlink:href="#C" x="-66.1" y="219.08" class="P"/><use xlink:href="#C" x="-59.5" y="219.08" class="Q"/><g class="P"><circle cx="294.09" cy="321.89" r="2"/><use xlink:href="#C" x="-46.31" y="219.08"/><use xlink:href="#C" x="-72.69" y="225.08"/></g><g class="Q"><use xlink:href="#C" x="-66.1" y="225.08"/><use xlink:href="#C" x="-59.5" y="225.08"/></g><use xlink:href="#C" x="-52.91" y="225.08" class="P"/><g class="Q"><use xlink:href="#C" x="-46.31" y="225.08"/><use xlink:href="#C" x="-72.69" y="231.08"/></g><g class="P"><use xlink:href="#C" x="-66.1" y="231.08"/><use xlink:href="#C" x="-59.5" y="231.08"/></g><use xlink:href="#C" x="-52.91" y="231.08" class="Q"/><use xlink:href="#C" x="-46.31" y="231.08" class="P"/><path d="M268.52 319.89h1.15v16h-1.15z" class="S"/><use xlink:href="#D" y="-86.39" class="W"/><g class="T"><use xlink:href="#E" y="-86.39"/><use xlink:href="#E" y="-82.9"/><use xlink:href="#E" y="-79.4"/><use xlink:href="#E" y="-75.91"/><use xlink:href="#E" y="-72.41"/></g><g class="P"><use xlink:href="#C" x="-72.69" y="190.29"/><use xlink:href="#C" x="-66.1" y="190.29"/><use xlink:href="#C" x="-59.5" y="190.29"/><use xlink:href="#C" x="-52.91" y="190.29"/></g><g class="Q"><use xlink:href="#C" x="-46.31" y="190.29"/><circle cx="274.31" cy="299.1" r="2"/><use xlink:href="#C" x="-66.1" y="196.29"/></g><use xlink:href="#C" x="-59.5" y="196.29" class="P"/><circle cx="294.09" cy="299.1" r="2" class="Q"/><g class="P"><use xlink:href="#C" x="-46.31" y="196.29"/><use xlink:href="#C" x="-72.69" y="202.29"/><use xlink:href="#C" x="-66.1" y="202.29"/></g><use xlink:href="#C" x="-59.5" y="202.29" class="Q"/><use xlink:href="#C" x="-52.91" y="202.29" class="P"/><use xlink:href="#C" x="-46.31" y="202.29" class="Q"/><path d="M268.52 291.1h1.15v16h-1.15z" class="S"/><use xlink:href="#D" y="-115.19" class="W"/><g class="T"><use xlink:href="#E" y="-115.19"/><use xlink:href="#E" y="-111.7"/><use xlink:href="#E" y="-108.2"/><use xlink:href="#E" y="-104.7"/><use xlink:href="#E" y="-101.21"/></g><g class="P"><use xlink:href="#C" x="-72.69" y="161.49"/><use xlink:href="#C" x="-66.1" y="161.49"/><use xlink:href="#C" x="-59.5" y="161.49"/><use xlink:href="#C" x="-52.91" y="161.49"/></g><g class="Q"><use xlink:href="#C" x="-46.31" y="161.49"/><use xlink:href="#C" x="-72.69" y="167.49"/></g><g class="P"><use xlink:href="#C" x="-66.1" y="167.49"/><use xlink:href="#C" x="-59.5" y="167.49"/></g><use xlink:href="#C" x="-52.91" y="167.49" class="Q"/><use xlink:href="#C" x="-46.31" y="167.49" class="P"/><g class="Q"><use xlink:href="#C" x="-72.69" y="173.49"/><use xlink:href="#C" x="-66.1" y="173.49"/></g><g class="P"><use xlink:href="#C" x="-59.5" y="173.49"/><use xlink:href="#C" x="-52.91" y="173.49"/></g><use xlink:href="#C" x="-46.31" y="173.49" class="Q"/><path d="M268.52 262.3h1.15v16h-1.15z" class="S"/><use xlink:href="#D" y="-143.99" class="W"/><g class="T"><use xlink:href="#E" y="-143.99"/><use xlink:href="#E" y="-140.5"/><use xlink:href="#E" y="-137"/><use xlink:href="#E" y="-133.5"/><use xlink:href="#E" y="-130.01"/></g><use xlink:href="#C" x="-72.69" y="132.69" class="Q"/><g class="P"><use xlink:href="#C" x="-66.1" y="132.69"/><use xlink:href="#C" x="-59.5" y="132.69"/></g><use xlink:href="#C" x="-52.91" y="132.69" class="Q"/><g class="P"><use xlink:href="#C" x="-46.31" y="132.69"/><use xlink:href="#C" x="-72.69" y="138.69"/></g><use xlink:href="#C" x="-66.1" y="138.69" class="Q"/><g class="P"><use xlink:href="#C" x="-59.5" y="138.69"/><use xlink:href="#C" x="-52.91" y="138.69"/></g><use xlink:href="#C" x="-46.31" y="138.69" class="Q"/><g class="P"><use xlink:href="#C" x="-72.69" y="144.69"/><use xlink:href="#C" x="-66.1" y="144.69"/></g><g class="Q"><use xlink:href="#C" x="-59.5" y="144.69"/><use xlink:href="#C" x="-52.91" y="144.69"/></g><use xlink:href="#C" x="-46.31" y="144.69" class="P"/><path d="M268.52 233.5h1.15v16h-1.15z" class="S"/><use xlink:href="#D" y="-201.59" class="T"/><use xlink:href="#F" class="R"/><g class="P"><path d="M211.97 181.27h32.17v5.27h-32.17z"/><use xlink:href="#G"/></g><g class="R"><use xlink:href="#G" x="10.64"/><use xlink:href="#H"/></g><use xlink:href="#D" y="-172.79" class="T"/><use xlink:href="#F" y="28.8" class="R"/><g class="P"><path d="M211.97 210.07h42.08v5.27h-42.08z"/><use xlink:href="#I"/></g><g class="R"><use xlink:href="#I" x="10.64"/><path d="M298.5 212.7a2.78 2.78 0 1 1-2.77-2.78 2.78 2.78 0 0 1 2.77 2.78z"/></g><use xlink:href="#D" y="-143.99" class="T"/><use xlink:href="#F" y="57.59" class="R"/><g class="P"><path d="M211.97 238.86h8.85v5.27h-8.85z"/><use xlink:href="#I" y="28.8"/></g><g class="R"><use xlink:href="#I" x="10.64" y="28.8"/><path d="M298.5 241.5a2.78 2.78 0 1 1-2.77-2.78 2.78 2.78 0 0 1 2.77 2.78z"/></g><use xlink:href="#D" y="-115.19" class="T"/><use xlink:href="#F" y="86.39" class="R"/><g class="P"><path d="M211.97 267.66h32.17v5.27h-32.17z"/><use xlink:href="#G" y="86.4"/></g><g class="R"><use xlink:href="#G" x="10.64" y="86.4"/><use xlink:href="#H" y="86.4"/></g><use xlink:href="#D" y="-86.39" class="T"/><use xlink:href="#F" y="115.19" class="R"/><g class="P"><path d="M211.97 296.46h43.73v5.27h-43.73z"/><use xlink:href="#G" y="115.2"/></g><g class="R"><use xlink:href="#G" x="10.64" y="115.2"/><use xlink:href="#H" y="115.2"/></g><use xlink:href="#D" y="-57.59" class="T"/><use xlink:href="#F" y="143.99" class="R"/><g class="P"><path d="M211.97 325.26h35.91v5.27h-35.91z"/><use xlink:href="#J"/></g><g class="R"><use xlink:href="#J" x="10.64"/><path d="M298.5 327.89a2.78 2.78 0 1 1-2.77-2.77 2.77 2.77 0 0 1 2.77 2.77z"/></g><use xlink:href="#D" y="-28.79" class="T"/><use xlink:href="#F" y="172.79" class="R"/><g class="P"><path d="M211.97 354.06h18.97v5.27h-18.97z"/><use xlink:href="#J" y="28.8"/></g><g class="R"><use xlink:href="#J" x="10.64" y="28.8"/><path d="M298.5 356.69a2.78 2.78 0 1 1-2.77-2.77 2.77 2.77 0 0 1 2.77 2.77z"/></g><use xlink:href="#D" class="T"/><use xlink:href="#F" y="201.59" class="R"/><g class="P"><path d="M211.97 382.86h37.19v5.27h-37.19z"/><use xlink:href="#G" y="201.59"/></g><g class="R"><use xlink:href="#G" x="10.64" y="201.59"/><use xlink:href="#H" y="201.59"/></g><path d="M152.52 152.07h136.39v7.58H152.52z" class="S"/><g class="P"><path d="M311.85 405.42h93.78l-10.27-64.83h-93.78l10.27 64.83z"/><path d="M361.16 333.88h33.14l1.06 6.71h-35.04l.84-6.71z"/></g><g opacity=".1"><path d="M311.85 405.42h93.78l-10.27-64.83h-93.78l10.27 64.83z"/><path d="M361.16 333.88h33.14l1.06 6.71h-35.04l.84-6.71z"/></g><g class="P"><path d="M311.8 405.42h93.79l7.23-59.45h-93.78l-7.24 59.45z"/><path d="M380.43 339.81h33.14l-.75 6.16h-35.04l2.65-6.16z"/></g><path d="M57.58 405.24c2.27.74 68.71.14 71.16-1.45.94-.59-4-63.58-4-63.58l-42.27.28 4.4 42.15S62.24 393.94 59.74 396s-4.43 8.51-2.16 9.24z" class="U"/><path d="M57.58 405.24c2.26.74 68.71.14 71.15-1.45.3-.18.47-6.57-.48-14.9-12.07 1.86-55.15 7.93-58.47 5.92-2.32-1.41-.23-3.53 1.7-4.94C66 392.53 60.8 395.1 59.74 396c-2.49 2-4.42 8.51-2.16 9.24z" class="P"/><path d="M90.08,405.42c18.15-.23,37.37-.79,38.66-1.64.29-.17.46-6.56-.5-14.9-4,.63-11.45,1.71-19.72,2.81Z" opacity=".1" fill="#020100"/><path d="M83.6 372.5h46.58l-8.4-101.08c.46-2.43 3.21-13.44 6.87-27.83l3.67-14.33 10.64-41.2 8.91-34.26H112.4L102 187.36C92.55 218.2 79.93 260.64 78.68 271c-2.02 16.62 4.92 101.5 4.92 101.5z" class="T"/><g class="S"><path d="M85.66 364.56c7.12-.15 5.07-.21 12.19-.28 3.48 0 26.36-.23 29.61.31a.07.07 0 0 1 0 .14c-3.25.54-26.13.34-29.61.31l-12.19-.28a.1.1 0 0 1 0-.2zM113 264.78c1.53-6.74 3.81-13.34 5.8-19.95q6.06-20.15 12.18-40.26 3.06-10.06 6.15-20.12 1.56-5.07 3.14-10.15c1-3.3 2.22-6.58 3.15-9.92.38-1.35.59-.61.1 1.11l-3 10.42q-3 10.31-6.06 20.58-6.01 20.51-12.17 40.91-3.08 10.24-6.17 20.5a82.63 82.63 0 0 0-2.51 9.91 45.43 45.43 0 0 0-.42 10.61c.45 7.13 1.28 14.25 1.94 21.36l2 21.37 3.3 32.93.45 5.39c.05.6-.86.56-.92 0l-3.42-32.52-3.96-41.95c-.33-3.5-.7-7-.7-10.55a43.77 43.77 0 0 1 1.12-9.67z"/><path d="M116.88 153.8l11.77 89.79 23.22-89.79z"/></g><path d="M103.72 406c2.27.74 68.71.13 71.16-1.45.94-.59-1-63.58-1-63.58l-42.27.27 1.39 42.17s-24.65 11.31-27.16 13.34-4.38 8.54-2.12 9.25z" class="U"/><path d="M103.72 406c2.27.73 68.71.13 71.16-1.46.29-.18.3-6.4.18-14.9-12.07 1.87-55.82 7.93-59.14 5.92-2.32-1.4-.23-3.52 1.7-4.94-5.52 2.67-10.67 5.24-11.74 6.11-2.49 2.04-4.42 8.56-2.16 9.27z" class="P"/><path d="M113.67 153.8s.91 18.88 5.24 33.84a52.89 52.89 0 0 0 1.13 3.62 70.78 70.78 0 0 1 11.37 5.85l.91 32.15c.51 18.94-2.43 40.08-2.54 44.56-.39 16.77 1.65 98.5 1.65 98.5l46.57.18-7.91-98.63c.09-9.88-3.39-78.57-2.8-80.11 7.5-19.61-2.41-40-2.41-40z" class="T"/><g class="S"><path d="M133 364c7.11-.12 5.07-.18 12.18-.22 3.48 0 26.36-.12 29.61.43a.08.08 0 0 1 0 .15c-3.25.52-26.13.22-29.61.18l-12.19-.33a.11.11 0 0 1 .01-.21zm-14.9-173.86a85.56 85.56 0 0 1 13.31 7 .16.16 0 0 1-.14.28c-4.49-2.19-9.08-4.29-13.44-6.72a.311.311 0 0 1 .27-.56z"/><path d="M125.11 183.8q-.21-3.2-.49-6.38c-.43-4.85-.93-9.72-1.78-14.52-.07-.38-.6-.24-.57.12l1.11 11.3c.35 3.76.81 7.52.87 11.27 0 1.13 0 3-1.44 3.36-1.86.42-2.74-2-3.19-3.37a62.1 62.1 0 0 1-2.34-10.27c-.61-3.95-.94-8-1.32-11.94 0-.14-.25-.12-.25 0 0 7.91.09 16.17 3 23.63.57 1.46 1.58 2.93 3.27 3.13h.08a.34.34 0 0 0 0 .14c0 .22.09.44.13.66s.07.37.11.55c.08.39.14.77.23 1.16a.29.29 0 0 0 .57-.07.25.25 0 0 0 .17-.23 6.41 6.41 0 0 0-.51-2.24 2.78 2.78 0 0 0 2-1.72c.68-1.38.45-3.07.35-4.58zm37.46 9.96a87.88 87.88 0 0 1 2-9.72c1.72-7.23.56-17.07-1.3-24.14-.05-.18.26-.25.32-.07 1.86 6 3.21 14.72 2.48 21-.34 3-2.76 12.13-2.68 15.4.15 6.43-.36 61.26.07 83.64.28 14.69 3.33 64 3.79 78.64 0 .14-.22.13-.23 0-1.7-26.19-3.92-52.94-4.27-78.59l-.18-86.16zm-22.99-32.25l.63 6.75a9 9 0 0 0 2.51 5.46 13.36 13.36 0 0 0 5.25 3c2.56.77 10.34.79 13 .41.67-.1.61.41-.65.69a79.29 79.29 0 0 1-8.59.63 18.37 18.37 0 0 1-4.19-.3 11.65 11.65 0 0 1-6.07-3.16 9.71 9.71 0 0 1-2.5-6.12 36.86 36.86 0 0 1 .28-7.35c.01-.19.32-.19.33-.01zm27.72-87.42l2.11 11c.37 2.26.6 4.5.76 6.76a14.43 14.43 0 0 1-2.17 2.54c0-.58-.08-1.15-.12-1.71-.18-2.7-.59-5.35-1-8 0-.09-.13 0-.12 0 .36 2.76.52 5.57.66 8.35l.05 1.82a20.34 20.34 0 0 1-2.5 1.78l-.07-2-.28-4.6a87 87 0 0 0-1.26-9c0-.13-.17-.07-.16 0l.94 9.3.23 4.42v2.13a32 32 0 0 1-5 2.27c-4.94 1.76-10.41 1.67-15.53.89a27 27 0 0 1-12.45-5.22 29.65 29.65 0 0 0 2.4-7.66c0-.09-.08-.12-.11 0q-.81 2.55-1.81 5c-.31.77-.66 1.52-1 2.27l-.17-.13c-.36-.3-.74-.62-1.11-1a47.74 47.74 0 0 0 1.69-4.79 43.79 43.79 0 0 0 1.64-7c0-.16-.16-.22-.21-.07l-2 6.74c-.5 1.57-1.09 3.11-1.62 4.67a6.21 6.21 0 0 1-2.09-4.09 12.28 12.28 0 0 1 .93-4 44.7 44.7 0 0 0 1.24-4.43 50 50 0 0 0 1.24-9.47c.1-3-.24-5.94-.09-8.91a11.11 11.11 0 0 1 2.33-6.75 10.52 10.52 0 0 1 4.7-3.12c0-.08 8.36-9.17 20.07-4.45 9.56 3.85 15 34 15 37a12.64 12.64 0 0 1-1.65 6.34c-.15-1.91-.43-3.81-.73-5.65-.63-3.82-1.59-7.53-2.57-11.25-.04-.15-.19-.07-.17.02z"/></g><path d="M145.53 100.05c-17.84 15.78-37.5 26.5-44.83 23.63S77.18 94 76.42 85.93c-.33-3.5 19.67-17.59 21.67-14.41 2.36 3.73 11.41 26 13 27.63 1.18 1.18 17.8-5.81 30.44-9.63 8.11-2.43 13.4 2.2 4 10.53z" class="U"/><path d="M129.59 114.7L127 93.85a158.66 158.66 0 0 1 15.62-5.11c7.61-1.75 11.65.65 6 8.41-3.75 5.19-19.03 17.55-19.03 17.55z" class="P"/><path d="M129.05 93.07a7.66 7.66 0 0 0-.29 1.6 7.83 7.83 0 0 0 1-1.86zm18.32 4.81a9.08 9.08 0 0 0-1.37-2.12 8.75 8.75 0 0 0 .74 2.39l.39.76a6 6 0 0 0 .43-.48c-.04-.19-.12-.37-.19-.55z" class="R"/><path d="M131.3 112.34l-.74-9.16-.59-4.55-.79-4.52a.07.07 0 0 0-.13 0c.27 1.49.35 3 .55 4.56l.56 4.55 1 9.11c.02.12.15.09.14.01z" class="S"/><path d="M148.63 97.15c-3.76 5.19-19 17.55-19 17.55l-1.84-14.57 22.56-11c1.52 1.29 1.26 3.87-1.72 8.02z" opacity=".1" fill="#020100"/><g class="U"><path d="M67,75.17C69.35,80.25,78.17,88.77,81.09,90S99,76.73,98.65,73.49,89.13,53.76,84,51.2,64.61,69.9,67,75.17Z"/><path d="M97.58 70.41A46.49 46.49 0 0 1 98.9 57c1.48-5.18 4.26-12.7 1.51-13.6-5.66-1.85-12.59 16.91-12.59 16.91s-1.73 8.76 3.71 11.09a5.86 5.86 0 0 0 6.05-.99z"/><path d="M91.08 56.72c-.34 2.94-3.61.86-3.61.86s4 4.13 2.47 7-5.34.14-5.62 0c.21.22 3.77 4.12 2 6.87s-5.33-.47-5.55-.68c.13.27 1.82 3.87 0 5.64-3.21 3.06-7.78-6-11.22-7l-2.44 5.8s-4.52-8.56-2.94-13.14a3.1 3.1 0 0 1 3.25-2.11s-1.76-2.59-.39-4.81c.71-1.13 3.15-1 3.15-1a3.85 3.85 0 0 1 0-4c1.06-1.52 3.35-1.16 3.35-1.16s-.32-2.65 1.27-3.84c3.14-2.49 16.99 5.27 16.28 11.57z"/></g><g class="S"><path d="M73.83 48.91a0 0 0 1 1 0-.08 27.59 27.59 0 0 1 13.8 8.84c.11.14-.07.38-.22.25a56.47 56.47 0 0 0-13.58-9.01zM70 54c-.06 0 0-.12 0-.1a25.79 25.79 0 0 1 14.54 10.61c.11.18 0 .46-.11.26C82 61.39 74.71 56.15 70 54zm10.82 17.19c-3.37-5-8-8.4-13.26-11.22-.07 0 0-.13 0-.11 3 .67 6.12 2.82 8.44 4.7a15.79 15.79 0 0 1 5 6.51c0 .1-.1.22-.18.12z"/><path d="M87.57 57.57c.13.17-.26.18-.13.35.53.72 3.38 5.32 2.12 6.77-1 1.17-3.29.61-4.08.06l-2-1.4 1.37 2a9.94 9.94 0 0 1 1.39 2.9 3.53 3.53 0 0 1-.23 2.9 2 2 0 0 1-2.37.94 6.05 6.05 0 0 1-2.58-1.68l-2-2L80.29 71a9.35 9.35 0 0 1 .71 2.21 3.77 3.77 0 0 1-.15 2.22 1.82 1.82 0 0 1-1.57 1.11 4.09 4.09 0 0 1-2.11-.83 31.91 31.91 0 0 1-3.75-3.28l-1.86-1.72a6 6 0 0 0-2.13-1.34 6.56 6.56 0 0 1 2 1.51l1.72 1.85a26.68 26.68 0 0 0 3.65 3.55 4.73 4.73 0 0 0 2.5 1.07 2.6 2.6 0 0 0 2.39-1.55 4.81 4.81 0 0 0 .25-2.74 10 10 0 0 0-.79-2.54l-.79.54a7.18 7.18 0 0 0 3 2 3 3 0 0 0 2-.1 3.33 3.33 0 0 0 1.47-1.3 4.48 4.48 0 0 0 .3-3.67 10.77 10.77 0 0 0-1.58-3.16l-.61.6c1 .67 3.5 1.57 5.3 0 2.06-2.43-1.89-7.07-2.67-7.86z"/><path d="M87.47 57.58a6.29 6.29 0 0 0 1.77.39 1.38 1.38 0 0 0 1.26-.59 2.86 2.86 0 0 0 .27-1.57q-.06-.9-.21-1.86a4.72 4.72 0 0 1 .85 1.76 2.77 2.77 0 0 1-.21 2.11 2 2 0 0 1-.92.74 2.15 2.15 0 0 1-1.12 0 3.17 3.17 0 0 1-1.69-.98z"/></g><path d="M122.36 127.11L110.5 157l56.38.77s8.34-48.46-4.95-64.73c-6.65-8.15-12.45-7.68-18.1-2.6-1.42 1.28-20.27 15.63-22.44 23.64a20.4 20.4 0 0 0 .97 13.03z" class="P"/><path d="M131.78 125.64a54.46 54.46 0 0 1 8 1.39l3.87 1.18 1.92.6a8.17 8.17 0 0 0 2.07.41c.06 0 .06.1 0 .1a16.7 16.7 0 0 1-2 0 15.05 15.05 0 0 1-1.89-.38l-4-1.09-8.06-1.94c-.07-.08-.04-.29.09-.27zm-6.71 2.36a60.12 60.12 0 0 1 6.71-.26c1.13 0 2.24.11 3.35.23l1.6.19 1.74.31c.06 0 .06.11 0 .1h-1.67l-1.68-.06c-1.12 0-2.23-.06-3.35-.11l-6.71-.18c-.12-.06-.06-.22.01-.22z" class="S"/><path d="M144.88 119.75a8.69 8.69 0 0 0-2.43-.56 8.16 8.16 0 0 0 2.2 1.16 8.54 8.54 0 0 0 2.42.56 8.87 8.87 0 0 0-2.19-1.16zm11.22 30.53a9 9 0 0 0-2.44-.55 8.67 8.67 0 0 0 2.21 1.16 8.81 8.81 0 0 0 2.42.56 8.59 8.59 0 0 0-2.19-1.17zm-29.68-44l-.19.22a4.34 4.34 0 0 0 .63.07c-.15-.15-.29-.24-.44-.33zm6.54 44a8.8 8.8 0 0 0-2.42-.55 8.45 8.45 0 0 0 2.2 1.16 8.89 8.89 0 0 0 2.42.56 8.48 8.48 0 0 0-2.16-1.17zm30-49a8.89 8.89 0 0 0-2.42-.56 9.39 9.39 0 0 0 4.63 1.72 8.67 8.67 0 0 0-2.17-1.2zm-8.33-14c-.16.32-.29.66-.43 1a8.94 8.94 0 0 0-.54 2.43 8.72 8.72 0 0 0 1.15-2.2 8.06 8.06 0 0 0 .31-1 2.92 2.92 0 0 0-.46-.25zm-9.91 53.19a9 9 0 0 0-.55 2.44 8.67 8.67 0 0 0 1.16-2.21 8.89 8.89 0 0 0 .56-2.42 8.91 8.91 0 0 0-1.14 2.17zm10.86-28.13a9 9 0 0 0-.56 2.43 8.81 8.81 0 0 0 1.17-2.2 9.26 9.26 0 0 0 .56-2.43 8.8 8.8 0 0 0-1.14 2.18zm-34.89 44.86h.5a7.45 7.45 0 0 0 .15-1.07 7.36 7.36 0 0 0-.65 1.07zm43.23-17a9 9 0 0 0-2.11 1.32 9.6 9.6 0 0 0 4.48-2.06 8.61 8.61 0 0 0-2.37.77zm-31.43-4.71a8.61 8.61 0 0 0-2.1 1.32 9.33 9.33 0 0 0 2.37-.73 9 9 0 0 0 2.11-1.33 8.68 8.68 0 0 0-2.38.77zm6.76-27.23a9 9 0 0 0-2.11 1.32 8.56 8.56 0 0 0 2.38-.73 8.66 8.66 0 0 0 2.11-1.32 9 9 0 0 0-2.38.76zm6.06 47.92a6.54 6.54 0 0 0 .36 1.4h.6a7 7 0 0 0-.96-1.37zm-26.25-13.06a8.88 8.88 0 0 0-1.31-2.1 9.32 9.32 0 0 0 2 4.48 9 9 0 0 0-.69-2.35zm10.85-21.85a9 9 0 0 0-1.32-2.11 9.28 9.28 0 0 0 .73 2.38 9 9 0 0 0 1.32 2.11 8.66 8.66 0 0 0-.73-2.35zm26 7.36a8.72 8.72 0 0 0-1.32-2.1 8.39 8.39 0 0 0 .74 2.37 8.86 8.86 0 0 0 1.32 2.11 8.35 8.35 0 0 0-.76-2.35zm-8.52-30.78a9.08 9.08 0 0 0-1.39-2.09 9.58 9.58 0 0 0 2.06 4.49 8.6 8.6 0 0 0-.69-2.37z" class="R"/><path d="M170.35 100.19c10 12.13 20.88 33.89 17.69 45-3.07 10.71-50.72 9.19-58.79 8-3.48-.49.47-24.57 4.23-24.31 6.19.43 31.56-1.72 32-1.72 0 0-3.88-11.43-6.78-23.83-3.91-16.81 4.6-11.72 11.65-3.14z" class="U"/><path d="M165.26 127a22.31 22.31 0 0 1 5.55 2.2 20.55 20.55 0 0 1 4.8 3.54l-5.16-2.88-5.19-2.86z" class="S"/><path d="M119.87 140.81h61.5v2.76h-61.5z" class="V"/><path d="M119.87 140.81h30.95v2.76h-30.95z" class="X"/><path d="M147.49 143.57H87.56l-7.84-40.71h59.94l7.83 40.71z" class="V"/><path d="M117.25 123.22a3.28 3.28 0 0 1-3.32 3.64 4.05 4.05 0 0 1-4-3.64 3.28 3.28 0 0 1 3.33-3.65 4.05 4.05 0 0 1 3.99 3.65z" class="R"/><g class="U"><path d="M140.49,145.82c-4.06,2-9,7.06-12.38,7.54a3.86,3.86,0,0,1-4.14-2.05s-1.6,3.38-4.7,3.32c-1.6,0-3-2.62-3-2.62s-1.39,2.66-4.15,2.43c-2.2-.18-3.22-2.74-3.22-2.74s-2.53,1.92-4.71,1c-4.42-1.83-4.86-20.75,2.05-23.84,3.21-1.44,3.07,3.19,3.07,3.19s1.81-6.6,5.71-6.79,3.35,5.81,3.35,5.81,1.82-6.39,5.88-6.18c4.23.22,2.65,6.13,2.65,6.13s2.75-4.27,5.83-3.4c5.07,1.44-1,11.13.06,15.27l6.76.2Z"/><path d="M134.63,149.34c4-1.6,5.82,1.28,10,.87,4.61-.47,3.28-5.9-4.76-7.1l-7-.2Z"/></g><path d="M108.73 151.32a.05.05 0 0 1-.1 0 32.83 32.83 0 0 1 .71-19.52c.07-.2.43-.16.39.07a67 67 0 0 0-1 19.45zm7.55.78c0 .08-.11.09-.13 0-1.68-6.38-1.37-14.61 2.1-21.24.11-.23.45-.31.33 0-1.97 4.55-2.96 15.14-2.3 21.24zm11.07-21.46c-3.08 6.48-3.77 13.3-3.47 20.41 0 .09-.12.09-.15 0-1.09-3.44-.81-8-.29-11.51a18.91 18.91 0 0 1 3.69-9c.08-.12.29-.04.22.1zm1.5 22.55a14.31 14.31 0 0 0 3.38-1.82l3.15-2.27a3.55 3.55 0 0 1 .94-.44 3 3 0 0 1 1.05 0 19 19 0 0 1 1.91.43 26.5 26.5 0 0 0 3.72.91c1.21.14 2.55.12 3.34-.67a2.31 2.31 0 0 0 .63-1.5 2.34 2.34 0 0 0-.63-1.54 8.48 8.48 0 0 0-3.07-2.08 12.28 12.28 0 0 0-3.67-1.06 10.89 10.89 0 0 1 3.82.69 8.73 8.73 0 0 1 3.39 2 2.8 2.8 0 0 1 0 3.94 3.23 3.23 0 0 1-1.92.93 7.17 7.17 0 0 1-2 0 27.38 27.38 0 0 1-3.8-.93l-1.83-.53a2.65 2.65 0 0 0-.86-.08 3.37 3.37 0 0 0-.82.35c-2.11 1.29-4.2 3.01-6.73 3.67z" class="S"/><path d="M182.17 114.06l-21.72.78a164.12 164.12 0 0 1-3.83-16.56c-1.1-8 1.61-10.29 9.09-3.79 5 4.34 16.46 19.57 16.46 19.57z" class="P"/><path d="M173.43 112.43a12.23 12.23 0 0 1-4.88-2.18 10.13 10.13 0 0 1 2.57.81 10.42 10.42 0 0 1 2.31 1.37zm-5.27-15.53a10.8 10.8 0 0 0-2.28.62 10.65 10.65 0 0 0-2.39 1.24 10.54 10.54 0 0 0 2.61-.67 10.43 10.43 0 0 0 2.16-1.09z" class="R"/><path d="M162.6 114.78a16.88 16.88 0 0 0-2.13 0l-1-3.74-.53-1.85-.59-2.06c0-.09-.15-.07-.13 0l.45 2.09q.15.74.33 1.47l-.18-.35-1-1.87c0-.08-.16 0-.12.06l.84 1.94a10.14 10.14 0 0 0 .73 1.43l.72 3.27a17.85 17.85 0 0 0 2.55-.33s.09-.06.06-.06zm17.29-2.7l-9.5-.08c-1.58 0-7.89.53-9.47.59-.08 0-.07.13 0 .14 1.95.1 8.22-.11 9.8-.15l9.17-.37c.11 0 .11-.13 0-.13z" class="S"/><path d="M156.8 93c-.52.94-7.19 6.12-11.74 4.6-1.48-.5.88-8.7.88-8.7v-.65l.51-9 11.8-3.58 1.68-.44-.71 5.53c0 .14 0 .28-.05.43s0 .34-.06.5L159 83c-.05.35-.1.69-.17 1.06s-.12.74-.17 1.11A57.54 57.54 0 0 1 156.8 93z" class="U"/><path d="M160 75.15l-.71 5.53c0 .14 0 .28-.05.43s0 .34-.06.5L159 83l-.17 1.07-.17 1.11-.67 3.38c-6.64 0-10.67-4.74-11.66-6l.19-3.35 11.8-3.57z" class="S"/><path d="M168 66.65c1.21 15.84-8.14 18.35-11.56 18.61-3.1.23-13.68.64-16.52-15s4.14-21.19 11.2-22.1 15.7 2.66 16.88 18.49z" class="U"/><g class="S"><path d="M164.59 62.89a10.41 10.41 0 0 1-1.1-.16 1.72 1.72 0 0 1-1.08-.37.57.57 0 0 1 0-.7 1.41 1.41 0 0 1 1.37-.42 2.06 2.06 0 0 1 1.35.65.61.61 0 0 1-.54 1zM154 64.7a9.85 9.85 0 0 0 1.07-.27 1.8 1.8 0 0 0 1-.48.57.57 0 0 0 0-.7 1.41 1.41 0 0 0-1.4-.27 2.08 2.08 0 0 0-1.27.78.61.61 0 0 0 .6.94zm2.66 2.83s-.08 0-.08.1c.11 1.09 0 2.35-.92 2.77v.06c1.2-.24 1.27-1.92 1-2.93z"/><path d="M155.62 66.45c-1.76 0-1.68 3.5-.05 3.52s1.52-3.5.05-3.52z"/><path d="M154.93 66.65c-.3.21-.6.57-1 .62s-.76-.31-1.05-.66c0 .68.28 1.36 1 1.45s1.12-.54 1.28-1.22c0-.09-.11-.27-.23-.19zm8.07.1s.09 0 .09.09c0 1.09.21 2.34 1.21 2.66v.06c-1.3-.11-1.5-1.77-1.3-2.81z"/><path d="M163.88 65.57c1.75-.21 2 3.3.42 3.49s-1.88-3.31-.42-3.49z"/><path d="M164.63 65.74c.3.16.6.48.93.47s.64-.41.86-.79h.05c.08.67-.09 1.39-.72 1.57s-1.06-.37-1.27-1c-.04-.12.04-.31.15-.25zM156.58 76c.25.26.51.61.9.65a3 3 0 0 0 1.18-.24 0 0 0 0 1 .05 0 1.52 1.52 0 0 1-1.4.57 1.17 1.17 0 0 1-.84-1c-.01.02.07.02.11.02zm4.91-4.27l.31 2.39a4.12 4.12 0 0 1-4.09-1.1c-.06-.06 0-.15.11-.11a5.58 5.58 0 0 0 3.39.84c0-.21-.58-2.77-.46-2.78a6.61 6.61 0 0 1 1.76.33c-.49-3.41-1.53-6.71-2-10.11a.1.1 0 0 1 .2 0 55.76 55.76 0 0 1 2.59 10.79c.11.39-1.5-.13-1.81-.25zm-20.58.15c3 .29 3.6-6.66 3.6-6.66s12.81-2.58 13.58-13.09a17.75 17.75 0 0 0 9.24 9.43s-.8-11.48-10-13.44c0 0-11.43-3.77-17.51 5.4s-.95 18.16 1.09 18.36z"/><path d="M158.11 51.35a11.35 11.35 0 0 1-.43 4.8 11.8 11.8 0 0 1-3.14 5.21l-.44.43c-.15.14-.32.26-.48.39l-1 .74-1 .61-.54.29-.56.24-1.12.47-2.33.63 2.2-1 1-.55.52-.27.49-.33 1-.66c.35-.21.6-.5.9-.74l.45-.38.4-.42a10.73 10.73 0 0 0 .79-.86 13.56 13.56 0 0 0 2.33-4 14.61 14.61 0 0 0 .65-2.26 13.26 13.26 0 0 0 .31-2.34z"/></g><path d="M142.56,71.29s-3.42-5-5.68-3.78.27,8.43,2.9,9.44a2.7,2.7,0,0,0,3.62-1.41Z" class="U"/><path d="M137.66 69.56v.07c1.85.77 2.81 2.5 3.47 4.29a1.48 1.48 0 0 0-2.21-.43c-.05 0 0 .11 0 .1a1.66 1.66 0 0 1 1.82.59 7.77 7.77 0 0 1 .85 1.48c.09.17.39.08.33-.11h0c.08-2.4-1.73-5.72-4.26-5.99z" class="S"/><defs ><path id="B" d="M291.76 71.73A16.43 16.43 0 0 0 307 88.11h0 93a19.3 19.3 0 0 0 1.81-38.52 32.53 32.53 0 0 0-63-10.17 19.05 19.05 0 0 0-8.63-2 19.29 19.29 0 0 0-19.26 18.11 15.69 15.69 0 0 0-2.67-.22 16.43 16.43 0 0 0-16.49 16.42z"/><path id="C" d="M349 102.81a2 2 0 1 1-2-2 2 2 0 0 1 2 2z"/><path id="D" d="M202.32 373.54h103.47v23.89H202.32z"/><path id="E" d="M206.68 377.49h58.89v2.02h-58.89z"/><path id="F" d="M211.97 181.27h52.47v5.27h-52.47z"/><path id="G" d="M277.22 183.9a2.78 2.78 0 1 1-2.78-2.78 2.77 2.77 0 0 1 2.78 2.78z"/><path id="H" d="M298.5 183.9a2.78 2.78 0 1 1-2.77-2.78 2.77 2.77 0 0 1 2.77 2.78z"/><path id="I" d="M277.22 212.7a2.78 2.78 0 1 1-2.78-2.78 2.78 2.78 0 0 1 2.78 2.78z"/><path id="J" d="M277.22 327.89a2.78 2.78 0 1 1-2.78-2.77 2.77 2.77 0 0 1 2.78 2.77z"/></defs></svg>